0
SECTION
2
HEADER
9
$INSUNITS
70
4
9
$ACADVER
1
AC1014
9
$HANDSEED
5
FFFF
0
ENDSEC
0
SECTION
2
TABLES
0
TABLE
2
VPORT
5
8
100
AcDbSymbolTable
0
ENDTAB
0
TABLE
2
LTYPE
5
5
100
AcDbSymbolTable
0
LTYPE
5
14
100
AcDbSymbolTableRecord
100
AcDbLinetypeTableRecord
2
BYBLOCK
70
0
0
LTYPE
5
15
100
AcDbSymbolTableRecord
100
AcDbLinetypeTableRecord
2
BYLAYER
70
0
0
LTYPE
5
16
100
AcDbSymbolTableRecord
100
AcDbLinetypeTableRecord
2
DASHED
70
0
3
Dashed __ __ __ __ __ __ __ __ __ __ __ __ __ _
72
65
73
2
40
0.75
49
0.5
74
0
49
-0.25
74
0
0
ENDTAB
0
TABLE
2
LAYER
5
2
100
AcDbSymbolTable
70
3
0
LAYER
5
50
100
AcDbSymbolTableRecord
100
AcDbLayerTableRecord
2
1
70
0
62
7
6
DASHED
0
LAYER
5
51
100
AcDbSymbolTableRecord
100
AcDbLayerTableRecord
2
0
70
0
62
7
6
CONTINUOUS
0
ENDTAB
0
TABLE
2
STYLE
5
3
100
AcDbSymbolTable
70
1
0
STYLE
5
11
100
AcDbSymbolTableRecord
100
AcDbTextStyleTableRecord
2
STANDARD
70
0
0
ENDTAB
0
TABLE
2
VIEW
5
6
100
AcDbSymbolTable
70
0
0
ENDTAB
0
TABLE
2
UCS
5
7
100
AcDbSymbolTable
70
0
0
ENDTAB
0
TABLE
2
APPID
5
9
100
AcDbSymbolTable
70
2
0
APPID
5
12
100
AcDbSymbolTableRecord
100
AcDbRegAppTableRecord
2
ACAD
70
0
0
ENDTAB
0
TABLE
2
DIMSTYLE
5
A
100
AcDbSymbolTable
70
1
0
ENDTAB
0
TABLE
2
BLOCK_RECORD
5
1
100
AcDbSymbolTable
70
1
0
BLOCK_RECORD
5
1F
100
AcDbSymbolTableRecord
100
AcDbBlockTableRecord
2
*MODEL_SPACE
0
BLOCK_RECORD
5
1B
100
AcDbSymbolTableRecord
100
AcDbBlockTableRecord
2
*PAPER_SPACE
0
ENDTAB
0
ENDSEC
0
SECTION
2
BLOCKS
0
BLOCK
5
20
100
AcDbEntity
100
AcDbBlockBegin
2
*MODEL_SPACE
0
ENDBLK
5
21
100
AcDbEntity
100
AcDbBlockEnd
0
BLOCK
5
1C
100
AcDbEntity
100
AcDbBlockBegin
2
*PAPER_SPACE
0
ENDBLK
5
1D
100
AcDbEntity
100
AcDbBlockEnd
0
ENDSEC
0
SECTION
2
ENTITIES
0
LWPOLYLINE
5
100
100
AcDbEntity
8
0
100
AcDbPolyline
90
31
70
1
43
0.0
10
15.08829494020741
20
-2.2302925784748102
42
0.41421356237309215
10
15.51230055871191
20
-2.2154859760078085
10
17.149096622861908
20
-0.46023709212180353
42
0.41421356237310375
10
17.134290020394904
20
-0.036231473617300593
10
13.079025045615875
20
3.7453642936498133
42
-0.29267376391780825
10
12.998720515008955
20
4.0587368277920044
42
0.38139773275188504
10
10.874418604651162
20
8.9442967444081152
42
-0.29267376391780697
10
10.700000000000001
20
9.21674731449788
10
10.699999999999999
20
15.955147230208642
42
0.4142135623730937
10
9.6999999999999975
20
16.955147230208642
10
6.1999999999999993
20
16.955147230208642
42
0.41421356237309503
10
5.1999999999999975
20
15.955147230208642
10
5.1999999999999975
20
11.782626776913974
42
-0.65562872909703707
10
4.6954004919812489
20
11.563220666428222
10
3.3117050597925877
20
12.853537531563921
42
0.41421356237309426
10
2.8876994412880874
20
12.83873092909692
10
1.2509033771380917
20
11.083482045210907
42
0.41421356237309598
10
1.2657099796050939
20
10.659476426706405
10
5.1045995080187465
20
7.0796540274447803
42
-0.20800029913154539
10
5.1999999999999975
20
6.860247916959028
10
5.1999999999999975
20
5.3116224765445548
42
0.064762710268799609
10
5.3330958714741339
20
4.2883666625910637
42
-0.19810427912436973
10
5.3028856829700253
20
4.0616224765445548
10
-0.86602540378443815
20
-6.6232449530891131
42
-0.19810427912437262
10
-1.0472865348090883
20
-6.7627798368100445
42
2.4036357092608309
10
3.866904128525865
20
-9.5999891391356265
42
-0.19810427912437181
10
3.8971143170299722
20
-9.3732449530891149
10
10.06602540378444
20
1.3116224765445537
42
-0.19810427912437298
10
10.247286534809088
20
1.4511573602654844
42
0.030881616148211194
10
10.714819030148483
20
1.6095523386487312
42
-0.29267376391781552
10
11.033029965428376
20
1.5513031887923001
0
LWPOLYLINE
5
101
100
AcDbEntity
8
0
100
AcDbPolyline
90
4
70
1
43
0.0
10
1.3306732521815925
20
-9.0775060696005543
10
-0.63379881605663724
20
-12.56187825022532
42
-1.0000000074505806
10
-1.3306732492543021
20
-12.168983831385557
10
0.63379881605663857
20
-8.6846116559529083
42
-0.99999999999999989
0
LWPOLYLINE
5
102
100
AcDbEntity
8
0
100
AcDbPolyline
90
4
70
1
43
0.0
10
10.296234774577952
20
7.0315844874639923
10
8.8496148276662865
20
3.3023364762427865
42
-0.99999999999999989
10
8.1037652254220447
20
3.5916604656251208
10
9.5503851723337068
20
7.3209084768463208
42
-0.99999999999999989
0
ENDSEC
0
SECTION
2
OBJECTS
0
DICTIONARY
5
C
100
AcDbDictionary
3
ACAD_GROUP
350
D
3
ACAD_MLINESTYLE
350
17
0
DICTIONARY
5
D
100
AcDbDictionary
0
DICTIONARY
5
1A
330
C
100
AcDbDictionary
0
DICTIONARY
5
17
100
AcDbDictionary
0
ENDSEC
0
EOF
