%TF.GenerationSoftware,KiCad,Pcbnew,8.0.4*%
%TF.CreationDate,2025-01-14T23:17:26-08:00*%
%TF.ProjectId,pcb_battery,7063625f-6261-4747-9465-72792e6b6963,rev?*%
%TF.SameCoordinates,Original*%
%TF.FileFunction,Copper,L4,Bot*%
%TF.FilePolarity,Positive*%
%FSLAX46Y46*%
G04 Gerber Fmt 4.6, Leading zero omitted, Abs format (unit mm)*
G04 Created by KiCad (PCBNEW 8.0.4) date 2025-01-14 23:17:26*
%MOMM*%
%LPD*%
G01*
G04 APERTURE LIST*
G04 Aperture macros list*
%AMRoundRect*
0 Rectangle with rounded corners*
0 $1 Rounding radius*
0 $2 $3 $4 $5 $6 $7 $8 $9 X,Y pos of 4 corners*
0 Add a 4 corners polygon primitive as box body*
4,1,4,$2,$3,$4,$5,$6,$7,$8,$9,$2,$3,0*
0 Add four circle primitives for the rounded corners*
1,1,$1+$1,$2,$3*
1,1,$1+$1,$4,$5*
1,1,$1+$1,$6,$7*
1,1,$1+$1,$8,$9*
0 Add four rect primitives between the rounded corners*
20,1,$1+$1,$2,$3,$4,$5,0*
20,1,$1+$1,$4,$5,$6,$7,0*
20,1,$1+$1,$6,$7,$8,$9,0*
20,1,$1+$1,$8,$9,$2,$3,0*%
G04 Aperture macros list end*
%TA.AperFunction,ComponentPad*%
%ADD10O,1.400000X6.600000*%
%TD*%
%TA.AperFunction,ComponentPad*%
%ADD11C,0.800000*%
%TD*%
%TA.AperFunction,ComponentPad*%
%ADD12C,4.300000*%
%TD*%
%TA.AperFunction,SMDPad,CuDef*%
%ADD13RoundRect,0.135000X-0.135000X-0.185000X0.135000X-0.185000X0.135000X0.185000X-0.135000X0.185000X0*%
%TD*%
%TA.AperFunction,SMDPad,CuDef*%
%ADD14RoundRect,0.140000X0.140000X0.170000X-0.140000X0.170000X-0.140000X-0.170000X0.140000X-0.170000X0*%
%TD*%
%TA.AperFunction,SMDPad,CuDef*%
%ADD15RoundRect,0.135000X0.135000X0.185000X-0.135000X0.185000X-0.135000X-0.185000X0.135000X-0.185000X0*%
%TD*%
%TA.AperFunction,SMDPad,CuDef*%
%ADD16RoundRect,0.140000X-0.140000X-0.170000X0.140000X-0.170000X0.140000X0.170000X-0.140000X0.170000X0*%
%TD*%
%TA.AperFunction,ViaPad*%
%ADD17C,0.600000*%
%TD*%
%TA.AperFunction,Conductor*%
%ADD18C,0.300000*%
%TD*%
%TA.AperFunction,Conductor*%
%ADD19C,1.500000*%
%TD*%
%TA.AperFunction,Conductor*%
%ADD20C,0.200000*%
%TD*%
G04 APERTURE END LIST*
D10*
%TO.P,BT4,1,+*%
%TO.N,Net-(BT3---Pad4)*%
X422250000Y-96500000D03*
%TO.P,BT4,2,-*%
%TO.N,Net-(BT4---Pad2)*%
X487500000Y-96500000D03*
%TO.P,BT4,3,+*%
%TO.N,Net-(BT4-+-Pad3)*%
X422250000Y-80600000D03*
%TO.P,BT4,4,-*%
%TO.N,Net-(BT4---Pad4)*%
X487500000Y-80600000D03*
%TD*%
%TO.P,BT2,4,-*%
%TO.N,Net-(BT2---Pad4)*%
X216500000Y-80600000D03*
%TO.P,BT2,3,+*%
%TO.N,Net-(BT2-+-Pad3)*%
X151250000Y-80600000D03*
%TO.P,BT2,2,-*%
%TO.N,Net-(BT2---Pad2)*%
X216500000Y-96500000D03*
%TO.P,BT2,1,+*%
%TO.N,Net-(BT1---Pad4)*%
X151250000Y-96500000D03*
%TD*%
%TO.P,BT5,1,+*%
%TO.N,BATT+*%
X83500000Y-96500000D03*
%TO.P,BT5,2,-*%
%TO.N,Net-(BT1---Pad2)*%
X148750000Y-96500000D03*
%TO.P,BT5,3,+*%
%TO.N,Net-(BT1-+-Pad3)*%
X83500000Y-80600000D03*
%TO.P,BT5,4,-*%
%TO.N,Net-(BT1---Pad4)*%
X148750000Y-80600000D03*
%TD*%
D11*
%TO.P,H1,1,1*%
%TO.N,POUT*%
X9000000Y-91200000D03*
X9374175Y-92300000D03*
X9500000Y-89960000D03*
X10700000Y-89470000D03*
D12*
X10700000Y-91200000D03*
D11*
X10700000Y-92920000D03*
X11900000Y-89970000D03*
X12025825Y-92300000D03*
X12420000Y-91200000D03*
%TD*%
D10*
%TO.P,BT6,1,+*%
%TO.N,Net-(BT1---Pad4)*%
X219000000Y-96500000D03*
%TO.P,BT6,2,-*%
%TO.N,Net-(BT2---Pad2)*%
X284250000Y-96500000D03*
%TO.P,BT6,3,+*%
%TO.N,Net-(BT2-+-Pad3)*%
X219000000Y-80600000D03*
%TO.P,BT6,4,-*%
%TO.N,Net-(BT2---Pad4)*%
X284250000Y-80600000D03*
%TD*%
D11*
%TO.P,H2,1,1*%
%TO.N,PGND*%
X8980000Y-86200000D03*
X9374175Y-85100000D03*
X9374175Y-87300000D03*
X10700000Y-84480000D03*
D12*
X10700000Y-86200000D03*
D11*
X10700000Y-87920000D03*
X11920000Y-87420000D03*
X12025825Y-85100000D03*
X12420000Y-86200000D03*
%TD*%
D10*
%TO.P,BT3,1,+*%
%TO.N,Net-(BT2---Pad4)*%
X286750000Y-96500000D03*
%TO.P,BT3,2,-*%
%TO.N,Net-(BT3---Pad2)*%
X352000000Y-96500000D03*
%TO.P,BT3,3,+*%
%TO.N,Net-(BT3-+-Pad3)*%
X286750000Y-80600000D03*
%TO.P,BT3,4,-*%
%TO.N,Net-(BT3---Pad4)*%
X352000000Y-80600000D03*
%TD*%
%TO.P,BT1,1,+*%
%TO.N,BATT+*%
X15800000Y-96500000D03*
%TO.P,BT1,2,-*%
%TO.N,Net-(BT1---Pad2)*%
X81050000Y-96500000D03*
%TO.P,BT1,3,+*%
%TO.N,Net-(BT1-+-Pad3)*%
X15800000Y-80600000D03*
%TO.P,BT1,4,-*%
%TO.N,Net-(BT1---Pad4)*%
X81050000Y-80600000D03*
%TD*%
%TO.P,BT7,1,+*%
%TO.N,Net-(BT2---Pad4)*%
X354500000Y-96500000D03*
%TO.P,BT7,2,-*%
%TO.N,Net-(BT3---Pad2)*%
X419750000Y-96500000D03*
%TO.P,BT7,3,+*%
%TO.N,Net-(BT3-+-Pad3)*%
X354500000Y-80600000D03*
%TO.P,BT7,4,-*%
%TO.N,Net-(BT3---Pad4)*%
X419750000Y-80600000D03*
%TD*%
D13*
%TO.P,TH2,1*%
%TO.N,/BQ76972/TS3*%
X326800000Y-81990000D03*
%TO.P,TH2,2*%
%TO.N,VSS*%
X327820000Y-81990000D03*
%TD*%
D14*
%TO.P,C21,1*%
%TO.N,VSS*%
X327790000Y-81000000D03*
%TO.P,C21,2*%
%TO.N,/BQ76972/TS3*%
X326830000Y-81000000D03*
%TD*%
D15*
%TO.P,TH1,1*%
%TO.N,/BQ76972/TS5*%
X136725000Y-94625000D03*
%TO.P,TH1,2*%
%TO.N,VSS*%
X135705000Y-94625000D03*
%TD*%
D13*
%TO.P,TH4,1*%
%TO.N,/BQ76972/TS1*%
X459805000Y-82250000D03*
%TO.P,TH4,2*%
%TO.N,VSS*%
X460825000Y-82250000D03*
%TD*%
D16*
%TO.P,C28,1*%
%TO.N,VSS*%
X135740000Y-95650000D03*
%TO.P,C28,2*%
%TO.N,/BQ76972/TS5*%
X136700000Y-95650000D03*
%TD*%
D14*
%TO.P,C20,1*%
%TO.N,VSS*%
X460775000Y-81275000D03*
%TO.P,C20,2*%
%TO.N,/BQ76972/TS1*%
X459815000Y-81275000D03*
%TD*%
D17*
%TO.N,BATT+_FUSED*%
X23600000Y-93100000D03*
X29300000Y-94000000D03*
%TO.N,VSS*%
X37800000Y-91800000D03*
%TO.N,PGND*%
X35700000Y-82800000D03*
X38200000Y-86000000D03*
X37300000Y-86000000D03*
X36500000Y-83600000D03*
X36500000Y-82800000D03*
X37300000Y-82800000D03*
X38100000Y-82800000D03*
X38100000Y-83600000D03*
X37300000Y-83600000D03*
%TO.N,VDD*%
X42000000Y-99000000D03*
%TO.N,/CONTROL/UART_TX_EN*%
X49204999Y-96720899D03*
%TO.N,VSS*%
X46300000Y-89900000D03*
X44594993Y-95850000D03*
%TO.N,/CONTROL/~{UART_RX_EN}*%
X47627947Y-94984102D03*
X51500000Y-99149956D03*
%TO.N,VDD*%
X48250000Y-98850000D03*
%TO.N,VSS*%
X75303388Y-92914159D03*
%TO.N,BATT+*%
X111500000Y-93000000D03*
X87250000Y-98962500D03*
%TO.N,Net-(BT3---Pad4)*%
X486800000Y-89500000D03*
X485400000Y-91100000D03*
X480100000Y-90300000D03*
X480100000Y-89500000D03*
X486100000Y-89900000D03*
X485400000Y-90300000D03*
X480800000Y-89900000D03*
X481500000Y-90300000D03*
X480100000Y-91100000D03*
X486100000Y-90700000D03*
X480800000Y-90700000D03*
X481500000Y-91100000D03*
X481500000Y-89500000D03*
X486800000Y-90300000D03*
X486800000Y-91100000D03*
X485400000Y-89500000D03*
%TO.N,Net-(BT4---Pad4)*%
X486900000Y-86500000D03*
X485500000Y-84500000D03*
X485500000Y-83700000D03*
X140800000Y-87300000D03*
X481000000Y-82800000D03*
X487600000Y-86100000D03*
X141490000Y-86990000D03*
X140810000Y-88760000D03*
X486200000Y-86900000D03*
X485500000Y-82900000D03*
X140100000Y-88400000D03*
X480200000Y-79600000D03*
X487600000Y-85300000D03*
X140800000Y-89500000D03*
X486200000Y-85300000D03*
X486200000Y-82500000D03*
X140100000Y-89100000D03*
X486200000Y-86100000D03*
X486900000Y-84900000D03*
X141500000Y-87700000D03*
X140100000Y-89900000D03*
X140100000Y-87000000D03*
X140800000Y-88000000D03*
X485500000Y-82100000D03*
X140100000Y-87700000D03*
X141500000Y-89900000D03*
X487600000Y-84500000D03*
X487600000Y-86900000D03*
X141510000Y-89170000D03*
X141500000Y-88400000D03*
X486900000Y-85700000D03*
X480200000Y-81200000D03*
X480200000Y-82800000D03*
X486200000Y-83300000D03*
X480200000Y-78800000D03*
X480200000Y-80400000D03*
X486200000Y-84100000D03*
X481000000Y-82000000D03*
X480200000Y-82000000D03*
%TO.N,/BQ76972/SRP*%
X126000000Y-86700000D03*
X116600000Y-82100000D03*
%TO.N,/BQ76972/SRN*%
X126000000Y-87700000D03*
X115733505Y-82800000D03*
%TO.N,Net-(U1-VC14)*%
X92400000Y-87400000D03*
X117866809Y-86850000D03*
%TO.N,Net-(U1-VC16)*%
X94900000Y-98100000D03*
X118800000Y-88900000D03*
%TO.N,Net-(U1-VC12)*%
X113620780Y-84721682D03*
X91600000Y-78200000D03*
%TO.N,Net-(U1-VC8)*%
X162768110Y-89500000D03*
X132239187Y-83758426D03*
%TO.N,Net-(U1-VC7)*%
X157906945Y-79003104D03*
X137000000Y-79550000D03*
%TO.N,Net-(U1-VC6)*%
X135100000Y-79600000D03*
X208200000Y-80800000D03*
%TO.N,Net-(U1-VC5)*%
X328900000Y-88900000D03*
X129613228Y-81499997D03*
%TO.N,Net-(U1-VC4)*%
X293600000Y-83700000D03*
X133700000Y-79500000D03*
%TO.N,Net-(U1-VC3)*%
X132400011Y-79500011D03*
X344200000Y-81100000D03*
%TO.N,Net-(U1-VC2)*%
X128278529Y-79600000D03*
X430325142Y-88150000D03*
%TO.N,Net-(U1-VC1)*%
X431600000Y-80900000D03*
X119545370Y-78679164D03*
%TO.N,POUT*%
X28544975Y-85744975D03*
X103500000Y-90900000D03*
%TO.N,VSS*%
X50340027Y-96629978D03*
X107160000Y-84540000D03*
X126025831Y-89874169D03*
X328600000Y-82500000D03*
X424900000Y-84100000D03*
X124020000Y-87180000D03*
X63100000Y-93900000D03*
X94540000Y-79240000D03*
X94529998Y-81180000D03*
X53781011Y-88141794D03*
X66300000Y-93100000D03*
X68800000Y-92200000D03*
X95774993Y-91800007D03*
X68800000Y-98600000D03*
X112490471Y-86771231D03*
X128700000Y-88300000D03*
X54000000Y-97400000D03*
X52623531Y-94040845D03*
X38500000Y-97900000D03*
X322300000Y-87650000D03*
X107082665Y-85950000D03*
X115820651Y-81485684D03*
X133000000Y-95000000D03*
X63200000Y-98600000D03*
X48900000Y-88500000D03*
X69933577Y-94450000D03*
X118991576Y-79375000D03*
X95775000Y-92725000D03*
%TO.N,Net-(U1-VC0)*%
X139950000Y-82400000D03*
X124000000Y-77650000D03*
X481750000Y-78150000D03*
X116600000Y-81300000D03*
%TO.N,/BQ76972/TS1*%
X114903326Y-82972523D03*
X430000000Y-87300000D03*
%TO.N,/BQ76972/TS3*%
X115000116Y-83849331D03*
X324165981Y-88340325D03*
%TO.N,REG18*%
X112007083Y-81700000D03*
X61322181Y-86964635D03*
X61000000Y-90688123D03*
%TO.N,PGND*%
X129800000Y-88500000D03*
X129830000Y-87750000D03*
X129810000Y-87000000D03*
X131200000Y-87800000D03*
X131200000Y-88500000D03*
X129800000Y-89200000D03*
X130500000Y-88800000D03*
X131200000Y-90000000D03*
X130500000Y-87400000D03*
X131200000Y-87020000D03*
X131200000Y-89200000D03*
X130500000Y-89600000D03*
X130500000Y-88100000D03*
X35700000Y-83600000D03*
X129800000Y-90000000D03*
%TO.N,VDD*%
X69900000Y-96700000D03*
X53128747Y-96490000D03*
X57500002Y-90750002D03*
X62900000Y-95600000D03*
X56400000Y-98600000D03*
%TO.N,/BQ76972/TS5*%
X131905025Y-94994975D03*
X115890945Y-86715249D03*
%TO.N,+3V3*%
X48599992Y-90599992D03*
X73510393Y-91000000D03*
X78085238Y-87900001D03*
X112253020Y-85955068D03*
X107200000Y-80250000D03*
%TO.N,Net-(D6-K)*%
X19449996Y-91949996D03*
X22336880Y-85054635D03*
X26555025Y-85355025D03*
X18000000Y-85750000D03*
%TO.N,Net-(D8-K)*%
X32200000Y-83600000D03*
X26600000Y-82400000D03*
%TO.N,DSG*%
X115325000Y-90200000D03*
X29800000Y-85200000D03*
%TO.N,CD*%
X25000000Y-86800000D03*
X84824693Y-84124695D03*
%TO.N,DFETOFF*%
X61998512Y-87479495D03*
X109600000Y-84050003D03*
%TO.N,RST_SHUT*%
X63800000Y-87858978D03*
X109555000Y-84945000D03*
X62756268Y-90724845D03*
X58000000Y-93991119D03*
%TO.N,SDA*%
X59079998Y-87500017D03*
X98345978Y-79829223D03*
X109412707Y-80692994D03*
%TO.N,SCL*%
X59875000Y-87600004D03*
X98124992Y-80650004D03*
X110000000Y-79900000D03*
%TO.N,CFETOFF*%
X62950625Y-87767332D03*
X109579998Y-83066337D03*
%TO.N,CHG*%
X116500000Y-90900000D03*
X36014007Y-87103958D03*
%TO.N,/CONTROL/LED1*%
X62200000Y-96200000D03*
X43893037Y-94521903D03*
%TO.N,/CONTROL/UART_TX_EN*%
X46737463Y-94629158D03*
X59900544Y-95450000D03*
%TO.N,/CONTROL/~{UART_RX_EN}*%
X60700000Y-96100000D03*
%TO.N,ALERT*%
X60698512Y-87520330D03*
X102170000Y-81540000D03*
%TO.N,/CONTROL/UART_RX*%
X48325882Y-93950932D03*
X57820449Y-96197993D03*
%TO.N,/CONTROL/UART_TX*%
X46231154Y-95311914D03*
X56400000Y-97500000D03*
%TO.N,PGND*%
X37300000Y-85200000D03*
X38200000Y-85200000D03*
%TD*%
D18*
%TO.N,VSS*%
X324050000Y-87650000D02*
X322300000Y-87650000D01*
X326100273Y-85599727D02*
X324050000Y-87650000D01*
X326518389Y-80271977D02*
X326100273Y-80690093D01*
X327261467Y-80271977D02*
X326518389Y-80271977D01*
X327904745Y-80915255D02*
X327261467Y-80271977D01*
X327796166Y-81023834D02*
X327904745Y-80915255D01*
X327796166Y-82003045D02*
X327796166Y-81023834D01*
X326100273Y-80690093D02*
X326100273Y-85599727D01*
X328103045Y-82003045D02*
X327796166Y-82003045D01*
X328600000Y-82500000D02*
X328103045Y-82003045D01*
D19*
%TO.N,BATT+*%
X83870000Y-93716548D02*
X83870000Y-95950000D01*
D18*
%TO.N,VSS*%
X431400000Y-84600000D02*
X425400000Y-84600000D01*
X460800000Y-81250000D02*
X460850000Y-81200000D01*
X434500000Y-81500000D02*
X431400000Y-84600000D01*
X459470000Y-80530000D02*
X458500000Y-81500000D01*
X135740000Y-94615000D02*
X133385000Y-94615000D01*
X425400000Y-84600000D02*
X424900000Y-84100000D01*
X135710000Y-95615000D02*
X135710000Y-94645000D01*
X458500000Y-81500000D02*
X434500000Y-81500000D01*
X460850000Y-81200000D02*
X460180000Y-80530000D01*
X133385000Y-94615000D02*
X133000000Y-95000000D01*
X460180000Y-80530000D02*
X459470000Y-80530000D01*
X460800000Y-82509999D02*
X460800000Y-81250000D01*
D20*
%TO.N,/BQ76972/TS1*%
X459830000Y-81200000D02*
X459830000Y-82190000D01*
X435100000Y-82200000D02*
X430000000Y-87300000D01*
X459840000Y-82200000D02*
X435100000Y-82200000D01*
X459830000Y-82190000D02*
X459840000Y-82200000D01*
%TO.N,/BQ76972/TS3*%
X326836166Y-85670140D02*
X324165981Y-88340325D01*
X326800000Y-81000000D02*
X326800000Y-81966879D01*
X326836166Y-82003045D02*
X326836166Y-85670140D01*
X326800000Y-81966879D02*
X326836166Y-82003045D01*
%TO.N,/BQ76972/TS5*%
X136090000Y-94005000D02*
X132895000Y-94005000D01*
D18*
X136700000Y-94615000D02*
X136700000Y-95585000D01*
D20*
X136700000Y-94615000D02*
X136090000Y-94005000D01*
X132895000Y-94005000D02*
X131905025Y-94994975D01*
%TD*%
%TA.AperFunction,Conductor*%
%TO.N,Net-(BT2---Pad4)*%
G36*
X289548274Y-86995273D02*
G01*
X290775144Y-88000000D01*
X290807584Y-88026566D01*
X285750000Y-88000000D01*
X285513364Y-99831778D01*
X285509233Y-99827011D01*
X285498032Y-99776592D01*
X285440000Y-93190000D01*
X277900756Y-88626773D01*
X277853597Y-88575220D01*
X277840976Y-88518987D01*
X277848110Y-88000001D01*
X277848109Y-88000000D01*
X286400000Y-88000000D01*
X286400000Y-84417041D01*
X289548274Y-86995273D01*
G37*
%TD.AperFunction*%
%TD*%
%TA.AperFunction,Conductor*%
%TO.N,Net-(BT1---Pad4)*%
G36*
X150473813Y-77203331D02*
G01*
X150540851Y-77223019D01*
X150586603Y-77275825D01*
X150596543Y-77344984D01*
X150567515Y-77408538D01*
X150561490Y-77415009D01*
X150550540Y-77425959D01*
X150550535Y-77425965D01*
X150451990Y-77573446D01*
X150451983Y-77573459D01*
X150384106Y-77737332D01*
X150384103Y-77737341D01*
X150349500Y-77911304D01*
X150349500Y-83288695D01*
X150384103Y-83462658D01*
X150384106Y-83462667D01*
X150451983Y-83626540D01*
X150451990Y-83626553D01*
X150550535Y-83774034D01*
X150550538Y-83774038D01*
X150675961Y-83899461D01*
X150675965Y-83899464D01*
X150823446Y-83998009D01*
X150823459Y-83998016D01*
X150946363Y-84048923D01*
X150987334Y-84065894D01*
X150987336Y-84065894D01*
X150987341Y-84065896D01*
X151161304Y-84100499D01*
X151161307Y-84100500D01*
X151161309Y-84100500D01*
X151338693Y-84100500D01*
X151338694Y-84100499D01*
X151396682Y-84088964D01*
X151512658Y-84065896D01*
X151512661Y-84065894D01*
X151512666Y-84065894D01*
X151676547Y-83998013D01*
X151824035Y-83899464D01*
X151949464Y-83774035D01*
X152048013Y-83626547D01*
X152115894Y-83462666D01*
X152150500Y-83288691D01*
X152150500Y-78545975D01*
X152170185Y-78478936D01*
X152222989Y-78433181D01*
X152292147Y-78423237D01*
X152355703Y-78452262D01*
X152387521Y-78494965D01*
X156573459Y-87770031D01*
X150600000Y-87750000D01*
X150028259Y-99899500D01*
X150000000Y-99899500D01*
X150000000Y-92500000D01*
X146950000Y-92500000D01*
X141595000Y-85225000D01*
X141595000Y-77202880D01*
X150473813Y-77203331D01*
G37*
%TD.AperFunction*%
%TD*%
%TA.AperFunction,Conductor*%
%TO.N,Net-(BT3---Pad4)*%
G36*
X420852698Y-77217051D02*
G01*
X420919734Y-77236739D01*
X420965486Y-77289545D01*
X420976678Y-77339364D01*
X421065259Y-83849860D01*
X426256757Y-87111185D01*
X428320047Y-88407354D01*
X422400000Y-88400000D01*
X422400000Y-99899500D01*
X421142827Y-99899500D01*
X421075788Y-99879815D01*
X421030033Y-99827011D01*
X421018827Y-99775500D01*
X421018827Y-92939666D01*
X413697190Y-88200000D01*
X419400000Y-88200000D01*
X419400000Y-77216977D01*
X420852698Y-77217051D01*
G37*
%TD.AperFunction*%
%TD*%
%TA.AperFunction,Conductor*%
%TO.N,Net-(BT1---Pad4)*%
G36*
X210071860Y-87949436D02*
G01*
X210138830Y-87969344D01*
X210180873Y-88015119D01*
X210205899Y-88062083D01*
X210205901Y-88062086D01*
X210251660Y-88114895D01*
X210269242Y-88132839D01*
X210269246Y-88132843D01*
X210269247Y-88132844D01*
X210269249Y-88132845D01*
X210318986Y-88160666D01*
X210349063Y-88177490D01*
X210416102Y-88197175D01*
X210474000Y-88205500D01*
X210474004Y-88205500D01*
X225026000Y-88205500D01*
X225093039Y-88225185D01*
X225138794Y-88277989D01*
X225150000Y-88329500D01*
X225150000Y-99775500D01*
X225130315Y-99842539D01*
X225077511Y-99888294D01*
X225026000Y-99899500D01*
X217273362Y-99899500D01*
X217206323Y-99879815D01*
X217160568Y-99827011D01*
X217150624Y-99757853D01*
X217179649Y-99694297D01*
X217185681Y-99687819D01*
X217199461Y-99674038D01*
X217199464Y-99674035D01*
X217298013Y-99526547D01*
X217365894Y-99362666D01*
X217400500Y-99188691D01*
X217400500Y-93811309D01*
X217400500Y-93811306D01*
X217400499Y-93811304D01*
X217365896Y-93637341D01*
X217365893Y-93637332D01*
X217298016Y-93473459D01*
X217298009Y-93473446D01*
X217199464Y-93325965D01*
X217199461Y-93325961D01*
X217074038Y-93200538D01*
X217074034Y-93200535D01*
X216926553Y-93101990D01*
X216926540Y-93101983D01*
X216762667Y-93034106D01*
X216762658Y-93034103D01*
X216588694Y-92999500D01*
X216588691Y-92999500D01*
X216411309Y-92999500D01*
X216411306Y-92999500D01*
X216237341Y-93034103D01*
X216237332Y-93034106D01*
X216073459Y-93101983D01*
X216073446Y-93101990D01*
X215925965Y-93200535D01*
X215925961Y-93200538D01*
X215800538Y-93325961D01*
X215800535Y-93325965D01*
X215701990Y-93473446D01*
X215701983Y-93473459D01*
X215634106Y-93637332D01*
X215634103Y-93637341D01*
X215599500Y-93811304D01*
X215599500Y-99188695D01*
X215634103Y-99362658D01*
X215634106Y-99362667D01*
X215701983Y-99526540D01*
X215701990Y-99526553D01*
X215800535Y-99674034D01*
X215800538Y-99674038D01*
X215814319Y-99687819D01*
X215847804Y-99749142D01*
X215842820Y-99818834D01*
X215800948Y-99874767D01*
X215735484Y-99899184D01*
X215726638Y-99899500D01*
X150028259Y-99899500D01*
X150517647Y-89500000D01*
X161862650Y-89500000D01*
X161882436Y-89688256D01*
X161882437Y-89688259D01*
X161940928Y-89868277D01*
X161940931Y-89868284D01*
X162035577Y-90032216D01*
X162162239Y-90172888D01*
X162315375Y-90284148D01*
X162315380Y-90284151D01*
X162488302Y-90361142D01*
X162488307Y-90361144D01*
X162673464Y-90400500D01*
X162673465Y-90400500D01*
X162862754Y-90400500D01*
X162862756Y-90400500D01*
X163047913Y-90361144D01*
X163220840Y-90284151D01*
X163373981Y-90172888D01*
X163500643Y-90032216D01*
X163595289Y-89868284D01*
X163653784Y-89688256D01*
X163673570Y-89500000D01*
X163653784Y-89311744D01*
X163595289Y-89131716D01*
X163500643Y-88967784D01*
X163373981Y-88827112D01*
X163373980Y-88827111D01*
X163220844Y-88715851D01*
X163220839Y-88715848D01*
X163047917Y-88638857D01*
X163047912Y-88638855D01*
X162902111Y-88607865D01*
X162862756Y-88599500D01*
X162673464Y-88599500D01*
X162641007Y-88606398D01*
X162488307Y-88638855D01*
X162488302Y-88638857D01*
X162315380Y-88715848D01*
X162315375Y-88715851D01*
X162162239Y-88827111D01*
X162035576Y-88967785D01*
X161940931Y-89131715D01*
X161940928Y-89131722D01*
X161882437Y-89311740D01*
X161882436Y-89311744D01*
X161862650Y-89500000D01*
X150517647Y-89500000D01*
X150600000Y-87750000D01*
X210071860Y-87949436D01*
G37*
%TD.AperFunction*%
%TD*%
%TA.AperFunction,Conductor*%
%TO.N,Net-(BT1---Pad4)*%
G36*
X82727249Y-77199894D02*
G01*
X82794288Y-77219582D01*
X82840040Y-77272388D01*
X82849980Y-77341547D01*
X82820952Y-77405101D01*
X82814927Y-77411573D01*
X82800535Y-77425965D01*
X82701990Y-77573446D01*
X82701983Y-77573459D01*
X82634106Y-77737332D01*
X82634103Y-77737341D01*
X82599500Y-77911304D01*
X82599500Y-83288695D01*
X82634103Y-83462658D01*
X82634106Y-83462667D01*
X82701983Y-83626540D01*
X82701990Y-83626553D01*
X82800535Y-83774034D01*
X82800538Y-83774038D01*
X82925961Y-83899461D01*
X82925965Y-83899464D01*
X83073446Y-83998009D01*
X83073459Y-83998016D01*
X83196363Y-84048923D01*
X83237334Y-84065894D01*
X83237336Y-84065894D01*
X83237341Y-84065896D01*
X83411304Y-84100499D01*
X83411307Y-84100500D01*
X83411309Y-84100500D01*
X83588693Y-84100500D01*
X83588694Y-84100499D01*
X83646682Y-84088964D01*
X83762658Y-84065896D01*
X83762661Y-84065894D01*
X83762666Y-84065894D01*
X83926547Y-83998013D01*
X84074035Y-83899464D01*
X84146281Y-83827217D01*
X84207602Y-83793734D01*
X84277294Y-83798718D01*
X84333228Y-83840589D01*
X84357645Y-83906053D01*
X84346756Y-83966409D01*
X84339528Y-83982235D01*
X84339527Y-83982237D01*
X84319046Y-84124695D01*
X84339527Y-84267151D01*
X84378918Y-84353404D01*
X84399316Y-84398068D01*
X84493565Y-84506838D01*
X84614640Y-84584648D01*
X84614643Y-84584649D01*
X84614642Y-84584649D01*
X84752729Y-84625194D01*
X84752731Y-84625195D01*
X84752732Y-84625195D01*
X84896655Y-84625195D01*
X84896655Y-84625194D01*
X85034746Y-84584648D01*
X85155821Y-84506838D01*
X85250070Y-84398068D01*
X85309858Y-84267152D01*
X85330340Y-84124695D01*
X85309858Y-83982238D01*
X85250070Y-83851322D01*
X85155821Y-83742552D01*
X85034746Y-83664742D01*
X85034744Y-83664741D01*
X85034742Y-83664740D01*
X85034743Y-83664740D01*
X84896656Y-83624195D01*
X84896654Y-83624195D01*
X84752732Y-83624195D01*
X84752729Y-83624195D01*
X84614642Y-83664740D01*
X84494739Y-83741797D01*
X84427699Y-83761481D01*
X84360660Y-83741796D01*
X84314905Y-83688992D01*
X84304962Y-83619833D01*
X84313139Y-83590029D01*
X84321365Y-83570170D01*
X84365894Y-83462666D01*
X84368261Y-83450770D01*
X84400499Y-83288695D01*
X84400500Y-83288693D01*
X84400500Y-81180000D01*
X93624538Y-81180000D01*
X93644324Y-81368256D01*
X93644325Y-81368259D01*
X93702816Y-81548277D01*
X93702819Y-81548284D01*
X93797465Y-81712216D01*
X93924127Y-81852888D01*
X94077263Y-81964148D01*
X94077268Y-81964151D01*
X94250190Y-82041142D01*
X94250195Y-82041144D01*
X94435352Y-82080500D01*
X94435353Y-82080500D01*
X94624642Y-82080500D01*
X94624644Y-82080500D01*
X94809801Y-82041144D01*
X94982728Y-81964151D01*
X95135869Y-81852888D01*
X95262531Y-81712216D01*
X95357177Y-81548284D01*
X95415672Y-81368256D01*
X95435458Y-81180000D01*
X95415672Y-80991744D01*
X95357177Y-80811716D01*
X95263813Y-80650004D01*
X97219532Y-80650004D01*
X97239318Y-80838260D01*
X97239319Y-80838263D01*
X97297810Y-81018281D01*
X97297813Y-81018288D01*
X97392459Y-81182220D01*
X97496193Y-81297428D01*
X97519121Y-81322892D01*
X97672257Y-81434152D01*
X97672262Y-81434155D01*
X97845184Y-81511146D01*
X97845189Y-81511148D01*
X98030346Y-81550504D01*
X98030347Y-81550504D01*
X98219636Y-81550504D01*
X98219638Y-81550504D01*
X98269056Y-81540000D01*
X101264540Y-81540000D01*
X101284326Y-81728256D01*
X101284327Y-81728259D01*
X101342818Y-81908277D01*
X101342821Y-81908284D01*
X101437467Y-82072216D01*
X101557200Y-82205193D01*
X101564129Y-82212888D01*
X101717265Y-82324148D01*
X101717270Y-82324151D01*
X101890192Y-82401142D01*
X101890197Y-82401144D01*
X102075354Y-82440500D01*
X102075355Y-82440500D01*
X102264644Y-82440500D01*
X102264646Y-82440500D01*
X102449803Y-82401144D01*
X102622730Y-82324151D01*
X102775871Y-82212888D01*
X102902533Y-82072216D01*
X102997179Y-81908284D01*
X103055674Y-81728256D01*
X103058644Y-81700000D01*
X111101623Y-81700000D01*
X111121409Y-81888256D01*
X111121410Y-81888259D01*
X111179901Y-82068277D01*
X111179904Y-82068284D01*
X111274550Y-82232216D01*
X111335254Y-82299634D01*
X111401212Y-82372888D01*
X111554348Y-82484148D01*
X111554353Y-82484151D01*
X111727275Y-82561142D01*
X111727280Y-82561144D01*
X111912437Y-82600500D01*
X111912438Y-82600500D01*
X112101727Y-82600500D01*
X112101729Y-82600500D01*
X112286886Y-82561144D01*
X112459813Y-82484151D01*
X112612954Y-82372888D01*
X112739616Y-82232216D01*
X112834262Y-82068284D01*
X112892757Y-81888256D01*
X112912543Y-81700000D01*
X112892757Y-81511744D01*
X112834262Y-81331716D01*
X112739616Y-81167784D01*
X112612954Y-81027112D01*
X112600809Y-81018288D01*
X112459817Y-80915851D01*
X112459812Y-80915848D01*
X112286890Y-80838857D01*
X112286885Y-80838855D01*
X112141084Y-80807865D01*
X112101729Y-80799500D01*
X111912437Y-80799500D01*
X111879980Y-80806398D01*
X111727280Y-80838855D01*
X111727275Y-80838857D01*
X111554353Y-80915848D01*
X111554348Y-80915851D01*
X111401212Y-81027111D01*
X111274549Y-81167785D01*
X111179904Y-81331715D01*
X111179901Y-81331722D01*
X111121410Y-81511740D01*
X111121409Y-81511744D01*
X111101623Y-81700000D01*
X103058644Y-81700000D01*
X103075460Y-81540000D01*
X103055674Y-81351744D01*
X102997179Y-81171716D01*
X102902533Y-81007784D01*
X102775871Y-80867112D01*
X102775870Y-80867111D01*
X102622734Y-80755851D01*
X102622729Y-80755848D01*
X102449807Y-80678857D01*
X102449802Y-80678855D01*
X102303619Y-80647784D01*
X102264646Y-80639500D01*
X102075354Y-80639500D01*
X102042897Y-80646398D01*
X101890197Y-80678855D01*
X101890192Y-80678857D01*
X101717270Y-80755848D01*
X101717265Y-80755851D01*
X101564129Y-80867111D01*
X101437466Y-81007785D01*
X101342821Y-81171715D01*
X101342818Y-81171722D01*
X101284327Y-81351740D01*
X101284326Y-81351744D01*
X101264540Y-81540000D01*
X98269056Y-81540000D01*
X98404795Y-81511148D01*
X98577722Y-81434155D01*
X98730863Y-81322892D01*
X98857525Y-81182220D01*
X98952171Y-81018288D01*
X99010666Y-80838260D01*
X99030452Y-80650004D01*
X99014087Y-80494300D01*
X99026657Y-80425573D01*
X99045256Y-80398370D01*
X99078511Y-80361439D01*
X99142850Y-80250000D01*
X106294540Y-80250000D01*
X106314326Y-80438256D01*
X106314327Y-80438259D01*
X106372818Y-80618277D01*
X106372821Y-80618284D01*
X106467467Y-80782216D01*
X106518467Y-80838857D01*
X106594129Y-80922888D01*
X106747265Y-81034148D01*
X106747270Y-81034151D01*
X106920192Y-81111142D01*
X106920197Y-81111144D01*
X107105354Y-81150500D01*
X107105355Y-81150500D01*
X107294644Y-81150500D01*
X107294646Y-81150500D01*
X107479803Y-81111144D01*
X107652730Y-81034151D01*
X107805871Y-80922888D01*
X107932533Y-80782216D01*
X107984045Y-80692994D01*
X108507247Y-80692994D01*
X108527033Y-80881250D01*
X108527034Y-80881253D01*
X108585525Y-81061271D01*
X108585528Y-81061278D01*
X108680174Y-81225210D01*
X108794106Y-81351744D01*
X108806836Y-81365882D01*
X108959972Y-81477142D01*
X108959977Y-81477145D01*
X109132899Y-81554136D01*
X109132904Y-81554138D01*
X109318061Y-81593494D01*
X109318062Y-81593494D01*
X109507351Y-81593494D01*
X109507353Y-81593494D01*
X109692510Y-81554138D01*
X109865437Y-81477145D01*
X110018578Y-81365882D01*
X110145240Y-81225210D01*
X110239886Y-81061278D01*
X110298381Y-80881250D01*
X110305053Y-80817766D01*
X110331636Y-80753154D01*
X110377932Y-80717453D01*
X110452730Y-80684151D01*
X110605871Y-80572888D01*
X110732533Y-80432216D01*
X110827179Y-80268284D01*
X110885674Y-80088256D01*
X110905460Y-79900000D01*
X110885674Y-79711744D01*
X110827179Y-79531716D01*
X110736699Y-79375000D01*
X118086116Y-79375000D01*
X118105902Y-79563256D01*
X118105903Y-79563259D01*
X118164394Y-79743277D01*
X118164397Y-79743284D01*
X118259043Y-79907216D01*
X118314029Y-79968284D01*
X118385705Y-80047888D01*
X118538841Y-80159148D01*
X118538846Y-80159151D01*
X118711768Y-80236142D01*
X118711773Y-80236144D01*
X118896930Y-80275500D01*
X118896931Y-80275500D01*
X119086220Y-80275500D01*
X119086222Y-80275500D01*
X119271379Y-80236144D01*
X119444306Y-80159151D01*
X119597447Y-80047888D01*
X119724109Y-79907216D01*
X119818755Y-79743284D01*
X119865311Y-79600000D01*
X127373069Y-79600000D01*
X127392855Y-79788256D01*
X127392856Y-79788259D01*
X127451347Y-79968277D01*
X127451349Y-79968281D01*
X127451350Y-79968284D01*
X127545996Y-80132216D01*
X127668506Y-80268277D01*
X127672658Y-80272888D01*
X127825794Y-80384148D01*
X127825799Y-80384151D01*
X127998721Y-80461142D01*
X127998726Y-80461144D01*
X128183883Y-80500500D01*
X128183884Y-80500500D01*
X128373173Y-80500500D01*
X128373175Y-80500500D01*
X128558332Y-80461144D01*
X128731259Y-80384151D01*
X128884400Y-80272888D01*
X129011062Y-80132216D01*
X129105708Y-79968284D01*
X129164203Y-79788256D01*
X129183989Y-79600000D01*
X129173480Y-79500011D01*
X131494551Y-79500011D01*
X131514337Y-79688267D01*
X131514338Y-79688270D01*
X131572829Y-79868288D01*
X131572832Y-79868295D01*
X131667478Y-80032227D01*
X131742291Y-80115315D01*
X131794140Y-80172899D01*
X131947276Y-80284159D01*
X131947281Y-80284162D01*
X132120203Y-80361153D01*
X132120208Y-80361155D01*
X132305365Y-80400511D01*
X132305366Y-80400511D01*
X132494655Y-80400511D01*
X132494657Y-80400511D01*
X132679814Y-80361155D01*
X132852741Y-80284162D01*
X132972012Y-80197507D01*
X132977128Y-80193790D01*
X133042934Y-80170310D01*
X133110988Y-80186135D01*
X133122898Y-80193790D01*
X133247265Y-80284148D01*
X133247270Y-80284151D01*
X133420192Y-80361142D01*
X133420197Y-80361144D01*
X133605354Y-80400500D01*
X133605355Y-80400500D01*
X133794644Y-80400500D01*
X133794646Y-80400500D01*
X133979803Y-80361144D01*
X134152730Y-80284151D01*
X134274922Y-80195373D01*
X134340724Y-80171895D01*
X134408778Y-80187720D01*
X134439951Y-80212718D01*
X134494129Y-80272888D01*
X134527992Y-80297491D01*
X134647265Y-80384148D01*
X134647270Y-80384151D01*
X134820192Y-80461142D01*
X134820197Y-80461144D01*
X135005354Y-80500500D01*
X135005355Y-80500500D01*
X135194644Y-80500500D01*
X135194646Y-80500500D01*
X135379803Y-80461144D01*
X135552730Y-80384151D01*
X135705871Y-80272888D01*
X135832533Y-80132216D01*
X135927179Y-79968284D01*
X135940383Y-79927644D01*
X135979819Y-79869971D01*
X136044177Y-79842771D01*
X136113024Y-79854685D01*
X136164500Y-79901928D01*
X136171591Y-79915521D01*
X136172821Y-79918284D01*
X136267467Y-80082216D01*
X136371276Y-80197507D01*
X136394129Y-80222888D01*
X136547265Y-80334148D01*
X136547270Y-80334151D01*
X136720192Y-80411142D01*
X136720197Y-80411144D01*
X136905354Y-80450500D01*
X136905355Y-80450500D01*
X137094644Y-80450500D01*
X137094646Y-80450500D01*
X137279803Y-80411144D01*
X137452730Y-80334151D01*
X137605871Y-80222888D01*
X137732533Y-80082216D01*
X137827179Y-79918284D01*
X137885674Y-79738256D01*
X137905460Y-79550000D01*
X137885674Y-79361744D01*
X137827179Y-79181716D01*
X137732533Y-79017784D01*
X137605871Y-78877112D01*
X137604507Y-78876121D01*
X137452734Y-78765851D01*
X137452729Y-78765848D01*
X137279807Y-78688857D01*
X137279802Y-78688855D01*
X137134001Y-78657865D01*
X137094646Y-78649500D01*
X136905354Y-78649500D01*
X136872897Y-78656398D01*
X136720197Y-78688855D01*
X136720192Y-78688857D01*
X136547270Y-78765848D01*
X136547265Y-78765851D01*
X136394129Y-78877111D01*
X136267466Y-79017785D01*
X136172821Y-79181715D01*
X136172819Y-79181719D01*
X136159616Y-79222355D01*
X136120177Y-79280030D01*
X136055819Y-79307228D01*
X135986972Y-79295313D01*
X135935497Y-79248068D01*
X135928406Y-79234472D01*
X135927179Y-79231717D01*
X135927179Y-79231716D01*
X135832533Y-79067784D01*
X135705871Y-78927112D01*
X135674919Y-78904624D01*
X135552734Y-78815851D01*
X135552729Y-78815848D01*
X135379807Y-78738857D01*
X135379802Y-78738855D01*
X135233619Y-78707784D01*
X135194646Y-78699500D01*
X135005354Y-78699500D01*
X134972897Y-78706398D01*
X134820197Y-78738855D01*
X134820192Y-78738857D01*
X134647270Y-78815848D01*
X134647265Y-78815851D01*
X134525080Y-78904624D01*
X134459274Y-78928104D01*
X134391220Y-78912278D01*
X134360045Y-78887278D01*
X134305870Y-78827111D01*
X134152734Y-78715851D01*
X134152729Y-78715848D01*
X133979807Y-78638857D01*
X133979802Y-78638855D01*
X133834001Y-78607865D01*
X133794646Y-78599500D01*
X133605354Y-78599500D01*
X133572897Y-78606398D01*
X133420197Y-78638855D01*
X133420192Y-78638857D01*
X133247271Y-78715848D01*
X133122882Y-78806221D01*
X133057075Y-78829700D01*
X132989021Y-78813874D01*
X132977112Y-78806220D01*
X132852745Y-78715862D01*
X132852740Y-78715859D01*
X132679818Y-78638868D01*
X132679813Y-78638866D01*
X132534012Y-78607876D01*
X132494657Y-78599511D01*
X132305365Y-78599511D01*
X132272908Y-78606409D01*
X132120208Y-78638866D01*
X132120203Y-78638868D01*
X131947281Y-78715859D01*
X131947276Y-78715862D01*
X131794140Y-78827122D01*
X131667477Y-78967796D01*
X131572832Y-79131726D01*
X131572829Y-79131733D01*
X131515808Y-79307228D01*
X131514337Y-79311755D01*
X131494551Y-79500011D01*
X129173480Y-79500011D01*
X129164203Y-79411744D01*
X129108400Y-79240000D01*
X129105710Y-79231722D01*
X129105708Y-79231717D01*
X129105708Y-79231716D01*
X129011062Y-79067784D01*
X128884400Y-78927112D01*
X128853448Y-78904624D01*
X128731263Y-78815851D01*
X128731258Y-78815848D01*
X128558336Y-78738857D01*
X128558331Y-78738855D01*
X128412148Y-78707784D01*
X128373175Y-78699500D01*
X128183883Y-78699500D01*
X128151426Y-78706398D01*
X127998726Y-78738855D01*
X127998721Y-78738857D01*
X127825799Y-78815848D01*
X127825794Y-78815851D01*
X127672658Y-78927111D01*
X127545995Y-79067785D01*
X127451350Y-79231715D01*
X127451347Y-79231722D01*
X127400291Y-79388857D01*
X127392855Y-79411744D01*
X127373069Y-79600000D01*
X119865311Y-79600000D01*
X119877250Y-79563256D01*
X119877250Y-79563251D01*
X119877714Y-79561825D01*
X119917151Y-79504149D01*
X119945205Y-79486864D01*
X119998100Y-79463315D01*
X120151241Y-79352052D01*
X120277903Y-79211380D01*
X120372549Y-79047448D01*
X120431044Y-78867420D01*
X120450830Y-78679164D01*
X120431044Y-78490908D01*
X120372549Y-78310880D01*
X120277903Y-78146948D01*
X120151241Y-78006276D01*
X120151240Y-78006275D01*
X119998104Y-77895015D01*
X119998099Y-77895012D01*
X119825177Y-77818021D01*
X119825172Y-77818019D01*
X119679371Y-77787029D01*
X119640016Y-77778664D01*
X119450724Y-77778664D01*
X119418267Y-77785562D01*
X119265567Y-77818019D01*
X119265562Y-77818021D01*
X119092640Y-77895012D01*
X119092635Y-77895015D01*
X118939499Y-78006275D01*
X118812836Y-78146949D01*
X118718191Y-78310879D01*
X118718189Y-78310883D01*
X118659230Y-78492340D01*
X118619792Y-78550015D01*
X118591736Y-78567300D01*
X118538843Y-78590849D01*
X118385705Y-78702111D01*
X118259042Y-78842785D01*
X118164397Y-79006715D01*
X118164394Y-79006722D01*
X118105903Y-79186740D01*
X118105902Y-79186744D01*
X118086116Y-79375000D01*
X110736699Y-79375000D01*
X110732533Y-79367784D01*
X110605871Y-79227112D01*
X110584215Y-79211378D01*
X110452734Y-79115851D01*
X110452729Y-79115848D01*
X110279807Y-79038857D01*
X110279802Y-79038855D01*
X110128590Y-79006715D01*
X110094646Y-78999500D01*
X109905354Y-78999500D01*
X109872897Y-79006398D01*
X109720197Y-79038855D01*
X109720192Y-79038857D01*
X109547270Y-79115848D01*
X109547265Y-79115851D01*
X109394129Y-79227111D01*
X109267466Y-79367785D01*
X109172821Y-79531715D01*
X109172818Y-79531722D01*
X109114327Y-79711739D01*
X109114325Y-79711750D01*
X109107652Y-79775226D01*
X109081067Y-79839840D01*
X109034770Y-79875540D01*
X108959977Y-79908842D01*
X108806836Y-80020105D01*
X108680173Y-80160779D01*
X108585528Y-80324709D01*
X108585525Y-80324716D01*
X108541001Y-80461748D01*
X108527033Y-80504738D01*
X108507247Y-80692994D01*
X107984045Y-80692994D01*
X108027179Y-80618284D01*
X108085674Y-80438256D01*
X108105460Y-80250000D01*
X108085674Y-80061744D01*
X108027179Y-79881716D01*
X107932533Y-79717784D01*
X107805871Y-79577112D01*
X107786800Y-79563256D01*
X107652734Y-79465851D01*
X107652729Y-79465848D01*
X107479807Y-79388857D01*
X107479802Y-79388855D01*
X107306652Y-79352052D01*
X107294646Y-79349500D01*
X107105354Y-79349500D01*
X107093348Y-79352052D01*
X106920197Y-79388855D01*
X106920192Y-79388857D01*
X106747270Y-79465848D01*
X106747265Y-79465851D01*
X106594129Y-79577111D01*
X106467466Y-79717785D01*
X106372821Y-79881715D01*
X106372818Y-79881722D01*
X106314327Y-80061740D01*
X106314326Y-80061744D01*
X106294540Y-80250000D01*
X99142850Y-80250000D01*
X99173157Y-80197507D01*
X99231652Y-80017479D01*
X99251438Y-79829223D01*
X99231652Y-79640967D01*
X99173157Y-79460939D01*
X99078511Y-79297007D01*
X98951849Y-79156335D01*
X98951848Y-79156334D01*
X98798712Y-79045074D01*
X98798707Y-79045071D01*
X98625785Y-78968080D01*
X98625780Y-78968078D01*
X98479979Y-78937088D01*
X98440624Y-78928723D01*
X98251332Y-78928723D01*
X98218875Y-78935621D01*
X98066175Y-78968078D01*
X98066170Y-78968080D01*
X97893248Y-79045071D01*
X97893243Y-79045074D01*
X97740107Y-79156334D01*
X97613444Y-79297008D01*
X97518799Y-79460938D01*
X97518796Y-79460945D01*
X97470923Y-79608284D01*
X97460304Y-79640967D01*
X97440518Y-79829223D01*
X97456882Y-79984924D01*
X97444312Y-80053654D01*
X97425712Y-80080856D01*
X97392458Y-80117789D01*
X97297813Y-80281719D01*
X97297810Y-80281726D01*
X97239515Y-80461142D01*
X97239318Y-80461748D01*
X97219532Y-80650004D01*
X95263813Y-80650004D01*
X95262531Y-80647784D01*
X95135869Y-80507112D01*
X95135868Y-80507111D01*
X94982732Y-80395851D01*
X94982727Y-80395848D01*
X94824737Y-80325505D01*
X94771500Y-80280254D01*
X94751179Y-80213405D01*
X94770225Y-80146182D01*
X94822591Y-80099927D01*
X94824737Y-80098947D01*
X94992730Y-80024151D01*
X95145871Y-79912888D01*
X95272533Y-79772216D01*
X95367179Y-79608284D01*
X95425674Y-79428256D01*
X95445460Y-79240000D01*
X95425674Y-79051744D01*
X95367179Y-78871716D01*
X95272533Y-78707784D01*
X95145871Y-78567112D01*
X95145870Y-78567111D01*
X94992734Y-78455851D01*
X94992729Y-78455848D01*
X94819807Y-78378857D01*
X94819802Y-78378855D01*
X94674001Y-78347865D01*
X94634646Y-78339500D01*
X94445354Y-78339500D01*
X94412897Y-78346398D01*
X94260197Y-78378855D01*
X94260192Y-78378857D01*
X94087270Y-78455848D01*
X94087265Y-78455851D01*
X93934129Y-78567111D01*
X93807466Y-78707785D01*
X93712821Y-78871715D01*
X93712818Y-78871722D01*
X93658513Y-79038857D01*
X93654326Y-79051744D01*
X93634540Y-79240000D01*
X93654326Y-79428256D01*
X93654327Y-79428259D01*
X93712818Y-79608277D01*
X93712821Y-79608284D01*
X93807467Y-79772216D01*
X93881723Y-79854685D01*
X93934129Y-79912888D01*
X94087265Y-80024148D01*
X94087270Y-80024151D01*
X94245260Y-80094494D01*
X94298497Y-80139744D01*
X94318818Y-80206593D01*
X94299772Y-80273817D01*
X94247406Y-80320072D01*
X94245261Y-80321052D01*
X94077265Y-80395850D01*
X94077263Y-80395851D01*
X93924127Y-80507111D01*
X93797464Y-80647785D01*
X93702822Y-80811711D01*
X93702816Y-80811722D01*
X93644325Y-80991740D01*
X93644324Y-80991744D01*
X93624538Y-81180000D01*
X84400500Y-81180000D01*
X84400500Y-77911306D01*
X84400499Y-77911304D01*
X84365896Y-77737341D01*
X84365893Y-77737332D01*
X84298016Y-77573459D01*
X84298009Y-77573446D01*
X84199464Y-77425965D01*
X84199461Y-77425961D01*
X84185153Y-77411653D01*
X84151668Y-77350330D01*
X84156652Y-77280638D01*
X84198524Y-77224705D01*
X84263988Y-77200288D01*
X84272817Y-77199972D01*
X91062297Y-77200317D01*
X91129335Y-77220005D01*
X91175087Y-77272811D01*
X91185027Y-77341970D01*
X91155999Y-77405524D01*
X91135176Y-77424635D01*
X90994127Y-77527113D01*
X90867466Y-77667785D01*
X90772821Y-77831715D01*
X90772818Y-77831722D01*
X90714327Y-78011740D01*
X90714326Y-78011744D01*
X90694540Y-78200000D01*
X90714326Y-78388256D01*
X90714327Y-78388259D01*
X90772818Y-78568277D01*
X90772821Y-78568284D01*
X90867467Y-78732216D01*
X90942770Y-78815848D01*
X90994129Y-78872888D01*
X91147265Y-78984148D01*
X91147270Y-78984151D01*
X91320192Y-79061142D01*
X91320197Y-79061144D01*
X91505354Y-79100500D01*
X91505355Y-79100500D01*
X91694644Y-79100500D01*
X91694646Y-79100500D01*
X91879803Y-79061144D01*
X92052730Y-78984151D01*
X92205871Y-78872888D01*
X92332533Y-78732216D01*
X92427179Y-78568284D01*
X92485674Y-78388256D01*
X92505460Y-78200000D01*
X92485674Y-78011744D01*
X92427179Y-77831716D01*
X92332533Y-77667784D01*
X92205871Y-77527112D01*
X92158115Y-77492416D01*
X92064898Y-77424689D01*
X92022233Y-77369359D01*
X92016254Y-77299745D01*
X92048860Y-77237950D01*
X92109699Y-77203593D01*
X92137782Y-77200371D01*
X123028077Y-77201939D01*
X123095115Y-77221627D01*
X123140867Y-77274433D01*
X123150807Y-77343592D01*
X123146001Y-77364257D01*
X123125951Y-77425965D01*
X123114326Y-77461744D01*
X123094540Y-77650000D01*
X123114326Y-77838256D01*
X123114327Y-77838259D01*
X123172818Y-78018277D01*
X123172821Y-78018284D01*
X123267467Y-78182216D01*
X123383316Y-78310879D01*
X123394129Y-78322888D01*
X123547265Y-78434148D01*
X123547270Y-78434151D01*
X123720192Y-78511142D01*
X123720197Y-78511144D01*
X123905354Y-78550500D01*
X123905355Y-78550500D01*
X124094644Y-78550500D01*
X124094646Y-78550500D01*
X124279803Y-78511144D01*
X124452730Y-78434151D01*
X124605871Y-78322888D01*
X124732533Y-78182216D01*
X124827179Y-78018284D01*
X124885674Y-77838256D01*
X124905460Y-77650000D01*
X124885674Y-77461744D01*
X124854029Y-77364354D01*
X124852035Y-77294514D01*
X124888115Y-77234681D01*
X124950816Y-77203853D01*
X124971959Y-77202037D01*
X141595000Y-77202880D01*
X141595000Y-85225000D01*
X146950000Y-92500000D01*
X150000000Y-92500000D01*
X150000000Y-99899500D01*
X149523362Y-99899500D01*
X149456323Y-99879815D01*
X149410568Y-99827011D01*
X149400624Y-99757853D01*
X149429649Y-99694297D01*
X149435681Y-99687819D01*
X149449461Y-99674038D01*
X149449464Y-99674035D01*
X149548013Y-99526547D01*
X149615894Y-99362666D01*
X149650500Y-99188691D01*
X149650500Y-93811309D01*
X149650500Y-93811306D01*
X149650499Y-93811304D01*
X149615896Y-93637341D01*
X149615893Y-93637332D01*
X149609928Y-93622932D01*
X149594690Y-93586142D01*
X149548016Y-93473459D01*
X149548009Y-93473446D01*
X149449464Y-93325965D01*
X149449461Y-93325961D01*
X149324038Y-93200538D01*
X149324034Y-93200535D01*
X149176553Y-93101990D01*
X149176540Y-93101983D01*
X149012667Y-93034106D01*
X149012658Y-93034103D01*
X148838694Y-92999500D01*
X148838691Y-92999500D01*
X148661309Y-92999500D01*
X148661306Y-92999500D01*
X148487341Y-93034103D01*
X148487332Y-93034106D01*
X148323459Y-93101983D01*
X148323446Y-93101990D01*
X148175965Y-93200535D01*
X148175961Y-93200538D01*
X148050538Y-93325961D01*
X148050535Y-93325965D01*
X147951990Y-93473446D01*
X147951983Y-93473459D01*
X147884106Y-93637332D01*
X147884103Y-93637341D01*
X147849500Y-93811304D01*
X147849500Y-99188695D01*
X147884103Y-99362658D01*
X147884106Y-99362667D01*
X147951983Y-99526540D01*
X147951990Y-99526553D01*
X148050535Y-99674034D01*
X148050538Y-99674038D01*
X148064319Y-99687819D01*
X148097804Y-99749142D01*
X148092820Y-99818834D01*
X148050948Y-99874767D01*
X147985484Y-99899184D01*
X147976638Y-99899500D01*
X88224000Y-99899500D01*
X88156961Y-99879815D01*
X88111206Y-99827011D01*
X88100000Y-99775500D01*
X88100000Y-98100000D01*
X93994540Y-98100000D01*
X94014326Y-98288256D01*
X94014327Y-98288259D01*
X94072818Y-98468277D01*
X94072821Y-98468284D01*
X94167467Y-98632216D01*
X94294129Y-98772888D01*
X94447265Y-98884148D01*
X94447270Y-98884151D01*
X94620192Y-98961142D01*
X94620197Y-98961144D01*
X94805354Y-99000500D01*
X94805355Y-99000500D01*
X94994644Y-99000500D01*
X94994646Y-99000500D01*
X95179803Y-98961144D01*
X95352730Y-98884151D01*
X95505871Y-98772888D01*
X95632533Y-98632216D01*
X95727179Y-98468284D01*
X95785674Y-98288256D01*
X95805460Y-98100000D01*
X95785674Y-97911744D01*
X95727179Y-97731716D01*
X95632533Y-97567784D01*
X95505871Y-97427112D01*
X95505870Y-97427111D01*
X95352734Y-97315851D01*
X95352729Y-97315848D01*
X95179807Y-97238857D01*
X95179802Y-97238855D01*
X95034001Y-97207865D01*
X94994646Y-97199500D01*
X94805354Y-97199500D01*
X94772897Y-97206398D01*
X94620197Y-97238855D01*
X94620192Y-97238857D01*
X94447270Y-97315848D01*
X94447265Y-97315851D01*
X94294129Y-97427111D01*
X94167466Y-97567785D01*
X94072821Y-97731715D01*
X94072818Y-97731722D01*
X94014327Y-97911740D01*
X94014326Y-97911744D01*
X93994540Y-98100000D01*
X88100000Y-98100000D01*
X88100000Y-94994975D01*
X130999565Y-94994975D01*
X131019351Y-95183231D01*
X131019352Y-95183234D01*
X131077843Y-95363252D01*
X131077846Y-95363259D01*
X131172492Y-95527191D01*
X131299154Y-95667863D01*
X131452290Y-95779123D01*
X131452295Y-95779126D01*
X131625217Y-95856117D01*
X131625222Y-95856119D01*
X131810379Y-95895475D01*
X131810380Y-95895475D01*
X131999669Y-95895475D01*
X131999671Y-95895475D01*
X132184828Y-95856119D01*
X132357755Y-95779126D01*
X132376167Y-95765748D01*
X132441972Y-95742267D01*
X132510026Y-95758091D01*
X132521940Y-95765748D01*
X132547264Y-95784147D01*
X132547270Y-95784151D01*
X132720192Y-95861142D01*
X132720197Y-95861144D01*
X132905354Y-95900500D01*
X132905355Y-95900500D01*
X133094644Y-95900500D01*
X133094646Y-95900500D01*
X133279803Y-95861144D01*
X133309528Y-95847909D01*
X133325564Y-95840770D01*
X133394814Y-95831485D01*
X133458090Y-95861113D01*
X133495304Y-95920247D01*
X133500000Y-95954049D01*
X133500000Y-97600000D01*
X139000000Y-97600000D01*
X139000000Y-92500000D01*
X133500000Y-92500000D01*
X133500000Y-93180500D01*
X133480315Y-93247539D01*
X133427511Y-93293294D01*
X133376000Y-93304500D01*
X132826004Y-93304500D01*
X132690677Y-93331418D01*
X132690667Y-93331421D01*
X132563192Y-93384222D01*
X132448454Y-93460887D01*
X132448453Y-93460888D01*
X131842051Y-94067291D01*
X131780728Y-94100776D01*
X131780151Y-94100900D01*
X131625222Y-94133830D01*
X131625217Y-94133832D01*
X131452295Y-94210823D01*
X131452290Y-94210826D01*
X131299154Y-94322086D01*
X131172491Y-94462760D01*
X131077846Y-94626690D01*
X131077843Y-94626697D01*
X131019352Y-94806715D01*
X131019351Y-94806719D01*
X130999565Y-94994975D01*
X88100000Y-94994975D01*
X88100000Y-91800007D01*
X94869533Y-91800007D01*
X94889319Y-91988263D01*
X94889320Y-91988266D01*
X94947811Y-92168284D01*
X94947814Y-92168291D01*
X94966415Y-92200508D01*
X94982888Y-92268408D01*
X94966416Y-92324507D01*
X94947820Y-92356715D01*
X94889327Y-92536740D01*
X94889326Y-92536744D01*
X94869540Y-92725000D01*
X94889326Y-92913256D01*
X94889327Y-92913259D01*
X94947818Y-93093277D01*
X94947821Y-93093284D01*
X95042467Y-93257216D01*
X95104369Y-93325965D01*
X95169129Y-93397888D01*
X95322265Y-93509148D01*
X95322270Y-93509151D01*
X95495192Y-93586142D01*
X95495197Y-93586144D01*
X95680354Y-93625500D01*
X95680355Y-93625500D01*
X95869644Y-93625500D01*
X95869646Y-93625500D01*
X96054803Y-93586144D01*
X96227730Y-93509151D01*
X96380871Y-93397888D01*
X96507533Y-93257216D01*
X96602179Y-93093284D01*
X96632489Y-93000000D01*
X110994353Y-93000000D01*
X111014834Y-93142456D01*
X111074622Y-93273371D01*
X111074623Y-93273373D01*
X111168872Y-93382143D01*
X111289947Y-93459953D01*
X111289950Y-93459954D01*
X111289949Y-93459954D01*
X111428036Y-93500499D01*
X111428038Y-93500500D01*
X111428039Y-93500500D01*
X111571962Y-93500500D01*
X111571962Y-93500499D01*
X111706872Y-93460887D01*
X111710050Y-93459954D01*
X111710050Y-93459953D01*
X111710053Y-93459953D01*
X111831128Y-93382143D01*
X111925377Y-93273373D01*
X111985165Y-93142457D01*
X112005647Y-93000000D01*
X111985165Y-92857543D01*
X111925377Y-92726627D01*
X111831128Y-92617857D01*
X111710053Y-92540047D01*
X111710051Y-92540046D01*
X111710049Y-92540045D01*
X111710050Y-92540045D01*
X111571963Y-92499500D01*
X111571961Y-92499500D01*
X111428039Y-92499500D01*
X111428036Y-92499500D01*
X111289949Y-92540045D01*
X111168873Y-92617856D01*
X111074623Y-92726626D01*
X111074622Y-92726628D01*
X111014834Y-92857543D01*
X110994353Y-93000000D01*
X96632489Y-93000000D01*
X96660674Y-92913256D01*
X96680460Y-92725000D01*
X96660674Y-92536744D01*
X96610376Y-92381943D01*
X96602179Y-92356714D01*
X96583578Y-92324498D01*
X96567104Y-92256598D01*
X96583577Y-92200497D01*
X96602172Y-92168291D01*
X96660667Y-91988263D01*
X96680453Y-91800007D01*
X96660667Y-91611751D01*
X96602172Y-91431723D01*
X96507526Y-91267791D01*
X96380864Y-91127119D01*
X96380863Y-91127118D01*
X96227727Y-91015858D01*
X96227722Y-91015855D01*
X96054800Y-90938864D01*
X96054795Y-90938862D01*
X95908994Y-90907872D01*
X95871958Y-90900000D01*
X102594540Y-90900000D01*
X102614326Y-91088256D01*
X102614327Y-91088259D01*
X102672818Y-91268277D01*
X102672821Y-91268284D01*
X102767467Y-91432216D01*
X102894129Y-91572888D01*
X103047265Y-91684148D01*
X103047270Y-91684151D01*
X103220192Y-91761142D01*
X103220197Y-91761144D01*
X103405354Y-91800500D01*
X103405355Y-91800500D01*
X103594644Y-91800500D01*
X103594646Y-91800500D01*
X103779803Y-91761144D01*
X103952730Y-91684151D01*
X104105871Y-91572888D01*
X104232533Y-91432216D01*
X104327179Y-91268284D01*
X104385674Y-91088256D01*
X104405460Y-90900000D01*
X104385674Y-90711744D01*
X104327935Y-90534043D01*
X104327181Y-90531722D01*
X104327180Y-90531721D01*
X104327179Y-90531716D01*
X104232533Y-90367784D01*
X104105871Y-90227112D01*
X104105870Y-90227111D01*
X104068555Y-90200000D01*
X114419540Y-90200000D01*
X114439326Y-90388256D01*
X114439327Y-90388259D01*
X114497818Y-90568277D01*
X114497821Y-90568284D01*
X114592467Y-90732216D01*
X114708553Y-90861142D01*
X114719129Y-90872888D01*
X114872265Y-90984148D01*
X114872270Y-90984151D01*
X115045192Y-91061142D01*
X115045197Y-91061144D01*
X115230354Y-91100500D01*
X115230355Y-91100500D01*
X115419644Y-91100500D01*
X115419646Y-91100500D01*
X115604803Y-91061144D01*
X115777730Y-90984151D01*
X115818461Y-90954558D01*
X115884265Y-90931079D01*
X115952319Y-90946904D01*
X116001014Y-90997009D01*
X116014082Y-91037227D01*
X116014833Y-91042451D01*
X116014834Y-91042455D01*
X116014835Y-91042457D01*
X116074623Y-91173373D01*
X116168872Y-91282143D01*
X116289947Y-91359953D01*
X116289950Y-91359954D01*
X116289949Y-91359954D01*
X116428036Y-91400499D01*
X116428038Y-91400500D01*
X116428039Y-91400500D01*
X116571962Y-91400500D01*
X116571962Y-91400499D01*
X116710053Y-91359953D01*
X116831128Y-91282143D01*
X116925377Y-91173373D01*
X116985165Y-91042457D01*
X117005647Y-90900000D01*
X116985165Y-90757543D01*
X116925377Y-90626627D01*
X116831128Y-90517857D01*
X116710053Y-90440047D01*
X116710051Y-90440046D01*
X116710049Y-90440045D01*
X116710050Y-90440045D01*
X116571963Y-90399500D01*
X116571961Y-90399500D01*
X116428039Y-90399500D01*
X116428038Y-90399500D01*
X116380133Y-90413565D01*
X116310264Y-90413563D01*
X116251486Y-90375788D01*
X116222463Y-90312231D01*
X116221880Y-90281633D01*
X116230460Y-90200000D01*
X116210674Y-90011744D01*
X116165973Y-89874169D01*
X125120371Y-89874169D01*
X125140157Y-90062425D01*
X125140158Y-90062428D01*
X125198649Y-90242446D01*
X125198652Y-90242453D01*
X125293298Y-90406385D01*
X125406146Y-90531715D01*
X125419960Y-90547057D01*
X125573096Y-90658317D01*
X125573101Y-90658320D01*
X125746023Y-90735311D01*
X125746028Y-90735313D01*
X125931185Y-90774669D01*
X125931186Y-90774669D01*
X126120475Y-90774669D01*
X126120477Y-90774669D01*
X126305634Y-90735313D01*
X126478561Y-90658320D01*
X126631702Y-90547057D01*
X126758364Y-90406385D01*
X126853010Y-90242453D01*
X126911505Y-90062425D01*
X126931291Y-89874169D01*
X126911505Y-89685913D01*
X126853010Y-89505885D01*
X126758364Y-89341953D01*
X126631702Y-89201281D01*
X126600750Y-89178793D01*
X126478565Y-89090020D01*
X126478560Y-89090017D01*
X126305638Y-89013026D01*
X126305633Y-89013024D01*
X126158458Y-88981742D01*
X126120477Y-88973669D01*
X125931185Y-88973669D01*
X125898728Y-88980567D01*
X125746028Y-89013024D01*
X125746023Y-89013026D01*
X125573101Y-89090017D01*
X125573096Y-89090020D01*
X125419960Y-89201280D01*
X125293297Y-89341954D01*
X125198652Y-89505884D01*
X125198649Y-89505891D01*
X125140158Y-89685909D01*
X125140157Y-89685913D01*
X125120371Y-89874169D01*
X116165973Y-89874169D01*
X116152179Y-89831716D01*
X116057533Y-89667784D01*
X115930871Y-89527112D01*
X115901663Y-89505891D01*
X115777734Y-89415851D01*
X115777729Y-89415848D01*
X115604807Y-89338857D01*
X115604802Y-89338855D01*
X115459001Y-89307865D01*
X115419646Y-89299500D01*
X115230354Y-89299500D01*
X115197897Y-89306398D01*
X115045197Y-89338855D01*
X115045192Y-89338857D01*
X114872270Y-89415848D01*
X114872265Y-89415851D01*
X114719129Y-89527111D01*
X114592466Y-89667785D01*
X114497821Y-89831715D01*
X114497818Y-89831722D01*
X114443304Y-89999500D01*
X114439326Y-90011744D01*
X114419540Y-90200000D01*
X104068555Y-90200000D01*
X103952734Y-90115851D01*
X103952729Y-90115848D01*
X103779807Y-90038857D01*
X103779802Y-90038855D01*
X103634001Y-90007865D01*
X103594646Y-89999500D01*
X103405354Y-89999500D01*
X103372897Y-90006398D01*
X103220197Y-90038855D01*
X103220192Y-90038857D01*
X103047270Y-90115848D01*
X103047265Y-90115851D01*
X102894129Y-90227111D01*
X102767466Y-90367785D01*
X102672821Y-90531715D01*
X102672818Y-90531722D01*
X102614327Y-90711740D01*
X102614326Y-90711744D01*
X102594540Y-90900000D01*
X95871958Y-90900000D01*
X95869639Y-90899507D01*
X95680347Y-90899507D01*
X95647890Y-90906405D01*
X95495190Y-90938862D01*
X95495185Y-90938864D01*
X95322263Y-91015855D01*
X95322258Y-91015858D01*
X95169122Y-91127118D01*
X95042459Y-91267792D01*
X94947814Y-91431722D01*
X94947811Y-91431729D01*
X94901946Y-91572888D01*
X94889319Y-91611751D01*
X94869533Y-91800007D01*
X88100000Y-91800007D01*
X88100000Y-89200000D01*
X76724000Y-89200000D01*
X76656961Y-89180315D01*
X76611206Y-89127511D01*
X76600000Y-89076000D01*
X76600000Y-88900000D01*
X117894540Y-88900000D01*
X117914326Y-89088256D01*
X117914327Y-89088259D01*
X117972818Y-89268277D01*
X117972821Y-89268284D01*
X118067467Y-89432216D01*
X118163002Y-89538318D01*
X118194129Y-89572888D01*
X118347265Y-89684148D01*
X118347270Y-89684151D01*
X118520192Y-89761142D01*
X118520197Y-89761144D01*
X118705354Y-89800500D01*
X118705355Y-89800500D01*
X118894644Y-89800500D01*
X118894646Y-89800500D01*
X119079803Y-89761144D01*
X119252730Y-89684151D01*
X119405871Y-89572888D01*
X119532533Y-89432216D01*
X119627179Y-89268284D01*
X119685674Y-89088256D01*
X119705460Y-88900000D01*
X119685674Y-88711744D01*
X119627179Y-88531716D01*
X119532533Y-88367784D01*
X119405871Y-88227112D01*
X119384716Y-88211742D01*
X119252734Y-88115851D01*
X119252729Y-88115848D01*
X119079807Y-88038857D01*
X119079802Y-88038855D01*
X118934001Y-88007865D01*
X118894646Y-87999500D01*
X118705354Y-87999500D01*
X118672897Y-88006398D01*
X118520197Y-88038855D01*
X118520192Y-88038857D01*
X118347270Y-88115848D01*
X118347265Y-88115851D01*
X118194129Y-88227111D01*
X118067466Y-88367785D01*
X117972821Y-88531715D01*
X117972818Y-88531722D01*
X117921957Y-88688257D01*
X117914326Y-88711744D01*
X117894540Y-88900000D01*
X76600000Y-88900000D01*
X76600000Y-87900001D01*
X77179778Y-87900001D01*
X77199564Y-88088257D01*
X77199565Y-88088260D01*
X77258056Y-88268278D01*
X77258059Y-88268285D01*
X77352705Y-88432217D01*
X77442294Y-88531715D01*
X77479367Y-88572889D01*
X77632503Y-88684149D01*
X77632508Y-88684152D01*
X77805430Y-88761143D01*
X77805435Y-88761145D01*
X77990592Y-88800501D01*
X77990593Y-88800501D01*
X78179882Y-88800501D01*
X78179884Y-88800501D01*
X78365041Y-88761145D01*
X78537968Y-88684152D01*
X78691109Y-88572889D01*
X78817771Y-88432217D01*
X78912417Y-88268285D01*
X78970912Y-88088257D01*
X78990698Y-87900001D01*
X78970912Y-87711745D01*
X78912417Y-87531717D01*
X78836370Y-87400000D01*
X91494540Y-87400000D01*
X91514326Y-87588256D01*
X91514327Y-87588259D01*
X91572818Y-87768277D01*
X91572821Y-87768284D01*
X91667467Y-87932216D01*
X91789977Y-88068277D01*
X91794129Y-88072888D01*
X91947265Y-88184148D01*
X91947270Y-88184151D01*
X92120192Y-88261142D01*
X92120197Y-88261144D01*
X92305354Y-88300500D01*
X92305355Y-88300500D01*
X92494644Y-88300500D01*
X92494646Y-88300500D01*
X92679803Y-88261144D01*
X92852730Y-88184151D01*
X93005871Y-88072888D01*
X93132533Y-87932216D01*
X93227179Y-87768284D01*
X93285674Y-87588256D01*
X93305460Y-87400000D01*
X93285674Y-87211744D01*
X93227179Y-87031716D01*
X93132533Y-86867784D01*
X93005871Y-86727112D01*
X92989543Y-86715249D01*
X92852734Y-86615851D01*
X92852729Y-86615848D01*
X92679807Y-86538857D01*
X92679802Y-86538855D01*
X92530453Y-86507111D01*
X92494646Y-86499500D01*
X92305354Y-86499500D01*
X92272897Y-86506398D01*
X92120197Y-86538855D01*
X92120192Y-86538857D01*
X91947270Y-86615848D01*
X91947265Y-86615851D01*
X91794129Y-86727111D01*
X91667466Y-86867785D01*
X91572821Y-87031715D01*
X91572818Y-87031722D01*
X91515459Y-87208256D01*
X91514326Y-87211744D01*
X91494540Y-87400000D01*
X78836370Y-87400000D01*
X78817771Y-87367785D01*
X78691109Y-87227113D01*
X78678957Y-87218284D01*
X78537972Y-87115852D01*
X78537967Y-87115849D01*
X78365045Y-87038858D01*
X78365040Y-87038856D01*
X78195089Y-87002733D01*
X78179884Y-86999501D01*
X77990592Y-86999501D01*
X77975387Y-87002733D01*
X77805435Y-87038856D01*
X77805430Y-87038858D01*
X77632508Y-87115849D01*
X77632503Y-87115852D01*
X77479367Y-87227112D01*
X77352704Y-87367786D01*
X77258059Y-87531716D01*
X77258056Y-87531723D01*
X77203380Y-87700000D01*
X77199564Y-87711745D01*
X77179778Y-87900001D01*
X76600000Y-87900001D01*
X76600000Y-85950000D01*
X106177205Y-85950000D01*
X106196991Y-86138256D01*
X106196992Y-86138259D01*
X106255483Y-86318277D01*
X106255486Y-86318284D01*
X106350132Y-86482216D01*
X106440856Y-86582975D01*
X106476794Y-86622888D01*
X106629930Y-86734148D01*
X106629935Y-86734151D01*
X106802857Y-86811142D01*
X106802862Y-86811144D01*
X106988019Y-86850500D01*
X106988020Y-86850500D01*
X107177309Y-86850500D01*
X107177311Y-86850500D01*
X107362468Y-86811144D01*
X107535395Y-86734151D01*
X107688536Y-86622888D01*
X107815198Y-86482216D01*
X107909844Y-86318284D01*
X107968339Y-86138256D01*
X107987592Y-85955068D01*
X111347560Y-85955068D01*
X111367346Y-86143324D01*
X111367347Y-86143327D01*
X111425838Y-86323345D01*
X111425841Y-86323352D01*
X111520487Y-86487284D01*
X111561961Y-86533346D01*
X111568049Y-86540107D01*
X111598279Y-86603098D01*
X111599219Y-86636038D01*
X111585011Y-86771231D01*
X111604797Y-86959487D01*
X111604798Y-86959490D01*
X111663289Y-87139508D01*
X111663292Y-87139515D01*
X111757938Y-87303447D01*
X111858196Y-87414794D01*
X111884600Y-87444119D01*
X112037736Y-87555379D01*
X112037741Y-87555382D01*
X112210663Y-87632373D01*
X112210668Y-87632375D01*
X112395825Y-87671731D01*
X112395826Y-87671731D01*
X112585115Y-87671731D01*
X112585117Y-87671731D01*
X112770274Y-87632375D01*
X112943201Y-87555382D01*
X113096342Y-87444119D01*
X113223004Y-87303447D01*
X113317650Y-87139515D01*
X113376145Y-86959487D01*
X113395931Y-86771231D01*
X113390047Y-86715249D01*
X114985485Y-86715249D01*
X115005271Y-86903505D01*
X115005272Y-86903508D01*
X115063763Y-87083526D01*
X115063766Y-87083533D01*
X115158412Y-87247465D01*
X115250735Y-87350000D01*
X115285074Y-87388137D01*
X115438210Y-87499397D01*
X115438215Y-87499400D01*
X115611137Y-87576391D01*
X115611142Y-87576393D01*
X115796299Y-87615749D01*
X115796300Y-87615749D01*
X115985589Y-87615749D01*
X115985591Y-87615749D01*
X116170748Y-87576393D01*
X116343675Y-87499400D01*
X116496816Y-87388137D01*
X116623478Y-87247465D01*
X116718124Y-87083533D01*
X116740174Y-87015667D01*
X116779610Y-86957993D01*
X116843969Y-86930794D01*
X116912815Y-86942708D01*
X116964291Y-86989951D01*
X116978464Y-87032183D01*
X116979785Y-87031903D01*
X116981135Y-87038257D01*
X117039627Y-87218277D01*
X117039630Y-87218284D01*
X117134276Y-87382216D01*
X117239787Y-87499397D01*
X117260938Y-87522888D01*
X117414074Y-87634148D01*
X117414079Y-87634151D01*
X117587001Y-87711142D01*
X117587006Y-87711144D01*
X117772163Y-87750500D01*
X117772164Y-87750500D01*
X117961453Y-87750500D01*
X117961455Y-87750500D01*
X118146612Y-87711144D01*
X118319539Y-87634151D01*
X118472680Y-87522888D01*
X118599342Y-87382216D01*
X118693988Y-87218284D01*
X118706427Y-87180000D01*
X123114540Y-87180000D01*
X123134326Y-87368256D01*
X123134327Y-87368259D01*
X123192818Y-87548277D01*
X123192821Y-87548284D01*
X123287467Y-87712216D01*
X123414129Y-87852888D01*
X123567265Y-87964148D01*
X123567270Y-87964151D01*
X123740192Y-88041142D01*
X123740197Y-88041144D01*
X123925354Y-88080500D01*
X123925355Y-88080500D01*
X124114644Y-88080500D01*
X124114646Y-88080500D01*
X124299803Y-88041144D01*
X124472730Y-87964151D01*
X124625871Y-87852888D01*
X124752533Y-87712216D01*
X124847179Y-87548284D01*
X124859053Y-87511740D01*
X124871813Y-87472469D01*
X124911250Y-87414794D01*
X124918421Y-87411763D01*
X124906306Y-87365669D01*
X124906930Y-87356298D01*
X124925460Y-87180000D01*
X124913149Y-87062871D01*
X124925718Y-86994145D01*
X124966986Y-86950030D01*
X124912566Y-86931773D01*
X124911119Y-86929968D01*
X125053011Y-86929968D01*
X125107432Y-86948225D01*
X125151144Y-87002733D01*
X125154401Y-87011594D01*
X125172819Y-87068280D01*
X125172820Y-87068281D01*
X125172821Y-87068284D01*
X125213071Y-87137999D01*
X125213072Y-87138001D01*
X125229543Y-87205901D01*
X125213072Y-87261999D01*
X125172820Y-87331718D01*
X125172817Y-87331725D01*
X125148185Y-87407532D01*
X125108747Y-87465207D01*
X125101577Y-87468236D01*
X125113693Y-87514328D01*
X125113066Y-87523731D01*
X125094540Y-87700000D01*
X125114326Y-87888256D01*
X125114327Y-87888259D01*
X125172818Y-88068277D01*
X125172821Y-88068284D01*
X125267467Y-88232216D01*
X125339073Y-88311742D01*
X125394129Y-88372888D01*
X125547265Y-88484148D01*
X125547270Y-88484151D01*
X125720192Y-88561142D01*
X125720197Y-88561144D01*
X125905354Y-88600500D01*
X125905355Y-88600500D01*
X126094644Y-88600500D01*
X126094646Y-88600500D01*
X126279803Y-88561144D01*
X126452730Y-88484151D01*
X126605871Y-88372888D01*
X126671500Y-88300000D01*
X127794540Y-88300000D01*
X127814326Y-88488256D01*
X127814327Y-88488259D01*
X127872818Y-88668277D01*
X127872821Y-88668284D01*
X127967467Y-88832216D01*
X128039071Y-88911740D01*
X128094129Y-88972888D01*
X128247265Y-89084148D01*
X128247270Y-89084151D01*
X128420192Y-89161142D01*
X128420197Y-89161144D01*
X128605354Y-89200500D01*
X128605355Y-89200500D01*
X128782942Y-89200500D01*
X128849981Y-89220185D01*
X128895736Y-89272989D01*
X128906262Y-89311536D01*
X128914326Y-89388256D01*
X128914327Y-89388259D01*
X128970675Y-89561682D01*
X128972670Y-89631523D01*
X128970675Y-89638318D01*
X128930767Y-89761144D01*
X128914326Y-89811744D01*
X128894540Y-90000000D01*
X128914326Y-90188256D01*
X128914327Y-90188259D01*
X128972818Y-90368277D01*
X128972821Y-90368284D01*
X129067467Y-90532216D01*
X129181009Y-90658317D01*
X129194129Y-90672888D01*
X129347265Y-90784148D01*
X129347270Y-90784151D01*
X129520192Y-90861142D01*
X129520197Y-90861144D01*
X129705354Y-90900500D01*
X129705355Y-90900500D01*
X129894644Y-90900500D01*
X129894646Y-90900500D01*
X130079803Y-90861144D01*
X130252730Y-90784151D01*
X130405871Y-90672888D01*
X130405875Y-90672884D01*
X130407849Y-90670692D01*
X130409309Y-90669792D01*
X130410706Y-90668535D01*
X130410935Y-90668790D01*
X130467335Y-90634043D01*
X130537192Y-90635372D01*
X130589110Y-90668738D01*
X130589294Y-90668535D01*
X130590539Y-90669656D01*
X130592151Y-90670692D01*
X130594124Y-90672884D01*
X130594130Y-90672889D01*
X130747265Y-90784148D01*
X130747270Y-90784151D01*
X130920192Y-90861142D01*
X130920197Y-90861144D01*
X131105354Y-90900500D01*
X131105355Y-90900500D01*
X131294644Y-90900500D01*
X131294646Y-90900500D01*
X131479803Y-90861144D01*
X131652730Y-90784151D01*
X131805871Y-90672888D01*
X131932533Y-90532216D01*
X132027179Y-90368284D01*
X132085674Y-90188256D01*
X132105460Y-90000000D01*
X132085674Y-89811744D01*
X132029323Y-89638317D01*
X132027329Y-89568477D01*
X132029324Y-89561682D01*
X132034094Y-89547001D01*
X132085674Y-89388256D01*
X132105460Y-89200000D01*
X132085674Y-89011744D01*
X132045568Y-88888316D01*
X132043573Y-88818478D01*
X132045560Y-88811709D01*
X132085674Y-88688256D01*
X132105460Y-88500000D01*
X132085674Y-88311744D01*
X132045568Y-88188316D01*
X132043573Y-88118478D01*
X132045560Y-88111709D01*
X132085674Y-87988256D01*
X132105460Y-87800000D01*
X132085674Y-87611744D01*
X132032572Y-87448316D01*
X132030578Y-87378477D01*
X132032566Y-87371702D01*
X132085674Y-87208256D01*
X132105460Y-87020000D01*
X132103358Y-87000000D01*
X139194540Y-87000000D01*
X139214326Y-87188256D01*
X139214327Y-87188259D01*
X139254429Y-87311682D01*
X139256424Y-87381524D01*
X139254429Y-87388318D01*
X139214327Y-87511740D01*
X139214326Y-87511744D01*
X139194540Y-87700000D01*
X139214326Y-87888256D01*
X139214327Y-87888259D01*
X139254429Y-88011682D01*
X139256424Y-88081524D01*
X139254429Y-88088318D01*
X139221937Y-88188319D01*
X139214326Y-88211744D01*
X139194540Y-88400000D01*
X139214326Y-88588256D01*
X139214327Y-88588259D01*
X139254429Y-88711682D01*
X139256424Y-88781524D01*
X139254429Y-88788318D01*
X139221937Y-88888319D01*
X139214326Y-88911744D01*
X139194540Y-89100000D01*
X139214326Y-89288256D01*
X139214327Y-89288259D01*
X139270675Y-89461682D01*
X139272670Y-89531523D01*
X139270675Y-89538318D01*
X139222720Y-89685909D01*
X139214326Y-89711744D01*
X139194540Y-89900000D01*
X139214326Y-90088256D01*
X139214327Y-90088259D01*
X139272818Y-90268277D01*
X139272821Y-90268284D01*
X139367467Y-90432216D01*
X139470871Y-90547057D01*
X139494129Y-90572888D01*
X139647265Y-90684148D01*
X139647270Y-90684151D01*
X139820192Y-90761142D01*
X139820197Y-90761144D01*
X140005354Y-90800500D01*
X140005355Y-90800500D01*
X140194644Y-90800500D01*
X140194646Y-90800500D01*
X140379803Y-90761144D01*
X140552730Y-90684151D01*
X140705871Y-90572888D01*
X140705875Y-90572884D01*
X140707849Y-90570692D01*
X140709309Y-90569792D01*
X140710706Y-90568535D01*
X140710935Y-90568790D01*
X140767335Y-90534043D01*
X140837192Y-90535372D01*
X140889110Y-90568738D01*
X140889294Y-90568535D01*
X140890539Y-90569656D01*
X140892151Y-90570692D01*
X140894124Y-90572884D01*
X140894130Y-90572889D01*
X141047265Y-90684148D01*
X141047270Y-90684151D01*
X141220192Y-90761142D01*
X141220197Y-90761144D01*
X141405354Y-90800500D01*
X141405355Y-90800500D01*
X141594644Y-90800500D01*
X141594646Y-90800500D01*
X141779803Y-90761144D01*
X141952730Y-90684151D01*
X142105871Y-90572888D01*
X142232533Y-90432216D01*
X142327179Y-90268284D01*
X142385674Y-90088256D01*
X142405460Y-89900000D01*
X142385674Y-89711744D01*
X142345695Y-89588706D01*
X142343701Y-89518865D01*
X142345688Y-89512095D01*
X142395674Y-89358256D01*
X142415460Y-89170000D01*
X142395674Y-88981744D01*
X142339196Y-88807926D01*
X142337202Y-88738089D01*
X142339182Y-88731339D01*
X142385674Y-88588256D01*
X142405460Y-88400000D01*
X142385674Y-88211744D01*
X142345568Y-88088316D01*
X142343573Y-88018478D01*
X142345560Y-88011709D01*
X142385674Y-87888256D01*
X142405460Y-87700000D01*
X142385674Y-87511744D01*
X142338944Y-87367927D01*
X142336950Y-87298087D01*
X142338938Y-87291312D01*
X142375674Y-87178256D01*
X142395460Y-86990000D01*
X142375674Y-86801744D01*
X142317179Y-86621716D01*
X142222533Y-86457784D01*
X142095871Y-86317112D01*
X142095863Y-86317106D01*
X141942734Y-86205851D01*
X141942729Y-86205848D01*
X141769807Y-86128857D01*
X141769802Y-86128855D01*
X141624001Y-86097865D01*
X141584646Y-86089500D01*
X141395354Y-86089500D01*
X141362897Y-86096398D01*
X141210197Y-86128855D01*
X141210192Y-86128857D01*
X141037270Y-86205848D01*
X141037265Y-86205851D01*
X140884135Y-86317106D01*
X140884125Y-86317115D01*
X140882312Y-86319129D01*
X140880973Y-86319953D01*
X140879305Y-86321456D01*
X140879030Y-86321150D01*
X140822824Y-86355775D01*
X140752967Y-86354442D01*
X140711325Y-86330660D01*
X140711129Y-86330931D01*
X140708669Y-86329144D01*
X140707188Y-86328298D01*
X140705864Y-86327106D01*
X140552734Y-86215851D01*
X140552729Y-86215848D01*
X140379807Y-86138857D01*
X140379802Y-86138855D01*
X140234001Y-86107865D01*
X140194646Y-86099500D01*
X140005354Y-86099500D01*
X139972897Y-86106398D01*
X139820197Y-86138855D01*
X139820192Y-86138857D01*
X139647270Y-86215848D01*
X139647265Y-86215851D01*
X139494129Y-86327111D01*
X139367466Y-86467785D01*
X139272821Y-86631715D01*
X139272818Y-86631722D01*
X139214521Y-86811144D01*
X139214326Y-86811744D01*
X139194540Y-87000000D01*
X132103358Y-87000000D01*
X132085674Y-86831744D01*
X132027179Y-86651716D01*
X131932533Y-86487784D01*
X131805871Y-86347112D01*
X131805669Y-86346965D01*
X131652734Y-86235851D01*
X131652729Y-86235848D01*
X131479807Y-86158857D01*
X131479802Y-86158855D01*
X131334001Y-86127865D01*
X131294646Y-86119500D01*
X131105354Y-86119500D01*
X131087942Y-86123201D01*
X130920197Y-86158855D01*
X130920192Y-86158857D01*
X130747270Y-86235848D01*
X130747265Y-86235851D01*
X130588871Y-86350931D01*
X130587348Y-86348835D01*
X130534759Y-86374059D01*
X130465426Y-86365419D01*
X130422658Y-86334649D01*
X130415872Y-86327113D01*
X130415864Y-86327106D01*
X130262734Y-86215851D01*
X130262729Y-86215848D01*
X130089807Y-86138857D01*
X130089802Y-86138855D01*
X129944001Y-86107865D01*
X129904646Y-86099500D01*
X129715354Y-86099500D01*
X129682897Y-86106398D01*
X129530197Y-86138855D01*
X129530192Y-86138857D01*
X129357270Y-86215848D01*
X129357265Y-86215851D01*
X129204129Y-86327111D01*
X129077466Y-86467785D01*
X128982821Y-86631715D01*
X128982818Y-86631722D01*
X128924521Y-86811144D01*
X128924326Y-86811744D01*
X128904540Y-87000000D01*
X128924326Y-87188256D01*
X128924327Y-87188259D01*
X128941307Y-87240519D01*
X128943302Y-87310361D01*
X128907221Y-87370193D01*
X128844520Y-87401021D01*
X128797596Y-87400127D01*
X128794646Y-87399500D01*
X128605354Y-87399500D01*
X128572897Y-87406398D01*
X128420197Y-87438855D01*
X128420192Y-87438857D01*
X128247270Y-87515848D01*
X128247265Y-87515851D01*
X128094129Y-87627111D01*
X127967466Y-87767785D01*
X127872821Y-87931715D01*
X127872818Y-87931722D01*
X127821937Y-88088319D01*
X127814326Y-88111744D01*
X127794540Y-88300000D01*
X126671500Y-88300000D01*
X126732533Y-88232216D01*
X126827179Y-88068284D01*
X126885674Y-87888256D01*
X126905460Y-87700000D01*
X126885674Y-87511744D01*
X126827179Y-87331716D01*
X126786927Y-87261999D01*
X126770454Y-87194101D01*
X126786927Y-87138001D01*
X126827179Y-87068284D01*
X126885674Y-86888256D01*
X126905460Y-86700000D01*
X126885674Y-86511744D01*
X126827179Y-86331716D01*
X126732533Y-86167784D01*
X126605871Y-86027112D01*
X126605870Y-86027111D01*
X126452734Y-85915851D01*
X126452729Y-85915848D01*
X126279807Y-85838857D01*
X126279802Y-85838855D01*
X126125894Y-85806142D01*
X126094646Y-85799500D01*
X125905354Y-85799500D01*
X125874106Y-85806142D01*
X125720197Y-85838855D01*
X125720192Y-85838857D01*
X125547270Y-85915848D01*
X125547265Y-85915851D01*
X125394129Y-86027111D01*
X125267466Y-86167785D01*
X125172821Y-86331715D01*
X125172818Y-86331722D01*
X125118304Y-86499500D01*
X125114326Y-86511744D01*
X125102645Y-86622888D01*
X125094540Y-86700000D01*
X125106850Y-86817125D01*
X125094280Y-86885855D01*
X125053011Y-86929968D01*
X124911119Y-86929968D01*
X124868855Y-86877265D01*
X124865598Y-86868403D01*
X124847182Y-86811724D01*
X124847180Y-86811720D01*
X124847179Y-86811716D01*
X124752533Y-86647784D01*
X124625871Y-86507112D01*
X124599270Y-86487785D01*
X124472734Y-86395851D01*
X124472729Y-86395848D01*
X124299807Y-86318857D01*
X124299802Y-86318855D01*
X124154001Y-86287865D01*
X124114646Y-86279500D01*
X123925354Y-86279500D01*
X123892897Y-86286398D01*
X123740197Y-86318855D01*
X123740192Y-86318857D01*
X123567270Y-86395848D01*
X123567265Y-86395851D01*
X123414129Y-86507111D01*
X123287466Y-86647785D01*
X123192821Y-86811715D01*
X123192818Y-86811722D01*
X123134327Y-86991740D01*
X123134326Y-86991744D01*
X123114540Y-87180000D01*
X118706427Y-87180000D01*
X118752483Y-87038256D01*
X118772269Y-86850000D01*
X118752483Y-86661744D01*
X118695797Y-86487282D01*
X118693990Y-86481722D01*
X118693989Y-86481719D01*
X118693988Y-86481716D01*
X118599342Y-86317784D01*
X118472680Y-86177112D01*
X118472679Y-86177111D01*
X118319543Y-86065851D01*
X118319538Y-86065848D01*
X118146616Y-85988857D01*
X118146611Y-85988855D01*
X118000810Y-85957865D01*
X117961455Y-85949500D01*
X117772163Y-85949500D01*
X117739706Y-85956398D01*
X117587006Y-85988855D01*
X117587001Y-85988857D01*
X117414079Y-86065848D01*
X117414074Y-86065851D01*
X117260938Y-86177111D01*
X117134275Y-86317785D01*
X117039630Y-86481715D01*
X117039628Y-86481719D01*
X117017579Y-86549581D01*
X116978141Y-86607256D01*
X116913782Y-86634454D01*
X116844936Y-86622539D01*
X116793460Y-86575295D01*
X116779294Y-86533064D01*
X116777969Y-86533346D01*
X116776619Y-86526998D01*
X116776619Y-86526993D01*
X116718124Y-86346965D01*
X116623478Y-86183033D01*
X116496816Y-86042361D01*
X116496815Y-86042360D01*
X116343679Y-85931100D01*
X116343674Y-85931097D01*
X116170752Y-85854106D01*
X116170747Y-85854104D01*
X116024946Y-85823114D01*
X115985591Y-85814749D01*
X115796299Y-85814749D01*
X115763842Y-85821647D01*
X115611142Y-85854104D01*
X115611137Y-85854106D01*
X115438215Y-85931097D01*
X115438210Y-85931100D01*
X115285074Y-86042360D01*
X115158411Y-86183034D01*
X115063766Y-86346964D01*
X115063763Y-86346971D01*
X115005272Y-86526989D01*
X115005271Y-86526993D01*
X114985485Y-86715249D01*
X113390047Y-86715249D01*
X113376145Y-86582975D01*
X113317650Y-86402947D01*
X113223004Y-86239015D01*
X113175442Y-86186192D01*
X113145212Y-86123201D01*
X113144271Y-86090259D01*
X113144351Y-86089500D01*
X113158480Y-85955068D01*
X113138694Y-85766812D01*
X113120654Y-85711290D01*
X113118659Y-85641449D01*
X113154740Y-85581616D01*
X113217441Y-85550788D01*
X113286855Y-85558753D01*
X113288910Y-85559644D01*
X113340977Y-85582826D01*
X113526134Y-85622182D01*
X113526135Y-85622182D01*
X113715424Y-85622182D01*
X113715426Y-85622182D01*
X113900583Y-85582826D01*
X114073510Y-85505833D01*
X114226651Y-85394570D01*
X114353313Y-85253898D01*
X114447959Y-85089966D01*
X114506454Y-84909938D01*
X114518201Y-84798164D01*
X114544784Y-84733553D01*
X114602081Y-84693568D01*
X114671900Y-84690908D01*
X114691954Y-84697848D01*
X114720313Y-84710475D01*
X114905470Y-84749831D01*
X114905471Y-84749831D01*
X115094760Y-84749831D01*
X115094762Y-84749831D01*
X115279919Y-84710475D01*
X115452846Y-84633482D01*
X115605987Y-84522219D01*
X115732649Y-84381547D01*
X115827295Y-84217615D01*
X115885790Y-84037587D01*
X115905576Y-83849331D01*
X115900253Y-83798690D01*
X115907617Y-83758426D01*
X131333727Y-83758426D01*
X131353513Y-83946682D01*
X131353514Y-83946685D01*
X131412005Y-84126703D01*
X131412008Y-84126710D01*
X131506654Y-84290642D01*
X131621584Y-84418284D01*
X131633316Y-84431314D01*
X131786452Y-84542574D01*
X131786457Y-84542577D01*
X131959379Y-84619568D01*
X131959384Y-84619570D01*
X132144541Y-84658926D01*
X132144542Y-84658926D01*
X132333831Y-84658926D01*
X132333833Y-84658926D01*
X132518990Y-84619570D01*
X132691917Y-84542577D01*
X132845058Y-84431314D01*
X132971720Y-84290642D01*
X133066366Y-84126710D01*
X133124861Y-83946682D01*
X133144647Y-83758426D01*
X133124861Y-83570170D01*
X133066366Y-83390142D01*
X132971720Y-83226210D01*
X132845058Y-83085538D01*
X132827647Y-83072888D01*
X132691921Y-82974277D01*
X132691916Y-82974274D01*
X132518994Y-82897283D01*
X132518989Y-82897281D01*
X132373188Y-82866291D01*
X132333833Y-82857926D01*
X132144541Y-82857926D01*
X132112084Y-82864824D01*
X131959384Y-82897281D01*
X131959379Y-82897283D01*
X131786457Y-82974274D01*
X131786452Y-82974277D01*
X131633316Y-83085537D01*
X131506653Y-83226211D01*
X131412008Y-83390141D01*
X131412005Y-83390148D01*
X131359713Y-83551087D01*
X131353513Y-83570170D01*
X131333727Y-83758426D01*
X115907617Y-83758426D01*
X115912822Y-83729964D01*
X115960554Y-83678939D01*
X115997792Y-83664441D01*
X116013308Y-83661144D01*
X116013312Y-83661142D01*
X116013313Y-83661142D01*
X116106093Y-83619833D01*
X116186235Y-83584151D01*
X116339376Y-83472888D01*
X116466038Y-83332216D01*
X116560684Y-83168284D01*
X116587507Y-83085729D01*
X116626944Y-83028055D01*
X116688343Y-83002106D01*
X116688289Y-83001851D01*
X116689614Y-83001569D01*
X116691302Y-83000856D01*
X116692480Y-83000727D01*
X116694639Y-83000500D01*
X116694646Y-83000500D01*
X116879803Y-82961144D01*
X117052730Y-82884151D01*
X117205871Y-82772888D01*
X117332533Y-82632216D01*
X117427179Y-82468284D01*
X117485674Y-82288256D01*
X117505460Y-82100000D01*
X117485674Y-81911744D01*
X117429323Y-81738317D01*
X117427329Y-81668477D01*
X117429324Y-81661682D01*
X117481859Y-81499997D01*
X128707768Y-81499997D01*
X128727554Y-81688253D01*
X128727555Y-81688256D01*
X128786046Y-81868274D01*
X128786049Y-81868281D01*
X128880695Y-82032213D01*
X129001011Y-82165837D01*
X129007357Y-82172885D01*
X129160493Y-82284145D01*
X129160498Y-82284148D01*
X129333420Y-82361139D01*
X129333425Y-82361141D01*
X129518582Y-82400497D01*
X129518583Y-82400497D01*
X129707872Y-82400497D01*
X129707874Y-82400497D01*
X129710212Y-82400000D01*
X139044540Y-82400000D01*
X139064326Y-82588256D01*
X139064327Y-82588259D01*
X139122818Y-82768277D01*
X139122821Y-82768284D01*
X139217467Y-82932216D01*
X139303761Y-83028055D01*
X139344129Y-83072888D01*
X139497265Y-83184148D01*
X139497270Y-83184151D01*
X139670192Y-83261142D01*
X139670197Y-83261144D01*
X139855354Y-83300500D01*
X139855355Y-83300500D01*
X140044644Y-83300500D01*
X140044646Y-83300500D01*
X140229803Y-83261144D01*
X140402730Y-83184151D01*
X140555871Y-83072888D01*
X140682533Y-82932216D01*
X140777179Y-82768284D01*
X140835674Y-82588256D01*
X140855460Y-82400000D01*
X140835674Y-82211744D01*
X140780242Y-82041142D01*
X140777181Y-82031722D01*
X140777180Y-82031721D01*
X140777179Y-82031716D01*
X140682533Y-81867784D01*
X140555871Y-81727112D01*
X140555870Y-81727111D01*
X140402734Y-81615851D01*
X140402729Y-81615848D01*
X140229807Y-81538857D01*
X140229802Y-81538855D01*
X140084001Y-81507865D01*
X140044646Y-81499500D01*
X139855354Y-81499500D01*
X139822897Y-81506398D01*
X139670197Y-81538855D01*
X139670192Y-81538857D01*
X139497270Y-81615848D01*
X139497265Y-81615851D01*
X139344129Y-81727111D01*
X139217466Y-81867785D01*
X139122821Y-82031715D01*
X139122818Y-82031722D01*
X139066454Y-82205194D01*
X139064326Y-82211744D01*
X139044540Y-82400000D01*
X129710212Y-82400000D01*
X129893031Y-82361141D01*
X130065958Y-82284148D01*
X130219099Y-82172885D01*
X130345761Y-82032213D01*
X130440407Y-81868281D01*
X130498902Y-81688253D01*
X130518688Y-81499997D01*
X130498902Y-81311741D01*
X130440407Y-81131713D01*
X130345761Y-80967781D01*
X130219099Y-80827109D01*
X130199399Y-80812796D01*
X130065962Y-80715848D01*
X130065957Y-80715845D01*
X129893035Y-80638854D01*
X129893030Y-80638852D01*
X129746170Y-80607637D01*
X129707874Y-80599497D01*
X129518582Y-80599497D01*
X129486125Y-80606395D01*
X129333425Y-80638852D01*
X129333420Y-80638854D01*
X129160498Y-80715845D01*
X129160493Y-80715848D01*
X129007357Y-80827108D01*
X128880694Y-80967782D01*
X128786049Y-81131712D01*
X128786046Y-81131719D01*
X128731369Y-81300000D01*
X128727554Y-81311741D01*
X128707768Y-81499997D01*
X117481859Y-81499997D01*
X117485674Y-81488256D01*
X117505460Y-81300000D01*
X117485674Y-81111744D01*
X117427179Y-80931716D01*
X117332533Y-80767784D01*
X117205871Y-80627112D01*
X117205870Y-80627111D01*
X117052734Y-80515851D01*
X117052729Y-80515848D01*
X116879807Y-80438857D01*
X116879802Y-80438855D01*
X116699402Y-80400511D01*
X116694646Y-80399500D01*
X116505354Y-80399500D01*
X116500598Y-80400511D01*
X116320197Y-80438855D01*
X116320192Y-80438857D01*
X116147270Y-80515848D01*
X116147266Y-80515851D01*
X116065595Y-80575187D01*
X115999788Y-80598666D01*
X115966930Y-80596158D01*
X115915301Y-80585184D01*
X115915297Y-80585184D01*
X115726005Y-80585184D01*
X115693548Y-80592082D01*
X115540848Y-80624539D01*
X115540843Y-80624541D01*
X115367921Y-80701532D01*
X115367916Y-80701535D01*
X115214780Y-80812795D01*
X115088117Y-80953469D01*
X114993472Y-81117399D01*
X114993469Y-81117406D01*
X114958442Y-81225210D01*
X114934977Y-81297428D01*
X114915191Y-81485684D01*
X114934977Y-81673940D01*
X114934978Y-81673943D01*
X114993469Y-81853961D01*
X114993471Y-81853965D01*
X114993472Y-81853968D01*
X115001732Y-81868274D01*
X115011980Y-81886024D01*
X115028452Y-81953924D01*
X115005599Y-82019951D01*
X114950677Y-82063141D01*
X114904592Y-82072023D01*
X114808680Y-82072023D01*
X114776223Y-82078921D01*
X114623523Y-82111378D01*
X114623518Y-82111380D01*
X114450596Y-82188371D01*
X114450591Y-82188374D01*
X114297455Y-82299634D01*
X114170792Y-82440308D01*
X114076147Y-82604238D01*
X114076144Y-82604245D01*
X114022847Y-82768277D01*
X114017652Y-82784267D01*
X113997866Y-82972523D01*
X114017652Y-83160779D01*
X114017653Y-83160782D01*
X114076144Y-83340800D01*
X114076147Y-83340807D01*
X114139634Y-83450770D01*
X114156107Y-83518671D01*
X114150178Y-83551087D01*
X114114443Y-83661069D01*
X114114442Y-83661073D01*
X114114442Y-83661075D01*
X114111649Y-83687654D01*
X114102695Y-83772845D01*
X114076110Y-83837459D01*
X114018813Y-83877444D01*
X113948994Y-83880104D01*
X113928938Y-83873162D01*
X113900587Y-83860539D01*
X113900582Y-83860537D01*
X113743828Y-83827219D01*
X113715426Y-83821182D01*
X113526134Y-83821182D01*
X113497732Y-83827219D01*
X113340977Y-83860537D01*
X113340972Y-83860539D01*
X113168050Y-83937530D01*
X113168045Y-83937533D01*
X113014909Y-84048793D01*
X112888246Y-84189467D01*
X112793601Y-84353397D01*
X112793598Y-84353404D01*
X112738747Y-84522219D01*
X112735106Y-84533426D01*
X112715320Y-84721682D01*
X112734932Y-84908284D01*
X112735107Y-84909943D01*
X112753145Y-84965460D01*
X112755140Y-85035302D01*
X112719059Y-85095134D01*
X112656357Y-85125961D01*
X112586943Y-85117996D01*
X112584804Y-85117067D01*
X112566278Y-85108819D01*
X112532822Y-85093923D01*
X112387021Y-85062933D01*
X112347666Y-85054568D01*
X112158374Y-85054568D01*
X112125917Y-85061466D01*
X111973217Y-85093923D01*
X111973212Y-85093925D01*
X111800290Y-85170916D01*
X111800285Y-85170919D01*
X111647149Y-85282179D01*
X111520486Y-85422853D01*
X111425841Y-85586783D01*
X111425838Y-85586790D01*
X111367347Y-85766808D01*
X111367346Y-85766812D01*
X111347560Y-85955068D01*
X107987592Y-85955068D01*
X107988125Y-85950000D01*
X107968339Y-85761744D01*
X107909844Y-85581716D01*
X107815198Y-85417784D01*
X107772998Y-85370916D01*
X107742768Y-85307924D01*
X107751393Y-85238589D01*
X107772994Y-85204976D01*
X107892533Y-85072216D01*
X107965981Y-84945000D01*
X108649540Y-84945000D01*
X108669326Y-85133256D01*
X108669327Y-85133259D01*
X108727818Y-85313277D01*
X108727821Y-85313284D01*
X108822467Y-85477216D01*
X108916565Y-85581722D01*
X108949129Y-85617888D01*
X109102265Y-85729148D01*
X109102270Y-85729151D01*
X109275192Y-85806142D01*
X109275197Y-85806144D01*
X109460354Y-85845500D01*
X109460355Y-85845500D01*
X109649644Y-85845500D01*
X109649646Y-85845500D01*
X109834803Y-85806144D01*
X110007730Y-85729151D01*
X110160871Y-85617888D01*
X110287533Y-85477216D01*
X110382179Y-85313284D01*
X110440674Y-85133256D01*
X110460460Y-84945000D01*
X110440674Y-84756744D01*
X110382505Y-84577719D01*
X110380510Y-84507878D01*
X110393047Y-84477404D01*
X110427179Y-84418287D01*
X110485674Y-84238259D01*
X110505460Y-84050003D01*
X110485674Y-83861747D01*
X110427179Y-83681719D01*
X110425525Y-83678855D01*
X110381642Y-83602846D01*
X110365169Y-83534946D01*
X110381641Y-83478849D01*
X110407177Y-83434621D01*
X110465672Y-83254593D01*
X110485458Y-83066337D01*
X110465672Y-82878081D01*
X110407177Y-82698053D01*
X110312531Y-82534121D01*
X110185869Y-82393449D01*
X110185868Y-82393448D01*
X110032732Y-82282188D01*
X110032727Y-82282185D01*
X109859805Y-82205194D01*
X109859800Y-82205192D01*
X109713999Y-82174202D01*
X109674644Y-82165837D01*
X109485352Y-82165837D01*
X109452895Y-82172735D01*
X109300195Y-82205192D01*
X109300190Y-82205194D01*
X109127268Y-82282185D01*
X109127263Y-82282188D01*
X108974127Y-82393448D01*
X108847464Y-82534122D01*
X108752819Y-82698052D01*
X108752816Y-82698059D01*
X108694325Y-82878077D01*
X108694324Y-82878081D01*
X108674538Y-83066337D01*
X108694324Y-83254593D01*
X108694325Y-83254596D01*
X108752819Y-83434622D01*
X108798354Y-83513491D01*
X108814827Y-83581391D01*
X108798356Y-83637488D01*
X108772820Y-83681719D01*
X108772820Y-83681720D01*
X108714327Y-83861743D01*
X108714326Y-83861747D01*
X108694540Y-84050003D01*
X108714326Y-84238259D01*
X108714327Y-84238262D01*
X108772494Y-84417282D01*
X108774489Y-84487123D01*
X108761951Y-84517599D01*
X108727820Y-84576715D01*
X108680718Y-84721682D01*
X108669326Y-84756744D01*
X108649540Y-84945000D01*
X107965981Y-84945000D01*
X107987179Y-84908284D01*
X108045674Y-84728256D01*
X108065460Y-84540000D01*
X108045674Y-84351744D01*
X107987179Y-84171716D01*
X107892533Y-84007784D01*
X107765871Y-83867112D01*
X107758487Y-83861747D01*
X107612734Y-83755851D01*
X107612729Y-83755848D01*
X107439807Y-83678857D01*
X107439802Y-83678855D01*
X107294001Y-83647865D01*
X107254646Y-83639500D01*
X107065354Y-83639500D01*
X107032897Y-83646398D01*
X106880197Y-83678855D01*
X106880192Y-83678857D01*
X106707270Y-83755848D01*
X106707265Y-83755851D01*
X106554129Y-83867111D01*
X106427466Y-84007785D01*
X106332821Y-84171715D01*
X106332818Y-84171722D01*
X106294179Y-84290642D01*
X106274326Y-84351744D01*
X106254540Y-84540000D01*
X106274326Y-84728256D01*
X106274327Y-84728259D01*
X106332818Y-84908277D01*
X106332821Y-84908284D01*
X106427464Y-85072212D01*
X106427467Y-85072216D01*
X106467841Y-85117056D01*
X106469665Y-85119081D01*
X106499896Y-85182073D01*
X106491271Y-85251408D01*
X106469667Y-85285025D01*
X106350131Y-85417785D01*
X106255486Y-85581715D01*
X106255483Y-85581722D01*
X106207582Y-85729148D01*
X106196991Y-85761744D01*
X106177205Y-85950000D01*
X76600000Y-85950000D01*
X76600000Y-77323589D01*
X76619685Y-77256550D01*
X76672489Y-77210795D01*
X76724003Y-77199589D01*
X82727249Y-77199894D01*
G37*
%TD.AperFunction*%
%TD*%
%TA.AperFunction,Conductor*%
%TO.N,Net-(BT2---Pad4)*%
G36*
X218220375Y-77206769D02*
G01*
X218287413Y-77226457D01*
X218333165Y-77279263D01*
X218343105Y-77348422D01*
X218314077Y-77411976D01*
X218308053Y-77418447D01*
X218300535Y-77425964D01*
X218300535Y-77425965D01*
X218201990Y-77573446D01*
X218201983Y-77573459D01*
X218134106Y-77737332D01*
X218134103Y-77737341D01*
X218099500Y-77911304D01*
X218099500Y-83288695D01*
X218134103Y-83462658D01*
X218134106Y-83462667D01*
X218201983Y-83626540D01*
X218201990Y-83626553D01*
X218300535Y-83774034D01*
X218300538Y-83774038D01*
X218425961Y-83899461D01*
X218425965Y-83899464D01*
X218573446Y-83998009D01*
X218573459Y-83998016D01*
X218679264Y-84041841D01*
X218737334Y-84065894D01*
X218737336Y-84065894D01*
X218737341Y-84065896D01*
X218911304Y-84100499D01*
X218911307Y-84100500D01*
X218911309Y-84100500D01*
X219088693Y-84100500D01*
X219088694Y-84100499D01*
X219146682Y-84088964D01*
X219262658Y-84065896D01*
X219262661Y-84065894D01*
X219262666Y-84065894D01*
X219402535Y-84007958D01*
X219426540Y-83998016D01*
X219426540Y-83998015D01*
X219426547Y-83998013D01*
X219574035Y-83899464D01*
X219699464Y-83774035D01*
X219798013Y-83626547D01*
X219865894Y-83462666D01*
X219900500Y-83288691D01*
X219900500Y-77911309D01*
X219900500Y-77911306D01*
X219900499Y-77911304D01*
X219865896Y-77737341D01*
X219865893Y-77737332D01*
X219798016Y-77573459D01*
X219798009Y-77573446D01*
X219699464Y-77425965D01*
X219699461Y-77425961D01*
X219692029Y-77418529D01*
X219658544Y-77357206D01*
X219663528Y-77287514D01*
X219705400Y-77231581D01*
X219770864Y-77207164D01*
X219779700Y-77206848D01*
X285966937Y-77210207D01*
X286033975Y-77229895D01*
X286079727Y-77282701D01*
X286089667Y-77351860D01*
X286060639Y-77415414D01*
X286054616Y-77421883D01*
X286050541Y-77425958D01*
X286050535Y-77425965D01*
X285951990Y-77573446D01*
X285951983Y-77573459D01*
X285884106Y-77737332D01*
X285884103Y-77737341D01*
X285849500Y-77911304D01*
X285849500Y-83288695D01*
X285884103Y-83462658D01*
X285884106Y-83462667D01*
X285951983Y-83626540D01*
X285951990Y-83626553D01*
X286050535Y-83774034D01*
X286050538Y-83774038D01*
X286175961Y-83899461D01*
X286175965Y-83899464D01*
X286323449Y-83998011D01*
X286328819Y-84000881D01*
X286328273Y-84001901D01*
X286377848Y-84041841D01*
X286399920Y-84108132D01*
X286400000Y-84112573D01*
X286400000Y-84417041D01*
X286400000Y-88000000D01*
X210474000Y-88000000D01*
X210406961Y-87980315D01*
X210361206Y-87927511D01*
X210350000Y-87876000D01*
X210350000Y-77330376D01*
X210369685Y-77263337D01*
X210422489Y-77217582D01*
X210474004Y-77206376D01*
X218220375Y-77206769D01*
G37*
%TD.AperFunction*%
%TD*%
%TA.AperFunction,Conductor*%
%TO.N,Net-(BT3---Pad4)*%
G36*
X353713500Y-77213645D02*
G01*
X353780537Y-77233333D01*
X353826289Y-77286139D01*
X353836229Y-77355298D01*
X353807201Y-77418852D01*
X353801182Y-77425317D01*
X353800542Y-77425956D01*
X353800535Y-77425965D01*
X353701990Y-77573446D01*
X353701983Y-77573459D01*
X353634106Y-77737332D01*
X353634103Y-77737341D01*
X353599500Y-77911304D01*
X353599500Y-83288695D01*
X353634103Y-83462658D01*
X353634106Y-83462667D01*
X353701983Y-83626540D01*
X353701990Y-83626553D01*
X353800535Y-83774034D01*
X353800538Y-83774038D01*
X353925961Y-83899461D01*
X353925965Y-83899464D01*
X354073446Y-83998009D01*
X354073459Y-83998016D01*
X354196363Y-84048923D01*
X354237334Y-84065894D01*
X354237336Y-84065894D01*
X354237341Y-84065896D01*
X354411304Y-84100499D01*
X354411307Y-84100500D01*
X354411309Y-84100500D01*
X354588693Y-84100500D01*
X354588694Y-84100499D01*
X354646682Y-84088964D01*
X354762658Y-84065896D01*
X354762661Y-84065894D01*
X354762666Y-84065894D01*
X354926547Y-83998013D01*
X355074035Y-83899464D01*
X355199464Y-83774035D01*
X355298013Y-83626547D01*
X355365894Y-83462666D01*
X355400500Y-83288691D01*
X355400500Y-77911309D01*
X355400500Y-77911306D01*
X355400499Y-77911304D01*
X355365896Y-77737341D01*
X355365893Y-77737332D01*
X355298016Y-77573459D01*
X355298009Y-77573446D01*
X355199464Y-77425965D01*
X355199461Y-77425961D01*
X355198906Y-77425406D01*
X355198708Y-77425043D01*
X355195599Y-77421255D01*
X355196317Y-77420665D01*
X355165421Y-77364083D01*
X355170405Y-77294391D01*
X355212277Y-77238458D01*
X355277741Y-77214041D01*
X355286582Y-77213725D01*
X419400000Y-77216978D01*
X419400000Y-88200000D01*
X344624000Y-88200000D01*
X344556961Y-88180315D01*
X344511206Y-88127511D01*
X344500000Y-88076000D01*
X344500000Y-82032677D01*
X344519685Y-81965638D01*
X344572489Y-81919883D01*
X344573359Y-81919489D01*
X344652730Y-81884151D01*
X344805871Y-81772888D01*
X344932533Y-81632216D01*
X345027179Y-81468284D01*
X345085674Y-81288256D01*
X345105460Y-81100000D01*
X345085674Y-80911744D01*
X345027179Y-80731716D01*
X344932533Y-80567784D01*
X344805871Y-80427112D01*
X344805870Y-80427111D01*
X344652730Y-80315848D01*
X344573564Y-80280601D01*
X344520327Y-80235351D01*
X344500006Y-80168502D01*
X344500000Y-80167322D01*
X344500000Y-77337184D01*
X344519685Y-77270145D01*
X344572489Y-77224390D01*
X344624004Y-77213184D01*
X353713500Y-77213645D01*
G37*
%TD.AperFunction*%
%TD*%
%TA.AperFunction,Conductor*%
%TO.N,Net-(BT2---Pad4)*%
G36*
X321518010Y-88187881D02*
G01*
X321584943Y-88207917D01*
X321609506Y-88228906D01*
X321694128Y-88322887D01*
X321694129Y-88322888D01*
X321847265Y-88434148D01*
X321847270Y-88434151D01*
X322020192Y-88511142D01*
X322020197Y-88511144D01*
X322205354Y-88550500D01*
X322205355Y-88550500D01*
X322394644Y-88550500D01*
X322394646Y-88550500D01*
X322579803Y-88511144D01*
X322752730Y-88434151D01*
X322765071Y-88425185D01*
X322766452Y-88424182D01*
X322832258Y-88400702D01*
X322839337Y-88400500D01*
X323155195Y-88400500D01*
X323222234Y-88420185D01*
X323267989Y-88472989D01*
X323278515Y-88511536D01*
X323280306Y-88528574D01*
X323280308Y-88528585D01*
X323338799Y-88708602D01*
X323338802Y-88708609D01*
X323433448Y-88872541D01*
X323560110Y-89013213D01*
X323713246Y-89124473D01*
X323713251Y-89124476D01*
X323886173Y-89201467D01*
X323886178Y-89201469D01*
X324071335Y-89240825D01*
X324071336Y-89240825D01*
X324260625Y-89240825D01*
X324260627Y-89240825D01*
X324445784Y-89201469D01*
X324618711Y-89124476D01*
X324771852Y-89013213D01*
X324898514Y-88872541D01*
X324993160Y-88708609D01*
X325051655Y-88528581D01*
X325056845Y-88479192D01*
X325083427Y-88414582D01*
X325092466Y-88404495D01*
X325252685Y-88244276D01*
X325314004Y-88210794D01*
X325341001Y-88207963D01*
X328037443Y-88222127D01*
X328104375Y-88242162D01*
X328149852Y-88295206D01*
X328159432Y-88364416D01*
X328144177Y-88408123D01*
X328106727Y-88472989D01*
X328074101Y-88529500D01*
X328072820Y-88531718D01*
X328072818Y-88531722D01*
X328014327Y-88711740D01*
X328014326Y-88711744D01*
X327994540Y-88900000D01*
X328014326Y-89088256D01*
X328014327Y-89088259D01*
X328072818Y-89268277D01*
X328072821Y-89268284D01*
X328167467Y-89432216D01*
X328294129Y-89572888D01*
X328447265Y-89684148D01*
X328447270Y-89684151D01*
X328620192Y-89761142D01*
X328620197Y-89761144D01*
X328805354Y-89800500D01*
X328805355Y-89800500D01*
X328994644Y-89800500D01*
X328994646Y-89800500D01*
X329179803Y-89761144D01*
X329352730Y-89684151D01*
X329505871Y-89572888D01*
X329632533Y-89432216D01*
X329727179Y-89268284D01*
X329785674Y-89088256D01*
X329805460Y-88900000D01*
X329785674Y-88711744D01*
X329727179Y-88531716D01*
X329670848Y-88434148D01*
X329661075Y-88417220D01*
X329644602Y-88349319D01*
X329667455Y-88283293D01*
X329722376Y-88240102D01*
X329769106Y-88231223D01*
X344345154Y-88307788D01*
X344412086Y-88327823D01*
X344419015Y-88332713D01*
X344419244Y-88332841D01*
X344419246Y-88332843D01*
X344499063Y-88377490D01*
X344566102Y-88397175D01*
X344624000Y-88405500D01*
X344624004Y-88405500D01*
X361776000Y-88405500D01*
X361843039Y-88425185D01*
X361888794Y-88477989D01*
X361900000Y-88529500D01*
X361900000Y-99775500D01*
X361880315Y-99842539D01*
X361827511Y-99888294D01*
X361776000Y-99899500D01*
X352773362Y-99899500D01*
X352706323Y-99879815D01*
X352660568Y-99827011D01*
X352650624Y-99757853D01*
X352679649Y-99694297D01*
X352685681Y-99687819D01*
X352699461Y-99674038D01*
X352699464Y-99674035D01*
X352798013Y-99526547D01*
X352865894Y-99362666D01*
X352900500Y-99188691D01*
X352900500Y-93811309D01*
X352900500Y-93811306D01*
X352900499Y-93811304D01*
X352865896Y-93637341D01*
X352865893Y-93637332D01*
X352798016Y-93473459D01*
X352798009Y-93473446D01*
X352699464Y-93325965D01*
X352699461Y-93325961D01*
X352574038Y-93200538D01*
X352574034Y-93200535D01*
X352426553Y-93101990D01*
X352426540Y-93101983D01*
X352262667Y-93034106D01*
X352262658Y-93034103D01*
X352088694Y-92999500D01*
X352088691Y-92999500D01*
X351911309Y-92999500D01*
X351911306Y-92999500D01*
X351737341Y-93034103D01*
X351737332Y-93034106D01*
X351573459Y-93101983D01*
X351573446Y-93101990D01*
X351425965Y-93200535D01*
X351425961Y-93200538D01*
X351300538Y-93325961D01*
X351300535Y-93325965D01*
X351201990Y-93473446D01*
X351201983Y-93473459D01*
X351134106Y-93637332D01*
X351134103Y-93637341D01*
X351099500Y-93811304D01*
X351099500Y-99188695D01*
X351134103Y-99362658D01*
X351134106Y-99362667D01*
X351201983Y-99526540D01*
X351201990Y-99526553D01*
X351300535Y-99674034D01*
X351300538Y-99674038D01*
X351314319Y-99687819D01*
X351347804Y-99749142D01*
X351342820Y-99818834D01*
X351300948Y-99874767D01*
X351235484Y-99899184D01*
X351226638Y-99899500D01*
X285622027Y-99899500D01*
X285554988Y-99879815D01*
X285513364Y-99831778D01*
X285750000Y-88000000D01*
X321518010Y-88187881D01*
G37*
%TD.AperFunction*%
%TD*%
%TA.AperFunction,Conductor*%
%TO.N,Net-(BT3---Pad4)*%
G36*
X429372407Y-88408661D02*
G01*
X429439421Y-88428429D01*
X429485110Y-88481290D01*
X429490182Y-88494340D01*
X429497960Y-88518276D01*
X429497963Y-88518284D01*
X429592609Y-88682216D01*
X429719271Y-88822888D01*
X429872407Y-88934148D01*
X429872412Y-88934151D01*
X430045334Y-89011142D01*
X430045339Y-89011144D01*
X430230496Y-89050500D01*
X430230497Y-89050500D01*
X430419786Y-89050500D01*
X430419788Y-89050500D01*
X430604945Y-89011144D01*
X430777872Y-88934151D01*
X430931013Y-88822888D01*
X431057675Y-88682216D01*
X431152321Y-88518284D01*
X431159331Y-88496708D01*
X431198768Y-88439034D01*
X431263126Y-88411835D01*
X431277402Y-88411027D01*
X488155655Y-88481683D01*
X488222669Y-88501451D01*
X488268358Y-88554312D01*
X488279500Y-88605683D01*
X488279500Y-93106980D01*
X488259815Y-93174019D01*
X488207011Y-93219774D01*
X488137853Y-93229718D01*
X488079145Y-93203852D01*
X488079100Y-93203920D01*
X488078714Y-93203662D01*
X488076839Y-93202836D01*
X488074039Y-93200538D01*
X487926553Y-93101990D01*
X487926540Y-93101983D01*
X487762667Y-93034106D01*
X487762658Y-93034103D01*
X487588694Y-92999500D01*
X487588691Y-92999500D01*
X487411309Y-92999500D01*
X487411306Y-92999500D01*
X487237341Y-93034103D01*
X487237332Y-93034106D01*
X487073459Y-93101983D01*
X487073446Y-93101990D01*
X486925965Y-93200535D01*
X486925961Y-93200538D01*
X486800538Y-93325961D01*
X486800535Y-93325965D01*
X486701990Y-93473446D01*
X486701983Y-93473459D01*
X486634106Y-93637332D01*
X486634103Y-93637341D01*
X486599500Y-93811304D01*
X486599500Y-99188695D01*
X486634103Y-99362658D01*
X486634106Y-99362667D01*
X486701983Y-99526540D01*
X486701990Y-99526553D01*
X486800535Y-99674034D01*
X486800538Y-99674038D01*
X486814319Y-99687819D01*
X486847804Y-99749142D01*
X486842820Y-99818834D01*
X486800948Y-99874767D01*
X486735484Y-99899184D01*
X486726638Y-99899500D01*
X422400000Y-99899500D01*
X422400000Y-88400000D01*
X429372407Y-88408661D01*
G37*
%TD.AperFunction*%
%TD*%
%TA.AperFunction,Conductor*%
%TO.N,PGND*%
G36*
X38976009Y-77197674D02*
G01*
X39043045Y-77217361D01*
X39088797Y-77270167D01*
X39100000Y-77321673D01*
X39100000Y-86463505D01*
X39080315Y-86530544D01*
X39080231Y-86530676D01*
X36236623Y-90943171D01*
X36183761Y-90988859D01*
X36132392Y-91000000D01*
X13812499Y-91000000D01*
X13745460Y-90980315D01*
X13712823Y-90949761D01*
X13162115Y-90205561D01*
X13148717Y-90182694D01*
X13051193Y-89966004D01*
X13051192Y-89966003D01*
X13051191Y-89966000D01*
X12885306Y-89691592D01*
X12687554Y-89439181D01*
X12687551Y-89439177D01*
X12460821Y-89212447D01*
X12394059Y-89160142D01*
X12370857Y-89136293D01*
X11900000Y-88500000D01*
X8122910Y-88451575D01*
X8056129Y-88431032D01*
X8011055Y-88377646D01*
X8000500Y-88327585D01*
X8000500Y-86800000D01*
X24094540Y-86800000D01*
X24114326Y-86988256D01*
X24114327Y-86988259D01*
X24172818Y-87168277D01*
X24172821Y-87168284D01*
X24267467Y-87332216D01*
X24393541Y-87472235D01*
X24394129Y-87472888D01*
X24547265Y-87584148D01*
X24547270Y-87584151D01*
X24720192Y-87661142D01*
X24720197Y-87661144D01*
X24905354Y-87700500D01*
X24905355Y-87700500D01*
X25094644Y-87700500D01*
X25094646Y-87700500D01*
X25279803Y-87661144D01*
X25452730Y-87584151D01*
X25605871Y-87472888D01*
X25732533Y-87332216D01*
X25827179Y-87168284D01*
X25848080Y-87103958D01*
X35108547Y-87103958D01*
X35128333Y-87292214D01*
X35128334Y-87292217D01*
X35186825Y-87472235D01*
X35186828Y-87472242D01*
X35281474Y-87636174D01*
X35339394Y-87700500D01*
X35408136Y-87776846D01*
X35561272Y-87888106D01*
X35561277Y-87888109D01*
X35734199Y-87965100D01*
X35734204Y-87965102D01*
X35919361Y-88004458D01*
X35919362Y-88004458D01*
X36108651Y-88004458D01*
X36108653Y-88004458D01*
X36293810Y-87965102D01*
X36466737Y-87888109D01*
X36619878Y-87776846D01*
X36746540Y-87636174D01*
X36841186Y-87472242D01*
X36899681Y-87292214D01*
X36919467Y-87103958D01*
X36899681Y-86915702D01*
X36841186Y-86735674D01*
X36746540Y-86571742D01*
X36619878Y-86431070D01*
X36549333Y-86379816D01*
X36466741Y-86319809D01*
X36466736Y-86319806D01*
X36293814Y-86242815D01*
X36293809Y-86242813D01*
X36148008Y-86211823D01*
X36108653Y-86203458D01*
X35919361Y-86203458D01*
X35886904Y-86210356D01*
X35734204Y-86242813D01*
X35734199Y-86242815D01*
X35561277Y-86319806D01*
X35561272Y-86319809D01*
X35408136Y-86431069D01*
X35281473Y-86571743D01*
X35186828Y-86735673D01*
X35186825Y-86735680D01*
X35128334Y-86915698D01*
X35128333Y-86915702D01*
X35108547Y-87103958D01*
X25848080Y-87103958D01*
X25885674Y-86988256D01*
X25905460Y-86800000D01*
X25885674Y-86611744D01*
X25827179Y-86431716D01*
X25732533Y-86267784D01*
X25605871Y-86127112D01*
X25567898Y-86099523D01*
X25452734Y-86015851D01*
X25452729Y-86015848D01*
X25279807Y-85938857D01*
X25279802Y-85938855D01*
X25134001Y-85907865D01*
X25094646Y-85899500D01*
X24905354Y-85899500D01*
X24872897Y-85906398D01*
X24720197Y-85938855D01*
X24720192Y-85938857D01*
X24547270Y-86015848D01*
X24547265Y-86015851D01*
X24394129Y-86127111D01*
X24267466Y-86267785D01*
X24172821Y-86431715D01*
X24172818Y-86431722D01*
X24127323Y-86571743D01*
X24114326Y-86611744D01*
X24094540Y-86800000D01*
X8000500Y-86800000D01*
X8000500Y-85749996D01*
X17194435Y-85749996D01*
X17194435Y-85750003D01*
X17214630Y-85929249D01*
X17214631Y-85929254D01*
X17274211Y-86099523D01*
X17339518Y-86203458D01*
X17370184Y-86252262D01*
X17497738Y-86379816D01*
X17579307Y-86431069D01*
X17642480Y-86470764D01*
X17650478Y-86475789D01*
X17806384Y-86530343D01*
X17820745Y-86535368D01*
X17820750Y-86535369D01*
X17999996Y-86555565D01*
X18000000Y-86555565D01*
X18000004Y-86555565D01*
X18179249Y-86535369D01*
X18179252Y-86535368D01*
X18179255Y-86535368D01*
X18349522Y-86475789D01*
X18502262Y-86379816D01*
X18629816Y-86252262D01*
X18725789Y-86099522D01*
X18785368Y-85929255D01*
X18785759Y-85925788D01*
X18805565Y-85750003D01*
X18805565Y-85749996D01*
X18785369Y-85570750D01*
X18785368Y-85570745D01*
X18772606Y-85534274D01*
X18725789Y-85400478D01*
X18722630Y-85395451D01*
X18629815Y-85247737D01*
X18502262Y-85120184D01*
X18397936Y-85054631D01*
X21531315Y-85054631D01*
X21531315Y-85054638D01*
X21551510Y-85233884D01*
X21551511Y-85233889D01*
X21611091Y-85404158D01*
X21692849Y-85534274D01*
X21707064Y-85556897D01*
X21834618Y-85684451D01*
X21924960Y-85741217D01*
X21938938Y-85750000D01*
X21987358Y-85780424D01*
X22128512Y-85829816D01*
X22157625Y-85840003D01*
X22157630Y-85840004D01*
X22336876Y-85860200D01*
X22336880Y-85860200D01*
X22336884Y-85860200D01*
X22516129Y-85840004D01*
X22516132Y-85840003D01*
X22516135Y-85840003D01*
X22686402Y-85780424D01*
X22839142Y-85684451D01*
X22966696Y-85556897D01*
X23062669Y-85404157D01*
X23079862Y-85355021D01*
X25749460Y-85355021D01*
X25749460Y-85355028D01*
X25769655Y-85534274D01*
X25769656Y-85534279D01*
X25829236Y-85704548D01*
X25907947Y-85829815D01*
X25925209Y-85857287D01*
X26052763Y-85984841D01*
X26205503Y-86080814D01*
X26337812Y-86127111D01*
X26375770Y-86140393D01*
X26375775Y-86140394D01*
X26555021Y-86160590D01*
X26555025Y-86160590D01*
X26555029Y-86160590D01*
X26734274Y-86140394D01*
X26734277Y-86140393D01*
X26734280Y-86140393D01*
X26904547Y-86080814D01*
X27057287Y-85984841D01*
X27184841Y-85857287D01*
X27255414Y-85744971D01*
X27739410Y-85744971D01*
X27739410Y-85744978D01*
X27759605Y-85924224D01*
X27759606Y-85924229D01*
X27819186Y-86094498D01*
X27839679Y-86127112D01*
X27915159Y-86247237D01*
X28042713Y-86374791D01*
X28195453Y-86470764D01*
X28209814Y-86475789D01*
X28365720Y-86530343D01*
X28365725Y-86530344D01*
X28544971Y-86550540D01*
X28544975Y-86550540D01*
X28544979Y-86550540D01*
X28724224Y-86530344D01*
X28724227Y-86530343D01*
X28724230Y-86530343D01*
X28894497Y-86470764D01*
X29047237Y-86374791D01*
X29174791Y-86247237D01*
X29270764Y-86094497D01*
X29302007Y-86005209D01*
X29342727Y-85948434D01*
X29407679Y-85922686D01*
X29460003Y-85929122D01*
X29620745Y-85985368D01*
X29620750Y-85985369D01*
X29799996Y-86005565D01*
X29800000Y-86005565D01*
X29800004Y-86005565D01*
X29979249Y-85985369D01*
X29979252Y-85985368D01*
X29979255Y-85985368D01*
X30149522Y-85925789D01*
X30302262Y-85829816D01*
X30429816Y-85702262D01*
X30525789Y-85549522D01*
X30585368Y-85379255D01*
X30588098Y-85355025D01*
X30605565Y-85200003D01*
X30605565Y-85199996D01*
X30585369Y-85020750D01*
X30585368Y-85020745D01*
X30565733Y-84964631D01*
X30525789Y-84850478D01*
X30429816Y-84697738D01*
X30302262Y-84570184D01*
X30273916Y-84552373D01*
X30149523Y-84474211D01*
X29979254Y-84414631D01*
X29979249Y-84414630D01*
X29800004Y-84394435D01*
X29799996Y-84394435D01*
X29620750Y-84414630D01*
X29620745Y-84414631D01*
X29450476Y-84474211D01*
X29297737Y-84570184D01*
X29170184Y-84697737D01*
X29074209Y-84850480D01*
X29042967Y-84939765D01*
X29002246Y-84996541D01*
X28937293Y-85022288D01*
X28884972Y-85015852D01*
X28724232Y-84959607D01*
X28724224Y-84959605D01*
X28544979Y-84939410D01*
X28544971Y-84939410D01*
X28365725Y-84959605D01*
X28365720Y-84959606D01*
X28195451Y-85019186D01*
X28042712Y-85115159D01*
X27915159Y-85242712D01*
X27819186Y-85395451D01*
X27759606Y-85565720D01*
X27759605Y-85565725D01*
X27739410Y-85744971D01*
X27255414Y-85744971D01*
X27280814Y-85704547D01*
X27340393Y-85534280D01*
X27355054Y-85404158D01*
X27360590Y-85355028D01*
X27360590Y-85355021D01*
X27340394Y-85175775D01*
X27340393Y-85175770D01*
X27298006Y-85054635D01*
X27280814Y-85005503D01*
X27184841Y-84852763D01*
X27057287Y-84725209D01*
X26904548Y-84629236D01*
X26734279Y-84569656D01*
X26734274Y-84569655D01*
X26555029Y-84549460D01*
X26555021Y-84549460D01*
X26375775Y-84569655D01*
X26375770Y-84569656D01*
X26205501Y-84629236D01*
X26052762Y-84725209D01*
X25925209Y-84852762D01*
X25829236Y-85005501D01*
X25769656Y-85175770D01*
X25769655Y-85175775D01*
X25749460Y-85355021D01*
X23079862Y-85355021D01*
X23122248Y-85233890D01*
X23126066Y-85200003D01*
X23142445Y-85054638D01*
X23142445Y-85054631D01*
X23122249Y-84875385D01*
X23122248Y-84875380D01*
X23062668Y-84705111D01*
X22977556Y-84569657D01*
X22966696Y-84552373D01*
X22839142Y-84424819D01*
X22686403Y-84328846D01*
X22516134Y-84269266D01*
X22516129Y-84269265D01*
X22336884Y-84249070D01*
X22336876Y-84249070D01*
X22157630Y-84269265D01*
X22157625Y-84269266D01*
X21987356Y-84328846D01*
X21834617Y-84424819D01*
X21707064Y-84552372D01*
X21611091Y-84705111D01*
X21551511Y-84875380D01*
X21551510Y-84875385D01*
X21531315Y-85054631D01*
X18397936Y-85054631D01*
X18349523Y-85024211D01*
X18179254Y-84964631D01*
X18179249Y-84964630D01*
X18000004Y-84944435D01*
X17999996Y-84944435D01*
X17820750Y-84964630D01*
X17820745Y-84964631D01*
X17650476Y-85024211D01*
X17497737Y-85120184D01*
X17370184Y-85247737D01*
X17274211Y-85400476D01*
X17214631Y-85570745D01*
X17214630Y-85570750D01*
X17194435Y-85749996D01*
X8000500Y-85749996D01*
X8000500Y-82256961D01*
X8001280Y-82243077D01*
X8003796Y-82220745D01*
X8011459Y-82152731D01*
X8017635Y-82125670D01*
X8045353Y-82046456D01*
X8057396Y-82021450D01*
X8102046Y-81950389D01*
X8119351Y-81928690D01*
X8178690Y-81869351D01*
X8200389Y-81852046D01*
X8271450Y-81807396D01*
X8296456Y-81795353D01*
X8375670Y-81767635D01*
X8402733Y-81761459D01*
X8465419Y-81754396D01*
X8493079Y-81751280D01*
X8506962Y-81750500D01*
X12607317Y-81750500D01*
X12607318Y-81750500D01*
X12789612Y-81724290D01*
X12819764Y-81719955D01*
X12819765Y-81719954D01*
X12819769Y-81719954D01*
X13025710Y-81659484D01*
X13025713Y-81659482D01*
X13025715Y-81659482D01*
X13220938Y-81570327D01*
X13220944Y-81570323D01*
X13220950Y-81570321D01*
X13401513Y-81454281D01*
X13563724Y-81313724D01*
X13704281Y-81151513D01*
X13820321Y-80970950D01*
X13820323Y-80970944D01*
X13820327Y-80970938D01*
X13909482Y-80775715D01*
X13909482Y-80775713D01*
X13909484Y-80775710D01*
X13969954Y-80569769D01*
X14000500Y-80357318D01*
X14000500Y-80323973D01*
X14000581Y-80322728D01*
X14000500Y-80249460D01*
X14000500Y-80176723D01*
X14000417Y-80175492D01*
X13997678Y-77704072D01*
X13998459Y-77690059D01*
X14008666Y-77599613D01*
X14014862Y-77572513D01*
X14042671Y-77493181D01*
X14054751Y-77468144D01*
X14099542Y-77397006D01*
X14116901Y-77375289D01*
X14176417Y-77315929D01*
X14198186Y-77298623D01*
X14269434Y-77254024D01*
X14294510Y-77242005D01*
X14373908Y-77214407D01*
X14401030Y-77208281D01*
X14491560Y-77198306D01*
X14505450Y-77197561D01*
X14547203Y-77197672D01*
X14614186Y-77217533D01*
X14659802Y-77270457D01*
X14669563Y-77339641D01*
X14657357Y-77377966D01*
X14594782Y-77500776D01*
X14531522Y-77695465D01*
X14499500Y-77897648D01*
X14499500Y-83302351D01*
X14531522Y-83504534D01*
X14594781Y-83699223D01*
X14687715Y-83881613D01*
X14808028Y-84047213D01*
X14952786Y-84191971D01*
X15107749Y-84304556D01*
X15118390Y-84312287D01*
X15234607Y-84371503D01*
X15300776Y-84405218D01*
X15300778Y-84405218D01*
X15300781Y-84405220D01*
X15361101Y-84424819D01*
X15495465Y-84468477D01*
X15531668Y-84474211D01*
X15697648Y-84500500D01*
X15697649Y-84500500D01*
X15902351Y-84500500D01*
X15902352Y-84500500D01*
X16104534Y-84468477D01*
X16299219Y-84405220D01*
X16481610Y-84312287D01*
X16595124Y-84229815D01*
X16647213Y-84191971D01*
X16647215Y-84191968D01*
X16647219Y-84191966D01*
X16791966Y-84047219D01*
X16791968Y-84047215D01*
X16791971Y-84047213D01*
X16844732Y-83974590D01*
X16912287Y-83881610D01*
X17005220Y-83699219D01*
X17037460Y-83599996D01*
X31394435Y-83599996D01*
X31394435Y-83600003D01*
X31414630Y-83779249D01*
X31414631Y-83779254D01*
X31474211Y-83949523D01*
X31535594Y-84047213D01*
X31570184Y-84102262D01*
X31697738Y-84229816D01*
X31728381Y-84249070D01*
X31828989Y-84312287D01*
X31850478Y-84325789D01*
X32020745Y-84385368D01*
X32020750Y-84385369D01*
X32199996Y-84405565D01*
X32200000Y-84405565D01*
X32200004Y-84405565D01*
X32379249Y-84385369D01*
X32379252Y-84385368D01*
X32379255Y-84385368D01*
X32549522Y-84325789D01*
X32702262Y-84229816D01*
X32829816Y-84102262D01*
X32925789Y-83949522D01*
X32985368Y-83779255D01*
X32985369Y-83779249D01*
X33005565Y-83600003D01*
X33005565Y-83599996D01*
X32985369Y-83420750D01*
X32985368Y-83420745D01*
X32925788Y-83250476D01*
X32884878Y-83185368D01*
X32829816Y-83097738D01*
X32702262Y-82970184D01*
X32549523Y-82874211D01*
X32379254Y-82814631D01*
X32379249Y-82814630D01*
X32200004Y-82794435D01*
X32199996Y-82794435D01*
X32020750Y-82814630D01*
X32020745Y-82814631D01*
X31850476Y-82874211D01*
X31697737Y-82970184D01*
X31570184Y-83097737D01*
X31474211Y-83250476D01*
X31414631Y-83420745D01*
X31414630Y-83420750D01*
X31394435Y-83599996D01*
X17037460Y-83599996D01*
X17068477Y-83504534D01*
X17100500Y-83302352D01*
X17100500Y-82399996D01*
X25794435Y-82399996D01*
X25794435Y-82400003D01*
X25814630Y-82579249D01*
X25814631Y-82579254D01*
X25874211Y-82749523D01*
X25915122Y-82814632D01*
X25970184Y-82902262D01*
X26097738Y-83029816D01*
X26188080Y-83086582D01*
X26205833Y-83097737D01*
X26250478Y-83125789D01*
X26420745Y-83185368D01*
X26420750Y-83185369D01*
X26599996Y-83205565D01*
X26600000Y-83205565D01*
X26600004Y-83205565D01*
X26779249Y-83185369D01*
X26779252Y-83185368D01*
X26779255Y-83185368D01*
X26949522Y-83125789D01*
X27102262Y-83029816D01*
X27229816Y-82902262D01*
X27325789Y-82749522D01*
X27385368Y-82579255D01*
X27405565Y-82400000D01*
X27388664Y-82250000D01*
X27385369Y-82220750D01*
X27385368Y-82220745D01*
X27361571Y-82152736D01*
X27325789Y-82050478D01*
X27229816Y-81897738D01*
X27102262Y-81770184D01*
X26949523Y-81674211D01*
X26779254Y-81614631D01*
X26779249Y-81614630D01*
X26600004Y-81594435D01*
X26599996Y-81594435D01*
X26420750Y-81614630D01*
X26420745Y-81614631D01*
X26250476Y-81674211D01*
X26097737Y-81770184D01*
X25970184Y-81897737D01*
X25874211Y-82050476D01*
X25814631Y-82220745D01*
X25814630Y-82220750D01*
X25794435Y-82399996D01*
X17100500Y-82399996D01*
X17100500Y-77897648D01*
X17079167Y-77762959D01*
X17068477Y-77695465D01*
X17005218Y-77500776D01*
X16942077Y-77376856D01*
X16929181Y-77308187D01*
X16955457Y-77243446D01*
X17012564Y-77203189D01*
X17052564Y-77196561D01*
X38976009Y-77197674D01*
G37*
%TD.AperFunction*%
%TD*%
%TA.AperFunction,Conductor*%
%TO.N,BATT+*%
G36*
X76270507Y-77199566D02*
G01*
X76337545Y-77219254D01*
X76383297Y-77272060D01*
X76394500Y-77323566D01*
X76394500Y-89076007D01*
X76399197Y-89119686D01*
X76410397Y-89171174D01*
X76412890Y-89181372D01*
X76412891Y-89181375D01*
X76455899Y-89262083D01*
X76455901Y-89262086D01*
X76501660Y-89314895D01*
X76519242Y-89332839D01*
X76519246Y-89332843D01*
X76519247Y-89332844D01*
X76519249Y-89332845D01*
X76599059Y-89377488D01*
X76599063Y-89377490D01*
X76666102Y-89397175D01*
X76724000Y-89405500D01*
X87770500Y-89405500D01*
X87837539Y-89425185D01*
X87883294Y-89477989D01*
X87894500Y-89529500D01*
X87894500Y-99775500D01*
X87874815Y-99842539D01*
X87822011Y-99888294D01*
X87770500Y-99899500D01*
X81823362Y-99899500D01*
X81756323Y-99879815D01*
X81710568Y-99827011D01*
X81700624Y-99757853D01*
X81729649Y-99694297D01*
X81735681Y-99687819D01*
X81749461Y-99674038D01*
X81749464Y-99674035D01*
X81848013Y-99526547D01*
X81915894Y-99362666D01*
X81915894Y-99362662D01*
X81915897Y-99362656D01*
X81950499Y-99188695D01*
X81950500Y-99188693D01*
X81950500Y-93811306D01*
X81950499Y-93811304D01*
X81915896Y-93637341D01*
X81915893Y-93637332D01*
X81848016Y-93473459D01*
X81848009Y-93473446D01*
X81749464Y-93325965D01*
X81749461Y-93325961D01*
X81624038Y-93200538D01*
X81624034Y-93200535D01*
X81476553Y-93101990D01*
X81476540Y-93101983D01*
X81312667Y-93034106D01*
X81312658Y-93034103D01*
X81138694Y-92999500D01*
X81138691Y-92999500D01*
X80961309Y-92999500D01*
X80961306Y-92999500D01*
X80787341Y-93034103D01*
X80787332Y-93034106D01*
X80623459Y-93101983D01*
X80623446Y-93101990D01*
X80475965Y-93200535D01*
X80475961Y-93200538D01*
X80350538Y-93325961D01*
X80350535Y-93325965D01*
X80251990Y-93473446D01*
X80251983Y-93473459D01*
X80184106Y-93637332D01*
X80184103Y-93637341D01*
X80149500Y-93811304D01*
X80149500Y-99188695D01*
X80184103Y-99362656D01*
X80184106Y-99362667D01*
X80251983Y-99526540D01*
X80251990Y-99526553D01*
X80350535Y-99674034D01*
X80350538Y-99674038D01*
X80364319Y-99687819D01*
X80397804Y-99749142D01*
X80392820Y-99818834D01*
X80350948Y-99874767D01*
X80285484Y-99899184D01*
X80276638Y-99899500D01*
X52315358Y-99899500D01*
X52248319Y-99879815D01*
X52202564Y-99827011D01*
X52192620Y-99757853D01*
X52221645Y-99694297D01*
X52223209Y-99692527D01*
X52232533Y-99682172D01*
X52327179Y-99518240D01*
X52385674Y-99338212D01*
X52405460Y-99149956D01*
X52385674Y-98961700D01*
X52327179Y-98781672D01*
X52232533Y-98617740D01*
X52105871Y-98477068D01*
X52093093Y-98467784D01*
X51952734Y-98365807D01*
X51952729Y-98365804D01*
X51779807Y-98288813D01*
X51779802Y-98288811D01*
X51634001Y-98257821D01*
X51594646Y-98249456D01*
X51405354Y-98249456D01*
X51372897Y-98256354D01*
X51220197Y-98288811D01*
X51220192Y-98288813D01*
X51047270Y-98365804D01*
X51047265Y-98365807D01*
X50894129Y-98477067D01*
X50767466Y-98617741D01*
X50672821Y-98781671D01*
X50672818Y-98781678D01*
X50614327Y-98961696D01*
X50614326Y-98961700D01*
X50594540Y-99149956D01*
X50614326Y-99338212D01*
X50614327Y-99338215D01*
X50672818Y-99518233D01*
X50672821Y-99518240D01*
X50767467Y-99682172D01*
X50772552Y-99687819D01*
X50776791Y-99692527D01*
X50807021Y-99755518D01*
X50798397Y-99824853D01*
X50753657Y-99878519D01*
X50687004Y-99899477D01*
X50684642Y-99899500D01*
X48690121Y-99899500D01*
X48623082Y-99879815D01*
X48577327Y-99827011D01*
X48567383Y-99757853D01*
X48596408Y-99694297D01*
X48639685Y-99662221D01*
X48660224Y-99653075D01*
X48702730Y-99634151D01*
X48855871Y-99522888D01*
X48982533Y-99382216D01*
X49077179Y-99218284D01*
X49135674Y-99038256D01*
X49155460Y-98850000D01*
X49135674Y-98661744D01*
X49077179Y-98481716D01*
X48982533Y-98317784D01*
X48855871Y-98177112D01*
X48855870Y-98177111D01*
X48702734Y-98065851D01*
X48702729Y-98065848D01*
X48529807Y-97988857D01*
X48529802Y-97988855D01*
X48384001Y-97957865D01*
X48344646Y-97949500D01*
X48155354Y-97949500D01*
X48122897Y-97956398D01*
X47970197Y-97988855D01*
X47970192Y-97988857D01*
X47797270Y-98065848D01*
X47797265Y-98065851D01*
X47644129Y-98177111D01*
X47517466Y-98317785D01*
X47422821Y-98481715D01*
X47422818Y-98481722D01*
X47364327Y-98661740D01*
X47364326Y-98661744D01*
X47344540Y-98850000D01*
X47364326Y-99038256D01*
X47364327Y-99038259D01*
X47422818Y-99218277D01*
X47422821Y-99218284D01*
X47517467Y-99382216D01*
X47623971Y-99500500D01*
X47644129Y-99522888D01*
X47797265Y-99634148D01*
X47797270Y-99634151D01*
X47860315Y-99662221D01*
X47913552Y-99707471D01*
X47933873Y-99774321D01*
X47914827Y-99841544D01*
X47862461Y-99887799D01*
X47809879Y-99899500D01*
X42675599Y-99899500D01*
X42608560Y-99879815D01*
X42562805Y-99827011D01*
X42552861Y-99757853D01*
X42581886Y-99694297D01*
X42602713Y-99675183D01*
X42604292Y-99674035D01*
X42605871Y-99672888D01*
X42732533Y-99532216D01*
X42827179Y-99368284D01*
X42885674Y-99188256D01*
X42905460Y-99000000D01*
X42885674Y-98811744D01*
X42827179Y-98631716D01*
X42732533Y-98467784D01*
X42605871Y-98327112D01*
X42605870Y-98327111D01*
X42452734Y-98215851D01*
X42452729Y-98215848D01*
X42279807Y-98138857D01*
X42279802Y-98138855D01*
X42134001Y-98107865D01*
X42094646Y-98099500D01*
X41905354Y-98099500D01*
X41872897Y-98106398D01*
X41720197Y-98138855D01*
X41720192Y-98138857D01*
X41547270Y-98215848D01*
X41547265Y-98215851D01*
X41394129Y-98327111D01*
X41267466Y-98467785D01*
X41172821Y-98631715D01*
X41172818Y-98631722D01*
X41119766Y-98795000D01*
X41114326Y-98811744D01*
X41094540Y-99000000D01*
X41114326Y-99188256D01*
X41114327Y-99188259D01*
X41172818Y-99368277D01*
X41172821Y-99368284D01*
X41267467Y-99532216D01*
X41318896Y-99589333D01*
X41394129Y-99672888D01*
X41394132Y-99672890D01*
X41397287Y-99675183D01*
X41398670Y-99676977D01*
X41398958Y-99677236D01*
X41398910Y-99677288D01*
X41439953Y-99730513D01*
X41445931Y-99800127D01*
X41413324Y-99861921D01*
X41352485Y-99896278D01*
X41324401Y-99899500D01*
X13874000Y-99899500D01*
X13806961Y-99879815D01*
X13761206Y-99827011D01*
X13750000Y-99775500D01*
X13750000Y-97900000D01*
X37594540Y-97900000D01*
X37614326Y-98088256D01*
X37614327Y-98088259D01*
X37672818Y-98268277D01*
X37672821Y-98268284D01*
X37767467Y-98432216D01*
X37812043Y-98481722D01*
X37894129Y-98572888D01*
X38047265Y-98684148D01*
X38047270Y-98684151D01*
X38220192Y-98761142D01*
X38220197Y-98761144D01*
X38405354Y-98800500D01*
X38405355Y-98800500D01*
X38594644Y-98800500D01*
X38594646Y-98800500D01*
X38779803Y-98761144D01*
X38952730Y-98684151D01*
X39105871Y-98572888D01*
X39232533Y-98432216D01*
X39327179Y-98268284D01*
X39385674Y-98088256D01*
X39405460Y-97900000D01*
X39385674Y-97711744D01*
X39327179Y-97531716D01*
X39232533Y-97367784D01*
X39105871Y-97227112D01*
X39084719Y-97211744D01*
X38952734Y-97115851D01*
X38952729Y-97115848D01*
X38779807Y-97038857D01*
X38779802Y-97038855D01*
X38634001Y-97007865D01*
X38594646Y-96999500D01*
X38405354Y-96999500D01*
X38372897Y-97006398D01*
X38220197Y-97038855D01*
X38220192Y-97038857D01*
X38047270Y-97115848D01*
X38047265Y-97115851D01*
X37894129Y-97227111D01*
X37767466Y-97367785D01*
X37672821Y-97531715D01*
X37672818Y-97531722D01*
X37621638Y-97689240D01*
X37614326Y-97711744D01*
X37594540Y-97900000D01*
X13750000Y-97900000D01*
X13750000Y-94521903D01*
X42987577Y-94521903D01*
X43007363Y-94710159D01*
X43007364Y-94710162D01*
X43065855Y-94890180D01*
X43065858Y-94890187D01*
X43160504Y-95054119D01*
X43248266Y-95151588D01*
X43287166Y-95194791D01*
X43440302Y-95306051D01*
X43440307Y-95306054D01*
X43613229Y-95383045D01*
X43613230Y-95383045D01*
X43613234Y-95383047D01*
X43653110Y-95391522D01*
X43714589Y-95424713D01*
X43748367Y-95485875D01*
X43745259Y-95551129D01*
X43709320Y-95661739D01*
X43709319Y-95661741D01*
X43709319Y-95661744D01*
X43689533Y-95850000D01*
X43709319Y-96038256D01*
X43709320Y-96038259D01*
X43767811Y-96218277D01*
X43767814Y-96218284D01*
X43862460Y-96382216D01*
X43967126Y-96498459D01*
X43989122Y-96522888D01*
X44142258Y-96634148D01*
X44142263Y-96634151D01*
X44315185Y-96711142D01*
X44315190Y-96711144D01*
X44500347Y-96750500D01*
X44500348Y-96750500D01*
X44689637Y-96750500D01*
X44689639Y-96750500D01*
X44828902Y-96720899D01*
X48299539Y-96720899D01*
X48319325Y-96909155D01*
X48319326Y-96909158D01*
X48377817Y-97089176D01*
X48377820Y-97089183D01*
X48472466Y-97253115D01*
X48590939Y-97384692D01*
X48599128Y-97393787D01*
X48752264Y-97505047D01*
X48752269Y-97505050D01*
X48925191Y-97582041D01*
X48925196Y-97582043D01*
X49110353Y-97621399D01*
X49110354Y-97621399D01*
X49299643Y-97621399D01*
X49299645Y-97621399D01*
X49484802Y-97582043D01*
X49657729Y-97505050D01*
X49764631Y-97427381D01*
X49830435Y-97403901D01*
X49887950Y-97414419D01*
X50060224Y-97491122D01*
X50245381Y-97530478D01*
X50245382Y-97530478D01*
X50434671Y-97530478D01*
X50434673Y-97530478D01*
X50619830Y-97491122D01*
X50792757Y-97414129D01*
X50945898Y-97302866D01*
X51072560Y-97162194D01*
X51167206Y-96998262D01*
X51225701Y-96818234D01*
X51245487Y-96629978D01*
X51230775Y-96490000D01*
X52223287Y-96490000D01*
X52243073Y-96678256D01*
X52243074Y-96678259D01*
X52301565Y-96858277D01*
X52301568Y-96858284D01*
X52396214Y-97022216D01*
X52480521Y-97115848D01*
X52522876Y-97162888D01*
X52676012Y-97274148D01*
X52676017Y-97274151D01*
X52848939Y-97351142D01*
X52848944Y-97351144D01*
X53006777Y-97384692D01*
X53068259Y-97417884D01*
X53102035Y-97479047D01*
X53104315Y-97493012D01*
X53114326Y-97588256D01*
X53114327Y-97588259D01*
X53172818Y-97768277D01*
X53172821Y-97768284D01*
X53267467Y-97932216D01*
X53378833Y-98055900D01*
X53394129Y-98072888D01*
X53547265Y-98184148D01*
X53547270Y-98184151D01*
X53720192Y-98261142D01*
X53720197Y-98261144D01*
X53905354Y-98300500D01*
X53905355Y-98300500D01*
X54094644Y-98300500D01*
X54094646Y-98300500D01*
X54279803Y-98261144D01*
X54452730Y-98184151D01*
X54605871Y-98072888D01*
X54732533Y-97932216D01*
X54827179Y-97768284D01*
X54885674Y-97588256D01*
X54894950Y-97500000D01*
X55494540Y-97500000D01*
X55514326Y-97688256D01*
X55514327Y-97688259D01*
X55572818Y-97868277D01*
X55572821Y-97868284D01*
X55641939Y-97988000D01*
X55658412Y-98055900D01*
X55641939Y-98112000D01*
X55572821Y-98231715D01*
X55572818Y-98231722D01*
X55523263Y-98384239D01*
X55514326Y-98411744D01*
X55494540Y-98600000D01*
X55514326Y-98788256D01*
X55514327Y-98788259D01*
X55572818Y-98968277D01*
X55572821Y-98968284D01*
X55667467Y-99132216D01*
X55794129Y-99272888D01*
X55947265Y-99384148D01*
X55947270Y-99384151D01*
X56120192Y-99461142D01*
X56120197Y-99461144D01*
X56305354Y-99500500D01*
X56305355Y-99500500D01*
X56494644Y-99500500D01*
X56494646Y-99500500D01*
X56679803Y-99461144D01*
X56852730Y-99384151D01*
X57005871Y-99272888D01*
X57132533Y-99132216D01*
X57227179Y-98968284D01*
X57285674Y-98788256D01*
X57305460Y-98600000D01*
X62294540Y-98600000D01*
X62314326Y-98788256D01*
X62314327Y-98788259D01*
X62372818Y-98968277D01*
X62372821Y-98968284D01*
X62467467Y-99132216D01*
X62594129Y-99272888D01*
X62747265Y-99384148D01*
X62747270Y-99384151D01*
X62920192Y-99461142D01*
X62920197Y-99461144D01*
X63105354Y-99500500D01*
X63105355Y-99500500D01*
X63294644Y-99500500D01*
X63294646Y-99500500D01*
X63479803Y-99461144D01*
X63652730Y-99384151D01*
X63805871Y-99272888D01*
X63932533Y-99132216D01*
X64027179Y-98968284D01*
X64085674Y-98788256D01*
X64105460Y-98600000D01*
X67894540Y-98600000D01*
X67914326Y-98788256D01*
X67914327Y-98788259D01*
X67972818Y-98968277D01*
X67972821Y-98968284D01*
X68067467Y-99132216D01*
X68194129Y-99272888D01*
X68347265Y-99384148D01*
X68347270Y-99384151D01*
X68520192Y-99461142D01*
X68520197Y-99461144D01*
X68705354Y-99500500D01*
X68705355Y-99500500D01*
X68894644Y-99500500D01*
X68894646Y-99500500D01*
X69079803Y-99461144D01*
X69252730Y-99384151D01*
X69405871Y-99272888D01*
X69532533Y-99132216D01*
X69627179Y-98968284D01*
X69685674Y-98788256D01*
X69705460Y-98600000D01*
X69685674Y-98411744D01*
X69627179Y-98231716D01*
X69532533Y-98067784D01*
X69405871Y-97927112D01*
X69405870Y-97927111D01*
X69252734Y-97815851D01*
X69252729Y-97815848D01*
X69079807Y-97738857D01*
X69079802Y-97738855D01*
X68934001Y-97707865D01*
X68894646Y-97699500D01*
X68705354Y-97699500D01*
X68672897Y-97706398D01*
X68520197Y-97738855D01*
X68520192Y-97738857D01*
X68347270Y-97815848D01*
X68347265Y-97815851D01*
X68194129Y-97927111D01*
X68067466Y-98067785D01*
X67972821Y-98231715D01*
X67972818Y-98231722D01*
X67923263Y-98384239D01*
X67914326Y-98411744D01*
X67894540Y-98600000D01*
X64105460Y-98600000D01*
X64085674Y-98411744D01*
X64027179Y-98231716D01*
X63932533Y-98067784D01*
X63805871Y-97927112D01*
X63805870Y-97927111D01*
X63652734Y-97815851D01*
X63652729Y-97815848D01*
X63479807Y-97738857D01*
X63479802Y-97738855D01*
X63334001Y-97707865D01*
X63294646Y-97699500D01*
X63105354Y-97699500D01*
X63072897Y-97706398D01*
X62920197Y-97738855D01*
X62920192Y-97738857D01*
X62747270Y-97815848D01*
X62747265Y-97815851D01*
X62594129Y-97927111D01*
X62467466Y-98067785D01*
X62372821Y-98231715D01*
X62372818Y-98231722D01*
X62323263Y-98384239D01*
X62314326Y-98411744D01*
X62294540Y-98600000D01*
X57305460Y-98600000D01*
X57285674Y-98411744D01*
X57227179Y-98231716D01*
X57158060Y-98111999D01*
X57141588Y-98044100D01*
X57158061Y-97988000D01*
X57180289Y-97949500D01*
X57227179Y-97868284D01*
X57285674Y-97688256D01*
X57305460Y-97500000D01*
X57285674Y-97311744D01*
X57252526Y-97209728D01*
X57232655Y-97148568D01*
X57230660Y-97078727D01*
X57266740Y-97018894D01*
X57329441Y-96988066D01*
X57398856Y-96996031D01*
X57400928Y-96996930D01*
X57540646Y-97059137D01*
X57725803Y-97098493D01*
X57725804Y-97098493D01*
X57915093Y-97098493D01*
X57915095Y-97098493D01*
X58100252Y-97059137D01*
X58273179Y-96982144D01*
X58426320Y-96870881D01*
X58552982Y-96730209D01*
X58647628Y-96566277D01*
X58706123Y-96386249D01*
X58725909Y-96197993D01*
X58706123Y-96009737D01*
X58647628Y-95829709D01*
X58552982Y-95665777D01*
X58426320Y-95525105D01*
X58411455Y-95514305D01*
X58322947Y-95450000D01*
X58995084Y-95450000D01*
X59014870Y-95638256D01*
X59014871Y-95638259D01*
X59073362Y-95818277D01*
X59073365Y-95818284D01*
X59168011Y-95982216D01*
X59272050Y-96097763D01*
X59294673Y-96122888D01*
X59447809Y-96234148D01*
X59447814Y-96234151D01*
X59620736Y-96311142D01*
X59620741Y-96311144D01*
X59766648Y-96342157D01*
X59828129Y-96375349D01*
X59858797Y-96425127D01*
X59872817Y-96468274D01*
X59872821Y-96468284D01*
X59967467Y-96632216D01*
X60042770Y-96715848D01*
X60094129Y-96772888D01*
X60247265Y-96884148D01*
X60247270Y-96884151D01*
X60420192Y-96961142D01*
X60420197Y-96961144D01*
X60605354Y-97000500D01*
X60605355Y-97000500D01*
X60794644Y-97000500D01*
X60794646Y-97000500D01*
X60979803Y-96961144D01*
X61152730Y-96884151D01*
X61305871Y-96772888D01*
X61305875Y-96772884D01*
X61312829Y-96765161D01*
X61372315Y-96728512D01*
X61442172Y-96729841D01*
X61497130Y-96765160D01*
X61594129Y-96872888D01*
X61747265Y-96984148D01*
X61747270Y-96984151D01*
X61920192Y-97061142D01*
X61920197Y-97061144D01*
X62105354Y-97100500D01*
X62105355Y-97100500D01*
X62294644Y-97100500D01*
X62294646Y-97100500D01*
X62479803Y-97061144D01*
X62652730Y-96984151D01*
X62805871Y-96872888D01*
X62932533Y-96732216D01*
X62951133Y-96700000D01*
X68994540Y-96700000D01*
X69014326Y-96888256D01*
X69014327Y-96888259D01*
X69072818Y-97068277D01*
X69072821Y-97068284D01*
X69167467Y-97232216D01*
X69186283Y-97253113D01*
X69294129Y-97372888D01*
X69447265Y-97484148D01*
X69447270Y-97484151D01*
X69620192Y-97561142D01*
X69620197Y-97561144D01*
X69805354Y-97600500D01*
X69805355Y-97600500D01*
X69994644Y-97600500D01*
X69994646Y-97600500D01*
X70179803Y-97561144D01*
X70352730Y-97484151D01*
X70505871Y-97372888D01*
X70632533Y-97232216D01*
X70727179Y-97068284D01*
X70785674Y-96888256D01*
X70805460Y-96700000D01*
X70785674Y-96511744D01*
X70727179Y-96331716D01*
X70632533Y-96167784D01*
X70505871Y-96027112D01*
X70505870Y-96027111D01*
X70352734Y-95915851D01*
X70352729Y-95915848D01*
X70179807Y-95838857D01*
X70179802Y-95838855D01*
X70004869Y-95801673D01*
X69994646Y-95799500D01*
X69805354Y-95799500D01*
X69795131Y-95801673D01*
X69620197Y-95838855D01*
X69620192Y-95838857D01*
X69447270Y-95915848D01*
X69447265Y-95915851D01*
X69294129Y-96027111D01*
X69167466Y-96167785D01*
X69072821Y-96331715D01*
X69072818Y-96331722D01*
X69014327Y-96511740D01*
X69014326Y-96511744D01*
X68994540Y-96700000D01*
X62951133Y-96700000D01*
X62989151Y-96634151D01*
X63027177Y-96568288D01*
X63027177Y-96568286D01*
X63027179Y-96568284D01*
X63031126Y-96556133D01*
X63070559Y-96498459D01*
X63123274Y-96473159D01*
X63179803Y-96461144D01*
X63179807Y-96461142D01*
X63179808Y-96461142D01*
X63238058Y-96435206D01*
X63352730Y-96384151D01*
X63505871Y-96272888D01*
X63632533Y-96132216D01*
X63727179Y-95968284D01*
X63785674Y-95788256D01*
X63805460Y-95600000D01*
X63785674Y-95411744D01*
X63727179Y-95231716D01*
X63632533Y-95067784D01*
X63505871Y-94927112D01*
X63505870Y-94927111D01*
X63490084Y-94915642D01*
X63447419Y-94860312D01*
X63441441Y-94790698D01*
X63474048Y-94728904D01*
X63512531Y-94702048D01*
X63552730Y-94684151D01*
X63705871Y-94572888D01*
X63816520Y-94450000D01*
X69028117Y-94450000D01*
X69047903Y-94638256D01*
X69047904Y-94638259D01*
X69106395Y-94818277D01*
X69106398Y-94818284D01*
X69201044Y-94982216D01*
X69327706Y-95122888D01*
X69480842Y-95234148D01*
X69480847Y-95234151D01*
X69653769Y-95311142D01*
X69653774Y-95311144D01*
X69838931Y-95350500D01*
X69838932Y-95350500D01*
X70028221Y-95350500D01*
X70028223Y-95350500D01*
X70213380Y-95311144D01*
X70386307Y-95234151D01*
X70539448Y-95122888D01*
X70666110Y-94982216D01*
X70760756Y-94818284D01*
X70819251Y-94638256D01*
X70839037Y-94450000D01*
X70819251Y-94261744D01*
X70760756Y-94081716D01*
X70666110Y-93917784D01*
X70539448Y-93777112D01*
X70538555Y-93776463D01*
X70386311Y-93665851D01*
X70386306Y-93665848D01*
X70213384Y-93588857D01*
X70213379Y-93588855D01*
X70067578Y-93557865D01*
X70028223Y-93549500D01*
X69838931Y-93549500D01*
X69806474Y-93556398D01*
X69653774Y-93588855D01*
X69653769Y-93588857D01*
X69480847Y-93665848D01*
X69480842Y-93665851D01*
X69327706Y-93777111D01*
X69201043Y-93917785D01*
X69106398Y-94081715D01*
X69106395Y-94081722D01*
X69047904Y-94261740D01*
X69047903Y-94261744D01*
X69028117Y-94450000D01*
X63816520Y-94450000D01*
X63832533Y-94432216D01*
X63927179Y-94268284D01*
X63985674Y-94088256D01*
X64005460Y-93900000D01*
X63985674Y-93711744D01*
X63927179Y-93531716D01*
X63832533Y-93367784D01*
X63705871Y-93227112D01*
X63705870Y-93227111D01*
X63552734Y-93115851D01*
X63552729Y-93115848D01*
X63517134Y-93100000D01*
X65394540Y-93100000D01*
X65414326Y-93288256D01*
X65414327Y-93288259D01*
X65472818Y-93468277D01*
X65472821Y-93468284D01*
X65567467Y-93632216D01*
X65684934Y-93762676D01*
X65694129Y-93772888D01*
X65847265Y-93884148D01*
X65847270Y-93884151D01*
X66020192Y-93961142D01*
X66020197Y-93961144D01*
X66205354Y-94000500D01*
X66205355Y-94000500D01*
X66394644Y-94000500D01*
X66394646Y-94000500D01*
X66579803Y-93961144D01*
X66752730Y-93884151D01*
X66905871Y-93772888D01*
X67032533Y-93632216D01*
X67127179Y-93468284D01*
X67185674Y-93288256D01*
X67205460Y-93100000D01*
X67185674Y-92911744D01*
X67127968Y-92734144D01*
X67127181Y-92731722D01*
X67127180Y-92731721D01*
X67127179Y-92731716D01*
X67032533Y-92567784D01*
X66905871Y-92427112D01*
X66905870Y-92427111D01*
X66752734Y-92315851D01*
X66752729Y-92315848D01*
X66579807Y-92238857D01*
X66579802Y-92238855D01*
X66434001Y-92207865D01*
X66396998Y-92200000D01*
X67894540Y-92200000D01*
X67914326Y-92388256D01*
X67914327Y-92388259D01*
X67972818Y-92568277D01*
X67972821Y-92568284D01*
X68067467Y-92732216D01*
X68152476Y-92826628D01*
X68194129Y-92872888D01*
X68347265Y-92984148D01*
X68347270Y-92984151D01*
X68520192Y-93061142D01*
X68520197Y-93061144D01*
X68705354Y-93100500D01*
X68705355Y-93100500D01*
X68894644Y-93100500D01*
X68894646Y-93100500D01*
X69079803Y-93061144D01*
X69252730Y-92984151D01*
X69349066Y-92914159D01*
X74397928Y-92914159D01*
X74417714Y-93102415D01*
X74417715Y-93102418D01*
X74476206Y-93282436D01*
X74476209Y-93282443D01*
X74570855Y-93446375D01*
X74673122Y-93559954D01*
X74697517Y-93587047D01*
X74850653Y-93698307D01*
X74850658Y-93698310D01*
X75023580Y-93775301D01*
X75023585Y-93775303D01*
X75208742Y-93814659D01*
X75208743Y-93814659D01*
X75398032Y-93814659D01*
X75398034Y-93814659D01*
X75583191Y-93775303D01*
X75756118Y-93698310D01*
X75909259Y-93587047D01*
X76035921Y-93446375D01*
X76130567Y-93282443D01*
X76189062Y-93102415D01*
X76208848Y-92914159D01*
X76189062Y-92725903D01*
X76130567Y-92545875D01*
X76035921Y-92381943D01*
X75909259Y-92241271D01*
X75909258Y-92241270D01*
X75756122Y-92130010D01*
X75756117Y-92130007D01*
X75583195Y-92053016D01*
X75583190Y-92053014D01*
X75437389Y-92022024D01*
X75398034Y-92013659D01*
X75208742Y-92013659D01*
X75176285Y-92020557D01*
X75023585Y-92053014D01*
X75023580Y-92053016D01*
X74850658Y-92130007D01*
X74850653Y-92130010D01*
X74697517Y-92241270D01*
X74570854Y-92381944D01*
X74476209Y-92545874D01*
X74476206Y-92545881D01*
X74420328Y-92717857D01*
X74417714Y-92725903D01*
X74397928Y-92914159D01*
X69349066Y-92914159D01*
X69405871Y-92872888D01*
X69532533Y-92732216D01*
X69627179Y-92568284D01*
X69685674Y-92388256D01*
X69705460Y-92200000D01*
X69685674Y-92011744D01*
X69627179Y-91831716D01*
X69532533Y-91667784D01*
X69405871Y-91527112D01*
X69390256Y-91515767D01*
X69252734Y-91415851D01*
X69252729Y-91415848D01*
X69079807Y-91338857D01*
X69079802Y-91338855D01*
X68934001Y-91307865D01*
X68894646Y-91299500D01*
X68705354Y-91299500D01*
X68672897Y-91306398D01*
X68520197Y-91338855D01*
X68520192Y-91338857D01*
X68347270Y-91415848D01*
X68347265Y-91415851D01*
X68194129Y-91527111D01*
X68067466Y-91667785D01*
X67972821Y-91831715D01*
X67972818Y-91831722D01*
X67914327Y-92011740D01*
X67914326Y-92011744D01*
X67894540Y-92200000D01*
X66396998Y-92200000D01*
X66394646Y-92199500D01*
X66205354Y-92199500D01*
X66172897Y-92206398D01*
X66020197Y-92238855D01*
X66020192Y-92238857D01*
X65847270Y-92315848D01*
X65847265Y-92315851D01*
X65694129Y-92427111D01*
X65567466Y-92567785D01*
X65472821Y-92731715D01*
X65472818Y-92731722D01*
X65427794Y-92870293D01*
X65414326Y-92911744D01*
X65394540Y-93100000D01*
X63517134Y-93100000D01*
X63379807Y-93038857D01*
X63379802Y-93038855D01*
X63234001Y-93007865D01*
X63194646Y-92999500D01*
X63005354Y-92999500D01*
X62972897Y-93006398D01*
X62820197Y-93038855D01*
X62820192Y-93038857D01*
X62647270Y-93115848D01*
X62647265Y-93115851D01*
X62494129Y-93227111D01*
X62367466Y-93367785D01*
X62272821Y-93531715D01*
X62272818Y-93531722D01*
X62227057Y-93672561D01*
X62214326Y-93711744D01*
X62194540Y-93900000D01*
X62214326Y-94088256D01*
X62214327Y-94088259D01*
X62272818Y-94268277D01*
X62272821Y-94268284D01*
X62367467Y-94432216D01*
X62494129Y-94572888D01*
X62509914Y-94584356D01*
X62552579Y-94639686D01*
X62558558Y-94709300D01*
X62525952Y-94771095D01*
X62487465Y-94797953D01*
X62447267Y-94815850D01*
X62447265Y-94815851D01*
X62294129Y-94927111D01*
X62167466Y-95067785D01*
X62072821Y-95231715D01*
X62072818Y-95231723D01*
X62068869Y-95243875D01*
X62029428Y-95301548D01*
X61976723Y-95326840D01*
X61920195Y-95338856D01*
X61920192Y-95338857D01*
X61747270Y-95415848D01*
X61747265Y-95415851D01*
X61594135Y-95527106D01*
X61594126Y-95527114D01*
X61587167Y-95534843D01*
X61527680Y-95571490D01*
X61457823Y-95570157D01*
X61402870Y-95534840D01*
X61355037Y-95481716D01*
X61305871Y-95427112D01*
X61290369Y-95415849D01*
X61152734Y-95315851D01*
X61152729Y-95315848D01*
X60979807Y-95238857D01*
X60979802Y-95238855D01*
X60833895Y-95207842D01*
X60772413Y-95174650D01*
X60741745Y-95124870D01*
X60727725Y-95081722D01*
X60727724Y-95081721D01*
X60727723Y-95081716D01*
X60633077Y-94917784D01*
X60506415Y-94777112D01*
X60503876Y-94775267D01*
X60353278Y-94665851D01*
X60353273Y-94665848D01*
X60180351Y-94588857D01*
X60180346Y-94588855D01*
X60034545Y-94557865D01*
X59995190Y-94549500D01*
X59805898Y-94549500D01*
X59773441Y-94556398D01*
X59620741Y-94588855D01*
X59620736Y-94588857D01*
X59447814Y-94665848D01*
X59447809Y-94665851D01*
X59294673Y-94777111D01*
X59168010Y-94917785D01*
X59073365Y-95081715D01*
X59073362Y-95081722D01*
X59022306Y-95238857D01*
X59014870Y-95261744D01*
X58995084Y-95450000D01*
X58322947Y-95450000D01*
X58273183Y-95413844D01*
X58273178Y-95413841D01*
X58100256Y-95336850D01*
X58100251Y-95336848D01*
X57934172Y-95301548D01*
X57915095Y-95297493D01*
X57725803Y-95297493D01*
X57706726Y-95301548D01*
X57540646Y-95336848D01*
X57540641Y-95336850D01*
X57367719Y-95413841D01*
X57367714Y-95413844D01*
X57214578Y-95525104D01*
X57087915Y-95665778D01*
X56993270Y-95829708D01*
X56993267Y-95829715D01*
X56934776Y-96009733D01*
X56934775Y-96009737D01*
X56914989Y-96197993D01*
X56934775Y-96386249D01*
X56934776Y-96386252D01*
X56987793Y-96549424D01*
X56989788Y-96619266D01*
X56953707Y-96679098D01*
X56891006Y-96709926D01*
X56821592Y-96701961D01*
X56819426Y-96701021D01*
X56679806Y-96638857D01*
X56679802Y-96638855D01*
X56534001Y-96607865D01*
X56494646Y-96599500D01*
X56305354Y-96599500D01*
X56272897Y-96606398D01*
X56120197Y-96638855D01*
X56120192Y-96638857D01*
X55947270Y-96715848D01*
X55947265Y-96715851D01*
X55794129Y-96827111D01*
X55667466Y-96967785D01*
X55572821Y-97131715D01*
X55572818Y-97131722D01*
X55514327Y-97311740D01*
X55514326Y-97311744D01*
X55494540Y-97500000D01*
X54894950Y-97500000D01*
X54905460Y-97400000D01*
X54885674Y-97211744D01*
X54827179Y-97031716D01*
X54732533Y-96867784D01*
X54605871Y-96727112D01*
X54590369Y-96715849D01*
X54452734Y-96615851D01*
X54452729Y-96615848D01*
X54279807Y-96538857D01*
X54279802Y-96538855D01*
X54121969Y-96505307D01*
X54060487Y-96472115D01*
X54026711Y-96410951D01*
X54024432Y-96396999D01*
X54014421Y-96301744D01*
X53955926Y-96121716D01*
X53861280Y-95957784D01*
X53734618Y-95817112D01*
X53713368Y-95801673D01*
X53581481Y-95705851D01*
X53581476Y-95705848D01*
X53408554Y-95628857D01*
X53408549Y-95628855D01*
X53262748Y-95597865D01*
X53223393Y-95589500D01*
X53034101Y-95589500D01*
X53001644Y-95596398D01*
X52848944Y-95628855D01*
X52848939Y-95628857D01*
X52676017Y-95705848D01*
X52676012Y-95705851D01*
X52522876Y-95817111D01*
X52396213Y-95957785D01*
X52301568Y-96121715D01*
X52301565Y-96121722D01*
X52265036Y-96234148D01*
X52243073Y-96301744D01*
X52223287Y-96490000D01*
X51230775Y-96490000D01*
X51225701Y-96441722D01*
X51167206Y-96261694D01*
X51072560Y-96097762D01*
X50945898Y-95957090D01*
X50945897Y-95957089D01*
X50792761Y-95845829D01*
X50792756Y-95845826D01*
X50619834Y-95768835D01*
X50619829Y-95768833D01*
X50474028Y-95737843D01*
X50434673Y-95729478D01*
X50245381Y-95729478D01*
X50212924Y-95736376D01*
X50060224Y-95768833D01*
X50060219Y-95768835D01*
X49887298Y-95845826D01*
X49780394Y-95923496D01*
X49714587Y-95946975D01*
X49657073Y-95936456D01*
X49484806Y-95859756D01*
X49484801Y-95859754D01*
X49339000Y-95828764D01*
X49299645Y-95820399D01*
X49110353Y-95820399D01*
X49077896Y-95827297D01*
X48925196Y-95859754D01*
X48925191Y-95859756D01*
X48752269Y-95936747D01*
X48752264Y-95936750D01*
X48599128Y-96048010D01*
X48472465Y-96188684D01*
X48377820Y-96352614D01*
X48377817Y-96352621D01*
X48319326Y-96532639D01*
X48319325Y-96532643D01*
X48299539Y-96720899D01*
X44828902Y-96720899D01*
X44874796Y-96711144D01*
X45047723Y-96634151D01*
X45200864Y-96522888D01*
X45327526Y-96382216D01*
X45422172Y-96218284D01*
X45469597Y-96072324D01*
X45509034Y-96014650D01*
X45573393Y-95987451D01*
X45642239Y-95999366D01*
X45660405Y-96010319D01*
X45745749Y-96072325D01*
X45778424Y-96096065D01*
X45951346Y-96173056D01*
X45951351Y-96173058D01*
X46136508Y-96212414D01*
X46136509Y-96212414D01*
X46325798Y-96212414D01*
X46325800Y-96212414D01*
X46510957Y-96173058D01*
X46683884Y-96096065D01*
X46837025Y-95984802D01*
X46963687Y-95844130D01*
X46988199Y-95801672D01*
X47038765Y-95753456D01*
X47107372Y-95740232D01*
X47168473Y-95763353D01*
X47175218Y-95768254D01*
X47348139Y-95845244D01*
X47348144Y-95845246D01*
X47533301Y-95884602D01*
X47533302Y-95884602D01*
X47722591Y-95884602D01*
X47722593Y-95884602D01*
X47907750Y-95845246D01*
X48080677Y-95768253D01*
X48233818Y-95656990D01*
X48360480Y-95516318D01*
X48455126Y-95352386D01*
X48513621Y-95172358D01*
X48533407Y-94984102D01*
X48528782Y-94940103D01*
X48541351Y-94871377D01*
X48589082Y-94820353D01*
X48601667Y-94813865D01*
X48684214Y-94777112D01*
X48778612Y-94735083D01*
X48931753Y-94623820D01*
X49058415Y-94483148D01*
X49153061Y-94319216D01*
X49211556Y-94139188D01*
X49221892Y-94040845D01*
X51718071Y-94040845D01*
X51737857Y-94229101D01*
X51737858Y-94229104D01*
X51796349Y-94409122D01*
X51796352Y-94409129D01*
X51890998Y-94573061D01*
X52014442Y-94710159D01*
X52017660Y-94713733D01*
X52170796Y-94824993D01*
X52170801Y-94824996D01*
X52343723Y-94901987D01*
X52343728Y-94901989D01*
X52528885Y-94941345D01*
X52528886Y-94941345D01*
X52718175Y-94941345D01*
X52718177Y-94941345D01*
X52903334Y-94901989D01*
X53076261Y-94824996D01*
X53229402Y-94713733D01*
X53356064Y-94573061D01*
X53450710Y-94409129D01*
X53509205Y-94229101D01*
X53528991Y-94040845D01*
X53523765Y-93991119D01*
X57094540Y-93991119D01*
X57114326Y-94179375D01*
X57114327Y-94179378D01*
X57172818Y-94359396D01*
X57172821Y-94359403D01*
X57267467Y-94523335D01*
X57370943Y-94638256D01*
X57394129Y-94664007D01*
X57547265Y-94775267D01*
X57547270Y-94775270D01*
X57720192Y-94852261D01*
X57720197Y-94852263D01*
X57905354Y-94891619D01*
X57905355Y-94891619D01*
X58094644Y-94891619D01*
X58094646Y-94891619D01*
X58279803Y-94852263D01*
X58452730Y-94775270D01*
X58605871Y-94664007D01*
X58732533Y-94523335D01*
X58827179Y-94359403D01*
X58885674Y-94179375D01*
X58905460Y-93991119D01*
X58885674Y-93802863D01*
X58827179Y-93622835D01*
X58732533Y-93458903D01*
X58605871Y-93318231D01*
X58605870Y-93318230D01*
X58452734Y-93206970D01*
X58452729Y-93206967D01*
X58279807Y-93129976D01*
X58279802Y-93129974D01*
X58134001Y-93098984D01*
X58094646Y-93090619D01*
X57905354Y-93090619D01*
X57872897Y-93097517D01*
X57720197Y-93129974D01*
X57720192Y-93129976D01*
X57547270Y-93206967D01*
X57547265Y-93206970D01*
X57394129Y-93318230D01*
X57267466Y-93458904D01*
X57172821Y-93622834D01*
X57172818Y-93622841D01*
X57122904Y-93776463D01*
X57114326Y-93802863D01*
X57094540Y-93991119D01*
X53523765Y-93991119D01*
X53509205Y-93852589D01*
X53450710Y-93672561D01*
X53356064Y-93508629D01*
X53229402Y-93367957D01*
X53229401Y-93367956D01*
X53076265Y-93256696D01*
X53076260Y-93256693D01*
X52903338Y-93179702D01*
X52903333Y-93179700D01*
X52757532Y-93148710D01*
X52718177Y-93140345D01*
X52528885Y-93140345D01*
X52496428Y-93147243D01*
X52343728Y-93179700D01*
X52343723Y-93179702D01*
X52170801Y-93256693D01*
X52170796Y-93256696D01*
X52017660Y-93367956D01*
X51890997Y-93508630D01*
X51796352Y-93672560D01*
X51796349Y-93672567D01*
X51739018Y-93849015D01*
X51737857Y-93852589D01*
X51718071Y-94040845D01*
X49221892Y-94040845D01*
X49231342Y-93950932D01*
X49211556Y-93762676D01*
X49153061Y-93582648D01*
X49058415Y-93418716D01*
X48931753Y-93278044D01*
X48931752Y-93278043D01*
X48778616Y-93166783D01*
X48778611Y-93166780D01*
X48605689Y-93089789D01*
X48605684Y-93089787D01*
X48459883Y-93058797D01*
X48420528Y-93050432D01*
X48231236Y-93050432D01*
X48198779Y-93057330D01*
X48046079Y-93089787D01*
X48046074Y-93089789D01*
X47873152Y-93166780D01*
X47873147Y-93166783D01*
X47720011Y-93278043D01*
X47593348Y-93418717D01*
X47498703Y-93582647D01*
X47498700Y-93582654D01*
X47440209Y-93762672D01*
X47440208Y-93762676D01*
X47436881Y-93794330D01*
X47410297Y-93858942D01*
X47353000Y-93898927D01*
X47283181Y-93901587D01*
X47240676Y-93881685D01*
X47190193Y-93845007D01*
X47190191Y-93845006D01*
X47190192Y-93845006D01*
X47017270Y-93768015D01*
X47017265Y-93768013D01*
X46871464Y-93737023D01*
X46832109Y-93728658D01*
X46642817Y-93728658D01*
X46610360Y-93735556D01*
X46457660Y-93768013D01*
X46457655Y-93768015D01*
X46284733Y-93845006D01*
X46284728Y-93845009D01*
X46131592Y-93956269D01*
X46004929Y-94096943D01*
X45910284Y-94260873D01*
X45910281Y-94260880D01*
X45849781Y-94447082D01*
X45848115Y-94446540D01*
X45818990Y-94500463D01*
X45781353Y-94526458D01*
X45778424Y-94527762D01*
X45625283Y-94639025D01*
X45498620Y-94779699D01*
X45403975Y-94943629D01*
X45403973Y-94943633D01*
X45356549Y-95089589D01*
X45317111Y-95147264D01*
X45252752Y-95174462D01*
X45183906Y-95162547D01*
X45165738Y-95151591D01*
X45078095Y-95087915D01*
X45047722Y-95065848D01*
X44874800Y-94988857D01*
X44874795Y-94988855D01*
X44834920Y-94980380D01*
X44773438Y-94947188D01*
X44739662Y-94886025D01*
X44742769Y-94820773D01*
X44778711Y-94710159D01*
X44798497Y-94521903D01*
X44778711Y-94333647D01*
X44720216Y-94153619D01*
X44625570Y-93989687D01*
X44498908Y-93849015D01*
X44498907Y-93849014D01*
X44345771Y-93737754D01*
X44345766Y-93737751D01*
X44172844Y-93660760D01*
X44172839Y-93660758D01*
X44027038Y-93629768D01*
X43987683Y-93621403D01*
X43798391Y-93621403D01*
X43791626Y-93622841D01*
X43613234Y-93660758D01*
X43613229Y-93660760D01*
X43440307Y-93737751D01*
X43440302Y-93737754D01*
X43287166Y-93849014D01*
X43160503Y-93989688D01*
X43065858Y-94153618D01*
X43065855Y-94153625D01*
X43007364Y-94333643D01*
X43007363Y-94333647D01*
X42987577Y-94521903D01*
X13750000Y-94521903D01*
X13750000Y-94000000D01*
X28794353Y-94000000D01*
X28814834Y-94142456D01*
X28869310Y-94261740D01*
X28874623Y-94273373D01*
X28968872Y-94382143D01*
X29089947Y-94459953D01*
X29089950Y-94459954D01*
X29089949Y-94459954D01*
X29228036Y-94500499D01*
X29228038Y-94500500D01*
X29228039Y-94500500D01*
X29371962Y-94500500D01*
X29371962Y-94500499D01*
X29510053Y-94459953D01*
X29631128Y-94382143D01*
X29725377Y-94273373D01*
X29785165Y-94142457D01*
X29805647Y-94000000D01*
X29785165Y-93857543D01*
X29725377Y-93726627D01*
X29631128Y-93617857D01*
X29510053Y-93540047D01*
X29510051Y-93540046D01*
X29510049Y-93540045D01*
X29510050Y-93540045D01*
X29371963Y-93499500D01*
X29371961Y-93499500D01*
X29228039Y-93499500D01*
X29228036Y-93499500D01*
X29089949Y-93540045D01*
X28968873Y-93617856D01*
X28968872Y-93617856D01*
X28968872Y-93617857D01*
X28964559Y-93622835D01*
X28874623Y-93726626D01*
X28874622Y-93726628D01*
X28814834Y-93857543D01*
X28794353Y-94000000D01*
X13750000Y-94000000D01*
X13750000Y-93100000D01*
X23094353Y-93100000D01*
X23114834Y-93242456D01*
X23174622Y-93373371D01*
X23174623Y-93373373D01*
X23268872Y-93482143D01*
X23389947Y-93559953D01*
X23389950Y-93559954D01*
X23389949Y-93559954D01*
X23528036Y-93600499D01*
X23528038Y-93600500D01*
X23528039Y-93600500D01*
X23671962Y-93600500D01*
X23671962Y-93600499D01*
X23810053Y-93559953D01*
X23931128Y-93482143D01*
X24025377Y-93373373D01*
X24085165Y-93242457D01*
X24105647Y-93100000D01*
X24085165Y-92957543D01*
X24025377Y-92826627D01*
X23931128Y-92717857D01*
X23810053Y-92640047D01*
X23810051Y-92640046D01*
X23810049Y-92640045D01*
X23810050Y-92640045D01*
X23671963Y-92599500D01*
X23671961Y-92599500D01*
X23528039Y-92599500D01*
X23528036Y-92599500D01*
X23389949Y-92640045D01*
X23268873Y-92717856D01*
X23174623Y-92826626D01*
X23174622Y-92826628D01*
X23114834Y-92957543D01*
X23094353Y-93100000D01*
X13750000Y-93100000D01*
X13750000Y-91729500D01*
X13769685Y-91662461D01*
X13822489Y-91616706D01*
X13874000Y-91605500D01*
X18444416Y-91605500D01*
X18511455Y-91625185D01*
X18557210Y-91677989D01*
X18567154Y-91747147D01*
X18565265Y-91755292D01*
X18565674Y-91755379D01*
X18564323Y-91761734D01*
X18564322Y-91761738D01*
X18564322Y-91761740D01*
X18544536Y-91949996D01*
X18564322Y-92138252D01*
X18564323Y-92138255D01*
X18622814Y-92318273D01*
X18622817Y-92318280D01*
X18717463Y-92482212D01*
X18809247Y-92584148D01*
X18844125Y-92622884D01*
X18997261Y-92734144D01*
X18997266Y-92734147D01*
X19170188Y-92811138D01*
X19170193Y-92811140D01*
X19355350Y-92850496D01*
X19355351Y-92850496D01*
X19544640Y-92850496D01*
X19544642Y-92850496D01*
X19729799Y-92811140D01*
X19902726Y-92734147D01*
X20055867Y-92622884D01*
X20182529Y-92482212D01*
X20277175Y-92318280D01*
X20335670Y-92138252D01*
X20355456Y-91949996D01*
X20335670Y-91761740D01*
X20335667Y-91761733D01*
X20334318Y-91755379D01*
X20337244Y-91754757D01*
X20335690Y-91697826D01*
X20371845Y-91638039D01*
X20434585Y-91607290D01*
X20455576Y-91605500D01*
X36132390Y-91605500D01*
X36132392Y-91605500D01*
X36260730Y-91591743D01*
X36312099Y-91580602D01*
X36358403Y-91564625D01*
X36447633Y-91533837D01*
X36447635Y-91533835D01*
X36447640Y-91533834D01*
X36579699Y-91446968D01*
X36632561Y-91401280D01*
X36643353Y-91391725D01*
X36745589Y-91271171D01*
X36844115Y-91118286D01*
X36883721Y-91056829D01*
X36936583Y-91011141D01*
X36987952Y-91000000D01*
X37030073Y-91000000D01*
X37097112Y-91019685D01*
X37142867Y-91072489D01*
X37152811Y-91141647D01*
X37123786Y-91205203D01*
X37122292Y-91206893D01*
X37067467Y-91267784D01*
X37067465Y-91267785D01*
X37067464Y-91267788D01*
X36972821Y-91431715D01*
X36972818Y-91431722D01*
X36915773Y-91607290D01*
X36914326Y-91611744D01*
X36894540Y-91800000D01*
X36914326Y-91988256D01*
X36914327Y-91988259D01*
X36972818Y-92168277D01*
X36972821Y-92168284D01*
X37067467Y-92332216D01*
X37169417Y-92445443D01*
X37194129Y-92472888D01*
X37347265Y-92584148D01*
X37347270Y-92584151D01*
X37520192Y-92661142D01*
X37520197Y-92661144D01*
X37705354Y-92700500D01*
X37705355Y-92700500D01*
X37894644Y-92700500D01*
X37894646Y-92700500D01*
X38079803Y-92661144D01*
X38252730Y-92584151D01*
X38405871Y-92472888D01*
X38532533Y-92332216D01*
X38627179Y-92168284D01*
X38685674Y-91988256D01*
X38705460Y-91800000D01*
X38685674Y-91611744D01*
X38627179Y-91431716D01*
X38532533Y-91267784D01*
X38413316Y-91135380D01*
X38405872Y-91127113D01*
X38393713Y-91118279D01*
X38377004Y-91106139D01*
X38334340Y-91050810D01*
X38328361Y-90981196D01*
X38350170Y-90932121D01*
X39113043Y-89900000D01*
X45394540Y-89900000D01*
X45414326Y-90088256D01*
X45414327Y-90088259D01*
X45472818Y-90268277D01*
X45472821Y-90268284D01*
X45567467Y-90432216D01*
X45684093Y-90561742D01*
X45694129Y-90572888D01*
X45847265Y-90684148D01*
X45847270Y-90684151D01*
X46020192Y-90761142D01*
X46020197Y-90761144D01*
X46205354Y-90800500D01*
X46205355Y-90800500D01*
X46394644Y-90800500D01*
X46394646Y-90800500D01*
X46579803Y-90761144D01*
X46752730Y-90684151D01*
X46868565Y-90599992D01*
X47694532Y-90599992D01*
X47714318Y-90788248D01*
X47714319Y-90788251D01*
X47772810Y-90968269D01*
X47772813Y-90968276D01*
X47867459Y-91132208D01*
X47989533Y-91267784D01*
X47994121Y-91272880D01*
X48147257Y-91384140D01*
X48147262Y-91384143D01*
X48320184Y-91461134D01*
X48320189Y-91461136D01*
X48505346Y-91500492D01*
X48505347Y-91500492D01*
X48694636Y-91500492D01*
X48694638Y-91500492D01*
X48879795Y-91461136D01*
X49052722Y-91384143D01*
X49205863Y-91272880D01*
X49332525Y-91132208D01*
X49427171Y-90968276D01*
X49485666Y-90788248D01*
X49489686Y-90750002D01*
X56594542Y-90750002D01*
X56614328Y-90938258D01*
X56614329Y-90938261D01*
X56672820Y-91118279D01*
X56672823Y-91118286D01*
X56767469Y-91282218D01*
X56874673Y-91401280D01*
X56894131Y-91422890D01*
X57047267Y-91534150D01*
X57047272Y-91534153D01*
X57220194Y-91611144D01*
X57220199Y-91611146D01*
X57405356Y-91650502D01*
X57405357Y-91650502D01*
X57594646Y-91650502D01*
X57594648Y-91650502D01*
X57779805Y-91611146D01*
X57952732Y-91534153D01*
X58105873Y-91422890D01*
X58232535Y-91282218D01*
X58327181Y-91118286D01*
X58385676Y-90938258D01*
X58405462Y-90750002D01*
X58398958Y-90688123D01*
X60094540Y-90688123D01*
X60114326Y-90876379D01*
X60114327Y-90876382D01*
X60172818Y-91056400D01*
X60172821Y-91056407D01*
X60267467Y-91220339D01*
X60394129Y-91361011D01*
X60547265Y-91472271D01*
X60547270Y-91472274D01*
X60720192Y-91549265D01*
X60720197Y-91549267D01*
X60905354Y-91588623D01*
X60905355Y-91588623D01*
X61094644Y-91588623D01*
X61094646Y-91588623D01*
X61279803Y-91549267D01*
X61452730Y-91472274D01*
X61605871Y-91361011D01*
X61732533Y-91220339D01*
X61760146Y-91172510D01*
X61810712Y-91124296D01*
X61879319Y-91111072D01*
X61944184Y-91137040D01*
X61974920Y-91172511D01*
X62023735Y-91257061D01*
X62142754Y-91389245D01*
X62150397Y-91397733D01*
X62303533Y-91508993D01*
X62303538Y-91508996D01*
X62476460Y-91585987D01*
X62476465Y-91585989D01*
X62661622Y-91625345D01*
X62661623Y-91625345D01*
X62850912Y-91625345D01*
X62850914Y-91625345D01*
X63036071Y-91585989D01*
X63208998Y-91508996D01*
X63362139Y-91397733D01*
X63488801Y-91257061D01*
X63583447Y-91093129D01*
X63613707Y-91000000D01*
X72604933Y-91000000D01*
X72624719Y-91188256D01*
X72624720Y-91188259D01*
X72683211Y-91368277D01*
X72683214Y-91368284D01*
X72777860Y-91532216D01*
X72899926Y-91667784D01*
X72904522Y-91672888D01*
X73057658Y-91784148D01*
X73057663Y-91784151D01*
X73230585Y-91861142D01*
X73230590Y-91861144D01*
X73415747Y-91900500D01*
X73415748Y-91900500D01*
X73605037Y-91900500D01*
X73605039Y-91900500D01*
X73790196Y-91861144D01*
X73963123Y-91784151D01*
X74116264Y-91672888D01*
X74242926Y-91532216D01*
X74337572Y-91368284D01*
X74396067Y-91188256D01*
X74415853Y-91000000D01*
X74396067Y-90811744D01*
X74337572Y-90631716D01*
X74242926Y-90467784D01*
X74116264Y-90327112D01*
X74106254Y-90319839D01*
X73963127Y-90215851D01*
X73963122Y-90215848D01*
X73790200Y-90138857D01*
X73790195Y-90138855D01*
X73644394Y-90107865D01*
X73605039Y-90099500D01*
X73415747Y-90099500D01*
X73383290Y-90106398D01*
X73230590Y-90138855D01*
X73230585Y-90138857D01*
X73057663Y-90215848D01*
X73057658Y-90215851D01*
X72904522Y-90327111D01*
X72777859Y-90467785D01*
X72683214Y-90631715D01*
X72683211Y-90631722D01*
X72626844Y-90805203D01*
X72624719Y-90811744D01*
X72604933Y-91000000D01*
X63613707Y-91000000D01*
X63641942Y-90913101D01*
X63661728Y-90724845D01*
X63641942Y-90536589D01*
X63583447Y-90356561D01*
X63488801Y-90192629D01*
X63362139Y-90051957D01*
X63362138Y-90051956D01*
X63209002Y-89940696D01*
X63208997Y-89940693D01*
X63036075Y-89863702D01*
X63036070Y-89863700D01*
X62890269Y-89832710D01*
X62850914Y-89824345D01*
X62661622Y-89824345D01*
X62629165Y-89831243D01*
X62476465Y-89863700D01*
X62476460Y-89863702D01*
X62303538Y-89940693D01*
X62303533Y-89940696D01*
X62150397Y-90051956D01*
X62023735Y-90192628D01*
X61996121Y-90240457D01*
X61945553Y-90288672D01*
X61876946Y-90301894D01*
X61812081Y-90275926D01*
X61781348Y-90240457D01*
X61732533Y-90155907D01*
X61605871Y-90015235D01*
X61584902Y-90000000D01*
X61452734Y-89903974D01*
X61452729Y-89903971D01*
X61279807Y-89826980D01*
X61279802Y-89826978D01*
X61102253Y-89789240D01*
X61094646Y-89787623D01*
X60905354Y-89787623D01*
X60897747Y-89789240D01*
X60720197Y-89826978D01*
X60720192Y-89826980D01*
X60547270Y-89903971D01*
X60547265Y-89903974D01*
X60394129Y-90015234D01*
X60267466Y-90155908D01*
X60172821Y-90319838D01*
X60172818Y-90319845D01*
X60114992Y-90497816D01*
X60114326Y-90499867D01*
X60094540Y-90688123D01*
X58398958Y-90688123D01*
X58385676Y-90561746D01*
X58327181Y-90381718D01*
X58232535Y-90217786D01*
X58105873Y-90077114D01*
X58093022Y-90067777D01*
X57952736Y-89965853D01*
X57952731Y-89965850D01*
X57779809Y-89888859D01*
X57779804Y-89888857D01*
X57634003Y-89857867D01*
X57594648Y-89849502D01*
X57405356Y-89849502D01*
X57380878Y-89854705D01*
X57220199Y-89888857D01*
X57220194Y-89888859D01*
X57047272Y-89965850D01*
X57047267Y-89965853D01*
X56894131Y-90077113D01*
X56767468Y-90217787D01*
X56672823Y-90381717D01*
X56672820Y-90381724D01*
X56621212Y-90540559D01*
X56614328Y-90561746D01*
X56594542Y-90750002D01*
X49489686Y-90750002D01*
X49505452Y-90599992D01*
X49485666Y-90411736D01*
X49430013Y-90240455D01*
X49427173Y-90231714D01*
X49427172Y-90231713D01*
X49427171Y-90231708D01*
X49332525Y-90067776D01*
X49205863Y-89927104D01*
X49205862Y-89927103D01*
X49052726Y-89815843D01*
X49052721Y-89815840D01*
X48879799Y-89738849D01*
X48879794Y-89738847D01*
X48733993Y-89707857D01*
X48694638Y-89699492D01*
X48505346Y-89699492D01*
X48494394Y-89701820D01*
X48320189Y-89738847D01*
X48320184Y-89738849D01*
X48147262Y-89815840D01*
X48147257Y-89815843D01*
X47994121Y-89927103D01*
X47867458Y-90067777D01*
X47772813Y-90231707D01*
X47772810Y-90231714D01*
X47714319Y-90411732D01*
X47714318Y-90411736D01*
X47694532Y-90599992D01*
X46868565Y-90599992D01*
X46905871Y-90572888D01*
X47032533Y-90432216D01*
X47127179Y-90268284D01*
X47185674Y-90088256D01*
X47205460Y-89900000D01*
X47185674Y-89711744D01*
X47127179Y-89531716D01*
X47032533Y-89367784D01*
X46905871Y-89227112D01*
X46905870Y-89227111D01*
X46752734Y-89115851D01*
X46752729Y-89115848D01*
X46579807Y-89038857D01*
X46579802Y-89038855D01*
X46412641Y-89003325D01*
X46394646Y-88999500D01*
X46205354Y-88999500D01*
X46187359Y-89003325D01*
X46020197Y-89038855D01*
X46020192Y-89038857D01*
X45847270Y-89115848D01*
X45847265Y-89115851D01*
X45694129Y-89227111D01*
X45567466Y-89367785D01*
X45472821Y-89531715D01*
X45472818Y-89531722D01*
X45417550Y-89701821D01*
X45414326Y-89711744D01*
X45394540Y-89900000D01*
X39113043Y-89900000D01*
X40000000Y-88700000D01*
X40000000Y-88500000D01*
X47994540Y-88500000D01*
X48014326Y-88688256D01*
X48014327Y-88688259D01*
X48072818Y-88868277D01*
X48072821Y-88868284D01*
X48167467Y-89032216D01*
X48242770Y-89115848D01*
X48294129Y-89172888D01*
X48447265Y-89284148D01*
X48447270Y-89284151D01*
X48620192Y-89361142D01*
X48620197Y-89361144D01*
X48805354Y-89400500D01*
X48805355Y-89400500D01*
X48994644Y-89400500D01*
X48994646Y-89400500D01*
X49179803Y-89361144D01*
X49352730Y-89284151D01*
X49505871Y-89172888D01*
X49632533Y-89032216D01*
X49727179Y-88868284D01*
X49785674Y-88688256D01*
X49805460Y-88500000D01*
X49785674Y-88311744D01*
X49730454Y-88141794D01*
X52875551Y-88141794D01*
X52895337Y-88330050D01*
X52895338Y-88330053D01*
X52953829Y-88510071D01*
X52953832Y-88510078D01*
X53048478Y-88674010D01*
X53140001Y-88775656D01*
X53175140Y-88814682D01*
X53328276Y-88925942D01*
X53328281Y-88925945D01*
X53501203Y-89002936D01*
X53501208Y-89002938D01*
X53686365Y-89042294D01*
X53686366Y-89042294D01*
X53875655Y-89042294D01*
X53875657Y-89042294D01*
X54060814Y-89002938D01*
X54233741Y-88925945D01*
X54386882Y-88814682D01*
X54513544Y-88674010D01*
X54608190Y-88510078D01*
X54666685Y-88330050D01*
X54686471Y-88141794D01*
X54666685Y-87953538D01*
X54608190Y-87773510D01*
X54513544Y-87609578D01*
X54414895Y-87500017D01*
X58174538Y-87500017D01*
X58194324Y-87688273D01*
X58194325Y-87688276D01*
X58252816Y-87868294D01*
X58252819Y-87868301D01*
X58347465Y-88032233D01*
X58464752Y-88162493D01*
X58474127Y-88172905D01*
X58627263Y-88284165D01*
X58627268Y-88284168D01*
X58800190Y-88361159D01*
X58800195Y-88361161D01*
X58985352Y-88400517D01*
X58985353Y-88400517D01*
X59174642Y-88400517D01*
X59174644Y-88400517D01*
X59304780Y-88372856D01*
X59329791Y-88367540D01*
X59399459Y-88372856D01*
X59417571Y-88381442D01*
X59422265Y-88384151D01*
X59422270Y-88384155D01*
X59525586Y-88430155D01*
X59595192Y-88461146D01*
X59595197Y-88461148D01*
X59780354Y-88500504D01*
X59780355Y-88500504D01*
X59969644Y-88500504D01*
X59969646Y-88500504D01*
X60154803Y-88461148D01*
X60326110Y-88384875D01*
X60395360Y-88375591D01*
X60414871Y-88380226D01*
X60418698Y-88381469D01*
X60418709Y-88381474D01*
X60603866Y-88420830D01*
X60603867Y-88420830D01*
X60793156Y-88420830D01*
X60793158Y-88420830D01*
X60978315Y-88381474D01*
X61151242Y-88304481D01*
X61303729Y-88193692D01*
X61369535Y-88170213D01*
X61437589Y-88186038D01*
X61449499Y-88193693D01*
X61545777Y-88263643D01*
X61545782Y-88263646D01*
X61718704Y-88340637D01*
X61718709Y-88340639D01*
X61903866Y-88379995D01*
X61903867Y-88379995D01*
X62093157Y-88379995D01*
X62093158Y-88379995D01*
X62188796Y-88359666D01*
X62258460Y-88364981D01*
X62306723Y-88397982D01*
X62327295Y-88420830D01*
X62344754Y-88440220D01*
X62497890Y-88551480D01*
X62497895Y-88551483D01*
X62670817Y-88628474D01*
X62670822Y-88628476D01*
X62855979Y-88667832D01*
X62855980Y-88667832D01*
X63045269Y-88667832D01*
X63045271Y-88667832D01*
X63230428Y-88628476D01*
X63230430Y-88628474D01*
X63236612Y-88626467D01*
X63237514Y-88629245D01*
X63294106Y-88621606D01*
X63341050Y-88640893D01*
X63341637Y-88639877D01*
X63347270Y-88643129D01*
X63520192Y-88720120D01*
X63520197Y-88720122D01*
X63705354Y-88759478D01*
X63705355Y-88759478D01*
X63894644Y-88759478D01*
X63894646Y-88759478D01*
X64079803Y-88720122D01*
X64252730Y-88643129D01*
X64405871Y-88531866D01*
X64532533Y-88391194D01*
X64627179Y-88227262D01*
X64685674Y-88047234D01*
X64705460Y-87858978D01*
X64685674Y-87670722D01*
X64627179Y-87490694D01*
X64532533Y-87326762D01*
X64405871Y-87186090D01*
X64400228Y-87181990D01*
X64252734Y-87074829D01*
X64252729Y-87074826D01*
X64079807Y-86997835D01*
X64079802Y-86997833D01*
X63934001Y-86966843D01*
X63894646Y-86958478D01*
X63705354Y-86958478D01*
X63661492Y-86967801D01*
X63520199Y-86997833D01*
X63514018Y-86999842D01*
X63513131Y-86997114D01*
X63456232Y-87004660D01*
X63409571Y-86985422D01*
X63408988Y-86986433D01*
X63403354Y-86983180D01*
X63230432Y-86906189D01*
X63230427Y-86906187D01*
X63079789Y-86874169D01*
X63045271Y-86866832D01*
X62855979Y-86866832D01*
X62855974Y-86866832D01*
X62760341Y-86887159D01*
X62690674Y-86881843D01*
X62642412Y-86848843D01*
X62604383Y-86806607D01*
X62589295Y-86795645D01*
X62451246Y-86695346D01*
X62451241Y-86695343D01*
X62278319Y-86618352D01*
X62278314Y-86618350D01*
X62199801Y-86601662D01*
X62138319Y-86568469D01*
X62118195Y-86542371D01*
X62054717Y-86432423D01*
X62054715Y-86432420D01*
X61928051Y-86291746D01*
X61774915Y-86180486D01*
X61774910Y-86180483D01*
X61601988Y-86103492D01*
X61601983Y-86103490D01*
X61456182Y-86072500D01*
X61416827Y-86064135D01*
X61227535Y-86064135D01*
X61195078Y-86071033D01*
X61042378Y-86103490D01*
X61042373Y-86103492D01*
X60869451Y-86180483D01*
X60869446Y-86180486D01*
X60716310Y-86291746D01*
X60589647Y-86432420D01*
X60491764Y-86601959D01*
X60441197Y-86650175D01*
X60422701Y-86657888D01*
X60418709Y-86659185D01*
X60247402Y-86735457D01*
X60178152Y-86744742D01*
X60158651Y-86740110D01*
X60154802Y-86738859D01*
X59977333Y-86701138D01*
X59969646Y-86699504D01*
X59780354Y-86699504D01*
X59743164Y-86707409D01*
X59625207Y-86732481D01*
X59555539Y-86727165D01*
X59537432Y-86718581D01*
X59532732Y-86715868D01*
X59532725Y-86715865D01*
X59486640Y-86695346D01*
X59359805Y-86638874D01*
X59359800Y-86638872D01*
X59213999Y-86607882D01*
X59174644Y-86599517D01*
X58985352Y-86599517D01*
X58952895Y-86606415D01*
X58800195Y-86638872D01*
X58800190Y-86638874D01*
X58627268Y-86715865D01*
X58627263Y-86715868D01*
X58474127Y-86827128D01*
X58347464Y-86967802D01*
X58252819Y-87131732D01*
X58252816Y-87131739D01*
X58194325Y-87311757D01*
X58194324Y-87311761D01*
X58174538Y-87500017D01*
X54414895Y-87500017D01*
X54386882Y-87468906D01*
X54386881Y-87468905D01*
X54233745Y-87357645D01*
X54233740Y-87357642D01*
X54060818Y-87280651D01*
X54060813Y-87280649D01*
X53915012Y-87249659D01*
X53875657Y-87241294D01*
X53686365Y-87241294D01*
X53653969Y-87248180D01*
X53501208Y-87280649D01*
X53501203Y-87280651D01*
X53328281Y-87357642D01*
X53328276Y-87357645D01*
X53175140Y-87468905D01*
X53048477Y-87609579D01*
X52953832Y-87773509D01*
X52953829Y-87773516D01*
X52897078Y-87948180D01*
X52895337Y-87953538D01*
X52875551Y-88141794D01*
X49730454Y-88141794D01*
X49727179Y-88131716D01*
X49632533Y-87967784D01*
X49505871Y-87827112D01*
X49483363Y-87810759D01*
X49352734Y-87715851D01*
X49352729Y-87715848D01*
X49179807Y-87638857D01*
X49179802Y-87638855D01*
X49031855Y-87607409D01*
X48994646Y-87599500D01*
X48805354Y-87599500D01*
X48776703Y-87605590D01*
X48620197Y-87638855D01*
X48620192Y-87638857D01*
X48447270Y-87715848D01*
X48447265Y-87715851D01*
X48294129Y-87827111D01*
X48167466Y-87967785D01*
X48072821Y-88131715D01*
X48072818Y-88131722D01*
X48016451Y-88305203D01*
X48014326Y-88311744D01*
X47994540Y-88500000D01*
X40000000Y-88500000D01*
X40000000Y-77321731D01*
X40019685Y-77254692D01*
X40072489Y-77208937D01*
X40124001Y-77197731D01*
X76270507Y-77199566D01*
G37*
%TD.AperFunction*%
%TD*%
M02*
