M48
; DRILL file {KiCad 8.0.4} date 2025-01-14T23:17:26-0800
; FORMAT={-:-/ absolute / inch / decimal}
; #@! TF.CreationDate,2025-01-14T23:17:26-08:00
; #@! TF.GenerationSoftware,Kicad,Pcbnew,8.0.4
; #@! TF.FileFunction,Plated,1,4,PTH
FMAT,2
INCH
; #@! TA.AperFunction,Plated,PTH,ViaDrill
T1C0.0118
; #@! TA.AperFunction,Plated,PTH,ComponentDrill
T2C0.0118
; #@! TA.AperFunction,Plated,PTH,ComponentDrill
T3C0.0315
; #@! TA.AperFunction,Plated,PTH,ComponentDrill
T4C0.1024
%
G90
G05
T1
X0.7087Y-3.376
X0.7657Y-3.6201
X0.8794Y-3.3486
X0.9291Y-3.6654
X0.9843Y-3.4173
X1.0455Y-3.3604
X1.0472Y-3.2441
X1.1238Y-3.3758
X1.1535Y-3.7008
X1.1732Y-3.3543
X1.2677Y-3.2913
X1.4055Y-3.2598
X1.4055Y-3.2913
X1.4179Y-3.4293
X1.437Y-3.2598
X1.437Y-3.2913
X1.4685Y-3.2598
X1.4685Y-3.2913
X1.4685Y-3.3543
X1.4685Y-3.3858
X1.4882Y-3.6142
X1.5Y-3.2598
X1.5Y-3.2913
X1.5039Y-3.3543
X1.5039Y-3.3858
X1.5157Y-3.8543
X1.6535Y-3.8976
X1.7281Y-3.7213
X1.7557Y-3.7736
X1.8201Y-3.7524
X1.8228Y-3.5394
X1.8401Y-3.7256
X1.8751Y-3.7395
X1.8996Y-3.8917
X1.9026Y-3.6989
X1.9134Y-3.5669
X1.9252Y-3.4843
X1.9372Y-3.8079
X1.9819Y-3.8043
X2.0276Y-3.9035
X2.0718Y-3.7024
X2.0917Y-3.7988
X2.1174Y-3.4701
X2.126Y-3.8346
X2.2205Y-3.8386
X2.2205Y-3.8819
X2.2638Y-3.5728
X2.2764Y-3.7873
X2.2835Y-3.7004
X2.326Y-3.4449
X2.3573Y-3.4488
X2.3583Y-3.7579
X2.3897Y-3.4457
X2.3898Y-3.7835
X2.4016Y-3.5704
X2.4143Y-3.4238
X2.4409Y-3.4441
X2.4488Y-3.7874
X2.4707Y-3.5718
X2.4764Y-3.7638
X2.4784Y-3.4554
X2.4843Y-3.6969
X2.4882Y-3.8819
X2.5118Y-3.459
X2.6102Y-3.6654
X2.7087Y-3.6299
X2.7087Y-3.8819
X2.752Y-3.8071
X2.7533Y-3.7185
X2.8941Y-3.5827
X2.9647Y-3.658
X3.0742Y-3.4606
X3.3396Y-3.312
X3.435Y-3.8962
X3.6063Y-3.0787
X3.6378Y-3.4409
X3.7217Y-3.1961
X3.722Y-3.1197
X3.7362Y-3.8622
X3.7707Y-3.6142
X3.7707Y-3.6506
X3.8632Y-3.1752
X3.8719Y-3.1429
X4.0224Y-3.2102
X4.0748Y-3.5787
X4.2159Y-3.3839
X4.2189Y-3.3283
X4.2205Y-3.1594
X4.3076Y-3.1769
X4.3132Y-3.3443
X4.3142Y-3.2703
X4.315Y-3.3091
X4.3307Y-3.1457
X4.3898Y-3.6614
X4.4097Y-3.2165
X4.4194Y-3.3841
X4.4288Y-3.4162
X4.4733Y-3.3355
X4.5238Y-3.2666
X4.5276Y-3.3012
X4.5404Y-3.5512
X4.5564Y-3.2598
X4.5599Y-3.2081
X4.5626Y-3.414
X4.5866Y-3.5787
X4.5906Y-3.2008
X4.5906Y-3.2323
X4.6404Y-3.4193
X4.6772Y-3.5
X4.6847Y-3.125
X4.7065Y-3.0976
X4.8819Y-3.0571
X4.8827Y-3.4323
X4.9606Y-3.4134
X4.9606Y-3.4528
X4.9616Y-3.5384
X5.0503Y-3.1339
X5.0669Y-3.4764
X5.1029Y-3.2087
X5.1102Y-3.4843
X5.1102Y-3.5118
X5.1102Y-3.5433
X5.1106Y-3.4252
X5.1114Y-3.4547
X5.1378Y-3.4409
X5.1378Y-3.4685
X5.1378Y-3.4961
X5.1378Y-3.5276
X5.1654Y-3.426
X5.1654Y-3.4567
X5.1654Y-3.4843
X5.1654Y-3.5118
X5.1654Y-3.5433
X5.1931Y-3.74
X5.2063Y-3.2976
X5.2126Y-3.1299
X5.2362Y-3.7402
X5.2638Y-3.1299
X5.3189Y-3.1339
X5.3937Y-3.1319
X5.5098Y-3.2441
X5.5157Y-3.4252
X5.5157Y-3.4528
X5.5157Y-3.4803
X5.5157Y-3.5079
X5.5157Y-3.5394
X5.5433Y-3.437
X5.5433Y-3.4646
X5.5433Y-3.5236
X5.5437Y-3.4945
X5.5705Y-3.4248
X5.5709Y-3.4528
X5.5709Y-3.4803
X5.5709Y-3.5394
X5.5713Y-3.5106
X6.2168Y-3.1104
X6.4082Y-3.5236
X8.1969Y-3.1811
X11.5591Y-3.2953
X12.689Y-3.4508
X12.7624Y-3.478
X12.937Y-3.248
X12.9488Y-3.5
X13.5512Y-3.1929
X16.7283Y-3.311
X16.9291Y-3.437
X16.9419Y-3.4705
X16.9921Y-3.185
X18.9016Y-3.5236
X18.9016Y-3.5551
X18.9016Y-3.5866
X18.9055Y-3.1024
X18.9055Y-3.1339
X18.9055Y-3.1654
X18.9055Y-3.1969
X18.9055Y-3.2283
X18.9055Y-3.2598
X18.9291Y-3.5394
X18.9291Y-3.5709
X18.937Y-3.2283
X18.937Y-3.2598
X18.9567Y-3.5236
X18.9567Y-3.5551
X18.9567Y-3.5866
X18.9665Y-3.0768
X19.1102Y-3.5236
X19.1102Y-3.5551
X19.1102Y-3.5866
X19.1142Y-3.2323
X19.1142Y-3.2638
X19.1142Y-3.2953
X19.1142Y-3.3268
X19.1378Y-3.5394
X19.1378Y-3.5709
X19.1417Y-3.248
X19.1417Y-3.2795
X19.1417Y-3.311
X19.1417Y-3.3583
X19.1417Y-3.3898
X19.1417Y-3.4213
X19.1654Y-3.5236
X19.1654Y-3.5551
X19.1654Y-3.5866
X19.1693Y-3.3425
X19.1693Y-3.374
X19.1693Y-3.4055
X19.1969Y-3.3268
X19.1969Y-3.3583
X19.1969Y-3.3898
X19.1969Y-3.4213
T2
X0.3535Y-3.3937
X0.3543Y-3.5906
X0.3691Y-3.3504
X0.3691Y-3.437
X0.3691Y-3.6339
X0.374Y-3.5417
X0.4213Y-3.326
X0.4213Y-3.4614
X0.4213Y-3.5224
X0.4213Y-3.6583
X0.4685Y-3.5421
X0.4693Y-3.4417
X0.4735Y-3.3504
X0.4735Y-3.6339
X0.489Y-3.3937
X0.489Y-3.5906
T4
X0.4213Y-3.3937
X0.4213Y-3.5906
T3
G00X0.622Y-3.2756
M15
G01X0.622Y-3.0709
M16
G05
G00X0.622Y-3.9016
M15
G01X0.622Y-3.6969
M16
G05
G00X3.1909Y-3.2756
M15
G01X3.1909Y-3.0709
M16
G05
G00X3.1909Y-3.9016
M15
G01X3.1909Y-3.6969
M16
G05
G00X3.2874Y-3.2756
M15
G01X3.2874Y-3.0709
M16
G05
G00X3.2874Y-3.9016
M15
G01X3.2874Y-3.6969
M16
G05
G00X5.8563Y-3.2756
M15
G01X5.8563Y-3.0709
M16
G05
G00X5.8563Y-3.9016
M15
G01X5.8563Y-3.6969
M16
G05
G00X5.9547Y-3.2756
M15
G01X5.9547Y-3.0709
M16
G05
G00X5.9547Y-3.9016
M15
G01X5.9547Y-3.6969
M16
G05
G00X8.5236Y-3.2756
M15
G01X8.5236Y-3.0709
M16
G05
G00X8.5236Y-3.9016
M15
G01X8.5236Y-3.6969
M16
G05
G00X8.622Y-3.2756
M15
G01X8.622Y-3.0709
M16
G05
G00X8.622Y-3.9016
M15
G01X8.622Y-3.6969
M16
G05
G00X11.1909Y-3.2756
M15
G01X11.1909Y-3.0709
M16
G05
G00X11.1909Y-3.9016
M15
G01X11.1909Y-3.6969
M16
G05
G00X11.2894Y-3.2756
M15
G01X11.2894Y-3.0709
M16
G05
G00X11.2894Y-3.9016
M15
G01X11.2894Y-3.6969
M16
G05
G00X13.8583Y-3.2756
M15
G01X13.8583Y-3.0709
M16
G05
G00X13.8583Y-3.9016
M15
G01X13.8583Y-3.6969
M16
G05
G00X13.9567Y-3.2756
M15
G01X13.9567Y-3.0709
M16
G05
G00X13.9567Y-3.9016
M15
G01X13.9567Y-3.6969
M16
G05
G00X16.5256Y-3.2756
M15
G01X16.5256Y-3.0709
M16
G05
G00X16.5256Y-3.9016
M15
G01X16.5256Y-3.6969
M16
G05
G00X16.624Y-3.2756
M15
G01X16.624Y-3.0709
M16
G05
G00X16.624Y-3.9016
M15
G01X16.624Y-3.6969
M16
G05
G00X19.1929Y-3.2756
M15
G01X19.1929Y-3.0709
M16
G05
G00X19.1929Y-3.9016
M15
G01X19.1929Y-3.6969
M16
G05
M30
