%TF.GenerationSoftware,KiCad,Pcbnew,8.0.4*%
%TF.CreationDate,2025-01-14T23:17:26-08:00*%
%TF.ProjectId,pcb_battery,7063625f-6261-4747-9465-72792e6b6963,rev?*%
%TF.SameCoordinates,Original*%
%TF.FileFunction,Legend,Bot*%
%TF.FilePolarity,Positive*%
%FSLAX46Y46*%
G04 Gerber Fmt 4.6, Leading zero omitted, Abs format (unit mm)*
G04 Created by KiCad (PCBNEW 8.0.4) date 2025-01-14 23:17:26*
%MOMM*%
%LPD*%
G01*
G04 APERTURE LIST*
G04 Aperture macros list*
%AMRoundRect*
0 Rectangle with rounded corners*
0 $1 Rounding radius*
0 $2 $3 $4 $5 $6 $7 $8 $9 X,Y pos of 4 corners*
0 Add a 4 corners polygon primitive as box body*
4,1,4,$2,$3,$4,$5,$6,$7,$8,$9,$2,$3,0*
0 Add four circle primitives for the rounded corners*
1,1,$1+$1,$2,$3*
1,1,$1+$1,$4,$5*
1,1,$1+$1,$6,$7*
1,1,$1+$1,$8,$9*
0 Add four rect primitives between the rounded corners*
20,1,$1+$1,$2,$3,$4,$5,0*
20,1,$1+$1,$4,$5,$6,$7,0*
20,1,$1+$1,$6,$7,$8,$9,0*
20,1,$1+$1,$8,$9,$2,$3,0*%
G04 Aperture macros list end*
%ADD10C,0.150000*%
%ADD11C,0.120000*%
%ADD12O,1.400000X6.600000*%
%ADD13C,0.800000*%
%ADD14C,4.300000*%
%ADD15RoundRect,0.135000X-0.135000X-0.185000X0.135000X-0.185000X0.135000X0.185000X-0.135000X0.185000X0*%
%ADD16RoundRect,0.140000X0.140000X0.170000X-0.140000X0.170000X-0.140000X-0.170000X0.140000X-0.170000X0*%
%ADD17RoundRect,0.135000X0.135000X0.185000X-0.135000X0.185000X-0.135000X-0.185000X0.135000X-0.185000X0*%
%ADD18RoundRect,0.140000X-0.140000X-0.170000X0.140000X-0.170000X0.140000X0.170000X-0.140000X0.170000X0*%
G04 APERTURE END LIST*
D10*
X326028571Y-81652295D02*
X325571428Y-81652295D01*
X325800000Y-82452295D02*
X325800000Y-81652295D01*
X325304761Y-82452295D02*
X325304761Y-81652295D01*
X325304761Y-82033247D02*
X324847618Y-82033247D01*
X324847618Y-82452295D02*
X324847618Y-81652295D01*
X324504762Y-81728485D02*
X324466666Y-81690390D01*
X324466666Y-81690390D02*
X324390476Y-81652295D01*
X324390476Y-81652295D02*
X324200000Y-81652295D01*
X324200000Y-81652295D02*
X324123809Y-81690390D01*
X324123809Y-81690390D02*
X324085714Y-81728485D01*
X324085714Y-81728485D02*
X324047619Y-81804676D01*
X324047619Y-81804676D02*
X324047619Y-81880866D01*
X324047619Y-81880866D02*
X324085714Y-81995152D01*
X324085714Y-81995152D02*
X324542857Y-82452295D01*
X324542857Y-82452295D02*
X324047619Y-82452295D01*
X325604285Y-81276104D02*
X325642381Y-81314200D01*
X325642381Y-81314200D02*
X325756666Y-81352295D01*
X325756666Y-81352295D02*
X325832857Y-81352295D01*
X325832857Y-81352295D02*
X325947143Y-81314200D01*
X325947143Y-81314200D02*
X326023333Y-81238009D01*
X326023333Y-81238009D02*
X326061428Y-81161819D01*
X326061428Y-81161819D02*
X326099524Y-81009438D01*
X326099524Y-81009438D02*
X326099524Y-80895152D01*
X326099524Y-80895152D02*
X326061428Y-80742771D01*
X326061428Y-80742771D02*
X326023333Y-80666580D01*
X326023333Y-80666580D02*
X325947143Y-80590390D01*
X325947143Y-80590390D02*
X325832857Y-80552295D01*
X325832857Y-80552295D02*
X325756666Y-80552295D01*
X325756666Y-80552295D02*
X325642381Y-80590390D01*
X325642381Y-80590390D02*
X325604285Y-80628485D01*
X325299524Y-80628485D02*
X325261428Y-80590390D01*
X325261428Y-80590390D02*
X325185238Y-80552295D01*
X325185238Y-80552295D02*
X324994762Y-80552295D01*
X324994762Y-80552295D02*
X324918571Y-80590390D01*
X324918571Y-80590390D02*
X324880476Y-80628485D01*
X324880476Y-80628485D02*
X324842381Y-80704676D01*
X324842381Y-80704676D02*
X324842381Y-80780866D01*
X324842381Y-80780866D02*
X324880476Y-80895152D01*
X324880476Y-80895152D02*
X325337619Y-81352295D01*
X325337619Y-81352295D02*
X324842381Y-81352295D01*
X324080476Y-81352295D02*
X324537619Y-81352295D01*
X324309047Y-81352295D02*
X324309047Y-80552295D01*
X324309047Y-80552295D02*
X324385238Y-80666580D01*
X324385238Y-80666580D02*
X324461428Y-80742771D01*
X324461428Y-80742771D02*
X324537619Y-80780866D01*
X139618571Y-94062295D02*
X139161428Y-94062295D01*
X139390000Y-94862295D02*
X139390000Y-94062295D01*
X138894761Y-94862295D02*
X138894761Y-94062295D01*
X138894761Y-94443247D02*
X138437618Y-94443247D01*
X138437618Y-94862295D02*
X138437618Y-94062295D01*
X137637619Y-94862295D02*
X138094762Y-94862295D01*
X137866190Y-94862295D02*
X137866190Y-94062295D01*
X137866190Y-94062295D02*
X137942381Y-94176580D01*
X137942381Y-94176580D02*
X138018571Y-94252771D01*
X138018571Y-94252771D02*
X138094762Y-94290866D01*
X458803571Y-81937295D02*
X458346428Y-81937295D01*
X458575000Y-82737295D02*
X458575000Y-81937295D01*
X458079761Y-82737295D02*
X458079761Y-81937295D01*
X458079761Y-82318247D02*
X457622618Y-82318247D01*
X457622618Y-82737295D02*
X457622618Y-81937295D01*
X456898809Y-82203961D02*
X456898809Y-82737295D01*
X457089285Y-81899200D02*
X457279762Y-82470628D01*
X457279762Y-82470628D02*
X456784523Y-82470628D01*
X139174285Y-95956104D02*
X139212381Y-95994200D01*
X139212381Y-95994200D02*
X139326666Y-96032295D01*
X139326666Y-96032295D02*
X139402857Y-96032295D01*
X139402857Y-96032295D02*
X139517143Y-95994200D01*
X139517143Y-95994200D02*
X139593333Y-95918009D01*
X139593333Y-95918009D02*
X139631428Y-95841819D01*
X139631428Y-95841819D02*
X139669524Y-95689438D01*
X139669524Y-95689438D02*
X139669524Y-95575152D01*
X139669524Y-95575152D02*
X139631428Y-95422771D01*
X139631428Y-95422771D02*
X139593333Y-95346580D01*
X139593333Y-95346580D02*
X139517143Y-95270390D01*
X139517143Y-95270390D02*
X139402857Y-95232295D01*
X139402857Y-95232295D02*
X139326666Y-95232295D01*
X139326666Y-95232295D02*
X139212381Y-95270390D01*
X139212381Y-95270390D02*
X139174285Y-95308485D01*
X138869524Y-95308485D02*
X138831428Y-95270390D01*
X138831428Y-95270390D02*
X138755238Y-95232295D01*
X138755238Y-95232295D02*
X138564762Y-95232295D01*
X138564762Y-95232295D02*
X138488571Y-95270390D01*
X138488571Y-95270390D02*
X138450476Y-95308485D01*
X138450476Y-95308485D02*
X138412381Y-95384676D01*
X138412381Y-95384676D02*
X138412381Y-95460866D01*
X138412381Y-95460866D02*
X138450476Y-95575152D01*
X138450476Y-95575152D02*
X138907619Y-96032295D01*
X138907619Y-96032295D02*
X138412381Y-96032295D01*
X137955238Y-95575152D02*
X138031428Y-95537057D01*
X138031428Y-95537057D02*
X138069523Y-95498961D01*
X138069523Y-95498961D02*
X138107619Y-95422771D01*
X138107619Y-95422771D02*
X138107619Y-95384676D01*
X138107619Y-95384676D02*
X138069523Y-95308485D01*
X138069523Y-95308485D02*
X138031428Y-95270390D01*
X138031428Y-95270390D02*
X137955238Y-95232295D01*
X137955238Y-95232295D02*
X137802857Y-95232295D01*
X137802857Y-95232295D02*
X137726666Y-95270390D01*
X137726666Y-95270390D02*
X137688571Y-95308485D01*
X137688571Y-95308485D02*
X137650476Y-95384676D01*
X137650476Y-95384676D02*
X137650476Y-95422771D01*
X137650476Y-95422771D02*
X137688571Y-95498961D01*
X137688571Y-95498961D02*
X137726666Y-95537057D01*
X137726666Y-95537057D02*
X137802857Y-95575152D01*
X137802857Y-95575152D02*
X137955238Y-95575152D01*
X137955238Y-95575152D02*
X138031428Y-95613247D01*
X138031428Y-95613247D02*
X138069523Y-95651342D01*
X138069523Y-95651342D02*
X138107619Y-95727533D01*
X138107619Y-95727533D02*
X138107619Y-95879914D01*
X138107619Y-95879914D02*
X138069523Y-95956104D01*
X138069523Y-95956104D02*
X138031428Y-95994200D01*
X138031428Y-95994200D02*
X137955238Y-96032295D01*
X137955238Y-96032295D02*
X137802857Y-96032295D01*
X137802857Y-96032295D02*
X137726666Y-95994200D01*
X137726666Y-95994200D02*
X137688571Y-95956104D01*
X137688571Y-95956104D02*
X137650476Y-95879914D01*
X137650476Y-95879914D02*
X137650476Y-95727533D01*
X137650476Y-95727533D02*
X137688571Y-95651342D01*
X137688571Y-95651342D02*
X137726666Y-95613247D01*
X137726666Y-95613247D02*
X137802857Y-95575152D01*
X458264285Y-81586104D02*
X458302381Y-81624200D01*
X458302381Y-81624200D02*
X458416666Y-81662295D01*
X458416666Y-81662295D02*
X458492857Y-81662295D01*
X458492857Y-81662295D02*
X458607143Y-81624200D01*
X458607143Y-81624200D02*
X458683333Y-81548009D01*
X458683333Y-81548009D02*
X458721428Y-81471819D01*
X458721428Y-81471819D02*
X458759524Y-81319438D01*
X458759524Y-81319438D02*
X458759524Y-81205152D01*
X458759524Y-81205152D02*
X458721428Y-81052771D01*
X458721428Y-81052771D02*
X458683333Y-80976580D01*
X458683333Y-80976580D02*
X458607143Y-80900390D01*
X458607143Y-80900390D02*
X458492857Y-80862295D01*
X458492857Y-80862295D02*
X458416666Y-80862295D01*
X458416666Y-80862295D02*
X458302381Y-80900390D01*
X458302381Y-80900390D02*
X458264285Y-80938485D01*
X457959524Y-80938485D02*
X457921428Y-80900390D01*
X457921428Y-80900390D02*
X457845238Y-80862295D01*
X457845238Y-80862295D02*
X457654762Y-80862295D01*
X457654762Y-80862295D02*
X457578571Y-80900390D01*
X457578571Y-80900390D02*
X457540476Y-80938485D01*
X457540476Y-80938485D02*
X457502381Y-81014676D01*
X457502381Y-81014676D02*
X457502381Y-81090866D01*
X457502381Y-81090866D02*
X457540476Y-81205152D01*
X457540476Y-81205152D02*
X457997619Y-81662295D01*
X457997619Y-81662295D02*
X457502381Y-81662295D01*
X457007142Y-80862295D02*
X456930952Y-80862295D01*
X456930952Y-80862295D02*
X456854761Y-80900390D01*
X456854761Y-80900390D02*
X456816666Y-80938485D01*
X456816666Y-80938485D02*
X456778571Y-81014676D01*
X456778571Y-81014676D02*
X456740476Y-81167057D01*
X456740476Y-81167057D02*
X456740476Y-81357533D01*
X456740476Y-81357533D02*
X456778571Y-81509914D01*
X456778571Y-81509914D02*
X456816666Y-81586104D01*
X456816666Y-81586104D02*
X456854761Y-81624200D01*
X456854761Y-81624200D02*
X456930952Y-81662295D01*
X456930952Y-81662295D02*
X457007142Y-81662295D01*
X457007142Y-81662295D02*
X457083333Y-81624200D01*
X457083333Y-81624200D02*
X457121428Y-81586104D01*
X457121428Y-81586104D02*
X457159523Y-81509914D01*
X457159523Y-81509914D02*
X457197619Y-81357533D01*
X457197619Y-81357533D02*
X457197619Y-81167057D01*
X457197619Y-81167057D02*
X457159523Y-81014676D01*
X457159523Y-81014676D02*
X457121428Y-80938485D01*
X457121428Y-80938485D02*
X457083333Y-80900390D01*
X457083333Y-80900390D02*
X457007142Y-80862295D01*
D11*
%TO.C,TH2*%
X327463641Y-81610000D02*
X327156359Y-81610000D01*
X327463641Y-82370000D02*
X327156359Y-82370000D01*
%TO.C,C21*%
X327202164Y-80640000D02*
X327417836Y-80640000D01*
X327202164Y-81360000D02*
X327417836Y-81360000D01*
%TO.C,TH1*%
X136061359Y-94245000D02*
X136368641Y-94245000D01*
X136061359Y-95005000D02*
X136368641Y-95005000D01*
%TO.C,TH4*%
X460468641Y-81870000D02*
X460161359Y-81870000D01*
X460468641Y-82630000D02*
X460161359Y-82630000D01*
%TO.C,C28*%
X136327836Y-95290000D02*
X136112164Y-95290000D01*
X136327836Y-96010000D02*
X136112164Y-96010000D01*
%TO.C,C20*%
X460187164Y-80915000D02*
X460402836Y-80915000D01*
X460187164Y-81635000D02*
X460402836Y-81635000D01*
%TD*%
%LPC*%
D12*
%TO.C,BT4*%
X422250000Y-96500000D03*
X487500000Y-96500000D03*
X422250000Y-80600000D03*
X487500000Y-80600000D03*
%TD*%
%TO.C,BT2*%
X216500000Y-80600000D03*
X151250000Y-80600000D03*
X216500000Y-96500000D03*
X151250000Y-96500000D03*
%TD*%
%TO.C,BT5*%
X83500000Y-96500000D03*
X148750000Y-96500000D03*
X83500000Y-80600000D03*
X148750000Y-80600000D03*
%TD*%
D13*
%TO.C,H1*%
X9000000Y-91200000D03*
X9374175Y-92300000D03*
X9500000Y-89960000D03*
X10700000Y-89470000D03*
D14*
X10700000Y-91200000D03*
D13*
X10700000Y-92920000D03*
X11900000Y-89970000D03*
X12025825Y-92300000D03*
X12420000Y-91200000D03*
%TD*%
D12*
%TO.C,BT6*%
X219000000Y-96500000D03*
X284250000Y-96500000D03*
X219000000Y-80600000D03*
X284250000Y-80600000D03*
%TD*%
D13*
%TO.C,H2*%
X8980000Y-86200000D03*
X9374175Y-85100000D03*
X9374175Y-87300000D03*
X10700000Y-84480000D03*
D14*
X10700000Y-86200000D03*
D13*
X10700000Y-87920000D03*
X11920000Y-87420000D03*
X12025825Y-85100000D03*
X12420000Y-86200000D03*
%TD*%
D12*
%TO.C,BT3*%
X286750000Y-96500000D03*
X352000000Y-96500000D03*
X286750000Y-80600000D03*
X352000000Y-80600000D03*
%TD*%
%TO.C,BT1*%
X15800000Y-96500000D03*
X81050000Y-96500000D03*
X15800000Y-80600000D03*
X81050000Y-80600000D03*
%TD*%
%TO.C,BT7*%
X354500000Y-96500000D03*
X419750000Y-96500000D03*
X354500000Y-80600000D03*
X419750000Y-80600000D03*
%TD*%
D15*
%TO.C,TH2*%
X326800000Y-81990000D03*
X327820000Y-81990000D03*
%TD*%
D16*
%TO.C,C21*%
X327790000Y-81000000D03*
X326830000Y-81000000D03*
%TD*%
D17*
%TO.C,TH1*%
X136725000Y-94625000D03*
X135705000Y-94625000D03*
%TD*%
D15*
%TO.C,TH4*%
X459805000Y-82250000D03*
X460825000Y-82250000D03*
%TD*%
D18*
%TO.C,C28*%
X135740000Y-95650000D03*
X136700000Y-95650000D03*
%TD*%
D16*
%TO.C,C20*%
X460775000Y-81275000D03*
X459815000Y-81275000D03*
%TD*%
%LPD*%
M02*
