%TF.GenerationSoftware,KiCad,Pcbnew,8.0.4*%
%TF.CreationDate,2025-01-14T23:17:26-08:00*%
%TF.ProjectId,pcb_battery,7063625f-6261-4747-9465-72792e6b6963,rev?*%
%TF.SameCoordinates,Original*%
%TF.FileFunction,Soldermask,Bot*%
%TF.FilePolarity,Negative*%
%FSLAX46Y46*%
G04 Gerber Fmt 4.6, Leading zero omitted, Abs format (unit mm)*
G04 Created by KiCad (PCBNEW 8.0.4) date 2025-01-14 23:17:26*
%MOMM*%
%LPD*%
G01*
G04 APERTURE LIST*
G04 Aperture macros list*
%AMRoundRect*
0 Rectangle with rounded corners*
0 $1 Rounding radius*
0 $2 $3 $4 $5 $6 $7 $8 $9 X,Y pos of 4 corners*
0 Add a 4 corners polygon primitive as box body*
4,1,4,$2,$3,$4,$5,$6,$7,$8,$9,$2,$3,0*
0 Add four circle primitives for the rounded corners*
1,1,$1+$1,$2,$3*
1,1,$1+$1,$4,$5*
1,1,$1+$1,$6,$7*
1,1,$1+$1,$8,$9*
0 Add four rect primitives between the rounded corners*
20,1,$1+$1,$2,$3,$4,$5,0*
20,1,$1+$1,$4,$5,$6,$7,0*
20,1,$1+$1,$6,$7,$8,$9,0*
20,1,$1+$1,$8,$9,$2,$3,0*%
G04 Aperture macros list end*
%ADD10O,1.400000X6.600000*%
%ADD11C,0.800000*%
%ADD12C,4.300000*%
%ADD13RoundRect,0.135000X-0.135000X-0.185000X0.135000X-0.185000X0.135000X0.185000X-0.135000X0.185000X0*%
%ADD14RoundRect,0.140000X0.140000X0.170000X-0.140000X0.170000X-0.140000X-0.170000X0.140000X-0.170000X0*%
%ADD15RoundRect,0.135000X0.135000X0.185000X-0.135000X0.185000X-0.135000X-0.185000X0.135000X-0.185000X0*%
%ADD16RoundRect,0.140000X-0.140000X-0.170000X0.140000X-0.170000X0.140000X0.170000X-0.140000X0.170000X0*%
G04 APERTURE END LIST*
D10*
%TO.C,BT4*%
X422250000Y-96500000D03*
X487500000Y-96500000D03*
X422250000Y-80600000D03*
X487500000Y-80600000D03*
%TD*%
%TO.C,BT2*%
X216500000Y-80600000D03*
X151250000Y-80600000D03*
X216500000Y-96500000D03*
X151250000Y-96500000D03*
%TD*%
%TO.C,BT5*%
X83500000Y-96500000D03*
X148750000Y-96500000D03*
X83500000Y-80600000D03*
X148750000Y-80600000D03*
%TD*%
D11*
%TO.C,H1*%
X9000000Y-91200000D03*
X9374175Y-92300000D03*
X9500000Y-89960000D03*
X10700000Y-89470000D03*
D12*
X10700000Y-91200000D03*
D11*
X10700000Y-92920000D03*
X11900000Y-89970000D03*
X12025825Y-92300000D03*
X12420000Y-91200000D03*
%TD*%
D10*
%TO.C,BT6*%
X219000000Y-96500000D03*
X284250000Y-96500000D03*
X219000000Y-80600000D03*
X284250000Y-80600000D03*
%TD*%
D11*
%TO.C,H2*%
X8980000Y-86200000D03*
X9374175Y-85100000D03*
X9374175Y-87300000D03*
X10700000Y-84480000D03*
D12*
X10700000Y-86200000D03*
D11*
X10700000Y-87920000D03*
X11920000Y-87420000D03*
X12025825Y-85100000D03*
X12420000Y-86200000D03*
%TD*%
D10*
%TO.C,BT3*%
X286750000Y-96500000D03*
X352000000Y-96500000D03*
X286750000Y-80600000D03*
X352000000Y-80600000D03*
%TD*%
%TO.C,BT1*%
X15800000Y-96500000D03*
X81050000Y-96500000D03*
X15800000Y-80600000D03*
X81050000Y-80600000D03*
%TD*%
%TO.C,BT7*%
X354500000Y-96500000D03*
X419750000Y-96500000D03*
X354500000Y-80600000D03*
X419750000Y-80600000D03*
%TD*%
D13*
%TO.C,TH2*%
X326800000Y-81990000D03*
X327820000Y-81990000D03*
%TD*%
D14*
%TO.C,C21*%
X327790000Y-81000000D03*
X326830000Y-81000000D03*
%TD*%
D15*
%TO.C,TH1*%
X136725000Y-94625000D03*
X135705000Y-94625000D03*
%TD*%
D13*
%TO.C,TH4*%
X459805000Y-82250000D03*
X460825000Y-82250000D03*
%TD*%
D16*
%TO.C,C28*%
X135740000Y-95650000D03*
X136700000Y-95650000D03*
%TD*%
D14*
%TO.C,C20*%
X460775000Y-81275000D03*
X459815000Y-81275000D03*
%TD*%
M02*
