%TF.GenerationSoftware,KiCad,Pcbnew,8.0.4*%
%TF.CreationDate,2025-01-14T23:17:26-08:00*%
%TF.ProjectId,pcb_battery,7063625f-6261-4747-9465-72792e6b6963,rev?*%
%TF.SameCoordinates,Original*%
%TF.FileFunction,Copper,L3,Inr*%
%TF.FilePolarity,Positive*%
%FSLAX46Y46*%
G04 Gerber Fmt 4.6, Leading zero omitted, Abs format (unit mm)*
G04 Created by KiCad (PCBNEW 8.0.4) date 2025-01-14 23:17:26*
%MOMM*%
%LPD*%
G01*
G04 APERTURE LIST*
%TA.AperFunction,ComponentPad*%
%ADD10O,1.400000X6.600000*%
%TD*%
%TA.AperFunction,ComponentPad*%
%ADD11C,0.800000*%
%TD*%
%TA.AperFunction,ComponentPad*%
%ADD12C,4.300000*%
%TD*%
%TA.AperFunction,ViaPad*%
%ADD13C,0.600000*%
%TD*%
%TA.AperFunction,Conductor*%
%ADD14C,0.300000*%
%TD*%
%TA.AperFunction,Conductor*%
%ADD15C,0.200000*%
%TD*%
G04 APERTURE END LIST*
D10*
%TO.N,Net-(BT3---Pad4)*%
%TO.C,BT4*%
X422250000Y-96500000D03*
%TO.N,Net-(BT4---Pad2)*%
X487500000Y-96500000D03*
%TO.N,Net-(BT4-+-Pad3)*%
X422250000Y-80600000D03*
%TO.N,Net-(BT4---Pad4)*%
X487500000Y-80600000D03*
%TD*%
%TO.N,Net-(BT2---Pad4)*%
%TO.C,BT2*%
X216500000Y-80600000D03*
%TO.N,Net-(BT2-+-Pad3)*%
X151250000Y-80600000D03*
%TO.N,Net-(BT2---Pad2)*%
X216500000Y-96500000D03*
%TO.N,Net-(BT1---Pad4)*%
X151250000Y-96500000D03*
%TD*%
%TO.N,BATT+*%
%TO.C,BT5*%
X83500000Y-96500000D03*
%TO.N,Net-(BT1---Pad2)*%
X148750000Y-96500000D03*
%TO.N,Net-(BT1-+-Pad3)*%
X83500000Y-80600000D03*
%TO.N,Net-(BT1---Pad4)*%
X148750000Y-80600000D03*
%TD*%
D11*
%TO.N,POUT*%
%TO.C,H1*%
X9000000Y-91200000D03*
X9374175Y-92300000D03*
X9500000Y-89960000D03*
X10700000Y-89470000D03*
D12*
X10700000Y-91200000D03*
D11*
X10700000Y-92920000D03*
X11900000Y-89970000D03*
X12025825Y-92300000D03*
X12420000Y-91200000D03*
%TD*%
D10*
%TO.N,Net-(BT1---Pad4)*%
%TO.C,BT6*%
X219000000Y-96500000D03*
%TO.N,Net-(BT2---Pad2)*%
X284250000Y-96500000D03*
%TO.N,Net-(BT2-+-Pad3)*%
X219000000Y-80600000D03*
%TO.N,Net-(BT2---Pad4)*%
X284250000Y-80600000D03*
%TD*%
D11*
%TO.N,PGND*%
%TO.C,H2*%
X8980000Y-86200000D03*
X9374175Y-85100000D03*
X9374175Y-87300000D03*
X10700000Y-84480000D03*
D12*
X10700000Y-86200000D03*
D11*
X10700000Y-87920000D03*
X11920000Y-87420000D03*
X12025825Y-85100000D03*
X12420000Y-86200000D03*
%TD*%
D10*
%TO.N,Net-(BT2---Pad4)*%
%TO.C,BT3*%
X286750000Y-96500000D03*
%TO.N,Net-(BT3---Pad2)*%
X352000000Y-96500000D03*
%TO.N,Net-(BT3-+-Pad3)*%
X286750000Y-80600000D03*
%TO.N,Net-(BT3---Pad4)*%
X352000000Y-80600000D03*
%TD*%
%TO.N,BATT+*%
%TO.C,BT1*%
X15800000Y-96500000D03*
%TO.N,Net-(BT1---Pad2)*%
X81050000Y-96500000D03*
%TO.N,Net-(BT1-+-Pad3)*%
X15800000Y-80600000D03*
%TO.N,Net-(BT1---Pad4)*%
X81050000Y-80600000D03*
%TD*%
%TO.N,Net-(BT2---Pad4)*%
%TO.C,BT7*%
X354500000Y-96500000D03*
%TO.N,Net-(BT3---Pad2)*%
X419750000Y-96500000D03*
%TO.N,Net-(BT3-+-Pad3)*%
X354500000Y-80600000D03*
%TO.N,Net-(BT3---Pad4)*%
X419750000Y-80600000D03*
%TD*%
D13*
%TO.N,BATT+_FUSED*%
X23600000Y-93100000D03*
X29300000Y-94000000D03*
%TO.N,VSS*%
X37800000Y-91800000D03*
%TO.N,PGND*%
X35700000Y-82800000D03*
X38200000Y-86000000D03*
X37300000Y-86000000D03*
X36500000Y-83600000D03*
X36500000Y-82800000D03*
X37300000Y-82800000D03*
X38100000Y-82800000D03*
X38100000Y-83600000D03*
X37300000Y-83600000D03*
%TO.N,VDD*%
X42000000Y-99000000D03*
%TO.N,/CONTROL/UART_TX_EN*%
X49204999Y-96720899D03*
%TO.N,VSS*%
X46300000Y-89900000D03*
X44594993Y-95850000D03*
%TO.N,/CONTROL/~{UART_RX_EN}*%
X47627947Y-94984102D03*
X51500000Y-99149956D03*
%TO.N,VDD*%
X48250000Y-98850000D03*
%TO.N,VSS*%
X75303388Y-92914159D03*
%TO.N,BATT+*%
X111500000Y-93000000D03*
X87250000Y-98962500D03*
%TO.N,Net-(BT3---Pad4)*%
X486800000Y-89500000D03*
X485400000Y-91100000D03*
X480100000Y-90300000D03*
X480100000Y-89500000D03*
X486100000Y-89900000D03*
X485400000Y-90300000D03*
X480800000Y-89900000D03*
X481500000Y-90300000D03*
X480100000Y-91100000D03*
X486100000Y-90700000D03*
X480800000Y-90700000D03*
X481500000Y-91100000D03*
X481500000Y-89500000D03*
X486800000Y-90300000D03*
X486800000Y-91100000D03*
X485400000Y-89500000D03*
%TO.N,Net-(BT4---Pad4)*%
X486900000Y-86500000D03*
X485500000Y-84500000D03*
X485500000Y-83700000D03*
X140800000Y-87300000D03*
X481000000Y-82800000D03*
X487600000Y-86100000D03*
X141490000Y-86990000D03*
X140810000Y-88760000D03*
X486200000Y-86900000D03*
X485500000Y-82900000D03*
X140100000Y-88400000D03*
X480200000Y-79600000D03*
X487600000Y-85300000D03*
X140800000Y-89500000D03*
X486200000Y-85300000D03*
X486200000Y-82500000D03*
X140100000Y-89100000D03*
X486200000Y-86100000D03*
X486900000Y-84900000D03*
X141500000Y-87700000D03*
X140100000Y-89900000D03*
X140100000Y-87000000D03*
X140800000Y-88000000D03*
X485500000Y-82100000D03*
X140100000Y-87700000D03*
X141500000Y-89900000D03*
X487600000Y-84500000D03*
X487600000Y-86900000D03*
X141510000Y-89170000D03*
X141500000Y-88400000D03*
X486900000Y-85700000D03*
X480200000Y-81200000D03*
X480200000Y-82800000D03*
X486200000Y-83300000D03*
X480200000Y-78800000D03*
X480200000Y-80400000D03*
X486200000Y-84100000D03*
X481000000Y-82000000D03*
X480200000Y-82000000D03*
%TO.N,/BQ76972/SRP*%
X126000000Y-86700000D03*
X116600000Y-82100000D03*
%TO.N,/BQ76972/SRN*%
X126000000Y-87700000D03*
X115733505Y-82800000D03*
%TO.N,Net-(U1-VC14)*%
X92400000Y-87400000D03*
X117866809Y-86850000D03*
%TO.N,Net-(U1-VC16)*%
X94900000Y-98100000D03*
X118800000Y-88900000D03*
%TO.N,Net-(U1-VC12)*%
X113620780Y-84721682D03*
X91600000Y-78200000D03*
%TO.N,Net-(U1-VC8)*%
X162768110Y-89500000D03*
X132239187Y-83758426D03*
%TO.N,Net-(U1-VC7)*%
X157906945Y-79003104D03*
X137000000Y-79550000D03*
%TO.N,Net-(U1-VC6)*%
X135100000Y-79600000D03*
X208200000Y-80800000D03*
%TO.N,Net-(U1-VC5)*%
X328900000Y-88900000D03*
X129613228Y-81499997D03*
%TO.N,Net-(U1-VC4)*%
X293600000Y-83700000D03*
X133700000Y-79500000D03*
%TO.N,Net-(U1-VC3)*%
X132400011Y-79500011D03*
X344200000Y-81100000D03*
%TO.N,Net-(U1-VC2)*%
X128278529Y-79600000D03*
X430325142Y-88150000D03*
%TO.N,Net-(U1-VC1)*%
X431600000Y-80900000D03*
X119545370Y-78679164D03*
%TO.N,POUT*%
X28544975Y-85744975D03*
X103500000Y-90900000D03*
%TO.N,VSS*%
X50340027Y-96629978D03*
X107160000Y-84540000D03*
X126025831Y-89874169D03*
X328600000Y-82500000D03*
X424900000Y-84100000D03*
X124020000Y-87180000D03*
X63100000Y-93900000D03*
X94540000Y-79240000D03*
X94529998Y-81180000D03*
X53781011Y-88141794D03*
X66300000Y-93100000D03*
X68800000Y-92200000D03*
X95774993Y-91800007D03*
X68800000Y-98600000D03*
X112490471Y-86771231D03*
X128700000Y-88300000D03*
X54000000Y-97400000D03*
X52623531Y-94040845D03*
X38500000Y-97900000D03*
X322300000Y-87650000D03*
X107082665Y-85950000D03*
X115820651Y-81485684D03*
X133000000Y-95000000D03*
X63200000Y-98600000D03*
X48900000Y-88500000D03*
X69933577Y-94450000D03*
X118991576Y-79375000D03*
X95775000Y-92725000D03*
%TO.N,Net-(U1-VC0)*%
X139950000Y-82400000D03*
X124000000Y-77650000D03*
X481750000Y-78150000D03*
X116600000Y-81300000D03*
%TO.N,/BQ76972/TS1*%
X114903326Y-82972523D03*
X430000000Y-87300000D03*
%TO.N,/BQ76972/TS3*%
X115000116Y-83849331D03*
X324165981Y-88340325D03*
%TO.N,REG18*%
X112007083Y-81700000D03*
X61322181Y-86964635D03*
X61000000Y-90688123D03*
%TO.N,PGND*%
X129800000Y-88500000D03*
X129830000Y-87750000D03*
X129810000Y-87000000D03*
X131200000Y-87800000D03*
X131200000Y-88500000D03*
X129800000Y-89200000D03*
X130500000Y-88800000D03*
X131200000Y-90000000D03*
X130500000Y-87400000D03*
X131200000Y-87020000D03*
X131200000Y-89200000D03*
X130500000Y-89600000D03*
X130500000Y-88100000D03*
X35700000Y-83600000D03*
X129800000Y-90000000D03*
%TO.N,VDD*%
X69900000Y-96700000D03*
X53128747Y-96490000D03*
X57500002Y-90750002D03*
X62900000Y-95600000D03*
X56400000Y-98600000D03*
%TO.N,/BQ76972/TS5*%
X131905025Y-94994975D03*
X115890945Y-86715249D03*
%TO.N,+3V3*%
X48599992Y-90599992D03*
X73510393Y-91000000D03*
X78085238Y-87900001D03*
X112253020Y-85955068D03*
X107200000Y-80250000D03*
%TO.N,Net-(D6-K)*%
X19449996Y-91949996D03*
X22336880Y-85054635D03*
X26555025Y-85355025D03*
X18000000Y-85750000D03*
%TO.N,Net-(D8-K)*%
X32200000Y-83600000D03*
X26600000Y-82400000D03*
%TO.N,DSG*%
X115325000Y-90200000D03*
X29800000Y-85200000D03*
%TO.N,CD*%
X25000000Y-86800000D03*
X84824693Y-84124695D03*
%TO.N,DFETOFF*%
X61998512Y-87479495D03*
X109600000Y-84050003D03*
%TO.N,RST_SHUT*%
X63800000Y-87858978D03*
X109555000Y-84945000D03*
X62756268Y-90724845D03*
X58000000Y-93991119D03*
%TO.N,SDA*%
X59079998Y-87500017D03*
X98345978Y-79829223D03*
X109412707Y-80692994D03*
%TO.N,SCL*%
X59875000Y-87600004D03*
X98124992Y-80650004D03*
X110000000Y-79900000D03*
%TO.N,CFETOFF*%
X62950625Y-87767332D03*
X109579998Y-83066337D03*
%TO.N,CHG*%
X116500000Y-90900000D03*
X36014007Y-87103958D03*
%TO.N,/CONTROL/LED1*%
X62200000Y-96200000D03*
X43893037Y-94521903D03*
%TO.N,/CONTROL/UART_TX_EN*%
X46737463Y-94629158D03*
X59900544Y-95450000D03*
%TO.N,/CONTROL/~{UART_RX_EN}*%
X60700000Y-96100000D03*
%TO.N,ALERT*%
X60698512Y-87520330D03*
X102170000Y-81540000D03*
%TO.N,/CONTROL/UART_RX*%
X48325882Y-93950932D03*
X57820449Y-96197993D03*
%TO.N,/CONTROL/UART_TX*%
X46231154Y-95311914D03*
X56400000Y-97500000D03*
%TO.N,PGND*%
X37300000Y-85200000D03*
X38200000Y-85200000D03*
%TD*%
D14*
%TO.N,VSS*%
X71475012Y-92908565D02*
X69933577Y-94450000D01*
X75389950Y-92908565D02*
X71475012Y-92908565D01*
X69933577Y-94266423D02*
X69933577Y-94450000D01*
X67650000Y-94450000D02*
X69933577Y-94450000D01*
X70000000Y-94200000D02*
X69933577Y-94266423D01*
X66300000Y-93100000D02*
X67650000Y-94450000D01*
D15*
%TO.N,/CONTROL/UART_TX_EN*%
X48056643Y-93309978D02*
X46737463Y-94629158D01*
X48056643Y-93300932D02*
X48056643Y-93309978D01*
D14*
%TO.N,VSS*%
X48900000Y-88719710D02*
X48900000Y-88500000D01*
X47719710Y-89900000D02*
X48900000Y-88719710D01*
X46300000Y-89900000D02*
X47719710Y-89900000D01*
D15*
%TO.N,/CONTROL/LED1*%
X45514008Y-92900932D02*
X43893037Y-94521903D01*
X58900932Y-92900932D02*
X45514008Y-92900932D01*
X62200000Y-96200000D02*
X58900932Y-92900932D01*
%TO.N,/CONTROL/UART_TX_EN*%
X46607907Y-94758714D02*
X46737463Y-94629158D01*
D14*
%TO.N,VDD*%
X50768747Y-98850000D02*
X48250000Y-98850000D01*
X53128747Y-96490000D02*
X50768747Y-98850000D01*
D15*
%TO.N,/CONTROL/~{UART_RX_EN}*%
X51700044Y-99350000D02*
X51500000Y-99149956D01*
X52000000Y-99350000D02*
X51700044Y-99350000D01*
X52000000Y-99350000D02*
X57450000Y-99350000D01*
X57450000Y-99350000D02*
X60700000Y-96100000D01*
%TO.N,RST_SHUT*%
X63800000Y-89681113D02*
X63800000Y-87858978D01*
X62756268Y-90724845D02*
X63800000Y-89681113D01*
%TO.N,REG18*%
X61458157Y-87100611D02*
X61322181Y-86964635D01*
X61348512Y-87210256D02*
X61458157Y-87100611D01*
X61500000Y-90188123D02*
X61500000Y-87900222D01*
X61000000Y-90688123D02*
X61500000Y-90188123D01*
X61500000Y-87900222D02*
X61348512Y-87748734D01*
X61348512Y-87748734D02*
X61348512Y-87210256D01*
D14*
%TO.N,Net-(BT4---Pad4)*%
X322910050Y-89600000D02*
X473400000Y-89600000D01*
X143260049Y-88850000D02*
X322160050Y-88850000D01*
X473400000Y-89600000D02*
X480200000Y-82800000D01*
X322160050Y-88850000D02*
X322910050Y-89600000D01*
%TO.N,VSS*%
X63900000Y-93100000D02*
X66300000Y-93100000D01*
X48800000Y-88500000D02*
X48900000Y-88500000D01*
X63000000Y-93800000D02*
X63100000Y-93900000D01*
X63100000Y-93900000D02*
X63900000Y-93100000D01*
D15*
%TO.N,Net-(D6-K)*%
X22347439Y-85065189D02*
X22336885Y-85054635D01*
X22336885Y-85054635D02*
X22336880Y-85054635D01*
%TO.N,/CONTROL/UART_RX*%
X54600000Y-95884315D02*
X57506771Y-95884315D01*
X57506771Y-95884315D02*
X57820449Y-96197993D01*
%TO.N,/CONTROL/UART_TX_EN*%
X48595121Y-93300932D02*
X48056643Y-93300932D01*
X48975882Y-93681693D02*
X48595121Y-93300932D01*
X50423479Y-95450000D02*
X48975882Y-94002403D01*
X59900544Y-95450000D02*
X50423479Y-95450000D01*
X48975882Y-94002403D02*
X48975882Y-93681693D01*
%TO.N,/CONTROL/~{UART_RX_EN}*%
X47980761Y-99650000D02*
X47291786Y-98961025D01*
X47291786Y-95320263D02*
X47627947Y-94984102D01*
X50999956Y-99650000D02*
X47980761Y-99650000D01*
X47291786Y-98961025D02*
X47291786Y-95320263D01*
X51500000Y-99149956D02*
X50999956Y-99650000D01*
%TO.N,/CONTROL/UART_RX*%
X50259265Y-95884315D02*
X48325882Y-93950932D01*
X54600000Y-95884315D02*
X50259265Y-95884315D01*
%TO.N,/CONTROL/UART_TX_EN*%
X47470418Y-93970418D02*
X49204999Y-95704999D01*
X49204999Y-95704999D02*
X49204999Y-96720899D01*
%TD*%
%TA.AperFunction,Conductor*%
%TO.N,Net-(BT4---Pad4)*%
G36*
X147973939Y-77203205D02*
G01*
X148040977Y-77222893D01*
X148086729Y-77275699D01*
X148096669Y-77344858D01*
X148067641Y-77408412D01*
X148061616Y-77414883D01*
X148050540Y-77425959D01*
X148050535Y-77425965D01*
X147951990Y-77573446D01*
X147951983Y-77573459D01*
X147884106Y-77737332D01*
X147884103Y-77737341D01*
X147849500Y-77911304D01*
X147849500Y-83288695D01*
X147884103Y-83462658D01*
X147884106Y-83462667D01*
X147951983Y-83626540D01*
X147951990Y-83626553D01*
X148050535Y-83774034D01*
X148050538Y-83774038D01*
X148175961Y-83899461D01*
X148175965Y-83899464D01*
X148323446Y-83998009D01*
X148323459Y-83998016D01*
X148446363Y-84048923D01*
X148487334Y-84065894D01*
X148487336Y-84065894D01*
X148487341Y-84065896D01*
X148661304Y-84100499D01*
X148661307Y-84100500D01*
X148661309Y-84100500D01*
X148838693Y-84100500D01*
X148838694Y-84100499D01*
X148896682Y-84088964D01*
X149012658Y-84065896D01*
X149012661Y-84065894D01*
X149012666Y-84065894D01*
X149176547Y-83998013D01*
X149324035Y-83899464D01*
X149449464Y-83774035D01*
X149548013Y-83626547D01*
X149615894Y-83462666D01*
X149623063Y-83426628D01*
X149650499Y-83288695D01*
X149650500Y-83288693D01*
X149650500Y-77911306D01*
X149650499Y-77911304D01*
X149615896Y-77737341D01*
X149615893Y-77737332D01*
X149548016Y-77573459D01*
X149548009Y-77573446D01*
X149449464Y-77425965D01*
X149449461Y-77425961D01*
X149438464Y-77414964D01*
X149404979Y-77353641D01*
X149409963Y-77283949D01*
X149451835Y-77228016D01*
X149517299Y-77203599D01*
X149526135Y-77203283D01*
X150473813Y-77203331D01*
X150540851Y-77223019D01*
X150586603Y-77275825D01*
X150596543Y-77344984D01*
X150567515Y-77408538D01*
X150561490Y-77415009D01*
X150550540Y-77425959D01*
X150550535Y-77425965D01*
X150451990Y-77573446D01*
X150451983Y-77573459D01*
X150384106Y-77737332D01*
X150384103Y-77737341D01*
X150349500Y-77911304D01*
X150349500Y-83288695D01*
X150384103Y-83462658D01*
X150384106Y-83462667D01*
X150451983Y-83626540D01*
X150451990Y-83626553D01*
X150550535Y-83774034D01*
X150550538Y-83774038D01*
X150675961Y-83899461D01*
X150675965Y-83899464D01*
X150823446Y-83998009D01*
X150823459Y-83998016D01*
X150946363Y-84048923D01*
X150987334Y-84065894D01*
X150987336Y-84065894D01*
X150987341Y-84065896D01*
X151161304Y-84100499D01*
X151161307Y-84100500D01*
X151161309Y-84100500D01*
X151338693Y-84100500D01*
X151338694Y-84100499D01*
X151396682Y-84088964D01*
X151512658Y-84065896D01*
X151512661Y-84065894D01*
X151512666Y-84065894D01*
X151676547Y-83998013D01*
X151824035Y-83899464D01*
X151949464Y-83774035D01*
X152048013Y-83626547D01*
X152115894Y-83462666D01*
X152123063Y-83426628D01*
X152150499Y-83288695D01*
X152150500Y-83288693D01*
X152150500Y-80800000D01*
X207694353Y-80800000D01*
X207714834Y-80942456D01*
X207760504Y-81042457D01*
X207774623Y-81073373D01*
X207868872Y-81182143D01*
X207989947Y-81259953D01*
X207989950Y-81259954D01*
X207989949Y-81259954D01*
X208128036Y-81300499D01*
X208128038Y-81300500D01*
X208128039Y-81300500D01*
X208271962Y-81300500D01*
X208271962Y-81300499D01*
X208410053Y-81259953D01*
X208531128Y-81182143D01*
X208625377Y-81073373D01*
X208685165Y-80942457D01*
X208705647Y-80800000D01*
X208685165Y-80657543D01*
X208625377Y-80526627D01*
X208531128Y-80417857D01*
X208410053Y-80340047D01*
X208410051Y-80340046D01*
X208410049Y-80340045D01*
X208410050Y-80340045D01*
X208271963Y-80299500D01*
X208271961Y-80299500D01*
X208128039Y-80299500D01*
X208128036Y-80299500D01*
X207989949Y-80340045D01*
X207868873Y-80417856D01*
X207774623Y-80526626D01*
X207774622Y-80526628D01*
X207714834Y-80657543D01*
X207694353Y-80800000D01*
X152150500Y-80800000D01*
X152150500Y-79003104D01*
X157401298Y-79003104D01*
X157421779Y-79145560D01*
X157480893Y-79275000D01*
X157481568Y-79276477D01*
X157575817Y-79385247D01*
X157696892Y-79463057D01*
X157696895Y-79463058D01*
X157696894Y-79463058D01*
X157834981Y-79503603D01*
X157834983Y-79503604D01*
X157834984Y-79503604D01*
X157978907Y-79503604D01*
X157978907Y-79503603D01*
X158116998Y-79463057D01*
X158238073Y-79385247D01*
X158332322Y-79276477D01*
X158392110Y-79145561D01*
X158412592Y-79003104D01*
X158392110Y-78860647D01*
X158332322Y-78729731D01*
X158238073Y-78620961D01*
X158116998Y-78543151D01*
X158116996Y-78543150D01*
X158116994Y-78543149D01*
X158116995Y-78543149D01*
X157978908Y-78502604D01*
X157978906Y-78502604D01*
X157834984Y-78502604D01*
X157834981Y-78502604D01*
X157696894Y-78543149D01*
X157575818Y-78620960D01*
X157481568Y-78729730D01*
X157481567Y-78729732D01*
X157421779Y-78860647D01*
X157401298Y-79003104D01*
X152150500Y-79003104D01*
X152150500Y-77911306D01*
X152150499Y-77911304D01*
X152115896Y-77737341D01*
X152115893Y-77737332D01*
X152048016Y-77573459D01*
X152048009Y-77573446D01*
X151949464Y-77425965D01*
X151949461Y-77425961D01*
X151938591Y-77415091D01*
X151905106Y-77353768D01*
X151910090Y-77284076D01*
X151951962Y-77228143D01*
X152017426Y-77203726D01*
X152026260Y-77203410D01*
X215720502Y-77206642D01*
X215787540Y-77226330D01*
X215833292Y-77279136D01*
X215843232Y-77348295D01*
X215814204Y-77411849D01*
X215808180Y-77418320D01*
X215800535Y-77425964D01*
X215800535Y-77425965D01*
X215701990Y-77573446D01*
X215701983Y-77573459D01*
X215634106Y-77737332D01*
X215634103Y-77737341D01*
X215599500Y-77911304D01*
X215599500Y-83288695D01*
X215634103Y-83462658D01*
X215634106Y-83462667D01*
X215701983Y-83626540D01*
X215701990Y-83626553D01*
X215800535Y-83774034D01*
X215800538Y-83774038D01*
X215925961Y-83899461D01*
X215925965Y-83899464D01*
X216073446Y-83998009D01*
X216073459Y-83998016D01*
X216196363Y-84048923D01*
X216237334Y-84065894D01*
X216237336Y-84065894D01*
X216237341Y-84065896D01*
X216411304Y-84100499D01*
X216411307Y-84100500D01*
X216411309Y-84100500D01*
X216588693Y-84100500D01*
X216588694Y-84100499D01*
X216646682Y-84088964D01*
X216762658Y-84065896D01*
X216762661Y-84065894D01*
X216762666Y-84065894D01*
X216926547Y-83998013D01*
X217074035Y-83899464D01*
X217199464Y-83774035D01*
X217298013Y-83626547D01*
X217365894Y-83462666D01*
X217373063Y-83426628D01*
X217400499Y-83288695D01*
X217400500Y-83288693D01*
X217400500Y-77911306D01*
X217400499Y-77911304D01*
X217365896Y-77737341D01*
X217365893Y-77737332D01*
X217298016Y-77573459D01*
X217298009Y-77573446D01*
X217199464Y-77425965D01*
X217199461Y-77425961D01*
X217191902Y-77418402D01*
X217158417Y-77357079D01*
X217163401Y-77287387D01*
X217205273Y-77231454D01*
X217270737Y-77207037D01*
X217279572Y-77206721D01*
X218220375Y-77206769D01*
X218287413Y-77226457D01*
X218333165Y-77279263D01*
X218343105Y-77348422D01*
X218314077Y-77411977D01*
X218308053Y-77418447D01*
X218300535Y-77425964D01*
X218300535Y-77425965D01*
X218201990Y-77573446D01*
X218201983Y-77573459D01*
X218134106Y-77737332D01*
X218134103Y-77737341D01*
X218099500Y-77911304D01*
X218099500Y-83288695D01*
X218134103Y-83462658D01*
X218134106Y-83462667D01*
X218201983Y-83626540D01*
X218201990Y-83626553D01*
X218300535Y-83774034D01*
X218300538Y-83774038D01*
X218425961Y-83899461D01*
X218425965Y-83899464D01*
X218573446Y-83998009D01*
X218573459Y-83998016D01*
X218696363Y-84048923D01*
X218737334Y-84065894D01*
X218737336Y-84065894D01*
X218737341Y-84065896D01*
X218911304Y-84100499D01*
X218911307Y-84100500D01*
X218911309Y-84100500D01*
X219088693Y-84100500D01*
X219088694Y-84100499D01*
X219146682Y-84088964D01*
X219262658Y-84065896D01*
X219262661Y-84065894D01*
X219262666Y-84065894D01*
X219426547Y-83998013D01*
X219574035Y-83899464D01*
X219699464Y-83774035D01*
X219798013Y-83626547D01*
X219865894Y-83462666D01*
X219873063Y-83426628D01*
X219900499Y-83288695D01*
X219900500Y-83288693D01*
X219900500Y-77911306D01*
X219900499Y-77911304D01*
X219865896Y-77737341D01*
X219865893Y-77737332D01*
X219798016Y-77573459D01*
X219798009Y-77573446D01*
X219699464Y-77425965D01*
X219699461Y-77425961D01*
X219692029Y-77418529D01*
X219658544Y-77357206D01*
X219663528Y-77287514D01*
X219705400Y-77231581D01*
X219770864Y-77207164D01*
X219779700Y-77206848D01*
X283467064Y-77210080D01*
X283534102Y-77229768D01*
X283579854Y-77282574D01*
X283589794Y-77351733D01*
X283560766Y-77415287D01*
X283554743Y-77421756D01*
X283550541Y-77425958D01*
X283550535Y-77425965D01*
X283451990Y-77573446D01*
X283451983Y-77573459D01*
X283384106Y-77737332D01*
X283384103Y-77737341D01*
X283349500Y-77911304D01*
X283349500Y-83288695D01*
X283384103Y-83462658D01*
X283384106Y-83462667D01*
X283451983Y-83626540D01*
X283451990Y-83626553D01*
X283550535Y-83774034D01*
X283550538Y-83774038D01*
X283675961Y-83899461D01*
X283675965Y-83899464D01*
X283823446Y-83998009D01*
X283823459Y-83998016D01*
X283946363Y-84048923D01*
X283987334Y-84065894D01*
X283987336Y-84065894D01*
X283987341Y-84065896D01*
X284161304Y-84100499D01*
X284161307Y-84100500D01*
X284161309Y-84100500D01*
X284338693Y-84100500D01*
X284338694Y-84100499D01*
X284396682Y-84088964D01*
X284512658Y-84065896D01*
X284512661Y-84065894D01*
X284512666Y-84065894D01*
X284676547Y-83998013D01*
X284824035Y-83899464D01*
X284949464Y-83774035D01*
X285048013Y-83626547D01*
X285115894Y-83462666D01*
X285123063Y-83426628D01*
X285150499Y-83288695D01*
X285150500Y-83288693D01*
X285150500Y-77911306D01*
X285150499Y-77911304D01*
X285115896Y-77737341D01*
X285115893Y-77737332D01*
X285048016Y-77573459D01*
X285048009Y-77573446D01*
X284949464Y-77425965D01*
X284949461Y-77425961D01*
X284945341Y-77421841D01*
X284911856Y-77360518D01*
X284916840Y-77290826D01*
X284958712Y-77234893D01*
X285024176Y-77210476D01*
X285033016Y-77210160D01*
X285966938Y-77210207D01*
X286033975Y-77229895D01*
X286079727Y-77282701D01*
X286089667Y-77351860D01*
X286060639Y-77415414D01*
X286054616Y-77421883D01*
X286050541Y-77425958D01*
X286050535Y-77425965D01*
X285951990Y-77573446D01*
X285951983Y-77573459D01*
X285884106Y-77737332D01*
X285884103Y-77737341D01*
X285849500Y-77911304D01*
X285849500Y-83288695D01*
X285884103Y-83462658D01*
X285884106Y-83462667D01*
X285951983Y-83626540D01*
X285951990Y-83626553D01*
X286050535Y-83774034D01*
X286050538Y-83774038D01*
X286175961Y-83899461D01*
X286175965Y-83899464D01*
X286323446Y-83998009D01*
X286323459Y-83998016D01*
X286446363Y-84048923D01*
X286487334Y-84065894D01*
X286487336Y-84065894D01*
X286487341Y-84065896D01*
X286661304Y-84100499D01*
X286661307Y-84100500D01*
X286661309Y-84100500D01*
X286838693Y-84100500D01*
X286838694Y-84100499D01*
X286896682Y-84088964D01*
X287012658Y-84065896D01*
X287012661Y-84065894D01*
X287012666Y-84065894D01*
X287176547Y-83998013D01*
X287324035Y-83899464D01*
X287449464Y-83774035D01*
X287498933Y-83700000D01*
X293094353Y-83700000D01*
X293114834Y-83842456D01*
X293174622Y-83973371D01*
X293174623Y-83973373D01*
X293268872Y-84082143D01*
X293389947Y-84159953D01*
X293389950Y-84159954D01*
X293389949Y-84159954D01*
X293497107Y-84191417D01*
X293526336Y-84200000D01*
X293528036Y-84200499D01*
X293528038Y-84200500D01*
X293528039Y-84200500D01*
X293671962Y-84200500D01*
X293671962Y-84200499D01*
X293810053Y-84159953D01*
X293931128Y-84082143D01*
X294025377Y-83973373D01*
X294085165Y-83842457D01*
X294105647Y-83700000D01*
X294085165Y-83557543D01*
X294025377Y-83426627D01*
X293931128Y-83317857D01*
X293810053Y-83240047D01*
X293810051Y-83240046D01*
X293810049Y-83240045D01*
X293810050Y-83240045D01*
X293671963Y-83199500D01*
X293671961Y-83199500D01*
X293528039Y-83199500D01*
X293528036Y-83199500D01*
X293389949Y-83240045D01*
X293268873Y-83317856D01*
X293174623Y-83426626D01*
X293174622Y-83426628D01*
X293114834Y-83557543D01*
X293094353Y-83700000D01*
X287498933Y-83700000D01*
X287548013Y-83626547D01*
X287615894Y-83462666D01*
X287623063Y-83426628D01*
X287650499Y-83288695D01*
X287650500Y-83288693D01*
X287650500Y-78950000D01*
X324574999Y-78950000D01*
X324599999Y-83774999D01*
X324600000Y-83775000D01*
X329925000Y-83800000D01*
X329938990Y-81100000D01*
X343694353Y-81100000D01*
X343714834Y-81242456D01*
X343768494Y-81359953D01*
X343774623Y-81373373D01*
X343868872Y-81482143D01*
X343989947Y-81559953D01*
X343989950Y-81559954D01*
X343989949Y-81559954D01*
X344128036Y-81600499D01*
X344128038Y-81600500D01*
X344128039Y-81600500D01*
X344271962Y-81600500D01*
X344271962Y-81600499D01*
X344410053Y-81559953D01*
X344531128Y-81482143D01*
X344625377Y-81373373D01*
X344685165Y-81242457D01*
X344705647Y-81100000D01*
X344685165Y-80957543D01*
X344625377Y-80826627D01*
X344531128Y-80717857D01*
X344410053Y-80640047D01*
X344410051Y-80640046D01*
X344410049Y-80640045D01*
X344410050Y-80640045D01*
X344271963Y-80599500D01*
X344271961Y-80599500D01*
X344128039Y-80599500D01*
X344128036Y-80599500D01*
X343989949Y-80640045D01*
X343868873Y-80717856D01*
X343774623Y-80826626D01*
X343774622Y-80826628D01*
X343714834Y-80957543D01*
X343694353Y-81100000D01*
X329938990Y-81100000D01*
X329950000Y-78975000D01*
X324575000Y-78950000D01*
X324574999Y-78950000D01*
X287650500Y-78950000D01*
X287650500Y-77911306D01*
X287650499Y-77911304D01*
X287615896Y-77737341D01*
X287615893Y-77737332D01*
X287548016Y-77573459D01*
X287548009Y-77573446D01*
X287449464Y-77425965D01*
X287449461Y-77425961D01*
X287445467Y-77421967D01*
X287411982Y-77360644D01*
X287416966Y-77290952D01*
X287458838Y-77235019D01*
X287524302Y-77210602D01*
X287533140Y-77210286D01*
X351213627Y-77213518D01*
X351280664Y-77233206D01*
X351326416Y-77286012D01*
X351336356Y-77355171D01*
X351307328Y-77418725D01*
X351301309Y-77425191D01*
X351300535Y-77425965D01*
X351201990Y-77573446D01*
X351201983Y-77573459D01*
X351134106Y-77737332D01*
X351134103Y-77737341D01*
X351099500Y-77911304D01*
X351099500Y-83288695D01*
X351134103Y-83462658D01*
X351134106Y-83462667D01*
X351201983Y-83626540D01*
X351201990Y-83626553D01*
X351300535Y-83774034D01*
X351300538Y-83774038D01*
X351425961Y-83899461D01*
X351425965Y-83899464D01*
X351573446Y-83998009D01*
X351573459Y-83998016D01*
X351696363Y-84048923D01*
X351737334Y-84065894D01*
X351737336Y-84065894D01*
X351737341Y-84065896D01*
X351911304Y-84100499D01*
X351911307Y-84100500D01*
X351911309Y-84100500D01*
X352088693Y-84100500D01*
X352088694Y-84100499D01*
X352146682Y-84088964D01*
X352262658Y-84065896D01*
X352262661Y-84065894D01*
X352262666Y-84065894D01*
X352426547Y-83998013D01*
X352574035Y-83899464D01*
X352699464Y-83774035D01*
X352798013Y-83626547D01*
X352865894Y-83462666D01*
X352873063Y-83426628D01*
X352900499Y-83288695D01*
X352900500Y-83288693D01*
X352900500Y-77911306D01*
X352900499Y-77911304D01*
X352865896Y-77737341D01*
X352865893Y-77737332D01*
X352798016Y-77573459D01*
X352798009Y-77573446D01*
X352699464Y-77425965D01*
X352699461Y-77425961D01*
X352698779Y-77425279D01*
X352698535Y-77424833D01*
X352695599Y-77421255D01*
X352696277Y-77420698D01*
X352665294Y-77363956D01*
X352670278Y-77294264D01*
X352712150Y-77238331D01*
X352777614Y-77213914D01*
X352786454Y-77213598D01*
X353713499Y-77213645D01*
X353780537Y-77233333D01*
X353826289Y-77286139D01*
X353836229Y-77355298D01*
X353807201Y-77418852D01*
X353801182Y-77425317D01*
X353800542Y-77425956D01*
X353800535Y-77425965D01*
X353701990Y-77573446D01*
X353701983Y-77573459D01*
X353634106Y-77737332D01*
X353634103Y-77737341D01*
X353599500Y-77911304D01*
X353599500Y-83288695D01*
X353634103Y-83462658D01*
X353634106Y-83462667D01*
X353701983Y-83626540D01*
X353701990Y-83626553D01*
X353800535Y-83774034D01*
X353800538Y-83774038D01*
X353925961Y-83899461D01*
X353925965Y-83899464D01*
X354073446Y-83998009D01*
X354073459Y-83998016D01*
X354196363Y-84048923D01*
X354237334Y-84065894D01*
X354237336Y-84065894D01*
X354237341Y-84065896D01*
X354411304Y-84100499D01*
X354411307Y-84100500D01*
X354411309Y-84100500D01*
X354588693Y-84100500D01*
X354588694Y-84100499D01*
X354646682Y-84088964D01*
X354762658Y-84065896D01*
X354762661Y-84065894D01*
X354762666Y-84065894D01*
X354926547Y-83998013D01*
X355074035Y-83899464D01*
X355199464Y-83774035D01*
X355298013Y-83626547D01*
X355365894Y-83462666D01*
X355373063Y-83426628D01*
X355400499Y-83288695D01*
X355400500Y-83288693D01*
X355400500Y-77911306D01*
X355400499Y-77911304D01*
X355365896Y-77737341D01*
X355365893Y-77737332D01*
X355298016Y-77573459D01*
X355298009Y-77573446D01*
X355199464Y-77425965D01*
X355199461Y-77425961D01*
X355198906Y-77425406D01*
X355198708Y-77425043D01*
X355195599Y-77421255D01*
X355196317Y-77420665D01*
X355165421Y-77364083D01*
X355170405Y-77294391D01*
X355212277Y-77238458D01*
X355277741Y-77214041D01*
X355286582Y-77213725D01*
X418960190Y-77216955D01*
X419027227Y-77236643D01*
X419072979Y-77289449D01*
X419082919Y-77358608D01*
X419054331Y-77421197D01*
X419054401Y-77421255D01*
X419054185Y-77421518D01*
X419053891Y-77422162D01*
X419051910Y-77424289D01*
X419050535Y-77425965D01*
X418951990Y-77573446D01*
X418951983Y-77573459D01*
X418884106Y-77737332D01*
X418884103Y-77737341D01*
X418849500Y-77911304D01*
X418849500Y-83288695D01*
X418884103Y-83462658D01*
X418884106Y-83462667D01*
X418951983Y-83626540D01*
X418951990Y-83626553D01*
X419050535Y-83774034D01*
X419050538Y-83774038D01*
X419175961Y-83899461D01*
X419175965Y-83899464D01*
X419323446Y-83998009D01*
X419323459Y-83998016D01*
X419446363Y-84048923D01*
X419487334Y-84065894D01*
X419487336Y-84065894D01*
X419487341Y-84065896D01*
X419661304Y-84100499D01*
X419661307Y-84100500D01*
X419661309Y-84100500D01*
X419838693Y-84100500D01*
X419838694Y-84100499D01*
X419896682Y-84088964D01*
X420012658Y-84065896D01*
X420012661Y-84065894D01*
X420012666Y-84065894D01*
X420176547Y-83998013D01*
X420324035Y-83899464D01*
X420449464Y-83774035D01*
X420548013Y-83626547D01*
X420615894Y-83462666D01*
X420623063Y-83426628D01*
X420650499Y-83288695D01*
X420650500Y-83288693D01*
X420650500Y-77911306D01*
X420650499Y-77911304D01*
X420615896Y-77737341D01*
X420615893Y-77737332D01*
X420548016Y-77573459D01*
X420548009Y-77573446D01*
X420449464Y-77425965D01*
X420445599Y-77421255D01*
X420447355Y-77419813D01*
X420418732Y-77367394D01*
X420423716Y-77297702D01*
X420465588Y-77241769D01*
X420531052Y-77217352D01*
X420539897Y-77217036D01*
X421460063Y-77217082D01*
X421527100Y-77236770D01*
X421572852Y-77289576D01*
X421582792Y-77358735D01*
X421554281Y-77421156D01*
X421554401Y-77421255D01*
X421554029Y-77421707D01*
X421553764Y-77422289D01*
X421551975Y-77424209D01*
X421550535Y-77425965D01*
X421451990Y-77573446D01*
X421451983Y-77573459D01*
X421384106Y-77737332D01*
X421384103Y-77737341D01*
X421349500Y-77911304D01*
X421349500Y-83288695D01*
X421384103Y-83462658D01*
X421384106Y-83462667D01*
X421451983Y-83626540D01*
X421451990Y-83626553D01*
X421550535Y-83774034D01*
X421550538Y-83774038D01*
X421675961Y-83899461D01*
X421675965Y-83899464D01*
X421823446Y-83998009D01*
X421823459Y-83998016D01*
X421946363Y-84048923D01*
X421987334Y-84065894D01*
X421987336Y-84065894D01*
X421987341Y-84065896D01*
X422161304Y-84100499D01*
X422161307Y-84100500D01*
X422161309Y-84100500D01*
X422338693Y-84100500D01*
X422338694Y-84100499D01*
X422341203Y-84100000D01*
X424394353Y-84100000D01*
X424414834Y-84242456D01*
X424474622Y-84373371D01*
X424474623Y-84373373D01*
X424568872Y-84482143D01*
X424689947Y-84559953D01*
X424689950Y-84559954D01*
X424689949Y-84559954D01*
X424828036Y-84600499D01*
X424828038Y-84600500D01*
X424828039Y-84600500D01*
X424971962Y-84600500D01*
X424971962Y-84600499D01*
X425110053Y-84559953D01*
X425231128Y-84482143D01*
X425325377Y-84373373D01*
X425385165Y-84242457D01*
X425405647Y-84100000D01*
X425385165Y-83957543D01*
X425325377Y-83826627D01*
X425231128Y-83717857D01*
X425110053Y-83640047D01*
X425110051Y-83640046D01*
X425110049Y-83640045D01*
X425110050Y-83640045D01*
X424971963Y-83599500D01*
X424971961Y-83599500D01*
X424828039Y-83599500D01*
X424828036Y-83599500D01*
X424689949Y-83640045D01*
X424568873Y-83717856D01*
X424474623Y-83826626D01*
X424474622Y-83826628D01*
X424414834Y-83957543D01*
X424394353Y-84100000D01*
X422341203Y-84100000D01*
X422396682Y-84088964D01*
X422512658Y-84065896D01*
X422512661Y-84065894D01*
X422512666Y-84065894D01*
X422676547Y-83998013D01*
X422824035Y-83899464D01*
X422949464Y-83774035D01*
X423048013Y-83626547D01*
X423115894Y-83462666D01*
X423123063Y-83426628D01*
X423150499Y-83288695D01*
X423150500Y-83288693D01*
X423150500Y-80900000D01*
X431094353Y-80900000D01*
X431114834Y-81042456D01*
X431128953Y-81073371D01*
X431174623Y-81173373D01*
X431268872Y-81282143D01*
X431389947Y-81359953D01*
X431389950Y-81359954D01*
X431389949Y-81359954D01*
X431528036Y-81400499D01*
X431528038Y-81400500D01*
X431528039Y-81400500D01*
X431671962Y-81400500D01*
X431671962Y-81400499D01*
X431810053Y-81359953D01*
X431931128Y-81282143D01*
X432025377Y-81173373D01*
X432085165Y-81042457D01*
X432105647Y-80900000D01*
X432085165Y-80757543D01*
X432025377Y-80626627D01*
X431931128Y-80517857D01*
X431810053Y-80440047D01*
X431810051Y-80440046D01*
X431810049Y-80440045D01*
X431810050Y-80440045D01*
X431671963Y-80399500D01*
X431671961Y-80399500D01*
X431528039Y-80399500D01*
X431528036Y-80399500D01*
X431389949Y-80440045D01*
X431268873Y-80517856D01*
X431174623Y-80626626D01*
X431174622Y-80626628D01*
X431114834Y-80757543D01*
X431094353Y-80900000D01*
X423150500Y-80900000D01*
X423150500Y-79275000D01*
X457475000Y-79275000D01*
X457499999Y-84199999D01*
X457500000Y-84200000D01*
X463000000Y-84200000D01*
X462975000Y-79275000D01*
X457475000Y-79275000D01*
X423150500Y-79275000D01*
X423150500Y-78150000D01*
X481244353Y-78150000D01*
X481264834Y-78292456D01*
X481324622Y-78423371D01*
X481324623Y-78423373D01*
X481418872Y-78532143D01*
X481539947Y-78609953D01*
X481539950Y-78609954D01*
X481539949Y-78609954D01*
X481678036Y-78650499D01*
X481678038Y-78650500D01*
X481678039Y-78650500D01*
X481821962Y-78650500D01*
X481821962Y-78650499D01*
X481960053Y-78609953D01*
X482081128Y-78532143D01*
X482175377Y-78423373D01*
X482235165Y-78292457D01*
X482255647Y-78150000D01*
X482235165Y-78007543D01*
X482175377Y-77876627D01*
X482081128Y-77767857D01*
X481960053Y-77690047D01*
X481960051Y-77690046D01*
X481960049Y-77690045D01*
X481960050Y-77690045D01*
X481821963Y-77649500D01*
X481821961Y-77649500D01*
X481678039Y-77649500D01*
X481678036Y-77649500D01*
X481539949Y-77690045D01*
X481418873Y-77767856D01*
X481324623Y-77876626D01*
X481324622Y-77876628D01*
X481264834Y-78007543D01*
X481244353Y-78150000D01*
X423150500Y-78150000D01*
X423150500Y-77911306D01*
X423150499Y-77911304D01*
X423115896Y-77737341D01*
X423115893Y-77737332D01*
X423048016Y-77573459D01*
X423048009Y-77573446D01*
X422949464Y-77425965D01*
X422945599Y-77421255D01*
X422947395Y-77419780D01*
X422918859Y-77367521D01*
X422923843Y-77297829D01*
X422965715Y-77241896D01*
X423031179Y-77217479D01*
X423040022Y-77217163D01*
X488155508Y-77220467D01*
X488222545Y-77240155D01*
X488268297Y-77292961D01*
X488279500Y-77344467D01*
X488279500Y-93106980D01*
X488259815Y-93174019D01*
X488207011Y-93219774D01*
X488137853Y-93229718D01*
X488079145Y-93203852D01*
X488079100Y-93203920D01*
X488078714Y-93203662D01*
X488076839Y-93202836D01*
X488074039Y-93200538D01*
X487926553Y-93101990D01*
X487926540Y-93101983D01*
X487762667Y-93034106D01*
X487762658Y-93034103D01*
X487588694Y-92999500D01*
X487588691Y-92999500D01*
X487411309Y-92999500D01*
X487411306Y-92999500D01*
X487237341Y-93034103D01*
X487237332Y-93034106D01*
X487073459Y-93101983D01*
X487073446Y-93101990D01*
X486925965Y-93200535D01*
X486925961Y-93200538D01*
X486800538Y-93325961D01*
X486800535Y-93325965D01*
X486701990Y-93473446D01*
X486701983Y-93473459D01*
X486634106Y-93637332D01*
X486634103Y-93637341D01*
X486599500Y-93811304D01*
X486599500Y-99188695D01*
X486634103Y-99362658D01*
X486634106Y-99362667D01*
X486661395Y-99428548D01*
X486668864Y-99498017D01*
X486637589Y-99560496D01*
X486577499Y-99596148D01*
X486546834Y-99600000D01*
X423203166Y-99600000D01*
X423136127Y-99580315D01*
X423090372Y-99527511D01*
X423080428Y-99458353D01*
X423088605Y-99428548D01*
X423115894Y-99362666D01*
X423150500Y-99188691D01*
X423150500Y-93811309D01*
X423150500Y-93811306D01*
X423150499Y-93811304D01*
X423115896Y-93637341D01*
X423115893Y-93637332D01*
X423048016Y-93473459D01*
X423048009Y-93473446D01*
X422949464Y-93325965D01*
X422949461Y-93325961D01*
X422824038Y-93200538D01*
X422824034Y-93200535D01*
X422676553Y-93101990D01*
X422676540Y-93101983D01*
X422512667Y-93034106D01*
X422512658Y-93034103D01*
X422338694Y-92999500D01*
X422338691Y-92999500D01*
X422161309Y-92999500D01*
X422161306Y-92999500D01*
X421987341Y-93034103D01*
X421987332Y-93034106D01*
X421823459Y-93101983D01*
X421823446Y-93101990D01*
X421675965Y-93200535D01*
X421675961Y-93200538D01*
X421550538Y-93325961D01*
X421550535Y-93325965D01*
X421451990Y-93473446D01*
X421451983Y-93473459D01*
X421384106Y-93637332D01*
X421384103Y-93637341D01*
X421349500Y-93811304D01*
X421349500Y-99188695D01*
X421384103Y-99362658D01*
X421384106Y-99362667D01*
X421411395Y-99428548D01*
X421418864Y-99498017D01*
X421387589Y-99560496D01*
X421327499Y-99596148D01*
X421296834Y-99600000D01*
X420703166Y-99600000D01*
X420636127Y-99580315D01*
X420590372Y-99527511D01*
X420580428Y-99458353D01*
X420588605Y-99428548D01*
X420615894Y-99362666D01*
X420650500Y-99188691D01*
X420650500Y-93811309D01*
X420650500Y-93811306D01*
X420650499Y-93811304D01*
X420615896Y-93637341D01*
X420615893Y-93637332D01*
X420548016Y-93473459D01*
X420548009Y-93473446D01*
X420449464Y-93325965D01*
X420449461Y-93325961D01*
X420324038Y-93200538D01*
X420324034Y-93200535D01*
X420176553Y-93101990D01*
X420176540Y-93101983D01*
X420012667Y-93034106D01*
X420012658Y-93034103D01*
X419838694Y-92999500D01*
X419838691Y-92999500D01*
X419661309Y-92999500D01*
X419661306Y-92999500D01*
X419487341Y-93034103D01*
X419487332Y-93034106D01*
X419323459Y-93101983D01*
X419323446Y-93101990D01*
X419175965Y-93200535D01*
X419175961Y-93200538D01*
X419050538Y-93325961D01*
X419050535Y-93325965D01*
X418951990Y-93473446D01*
X418951983Y-93473459D01*
X418884106Y-93637332D01*
X418884103Y-93637341D01*
X418849500Y-93811304D01*
X418849500Y-99188695D01*
X418884103Y-99362658D01*
X418884106Y-99362667D01*
X418911395Y-99428548D01*
X418918864Y-99498017D01*
X418887589Y-99560496D01*
X418827499Y-99596148D01*
X418796834Y-99600000D01*
X355453166Y-99600000D01*
X355386127Y-99580315D01*
X355340372Y-99527511D01*
X355330428Y-99458353D01*
X355338605Y-99428548D01*
X355365894Y-99362666D01*
X355400500Y-99188691D01*
X355400500Y-93811309D01*
X355400500Y-93811306D01*
X355400499Y-93811304D01*
X355365896Y-93637341D01*
X355365893Y-93637332D01*
X355298016Y-93473459D01*
X355298009Y-93473446D01*
X355199464Y-93325965D01*
X355199461Y-93325961D01*
X355074038Y-93200538D01*
X355074034Y-93200535D01*
X354926553Y-93101990D01*
X354926540Y-93101983D01*
X354762667Y-93034106D01*
X354762658Y-93034103D01*
X354588694Y-92999500D01*
X354588691Y-92999500D01*
X354411309Y-92999500D01*
X354411306Y-92999500D01*
X354237341Y-93034103D01*
X354237332Y-93034106D01*
X354073459Y-93101983D01*
X354073446Y-93101990D01*
X353925965Y-93200535D01*
X353925961Y-93200538D01*
X353800538Y-93325961D01*
X353800535Y-93325965D01*
X353701990Y-93473446D01*
X353701983Y-93473459D01*
X353634106Y-93637332D01*
X353634103Y-93637341D01*
X353599500Y-93811304D01*
X353599500Y-99188695D01*
X353634103Y-99362658D01*
X353634106Y-99362667D01*
X353661395Y-99428548D01*
X353668864Y-99498017D01*
X353637589Y-99560496D01*
X353577499Y-99596148D01*
X353546834Y-99600000D01*
X352953166Y-99600000D01*
X352886127Y-99580315D01*
X352840372Y-99527511D01*
X352830428Y-99458353D01*
X352838605Y-99428548D01*
X352865894Y-99362666D01*
X352900500Y-99188691D01*
X352900500Y-93811309D01*
X352900500Y-93811306D01*
X352900499Y-93811304D01*
X352865896Y-93637341D01*
X352865893Y-93637332D01*
X352798016Y-93473459D01*
X352798009Y-93473446D01*
X352699464Y-93325965D01*
X352699461Y-93325961D01*
X352574038Y-93200538D01*
X352574034Y-93200535D01*
X352426553Y-93101990D01*
X352426540Y-93101983D01*
X352262667Y-93034106D01*
X352262658Y-93034103D01*
X352088694Y-92999500D01*
X352088691Y-92999500D01*
X351911309Y-92999500D01*
X351911306Y-92999500D01*
X351737341Y-93034103D01*
X351737332Y-93034106D01*
X351573459Y-93101983D01*
X351573446Y-93101990D01*
X351425965Y-93200535D01*
X351425961Y-93200538D01*
X351300538Y-93325961D01*
X351300535Y-93325965D01*
X351201990Y-93473446D01*
X351201983Y-93473459D01*
X351134106Y-93637332D01*
X351134103Y-93637341D01*
X351099500Y-93811304D01*
X351099500Y-99188695D01*
X351134103Y-99362658D01*
X351134106Y-99362667D01*
X351161395Y-99428548D01*
X351168864Y-99498017D01*
X351137589Y-99560496D01*
X351077499Y-99596148D01*
X351046834Y-99600000D01*
X287703166Y-99600000D01*
X287636127Y-99580315D01*
X287590372Y-99527511D01*
X287580428Y-99458353D01*
X287588605Y-99428548D01*
X287615894Y-99362666D01*
X287650500Y-99188691D01*
X287650500Y-93811309D01*
X287650500Y-93811306D01*
X287650499Y-93811304D01*
X287615896Y-93637341D01*
X287615893Y-93637332D01*
X287548016Y-93473459D01*
X287548009Y-93473446D01*
X287449464Y-93325965D01*
X287449461Y-93325961D01*
X287324038Y-93200538D01*
X287324034Y-93200535D01*
X287176553Y-93101990D01*
X287176540Y-93101983D01*
X287012667Y-93034106D01*
X287012658Y-93034103D01*
X286838694Y-92999500D01*
X286838691Y-92999500D01*
X286661309Y-92999500D01*
X286661306Y-92999500D01*
X286487341Y-93034103D01*
X286487332Y-93034106D01*
X286323459Y-93101983D01*
X286323446Y-93101990D01*
X286175965Y-93200535D01*
X286175961Y-93200538D01*
X286050538Y-93325961D01*
X286050535Y-93325965D01*
X285951990Y-93473446D01*
X285951983Y-93473459D01*
X285884106Y-93637332D01*
X285884103Y-93637341D01*
X285849500Y-93811304D01*
X285849500Y-99188695D01*
X285884103Y-99362658D01*
X285884106Y-99362667D01*
X285911395Y-99428548D01*
X285918864Y-99498017D01*
X285887589Y-99560496D01*
X285827499Y-99596148D01*
X285796834Y-99600000D01*
X285203166Y-99600000D01*
X285136127Y-99580315D01*
X285090372Y-99527511D01*
X285080428Y-99458353D01*
X285088605Y-99428548D01*
X285115894Y-99362666D01*
X285150500Y-99188691D01*
X285150500Y-93811309D01*
X285150500Y-93811306D01*
X285150499Y-93811304D01*
X285115896Y-93637341D01*
X285115893Y-93637332D01*
X285048016Y-93473459D01*
X285048009Y-93473446D01*
X284949464Y-93325965D01*
X284949461Y-93325961D01*
X284824038Y-93200538D01*
X284824034Y-93200535D01*
X284676553Y-93101990D01*
X284676540Y-93101983D01*
X284512667Y-93034106D01*
X284512658Y-93034103D01*
X284338694Y-92999500D01*
X284338691Y-92999500D01*
X284161309Y-92999500D01*
X284161306Y-92999500D01*
X283987341Y-93034103D01*
X283987332Y-93034106D01*
X283823459Y-93101983D01*
X283823446Y-93101990D01*
X283675965Y-93200535D01*
X283675961Y-93200538D01*
X283550538Y-93325961D01*
X283550535Y-93325965D01*
X283451990Y-93473446D01*
X283451983Y-93473459D01*
X283384106Y-93637332D01*
X283384103Y-93637341D01*
X283349500Y-93811304D01*
X283349500Y-99188695D01*
X283384103Y-99362658D01*
X283384106Y-99362667D01*
X283411395Y-99428548D01*
X283418864Y-99498017D01*
X283387589Y-99560496D01*
X283327499Y-99596148D01*
X283296834Y-99600000D01*
X219953166Y-99600000D01*
X219886127Y-99580315D01*
X219840372Y-99527511D01*
X219830428Y-99458353D01*
X219838605Y-99428548D01*
X219865894Y-99362666D01*
X219900500Y-99188691D01*
X219900500Y-93811309D01*
X219900500Y-93811306D01*
X219900499Y-93811304D01*
X219865896Y-93637341D01*
X219865893Y-93637332D01*
X219798016Y-93473459D01*
X219798009Y-93473446D01*
X219699464Y-93325965D01*
X219699461Y-93325961D01*
X219574038Y-93200538D01*
X219574034Y-93200535D01*
X219426553Y-93101990D01*
X219426540Y-93101983D01*
X219262667Y-93034106D01*
X219262658Y-93034103D01*
X219088694Y-92999500D01*
X219088691Y-92999500D01*
X218911309Y-92999500D01*
X218911306Y-92999500D01*
X218737341Y-93034103D01*
X218737332Y-93034106D01*
X218573459Y-93101983D01*
X218573446Y-93101990D01*
X218425965Y-93200535D01*
X218425961Y-93200538D01*
X218300538Y-93325961D01*
X218300535Y-93325965D01*
X218201990Y-93473446D01*
X218201983Y-93473459D01*
X218134106Y-93637332D01*
X218134103Y-93637341D01*
X218099500Y-93811304D01*
X218099500Y-99188695D01*
X218134103Y-99362658D01*
X218134106Y-99362667D01*
X218161395Y-99428548D01*
X218168864Y-99498017D01*
X218137589Y-99560496D01*
X218077499Y-99596148D01*
X218046834Y-99600000D01*
X217453166Y-99600000D01*
X217386127Y-99580315D01*
X217340372Y-99527511D01*
X217330428Y-99458353D01*
X217338605Y-99428548D01*
X217365894Y-99362666D01*
X217400500Y-99188691D01*
X217400500Y-93811309D01*
X217400500Y-93811306D01*
X217400499Y-93811304D01*
X217365896Y-93637341D01*
X217365893Y-93637332D01*
X217298016Y-93473459D01*
X217298009Y-93473446D01*
X217199464Y-93325965D01*
X217199461Y-93325961D01*
X217074038Y-93200538D01*
X217074034Y-93200535D01*
X216926553Y-93101990D01*
X216926540Y-93101983D01*
X216762667Y-93034106D01*
X216762658Y-93034103D01*
X216588694Y-92999500D01*
X216588691Y-92999500D01*
X216411309Y-92999500D01*
X216411306Y-92999500D01*
X216237341Y-93034103D01*
X216237332Y-93034106D01*
X216073459Y-93101983D01*
X216073446Y-93101990D01*
X215925965Y-93200535D01*
X215925961Y-93200538D01*
X215800538Y-93325961D01*
X215800535Y-93325965D01*
X215701990Y-93473446D01*
X215701983Y-93473459D01*
X215634106Y-93637332D01*
X215634103Y-93637341D01*
X215599500Y-93811304D01*
X215599500Y-99188695D01*
X215634103Y-99362658D01*
X215634106Y-99362667D01*
X215661395Y-99428548D01*
X215668864Y-99498017D01*
X215637589Y-99560496D01*
X215577499Y-99596148D01*
X215546834Y-99600000D01*
X152203166Y-99600000D01*
X152136127Y-99580315D01*
X152090372Y-99527511D01*
X152080428Y-99458353D01*
X152088605Y-99428548D01*
X152115894Y-99362666D01*
X152150500Y-99188691D01*
X152150500Y-93811309D01*
X152150500Y-93811306D01*
X152150499Y-93811304D01*
X152115896Y-93637341D01*
X152115893Y-93637332D01*
X152048016Y-93473459D01*
X152048009Y-93473446D01*
X151949464Y-93325965D01*
X151949461Y-93325961D01*
X151824038Y-93200538D01*
X151824034Y-93200535D01*
X151676553Y-93101990D01*
X151676540Y-93101983D01*
X151512667Y-93034106D01*
X151512658Y-93034103D01*
X151338694Y-92999500D01*
X151338691Y-92999500D01*
X151161309Y-92999500D01*
X151161306Y-92999500D01*
X150987341Y-93034103D01*
X150987332Y-93034106D01*
X150823459Y-93101983D01*
X150823446Y-93101990D01*
X150675965Y-93200535D01*
X150675961Y-93200538D01*
X150550538Y-93325961D01*
X150550535Y-93325965D01*
X150451990Y-93473446D01*
X150451983Y-93473459D01*
X150384106Y-93637332D01*
X150384103Y-93637341D01*
X150349500Y-93811304D01*
X150349500Y-99188695D01*
X150384103Y-99362658D01*
X150384106Y-99362667D01*
X150411395Y-99428548D01*
X150418864Y-99498017D01*
X150387589Y-99560496D01*
X150327499Y-99596148D01*
X150296834Y-99600000D01*
X149703166Y-99600000D01*
X149636127Y-99580315D01*
X149590372Y-99527511D01*
X149580428Y-99458353D01*
X149588605Y-99428548D01*
X149615894Y-99362666D01*
X149650500Y-99188691D01*
X149650500Y-93811309D01*
X149650500Y-93811306D01*
X149650499Y-93811304D01*
X149615896Y-93637341D01*
X149615893Y-93637332D01*
X149548016Y-93473459D01*
X149548009Y-93473446D01*
X149449464Y-93325965D01*
X149449461Y-93325961D01*
X149324038Y-93200538D01*
X149324034Y-93200535D01*
X149176553Y-93101990D01*
X149176540Y-93101983D01*
X149012667Y-93034106D01*
X149012658Y-93034103D01*
X148838694Y-92999500D01*
X148838691Y-92999500D01*
X148661309Y-92999500D01*
X148661306Y-92999500D01*
X148487341Y-93034103D01*
X148487332Y-93034106D01*
X148323459Y-93101983D01*
X148323446Y-93101990D01*
X148175965Y-93200535D01*
X148175961Y-93200538D01*
X148050538Y-93325961D01*
X148050535Y-93325965D01*
X147951990Y-93473446D01*
X147951983Y-93473459D01*
X147884106Y-93637332D01*
X147884103Y-93637341D01*
X147849500Y-93811304D01*
X147849500Y-99188695D01*
X147884103Y-99362658D01*
X147884106Y-99362667D01*
X147911395Y-99428548D01*
X147918864Y-99498017D01*
X147887589Y-99560496D01*
X147827499Y-99596148D01*
X147796834Y-99600000D01*
X139524000Y-99600000D01*
X139456961Y-99580315D01*
X139411206Y-99527511D01*
X139400000Y-99476000D01*
X139400000Y-89500000D01*
X162262463Y-89500000D01*
X162282944Y-89642456D01*
X162342732Y-89773371D01*
X162342733Y-89773373D01*
X162436982Y-89882143D01*
X162558057Y-89959953D01*
X162558060Y-89959954D01*
X162558059Y-89959954D01*
X162696146Y-90000499D01*
X162696148Y-90000500D01*
X162696149Y-90000500D01*
X162840072Y-90000500D01*
X162840072Y-90000499D01*
X162978163Y-89959953D01*
X163099238Y-89882143D01*
X163193487Y-89773373D01*
X163253275Y-89642457D01*
X163273757Y-89500000D01*
X479594353Y-89500000D01*
X479614834Y-89642456D01*
X479674622Y-89773371D01*
X479674625Y-89773377D01*
X479713983Y-89818798D01*
X479743008Y-89882353D01*
X479733064Y-89951512D01*
X479713983Y-89981202D01*
X479674625Y-90026622D01*
X479674622Y-90026628D01*
X479614834Y-90157543D01*
X479594353Y-90300000D01*
X479614834Y-90442456D01*
X479674622Y-90573371D01*
X479674625Y-90573377D01*
X479713983Y-90618798D01*
X479743008Y-90682353D01*
X479733064Y-90751512D01*
X479713983Y-90781202D01*
X479674625Y-90826622D01*
X479674622Y-90826628D01*
X479614834Y-90957543D01*
X479594353Y-91100000D01*
X479614834Y-91242456D01*
X479674622Y-91373371D01*
X479674623Y-91373373D01*
X479768872Y-91482143D01*
X479889947Y-91559953D01*
X479889950Y-91559954D01*
X479889949Y-91559954D01*
X480028036Y-91600499D01*
X480028038Y-91600500D01*
X480028039Y-91600500D01*
X480171962Y-91600500D01*
X480171962Y-91600499D01*
X480310053Y-91559953D01*
X480431128Y-91482143D01*
X480525377Y-91373373D01*
X480574319Y-91266205D01*
X480620074Y-91213402D01*
X480687113Y-91193718D01*
X480722051Y-91198742D01*
X480728038Y-91200500D01*
X480728039Y-91200500D01*
X480871962Y-91200500D01*
X480877949Y-91198742D01*
X480947819Y-91198740D01*
X481006598Y-91236513D01*
X481025680Y-91266205D01*
X481074623Y-91373373D01*
X481168872Y-91482143D01*
X481289947Y-91559953D01*
X481289950Y-91559954D01*
X481289949Y-91559954D01*
X481428036Y-91600499D01*
X481428038Y-91600500D01*
X481428039Y-91600500D01*
X481571962Y-91600500D01*
X481571962Y-91600499D01*
X481710053Y-91559953D01*
X481831128Y-91482143D01*
X481925377Y-91373373D01*
X481985165Y-91242457D01*
X482005647Y-91100000D01*
X481985165Y-90957543D01*
X481925377Y-90826627D01*
X481925375Y-90826625D01*
X481925374Y-90826622D01*
X481886017Y-90781203D01*
X481856991Y-90717648D01*
X481866934Y-90648489D01*
X481886017Y-90618797D01*
X481925374Y-90573377D01*
X481925374Y-90573375D01*
X481925377Y-90573373D01*
X481985165Y-90442457D01*
X482005647Y-90300000D01*
X481985165Y-90157543D01*
X481925377Y-90026627D01*
X481925375Y-90026625D01*
X481925374Y-90026622D01*
X481886017Y-89981203D01*
X481856991Y-89917648D01*
X481866934Y-89848489D01*
X481886017Y-89818797D01*
X481925374Y-89773377D01*
X481925374Y-89773375D01*
X481925377Y-89773373D01*
X481985165Y-89642457D01*
X482005647Y-89500000D01*
X484894353Y-89500000D01*
X484914834Y-89642456D01*
X484974622Y-89773371D01*
X484974625Y-89773377D01*
X485013983Y-89818798D01*
X485043008Y-89882353D01*
X485033064Y-89951512D01*
X485013983Y-89981202D01*
X484974625Y-90026622D01*
X484974622Y-90026628D01*
X484914834Y-90157543D01*
X484894353Y-90300000D01*
X484914834Y-90442456D01*
X484974622Y-90573371D01*
X484974625Y-90573377D01*
X485013983Y-90618798D01*
X485043008Y-90682353D01*
X485033064Y-90751512D01*
X485013983Y-90781202D01*
X484974625Y-90826622D01*
X484974622Y-90826628D01*
X484914834Y-90957543D01*
X484894353Y-91100000D01*
X484914834Y-91242456D01*
X484974622Y-91373371D01*
X484974623Y-91373373D01*
X485068872Y-91482143D01*
X485189947Y-91559953D01*
X485189950Y-91559954D01*
X485189949Y-91559954D01*
X485328036Y-91600499D01*
X485328038Y-91600500D01*
X485328039Y-91600500D01*
X485471962Y-91600500D01*
X485471962Y-91600499D01*
X485610053Y-91559953D01*
X485731128Y-91482143D01*
X485825377Y-91373373D01*
X485874319Y-91266205D01*
X485920074Y-91213402D01*
X485987113Y-91193718D01*
X486022051Y-91198742D01*
X486028038Y-91200500D01*
X486028039Y-91200500D01*
X486171962Y-91200500D01*
X486177949Y-91198742D01*
X486247819Y-91198740D01*
X486306598Y-91236513D01*
X486325680Y-91266205D01*
X486374623Y-91373373D01*
X486468872Y-91482143D01*
X486589947Y-91559953D01*
X486589950Y-91559954D01*
X486589949Y-91559954D01*
X486728036Y-91600499D01*
X486728038Y-91600500D01*
X486728039Y-91600500D01*
X486871962Y-91600500D01*
X486871962Y-91600499D01*
X487010053Y-91559953D01*
X487131128Y-91482143D01*
X487225377Y-91373373D01*
X487285165Y-91242457D01*
X487305647Y-91100000D01*
X487285165Y-90957543D01*
X487225377Y-90826627D01*
X487225375Y-90826625D01*
X487225374Y-90826622D01*
X487186017Y-90781203D01*
X487156991Y-90717648D01*
X487166934Y-90648489D01*
X487186017Y-90618797D01*
X487225374Y-90573377D01*
X487225374Y-90573375D01*
X487225377Y-90573373D01*
X487285165Y-90442457D01*
X487305647Y-90300000D01*
X487285165Y-90157543D01*
X487225377Y-90026627D01*
X487225375Y-90026625D01*
X487225374Y-90026622D01*
X487186017Y-89981203D01*
X487156991Y-89917648D01*
X487166934Y-89848489D01*
X487186017Y-89818797D01*
X487225374Y-89773377D01*
X487225374Y-89773375D01*
X487225377Y-89773373D01*
X487285165Y-89642457D01*
X487305647Y-89500000D01*
X487285165Y-89357543D01*
X487225377Y-89226627D01*
X487131128Y-89117857D01*
X487010053Y-89040047D01*
X487010051Y-89040046D01*
X487010049Y-89040045D01*
X487010050Y-89040045D01*
X486871963Y-88999500D01*
X486871961Y-88999500D01*
X486728039Y-88999500D01*
X486728036Y-88999500D01*
X486589949Y-89040045D01*
X486468873Y-89117856D01*
X486374623Y-89226626D01*
X486374622Y-89226628D01*
X486325681Y-89333793D01*
X486279926Y-89386597D01*
X486212886Y-89406281D01*
X486177959Y-89401260D01*
X486171965Y-89399500D01*
X486171961Y-89399500D01*
X486028039Y-89399500D01*
X486028037Y-89399500D01*
X486022038Y-89401261D01*
X485952168Y-89401256D01*
X485893393Y-89363477D01*
X485874318Y-89333792D01*
X485825379Y-89226630D01*
X485825376Y-89226626D01*
X485731128Y-89117857D01*
X485610053Y-89040047D01*
X485610051Y-89040046D01*
X485610049Y-89040045D01*
X485610050Y-89040045D01*
X485471963Y-88999500D01*
X485471961Y-88999500D01*
X485328039Y-88999500D01*
X485328036Y-88999500D01*
X485189949Y-89040045D01*
X485068873Y-89117856D01*
X484974623Y-89226626D01*
X484974622Y-89226628D01*
X484914834Y-89357543D01*
X484894353Y-89500000D01*
X482005647Y-89500000D01*
X481985165Y-89357543D01*
X481925377Y-89226627D01*
X481831128Y-89117857D01*
X481710053Y-89040047D01*
X481710051Y-89040046D01*
X481710049Y-89040045D01*
X481710050Y-89040045D01*
X481571963Y-88999500D01*
X481571961Y-88999500D01*
X481428039Y-88999500D01*
X481428036Y-88999500D01*
X481289949Y-89040045D01*
X481168873Y-89117856D01*
X481074623Y-89226626D01*
X481074622Y-89226628D01*
X481025681Y-89333793D01*
X480979926Y-89386597D01*
X480912886Y-89406281D01*
X480877959Y-89401260D01*
X480871965Y-89399500D01*
X480871961Y-89399500D01*
X480728039Y-89399500D01*
X480728037Y-89399500D01*
X480722038Y-89401261D01*
X480652168Y-89401256D01*
X480593393Y-89363477D01*
X480574318Y-89333792D01*
X480525379Y-89226630D01*
X480525376Y-89226626D01*
X480431128Y-89117857D01*
X480310053Y-89040047D01*
X480310051Y-89040046D01*
X480310049Y-89040045D01*
X480310050Y-89040045D01*
X480171963Y-88999500D01*
X480171961Y-88999500D01*
X480028039Y-88999500D01*
X480028036Y-88999500D01*
X479889949Y-89040045D01*
X479768873Y-89117856D01*
X479674623Y-89226626D01*
X479674622Y-89226628D01*
X479614834Y-89357543D01*
X479594353Y-89500000D01*
X163273757Y-89500000D01*
X163253275Y-89357543D01*
X163193487Y-89226627D01*
X163099238Y-89117857D01*
X162978163Y-89040047D01*
X162978161Y-89040046D01*
X162978159Y-89040045D01*
X162978160Y-89040045D01*
X162840073Y-88999500D01*
X162840071Y-88999500D01*
X162696149Y-88999500D01*
X162696146Y-88999500D01*
X162558059Y-89040045D01*
X162436983Y-89117856D01*
X162342733Y-89226626D01*
X162342732Y-89226628D01*
X162282944Y-89357543D01*
X162262463Y-89500000D01*
X139400000Y-89500000D01*
X139400000Y-88900000D01*
X328394353Y-88900000D01*
X328414834Y-89042456D01*
X328449269Y-89117856D01*
X328474623Y-89173373D01*
X328568872Y-89282143D01*
X328689947Y-89359953D01*
X328689950Y-89359954D01*
X328689949Y-89359954D01*
X328780689Y-89386597D01*
X328824633Y-89399500D01*
X328828036Y-89400499D01*
X328828038Y-89400500D01*
X328828039Y-89400500D01*
X328971962Y-89400500D01*
X328971962Y-89400499D01*
X329110053Y-89359953D01*
X329231128Y-89282143D01*
X329325377Y-89173373D01*
X329385165Y-89042457D01*
X329405647Y-88900000D01*
X329385165Y-88757543D01*
X329325377Y-88626627D01*
X329231128Y-88517857D01*
X329110053Y-88440047D01*
X329110051Y-88440046D01*
X329110049Y-88440045D01*
X329110050Y-88440045D01*
X328971963Y-88399500D01*
X328971961Y-88399500D01*
X328828039Y-88399500D01*
X328828036Y-88399500D01*
X328689949Y-88440045D01*
X328568873Y-88517856D01*
X328474623Y-88626626D01*
X328474622Y-88626628D01*
X328414834Y-88757543D01*
X328394353Y-88900000D01*
X139400000Y-88900000D01*
X139400000Y-88340325D01*
X323660334Y-88340325D01*
X323680815Y-88482781D01*
X323738894Y-88609953D01*
X323740604Y-88613698D01*
X323834853Y-88722468D01*
X323955928Y-88800278D01*
X323955931Y-88800279D01*
X323955930Y-88800279D01*
X324094017Y-88840824D01*
X324094019Y-88840825D01*
X324094020Y-88840825D01*
X324237943Y-88840825D01*
X324237943Y-88840824D01*
X324376034Y-88800278D01*
X324497109Y-88722468D01*
X324591358Y-88613698D01*
X324651146Y-88482782D01*
X324671628Y-88340325D01*
X324651146Y-88197868D01*
X324591358Y-88066952D01*
X324497109Y-87958182D01*
X324376034Y-87880372D01*
X324376032Y-87880371D01*
X324376030Y-87880370D01*
X324376031Y-87880370D01*
X324237944Y-87839825D01*
X324237942Y-87839825D01*
X324094020Y-87839825D01*
X324094017Y-87839825D01*
X323955930Y-87880370D01*
X323834854Y-87958181D01*
X323740604Y-88066951D01*
X323740603Y-88066953D01*
X323680815Y-88197868D01*
X323660334Y-88340325D01*
X139400000Y-88340325D01*
X139400000Y-87650000D01*
X321794353Y-87650000D01*
X321814834Y-87792456D01*
X321853275Y-87876628D01*
X321874623Y-87923373D01*
X321968872Y-88032143D01*
X322089947Y-88109953D01*
X322089950Y-88109954D01*
X322089949Y-88109954D01*
X322197107Y-88141417D01*
X322226336Y-88150000D01*
X322228036Y-88150499D01*
X322228038Y-88150500D01*
X322228039Y-88150500D01*
X322371962Y-88150500D01*
X322371962Y-88150499D01*
X322510053Y-88109953D01*
X322631128Y-88032143D01*
X322725377Y-87923373D01*
X322785165Y-87792457D01*
X322805647Y-87650000D01*
X322785165Y-87507543D01*
X322725377Y-87376627D01*
X322658980Y-87300000D01*
X429494353Y-87300000D01*
X429514834Y-87442456D01*
X429549173Y-87517646D01*
X429574623Y-87573373D01*
X429668872Y-87682143D01*
X429789947Y-87759953D01*
X429796453Y-87761863D01*
X429855231Y-87799634D01*
X429884258Y-87863189D01*
X429874318Y-87932348D01*
X429874315Y-87932352D01*
X429839977Y-88007541D01*
X429839976Y-88007542D01*
X429819495Y-88150000D01*
X429839976Y-88292456D01*
X429888862Y-88399500D01*
X429899765Y-88423373D01*
X429994014Y-88532143D01*
X430115089Y-88609953D01*
X430115092Y-88609954D01*
X430115091Y-88609954D01*
X430253178Y-88650499D01*
X430253180Y-88650500D01*
X430253181Y-88650500D01*
X430397104Y-88650500D01*
X430397104Y-88650499D01*
X430522441Y-88613698D01*
X430535192Y-88609954D01*
X430535192Y-88609953D01*
X430535195Y-88609953D01*
X430656270Y-88532143D01*
X430750519Y-88423373D01*
X430810307Y-88292457D01*
X430830789Y-88150000D01*
X430810307Y-88007543D01*
X430750519Y-87876627D01*
X430656270Y-87767857D01*
X430535195Y-87690047D01*
X430535192Y-87690045D01*
X430528685Y-87688135D01*
X430469907Y-87650361D01*
X430440882Y-87586805D01*
X430450825Y-87517649D01*
X430485165Y-87442457D01*
X430505647Y-87300000D01*
X430485165Y-87157543D01*
X430425377Y-87026627D01*
X430331128Y-86917857D01*
X430210053Y-86840047D01*
X430210051Y-86840046D01*
X430210049Y-86840045D01*
X430210050Y-86840045D01*
X430071963Y-86799500D01*
X430071961Y-86799500D01*
X429928039Y-86799500D01*
X429928036Y-86799500D01*
X429789949Y-86840045D01*
X429668873Y-86917856D01*
X429574623Y-87026626D01*
X429574622Y-87026628D01*
X429514834Y-87157543D01*
X429494353Y-87300000D01*
X322658980Y-87300000D01*
X322631128Y-87267857D01*
X322510053Y-87190047D01*
X322510051Y-87190046D01*
X322510049Y-87190045D01*
X322510050Y-87190045D01*
X322371963Y-87149500D01*
X322371961Y-87149500D01*
X322228039Y-87149500D01*
X322228036Y-87149500D01*
X322089949Y-87190045D01*
X321968873Y-87267856D01*
X321874623Y-87376626D01*
X321874622Y-87376628D01*
X321814834Y-87507543D01*
X321794353Y-87650000D01*
X139400000Y-87650000D01*
X139400000Y-82862007D01*
X139419685Y-82794968D01*
X139472489Y-82749213D01*
X139541647Y-82739269D01*
X139605203Y-82768294D01*
X139617710Y-82780802D01*
X139618872Y-82782143D01*
X139739947Y-82859953D01*
X139739950Y-82859954D01*
X139739949Y-82859954D01*
X139878036Y-82900499D01*
X139878038Y-82900500D01*
X139878039Y-82900500D01*
X140021962Y-82900500D01*
X140021962Y-82900499D01*
X140160053Y-82859953D01*
X140281128Y-82782143D01*
X140375377Y-82673373D01*
X140435165Y-82542457D01*
X140455647Y-82400000D01*
X140435165Y-82257543D01*
X140375377Y-82126627D01*
X140281128Y-82017857D01*
X140160053Y-81940047D01*
X140160051Y-81940046D01*
X140160049Y-81940045D01*
X140160050Y-81940045D01*
X140021963Y-81899500D01*
X140021961Y-81899500D01*
X139878039Y-81899500D01*
X139878036Y-81899500D01*
X139739949Y-81940045D01*
X139618872Y-82017857D01*
X139617711Y-82019197D01*
X139616220Y-82020154D01*
X139612172Y-82023663D01*
X139611667Y-82023080D01*
X139558932Y-82056970D01*
X139489063Y-82056968D01*
X139430285Y-82019193D01*
X139401262Y-81955636D01*
X139400000Y-81937992D01*
X139400000Y-77326776D01*
X139419685Y-77259737D01*
X139472489Y-77213982D01*
X139524003Y-77202776D01*
X147973939Y-77203205D01*
G37*
%TD.AperFunction*%
%TD*%
%TA.AperFunction,Conductor*%
%TO.N,VDD*%
G36*
X49118295Y-89099608D02*
G01*
X49163800Y-89130068D01*
X49164167Y-89129707D01*
X49165498Y-89131057D01*
X49183147Y-89148959D01*
X49263102Y-89193359D01*
X49330202Y-89212837D01*
X49388122Y-89220983D01*
X49388128Y-89220982D01*
X49388129Y-89220983D01*
X50182469Y-89218538D01*
X61075119Y-89185023D01*
X61142218Y-89204501D01*
X61188135Y-89257164D01*
X61199500Y-89309022D01*
X61199500Y-90012288D01*
X61179815Y-90079327D01*
X61163181Y-90099969D01*
X61111846Y-90151304D01*
X61050523Y-90184789D01*
X61024165Y-90187623D01*
X60928036Y-90187623D01*
X60789949Y-90228168D01*
X60668873Y-90305979D01*
X60574623Y-90414749D01*
X60574622Y-90414751D01*
X60514834Y-90545666D01*
X60494353Y-90688123D01*
X60514834Y-90830579D01*
X60534374Y-90873365D01*
X60574623Y-90961496D01*
X60668872Y-91070266D01*
X60789947Y-91148076D01*
X60789950Y-91148077D01*
X60789949Y-91148077D01*
X60928036Y-91188622D01*
X60928038Y-91188623D01*
X60928039Y-91188623D01*
X61071962Y-91188623D01*
X61071962Y-91188622D01*
X61210053Y-91148076D01*
X61331128Y-91070266D01*
X61425377Y-90961496D01*
X61485165Y-90830580D01*
X61505647Y-90688123D01*
X61504339Y-90679028D01*
X61514279Y-90609872D01*
X61539390Y-90573703D01*
X61740460Y-90372634D01*
X61780022Y-90304111D01*
X61800500Y-90227685D01*
X61800500Y-90148561D01*
X61800500Y-89306409D01*
X61820185Y-89239370D01*
X61872989Y-89193615D01*
X61924119Y-89182410D01*
X61925510Y-89182405D01*
X61925513Y-89182406D01*
X63375119Y-89177946D01*
X63442218Y-89197424D01*
X63488135Y-89250087D01*
X63499500Y-89301945D01*
X63499500Y-89505279D01*
X63479815Y-89572318D01*
X63463181Y-89592960D01*
X62868115Y-90188026D01*
X62806792Y-90221511D01*
X62780434Y-90224345D01*
X62684304Y-90224345D01*
X62546217Y-90264890D01*
X62425141Y-90342701D01*
X62330891Y-90451471D01*
X62330890Y-90451473D01*
X62271102Y-90582388D01*
X62250621Y-90724845D01*
X62271102Y-90867301D01*
X62314120Y-90961496D01*
X62330891Y-90998218D01*
X62425140Y-91106988D01*
X62546215Y-91184798D01*
X62546218Y-91184799D01*
X62546217Y-91184799D01*
X62684304Y-91225344D01*
X62684306Y-91225345D01*
X62684307Y-91225345D01*
X62828230Y-91225345D01*
X62828230Y-91225344D01*
X62966321Y-91184798D01*
X63087396Y-91106988D01*
X63181645Y-90998218D01*
X63241433Y-90867302D01*
X63261915Y-90724845D01*
X63260607Y-90715750D01*
X63270547Y-90646594D01*
X63295660Y-90610422D01*
X64040460Y-89865624D01*
X64047254Y-89853856D01*
X64080021Y-89797102D01*
X64100500Y-89720675D01*
X64100500Y-89299332D01*
X64120185Y-89232293D01*
X64172989Y-89186538D01*
X64224118Y-89175333D01*
X64225511Y-89175328D01*
X64225514Y-89175329D01*
X70500887Y-89156019D01*
X70567986Y-89175497D01*
X70602010Y-89207719D01*
X70863663Y-89572318D01*
X71080285Y-89874168D01*
X71080284Y-89874168D01*
X71201057Y-90042457D01*
X71305235Y-90187623D01*
X71314116Y-90199997D01*
X71314117Y-90199999D01*
X71400103Y-90319816D01*
X71888230Y-90999995D01*
X71888234Y-90999999D01*
X71974219Y-91119816D01*
X72266166Y-91526626D01*
X72462357Y-91800006D01*
X72548343Y-91919823D01*
X72865503Y-92361768D01*
X72888597Y-92427710D01*
X72872374Y-92495670D01*
X72821984Y-92544071D01*
X72764760Y-92558065D01*
X71428868Y-92558065D01*
X71339724Y-92581951D01*
X71339723Y-92581951D01*
X71339721Y-92581952D01*
X71339718Y-92581953D01*
X71259806Y-92628091D01*
X71259797Y-92628098D01*
X70074713Y-93813182D01*
X70013390Y-93846667D01*
X69987032Y-93849501D01*
X69953850Y-93849501D01*
X69864711Y-93873385D01*
X69864710Y-93873385D01*
X69784787Y-93919531D01*
X69784786Y-93919531D01*
X69707056Y-93997260D01*
X69686417Y-94013893D01*
X69602447Y-94067858D01*
X69600888Y-94069210D01*
X69599010Y-94070067D01*
X69594989Y-94072652D01*
X69594617Y-94072073D01*
X69537333Y-94098237D01*
X69519682Y-94099500D01*
X67846543Y-94099500D01*
X67779504Y-94079815D01*
X67758862Y-94063181D01*
X66836503Y-93140821D01*
X66803018Y-93079498D01*
X66801449Y-93070805D01*
X66785165Y-92957543D01*
X66725377Y-92826627D01*
X66631128Y-92717857D01*
X66510053Y-92640047D01*
X66510051Y-92640046D01*
X66510049Y-92640045D01*
X66510050Y-92640045D01*
X66371963Y-92599500D01*
X66371961Y-92599500D01*
X66228039Y-92599500D01*
X66228036Y-92599500D01*
X66089949Y-92640045D01*
X65968876Y-92717854D01*
X65968874Y-92717855D01*
X65968872Y-92717857D01*
X65968870Y-92717858D01*
X65967312Y-92719210D01*
X65965427Y-92720070D01*
X65961411Y-92722652D01*
X65961039Y-92722074D01*
X65903757Y-92748237D01*
X65886105Y-92749500D01*
X63853856Y-92749500D01*
X63764712Y-92773386D01*
X63764709Y-92773387D01*
X63684791Y-92819527D01*
X63684786Y-92819531D01*
X63141137Y-93363181D01*
X63079814Y-93396666D01*
X63053456Y-93399500D01*
X63028036Y-93399500D01*
X62889949Y-93440045D01*
X62768873Y-93517856D01*
X62768872Y-93517856D01*
X62768872Y-93517857D01*
X62764167Y-93523287D01*
X62674623Y-93626626D01*
X62674622Y-93626628D01*
X62614834Y-93757543D01*
X62594353Y-93900000D01*
X62614834Y-94042456D01*
X62674622Y-94173371D01*
X62674623Y-94173373D01*
X62768872Y-94282143D01*
X62889947Y-94359953D01*
X62889950Y-94359954D01*
X62889949Y-94359954D01*
X63028036Y-94400499D01*
X63028038Y-94400500D01*
X63028039Y-94400500D01*
X63171962Y-94400500D01*
X63171962Y-94400499D01*
X63310053Y-94359953D01*
X63431128Y-94282143D01*
X63525377Y-94173373D01*
X63585165Y-94042457D01*
X63601447Y-93929208D01*
X63630470Y-93865656D01*
X63636488Y-93859192D01*
X64008863Y-93486819D01*
X64070186Y-93453334D01*
X64096544Y-93450500D01*
X65886105Y-93450500D01*
X65953144Y-93470185D01*
X65967312Y-93480790D01*
X65968866Y-93482137D01*
X65968872Y-93482143D01*
X66089947Y-93559953D01*
X66089950Y-93559954D01*
X66089949Y-93559954D01*
X66228036Y-93600499D01*
X66228038Y-93600500D01*
X66228039Y-93600500D01*
X66253456Y-93600500D01*
X66320495Y-93620185D01*
X66341137Y-93636819D01*
X66873522Y-94169203D01*
X67369531Y-94665212D01*
X67434788Y-94730469D01*
X67434791Y-94730470D01*
X67434794Y-94730473D01*
X67514706Y-94776611D01*
X67514707Y-94776611D01*
X67514712Y-94776614D01*
X67603856Y-94800500D01*
X69519682Y-94800500D01*
X69586721Y-94820185D01*
X69600889Y-94830790D01*
X69602443Y-94832137D01*
X69602449Y-94832143D01*
X69723524Y-94909953D01*
X69723527Y-94909954D01*
X69723526Y-94909954D01*
X69830684Y-94941417D01*
X69858210Y-94949500D01*
X69861613Y-94950499D01*
X69861615Y-94950500D01*
X69861616Y-94950500D01*
X70005539Y-94950500D01*
X70005539Y-94950499D01*
X70143630Y-94909953D01*
X70264705Y-94832143D01*
X70358954Y-94723373D01*
X70418742Y-94592457D01*
X70435024Y-94479208D01*
X70464047Y-94415656D01*
X70470066Y-94409191D01*
X71583874Y-93295384D01*
X71645197Y-93261899D01*
X71671555Y-93259065D01*
X73553039Y-93259065D01*
X73620078Y-93278750D01*
X73665833Y-93331554D01*
X73676256Y-93369148D01*
X73686217Y-93457345D01*
X73709306Y-93523276D01*
X73709313Y-93523292D01*
X73736305Y-93575179D01*
X75171287Y-95574745D01*
X78134062Y-99703202D01*
X78157156Y-99769145D01*
X78140933Y-99837105D01*
X78090544Y-99885506D01*
X78033319Y-99899500D01*
X51474788Y-99899500D01*
X51407749Y-99879815D01*
X51361994Y-99827011D01*
X51352050Y-99757853D01*
X51381075Y-99694297D01*
X51387107Y-99687819D01*
X51388151Y-99686775D01*
X51449474Y-99653290D01*
X51475832Y-99650456D01*
X51571960Y-99650456D01*
X51571961Y-99650456D01*
X51580717Y-99647884D01*
X51647744Y-99647087D01*
X51660482Y-99650500D01*
X51660483Y-99650500D01*
X57489560Y-99650500D01*
X57489562Y-99650500D01*
X57565989Y-99630021D01*
X57634511Y-99590460D01*
X57690460Y-99534511D01*
X58624970Y-98600000D01*
X62694353Y-98600000D01*
X62714834Y-98742456D01*
X62746389Y-98811550D01*
X62774623Y-98873373D01*
X62868872Y-98982143D01*
X62989947Y-99059953D01*
X62989950Y-99059954D01*
X62989949Y-99059954D01*
X63097107Y-99091417D01*
X63128025Y-99100496D01*
X63128036Y-99100499D01*
X63128038Y-99100500D01*
X63128039Y-99100500D01*
X63271962Y-99100500D01*
X63271962Y-99100499D01*
X63410053Y-99059953D01*
X63531128Y-98982143D01*
X63625377Y-98873373D01*
X63685165Y-98742457D01*
X63705647Y-98600000D01*
X68294353Y-98600000D01*
X68314834Y-98742456D01*
X68346389Y-98811550D01*
X68374623Y-98873373D01*
X68468872Y-98982143D01*
X68589947Y-99059953D01*
X68589950Y-99059954D01*
X68589949Y-99059954D01*
X68697107Y-99091417D01*
X68728025Y-99100496D01*
X68728036Y-99100499D01*
X68728038Y-99100500D01*
X68728039Y-99100500D01*
X68871962Y-99100500D01*
X68871962Y-99100499D01*
X69010053Y-99059953D01*
X69131128Y-98982143D01*
X69225377Y-98873373D01*
X69285165Y-98742457D01*
X69305647Y-98600000D01*
X69285165Y-98457543D01*
X69225377Y-98326627D01*
X69131128Y-98217857D01*
X69010053Y-98140047D01*
X69010051Y-98140046D01*
X69010049Y-98140045D01*
X69010050Y-98140045D01*
X68871963Y-98099500D01*
X68871961Y-98099500D01*
X68728039Y-98099500D01*
X68728036Y-98099500D01*
X68589949Y-98140045D01*
X68468873Y-98217856D01*
X68374623Y-98326626D01*
X68374622Y-98326628D01*
X68314834Y-98457543D01*
X68294353Y-98600000D01*
X63705647Y-98600000D01*
X63685165Y-98457543D01*
X63625377Y-98326627D01*
X63531128Y-98217857D01*
X63410053Y-98140047D01*
X63410051Y-98140046D01*
X63410049Y-98140045D01*
X63410050Y-98140045D01*
X63271963Y-98099500D01*
X63271961Y-98099500D01*
X63128039Y-98099500D01*
X63128036Y-98099500D01*
X62989949Y-98140045D01*
X62868873Y-98217856D01*
X62774623Y-98326626D01*
X62774622Y-98326628D01*
X62714834Y-98457543D01*
X62694353Y-98600000D01*
X58624970Y-98600000D01*
X60588151Y-96636818D01*
X60649474Y-96603334D01*
X60675832Y-96600500D01*
X60771962Y-96600500D01*
X60771962Y-96600499D01*
X60910053Y-96559953D01*
X61031128Y-96482143D01*
X61125377Y-96373373D01*
X61185165Y-96242457D01*
X61205647Y-96100000D01*
X61185165Y-95957543D01*
X61178658Y-95943296D01*
X61168715Y-95874141D01*
X61197739Y-95810585D01*
X61256516Y-95772809D01*
X61326386Y-95772808D01*
X61379134Y-95804105D01*
X61660604Y-96085575D01*
X61694089Y-96146898D01*
X61695661Y-96190902D01*
X61694353Y-96199999D01*
X61714834Y-96342456D01*
X61773706Y-96471366D01*
X61774623Y-96473373D01*
X61868872Y-96582143D01*
X61989947Y-96659953D01*
X61989950Y-96659954D01*
X61989949Y-96659954D01*
X62097107Y-96691417D01*
X62121200Y-96698492D01*
X62128036Y-96700499D01*
X62128038Y-96700500D01*
X62128039Y-96700500D01*
X62271962Y-96700500D01*
X62271962Y-96700499D01*
X62410053Y-96659953D01*
X62531128Y-96582143D01*
X62625377Y-96473373D01*
X62685165Y-96342457D01*
X62705647Y-96200000D01*
X62685165Y-96057543D01*
X62625377Y-95926627D01*
X62531128Y-95817857D01*
X62410053Y-95740047D01*
X62410051Y-95740046D01*
X62410049Y-95740045D01*
X62410050Y-95740045D01*
X62271963Y-95699500D01*
X62271961Y-95699500D01*
X62175833Y-95699500D01*
X62108794Y-95679815D01*
X62088152Y-95663181D01*
X59085447Y-92660475D01*
X59085446Y-92660474D01*
X59085443Y-92660472D01*
X59076578Y-92655354D01*
X59016921Y-92620911D01*
X58940494Y-92600432D01*
X45474446Y-92600432D01*
X45423494Y-92614084D01*
X45398018Y-92620911D01*
X45371715Y-92636097D01*
X45338362Y-92655354D01*
X45332587Y-92658687D01*
X45329493Y-92660474D01*
X45329492Y-92660475D01*
X44004884Y-93985084D01*
X43943561Y-94018569D01*
X43917203Y-94021403D01*
X43821073Y-94021403D01*
X43682986Y-94061948D01*
X43561910Y-94139759D01*
X43467660Y-94248529D01*
X43467659Y-94248531D01*
X43407871Y-94379446D01*
X43387390Y-94521903D01*
X43407871Y-94664359D01*
X43455492Y-94768632D01*
X43467660Y-94795276D01*
X43561909Y-94904046D01*
X43682984Y-94981856D01*
X43682987Y-94981857D01*
X43682986Y-94981857D01*
X43821073Y-95022402D01*
X43821075Y-95022403D01*
X43821076Y-95022403D01*
X43964999Y-95022403D01*
X43964999Y-95022402D01*
X44103090Y-94981856D01*
X44224165Y-94904046D01*
X44318414Y-94795276D01*
X44378202Y-94664360D01*
X44398684Y-94521903D01*
X44397376Y-94512808D01*
X44407316Y-94443652D01*
X44432429Y-94407480D01*
X45602160Y-93237751D01*
X45663483Y-93204266D01*
X45689841Y-93201432D01*
X47440856Y-93201432D01*
X47507895Y-93221117D01*
X47553650Y-93273921D01*
X47563594Y-93343079D01*
X47534569Y-93406635D01*
X47528540Y-93413109D01*
X47184106Y-93757543D01*
X46849310Y-94092339D01*
X46787987Y-94125824D01*
X46761629Y-94128658D01*
X46665499Y-94128658D01*
X46527412Y-94169203D01*
X46406336Y-94247014D01*
X46406335Y-94247014D01*
X46406335Y-94247015D01*
X46393753Y-94261535D01*
X46312086Y-94355784D01*
X46312085Y-94355786D01*
X46252297Y-94486701D01*
X46231816Y-94629158D01*
X46231816Y-94629160D01*
X46238725Y-94677220D01*
X46228780Y-94746379D01*
X46183025Y-94799182D01*
X46150922Y-94813842D01*
X46021102Y-94851959D01*
X45900027Y-94929770D01*
X45805777Y-95038540D01*
X45805776Y-95038542D01*
X45745988Y-95169457D01*
X45725507Y-95311914D01*
X45745988Y-95454370D01*
X45804259Y-95581964D01*
X45805777Y-95585287D01*
X45900026Y-95694057D01*
X46021101Y-95771867D01*
X46021104Y-95771868D01*
X46021103Y-95771868D01*
X46159190Y-95812413D01*
X46159192Y-95812414D01*
X46159193Y-95812414D01*
X46303116Y-95812414D01*
X46303116Y-95812413D01*
X46437999Y-95772809D01*
X46441204Y-95771868D01*
X46441204Y-95771867D01*
X46441207Y-95771867D01*
X46562282Y-95694057D01*
X46656531Y-95585287D01*
X46716319Y-95454371D01*
X46736801Y-95311914D01*
X46729891Y-95263853D01*
X46739835Y-95194694D01*
X46785590Y-95141890D01*
X46817691Y-95127230D01*
X46838890Y-95121006D01*
X46908759Y-95121008D01*
X46967536Y-95158783D01*
X46996559Y-95222340D01*
X46993597Y-95272071D01*
X46991287Y-95280693D01*
X46991286Y-95280700D01*
X46991286Y-95280701D01*
X46991286Y-99000587D01*
X47007194Y-99059954D01*
X47011765Y-99077014D01*
X47025323Y-99100496D01*
X47025324Y-99100500D01*
X47025325Y-99100500D01*
X47051325Y-99145534D01*
X47051327Y-99145537D01*
X47593609Y-99687819D01*
X47627094Y-99749142D01*
X47622110Y-99818834D01*
X47580238Y-99874767D01*
X47514774Y-99899184D01*
X47505928Y-99899500D01*
X31466091Y-99899500D01*
X31399052Y-99879815D01*
X31353297Y-99827011D01*
X31343353Y-99757853D01*
X31361591Y-99708749D01*
X32516952Y-97900000D01*
X37994353Y-97900000D01*
X38014834Y-98042456D01*
X38040886Y-98099500D01*
X38074623Y-98173373D01*
X38168872Y-98282143D01*
X38289947Y-98359953D01*
X38289950Y-98359954D01*
X38289949Y-98359954D01*
X38428036Y-98400499D01*
X38428038Y-98400500D01*
X38428039Y-98400500D01*
X38571962Y-98400500D01*
X38571962Y-98400499D01*
X38710053Y-98359953D01*
X38831128Y-98282143D01*
X38925377Y-98173373D01*
X38985165Y-98042457D01*
X39005647Y-97900000D01*
X38985165Y-97757543D01*
X38925377Y-97626627D01*
X38831128Y-97517857D01*
X38710053Y-97440047D01*
X38710051Y-97440046D01*
X38710049Y-97440045D01*
X38710050Y-97440045D01*
X38571963Y-97399500D01*
X38571961Y-97399500D01*
X38428039Y-97399500D01*
X38428036Y-97399500D01*
X38289949Y-97440045D01*
X38168873Y-97517856D01*
X38074623Y-97626626D01*
X38074622Y-97626628D01*
X38014834Y-97757543D01*
X37994353Y-97900000D01*
X32516952Y-97900000D01*
X32607948Y-97757543D01*
X33826415Y-95850000D01*
X44089346Y-95850000D01*
X44109827Y-95992456D01*
X44144705Y-96068826D01*
X44169616Y-96123373D01*
X44263865Y-96232143D01*
X44384940Y-96309953D01*
X44384943Y-96309954D01*
X44384942Y-96309954D01*
X44523029Y-96350499D01*
X44523031Y-96350500D01*
X44523032Y-96350500D01*
X44666955Y-96350500D01*
X44666955Y-96350499D01*
X44805046Y-96309953D01*
X44926121Y-96232143D01*
X45020370Y-96123373D01*
X45080158Y-95992457D01*
X45100640Y-95850000D01*
X45080158Y-95707543D01*
X45020370Y-95576627D01*
X44926121Y-95467857D01*
X44805046Y-95390047D01*
X44805044Y-95390046D01*
X44805042Y-95390045D01*
X44805043Y-95390045D01*
X44666956Y-95349500D01*
X44666954Y-95349500D01*
X44523032Y-95349500D01*
X44523029Y-95349500D01*
X44384942Y-95390045D01*
X44263866Y-95467856D01*
X44169616Y-95576626D01*
X44169615Y-95576628D01*
X44109827Y-95707543D01*
X44089346Y-95850000D01*
X33826415Y-95850000D01*
X36413402Y-91800000D01*
X37294353Y-91800000D01*
X37314834Y-91942456D01*
X37373178Y-92070210D01*
X37374623Y-92073373D01*
X37468872Y-92182143D01*
X37589947Y-92259953D01*
X37589950Y-92259954D01*
X37589949Y-92259954D01*
X37728036Y-92300499D01*
X37728038Y-92300500D01*
X37728039Y-92300500D01*
X37871962Y-92300500D01*
X37871962Y-92300499D01*
X38010053Y-92259953D01*
X38103342Y-92200000D01*
X68294353Y-92200000D01*
X68314834Y-92342456D01*
X68374622Y-92473371D01*
X68374623Y-92473373D01*
X68468872Y-92582143D01*
X68589947Y-92659953D01*
X68589950Y-92659954D01*
X68589949Y-92659954D01*
X68728036Y-92700499D01*
X68728038Y-92700500D01*
X68728039Y-92700500D01*
X68871962Y-92700500D01*
X68871962Y-92700499D01*
X68979121Y-92669035D01*
X69010050Y-92659954D01*
X69010050Y-92659953D01*
X69010053Y-92659953D01*
X69131128Y-92582143D01*
X69225377Y-92473373D01*
X69285165Y-92342457D01*
X69305647Y-92200000D01*
X69285165Y-92057543D01*
X69225377Y-91926627D01*
X69131128Y-91817857D01*
X69010053Y-91740047D01*
X69010051Y-91740046D01*
X69010049Y-91740045D01*
X69010050Y-91740045D01*
X68871963Y-91699500D01*
X68871961Y-91699500D01*
X68728039Y-91699500D01*
X68728036Y-91699500D01*
X68589949Y-91740045D01*
X68468873Y-91817856D01*
X68374623Y-91926626D01*
X68374622Y-91926628D01*
X68314834Y-92057543D01*
X68294353Y-92200000D01*
X38103342Y-92200000D01*
X38131128Y-92182143D01*
X38225377Y-92073373D01*
X38285165Y-91942457D01*
X38305647Y-91800000D01*
X38285165Y-91657543D01*
X38225377Y-91526627D01*
X38131128Y-91417857D01*
X38010053Y-91340047D01*
X38010051Y-91340046D01*
X38010049Y-91340045D01*
X38010050Y-91340045D01*
X37871963Y-91299500D01*
X37871961Y-91299500D01*
X37728039Y-91299500D01*
X37728036Y-91299500D01*
X37589949Y-91340045D01*
X37468873Y-91417856D01*
X37374623Y-91526626D01*
X37374622Y-91526628D01*
X37314834Y-91657543D01*
X37294353Y-91800000D01*
X36413402Y-91800000D01*
X37179922Y-90599992D01*
X48094345Y-90599992D01*
X48114826Y-90742448D01*
X48171846Y-90867301D01*
X48174615Y-90873365D01*
X48268864Y-90982135D01*
X48389939Y-91059945D01*
X48389942Y-91059946D01*
X48389941Y-91059946D01*
X48528028Y-91100491D01*
X48528030Y-91100492D01*
X48528031Y-91100492D01*
X48671954Y-91100492D01*
X48671954Y-91100491D01*
X48779113Y-91069027D01*
X48810042Y-91059946D01*
X48810042Y-91059945D01*
X48810045Y-91059945D01*
X48931120Y-90982135D01*
X49025369Y-90873365D01*
X49085157Y-90742449D01*
X49105639Y-90599992D01*
X49085157Y-90457535D01*
X49025369Y-90326619D01*
X48931120Y-90217849D01*
X48810045Y-90140039D01*
X48810043Y-90140038D01*
X48810041Y-90140037D01*
X48810042Y-90140037D01*
X48671955Y-90099492D01*
X48671953Y-90099492D01*
X48528031Y-90099492D01*
X48528028Y-90099492D01*
X48389941Y-90140037D01*
X48268865Y-90217848D01*
X48174615Y-90326618D01*
X48174614Y-90326620D01*
X48114826Y-90457535D01*
X48094345Y-90599992D01*
X37179922Y-90599992D01*
X37919797Y-89441698D01*
X37963915Y-89400147D01*
X38195734Y-89270924D01*
X38255722Y-89255235D01*
X45991872Y-89231432D01*
X46058971Y-89250910D01*
X46104888Y-89303573D01*
X46115045Y-89372700D01*
X46086215Y-89436345D01*
X46059293Y-89459746D01*
X45968874Y-89517855D01*
X45968872Y-89517856D01*
X45968872Y-89517857D01*
X45946672Y-89543476D01*
X45874623Y-89626626D01*
X45874622Y-89626628D01*
X45814834Y-89757543D01*
X45794353Y-89900000D01*
X45814834Y-90042456D01*
X45864544Y-90151304D01*
X45874623Y-90173373D01*
X45968872Y-90282143D01*
X46089947Y-90359953D01*
X46089950Y-90359954D01*
X46089949Y-90359954D01*
X46228036Y-90400499D01*
X46228038Y-90400500D01*
X46228039Y-90400500D01*
X46371962Y-90400500D01*
X46371962Y-90400499D01*
X46479121Y-90369035D01*
X46510050Y-90359954D01*
X46510050Y-90359953D01*
X46510053Y-90359953D01*
X46631128Y-90282143D01*
X46631136Y-90282133D01*
X46632688Y-90280790D01*
X46634572Y-90279929D01*
X46638589Y-90277348D01*
X46638960Y-90277925D01*
X46696243Y-90251763D01*
X46713895Y-90250500D01*
X47765852Y-90250500D01*
X47765854Y-90250500D01*
X47854998Y-90226614D01*
X47870178Y-90217849D01*
X47870180Y-90217849D01*
X47870180Y-90217848D01*
X47934922Y-90180470D01*
X48987283Y-89128107D01*
X49048604Y-89094624D01*
X49118295Y-89099608D01*
G37*
%TD.AperFunction*%
%TA.AperFunction,Conductor*%
G36*
X48246491Y-95175469D02*
G01*
X48267134Y-95192105D01*
X48868180Y-95793151D01*
X48901665Y-95854474D01*
X48904499Y-95880832D01*
X48904499Y-96257159D01*
X48884814Y-96324198D01*
X48874212Y-96338361D01*
X48779624Y-96447521D01*
X48779621Y-96447527D01*
X48719833Y-96578442D01*
X48699352Y-96720899D01*
X48719833Y-96863355D01*
X48738098Y-96903349D01*
X48779622Y-96994272D01*
X48873871Y-97103042D01*
X48994946Y-97180852D01*
X48994949Y-97180853D01*
X48994948Y-97180853D01*
X49133035Y-97221398D01*
X49133037Y-97221399D01*
X49133038Y-97221399D01*
X49276961Y-97221399D01*
X49276961Y-97221398D01*
X49415052Y-97180852D01*
X49536127Y-97103042D01*
X49630376Y-96994272D01*
X49680480Y-96884559D01*
X49726235Y-96831756D01*
X49793274Y-96812072D01*
X49860314Y-96831757D01*
X49906067Y-96884558D01*
X49914650Y-96903351D01*
X50008899Y-97012121D01*
X50129974Y-97089931D01*
X50129977Y-97089932D01*
X50129976Y-97089932D01*
X50268063Y-97130477D01*
X50268065Y-97130478D01*
X50268066Y-97130478D01*
X50411989Y-97130478D01*
X50411989Y-97130477D01*
X50550080Y-97089931D01*
X50671155Y-97012121D01*
X50765404Y-96903351D01*
X50825192Y-96772435D01*
X50845674Y-96629978D01*
X50825192Y-96487521D01*
X50767104Y-96360327D01*
X50757160Y-96291168D01*
X50786185Y-96227612D01*
X50844963Y-96189838D01*
X50879898Y-96184815D01*
X54560438Y-96184815D01*
X57205460Y-96184815D01*
X57272499Y-96204500D01*
X57318254Y-96257304D01*
X57328198Y-96291167D01*
X57335283Y-96340449D01*
X57384185Y-96447527D01*
X57395072Y-96471366D01*
X57489321Y-96580136D01*
X57610396Y-96657946D01*
X57610399Y-96657947D01*
X57610398Y-96657947D01*
X57748485Y-96698492D01*
X57748487Y-96698493D01*
X57748488Y-96698493D01*
X57892411Y-96698493D01*
X57892411Y-96698492D01*
X57999570Y-96667028D01*
X58030499Y-96657947D01*
X58030499Y-96657946D01*
X58030502Y-96657946D01*
X58151577Y-96580136D01*
X58245826Y-96471366D01*
X58305614Y-96340450D01*
X58326096Y-96197993D01*
X58305614Y-96055536D01*
X58294678Y-96031589D01*
X58246462Y-95926012D01*
X58236518Y-95856853D01*
X58265543Y-95793297D01*
X58324321Y-95755523D01*
X58359256Y-95750500D01*
X59442043Y-95750500D01*
X59509082Y-95770185D01*
X59535755Y-95793296D01*
X59569416Y-95832143D01*
X59690491Y-95909953D01*
X59690494Y-95909954D01*
X59690493Y-95909954D01*
X59828580Y-95950499D01*
X59828582Y-95950500D01*
X59828583Y-95950500D01*
X59972505Y-95950500D01*
X60041441Y-95930259D01*
X60111311Y-95930259D01*
X60170089Y-95968033D01*
X60199114Y-96031589D01*
X60199114Y-96066881D01*
X60194353Y-96099997D01*
X60194353Y-96100001D01*
X60195661Y-96109103D01*
X60185713Y-96178261D01*
X60160603Y-96214424D01*
X57361848Y-99013181D01*
X57300525Y-99046666D01*
X57274167Y-99049500D01*
X52084036Y-99049500D01*
X52016997Y-99029815D01*
X51971242Y-98977012D01*
X51962901Y-98958750D01*
X51925377Y-98876583D01*
X51831128Y-98767813D01*
X51710053Y-98690003D01*
X51710051Y-98690002D01*
X51710049Y-98690001D01*
X51710050Y-98690001D01*
X51571963Y-98649456D01*
X51571961Y-98649456D01*
X51428039Y-98649456D01*
X51428036Y-98649456D01*
X51289949Y-98690001D01*
X51168873Y-98767812D01*
X51074623Y-98876582D01*
X51074622Y-98876584D01*
X51014834Y-99007499D01*
X50994353Y-99149956D01*
X50995661Y-99159057D01*
X50985714Y-99228215D01*
X50960605Y-99264377D01*
X50911805Y-99313179D01*
X50850483Y-99346666D01*
X50824122Y-99349500D01*
X48156594Y-99349500D01*
X48089555Y-99329815D01*
X48068913Y-99313181D01*
X47628605Y-98872873D01*
X47595120Y-98811550D01*
X47592286Y-98785192D01*
X47592286Y-97400000D01*
X53494353Y-97400000D01*
X53514834Y-97542456D01*
X53560504Y-97642457D01*
X53574623Y-97673373D01*
X53668872Y-97782143D01*
X53789947Y-97859953D01*
X53789950Y-97859954D01*
X53789949Y-97859954D01*
X53840382Y-97874762D01*
X53926336Y-97900000D01*
X53928036Y-97900499D01*
X53928038Y-97900500D01*
X53928039Y-97900500D01*
X54071962Y-97900500D01*
X54071962Y-97900499D01*
X54210053Y-97859953D01*
X54331128Y-97782143D01*
X54425377Y-97673373D01*
X54485165Y-97542457D01*
X54491269Y-97500000D01*
X55894353Y-97500000D01*
X55914834Y-97642456D01*
X55974622Y-97773371D01*
X55974623Y-97773373D01*
X56068872Y-97882143D01*
X56189947Y-97959953D01*
X56189950Y-97959954D01*
X56189949Y-97959954D01*
X56328036Y-98000499D01*
X56328038Y-98000500D01*
X56328039Y-98000500D01*
X56471962Y-98000500D01*
X56471962Y-98000499D01*
X56610053Y-97959953D01*
X56731128Y-97882143D01*
X56825377Y-97773373D01*
X56885165Y-97642457D01*
X56905647Y-97500000D01*
X56885165Y-97357543D01*
X56825377Y-97226627D01*
X56731128Y-97117857D01*
X56610053Y-97040047D01*
X56610051Y-97040046D01*
X56610049Y-97040045D01*
X56610050Y-97040045D01*
X56471963Y-96999500D01*
X56471961Y-96999500D01*
X56328039Y-96999500D01*
X56328036Y-96999500D01*
X56189949Y-97040045D01*
X56068873Y-97117856D01*
X55974623Y-97226626D01*
X55974622Y-97226628D01*
X55914834Y-97357543D01*
X55894353Y-97500000D01*
X54491269Y-97500000D01*
X54505647Y-97400000D01*
X54485165Y-97257543D01*
X54425377Y-97126627D01*
X54331128Y-97017857D01*
X54210053Y-96940047D01*
X54210051Y-96940046D01*
X54210049Y-96940045D01*
X54210050Y-96940045D01*
X54071963Y-96899500D01*
X54071961Y-96899500D01*
X53928039Y-96899500D01*
X53928036Y-96899500D01*
X53789949Y-96940045D01*
X53668873Y-97017856D01*
X53574623Y-97126626D01*
X53574622Y-97126628D01*
X53514834Y-97257543D01*
X53494353Y-97400000D01*
X47592286Y-97400000D01*
X47592286Y-95607522D01*
X47611971Y-95540483D01*
X47664775Y-95494728D01*
X47698645Y-95484783D01*
X47699901Y-95484602D01*
X47699908Y-95484602D01*
X47756937Y-95467857D01*
X47837997Y-95444056D01*
X47837997Y-95444055D01*
X47838000Y-95444055D01*
X47959075Y-95366245D01*
X48053324Y-95257475D01*
X48066659Y-95228273D01*
X48112412Y-95175472D01*
X48179451Y-95155786D01*
X48246491Y-95175469D01*
G37*
%TD.AperFunction*%
%TD*%
%TA.AperFunction,Conductor*%
%TO.N,PGND*%
G36*
X132275453Y-77202408D02*
G01*
X132342488Y-77222095D01*
X132388240Y-77274901D01*
X132399442Y-77326951D01*
X132392594Y-78888277D01*
X132372615Y-78955229D01*
X132319611Y-79000752D01*
X132303530Y-79006710D01*
X132189959Y-79040056D01*
X132068884Y-79117867D01*
X131974634Y-79226637D01*
X131974633Y-79226639D01*
X131914845Y-79357554D01*
X131894364Y-79500011D01*
X131914845Y-79642467D01*
X131974629Y-79773373D01*
X131974634Y-79773384D01*
X132068883Y-79882154D01*
X132189958Y-79959964D01*
X132189961Y-79959965D01*
X132189960Y-79959965D01*
X132298166Y-79991737D01*
X132356945Y-80029511D01*
X132385970Y-80093066D01*
X132387231Y-80111258D01*
X132381957Y-81313724D01*
X132374271Y-83066337D01*
X132373972Y-83134470D01*
X132353993Y-83201422D01*
X132300989Y-83246945D01*
X132249973Y-83257926D01*
X132167223Y-83257926D01*
X132029136Y-83298471D01*
X131908060Y-83376282D01*
X131813810Y-83485052D01*
X131813809Y-83485054D01*
X131754021Y-83615969D01*
X131733540Y-83758426D01*
X131754021Y-83900882D01*
X131813809Y-84031797D01*
X131813810Y-84031799D01*
X131908059Y-84140569D01*
X132029134Y-84218379D01*
X132029137Y-84218380D01*
X132029136Y-84218380D01*
X132167223Y-84258925D01*
X132167225Y-84258926D01*
X132244494Y-84258926D01*
X132311533Y-84278611D01*
X132357288Y-84331415D01*
X132368493Y-84383470D01*
X132324372Y-94442982D01*
X132304393Y-94509934D01*
X132251389Y-94555457D01*
X132182188Y-94565097D01*
X132133335Y-94546755D01*
X132132289Y-94546083D01*
X132115078Y-94535022D01*
X132115076Y-94535021D01*
X132115074Y-94535020D01*
X131976988Y-94494475D01*
X131976986Y-94494475D01*
X131833064Y-94494475D01*
X131833061Y-94494475D01*
X131694974Y-94535020D01*
X131573898Y-94612831D01*
X131479648Y-94721601D01*
X131479647Y-94721603D01*
X131419859Y-94852518D01*
X131399378Y-94994975D01*
X131419859Y-95137431D01*
X131425371Y-95149500D01*
X131479648Y-95268348D01*
X131573897Y-95377118D01*
X131694972Y-95454928D01*
X131694975Y-95454929D01*
X131694974Y-95454929D01*
X131833061Y-95495474D01*
X131833063Y-95495475D01*
X131833064Y-95495475D01*
X131976987Y-95495475D01*
X131976987Y-95495474D01*
X132115075Y-95454929D01*
X132115076Y-95454929D01*
X132115078Y-95454928D01*
X132128470Y-95446321D01*
X132195507Y-95426634D01*
X132262547Y-95446316D01*
X132308304Y-95499118D01*
X132319511Y-95551178D01*
X132300982Y-99776044D01*
X132281003Y-99842996D01*
X132227999Y-99888519D01*
X132176983Y-99899500D01*
X84273362Y-99899500D01*
X84206323Y-99879815D01*
X84160568Y-99827011D01*
X84150624Y-99757853D01*
X84179649Y-99694297D01*
X84185681Y-99687819D01*
X84199461Y-99674038D01*
X84199464Y-99674035D01*
X84298013Y-99526547D01*
X84365894Y-99362666D01*
X84374252Y-99320651D01*
X84400499Y-99188695D01*
X84400500Y-99188693D01*
X84400500Y-98962500D01*
X86744353Y-98962500D01*
X86764834Y-99104956D01*
X86824622Y-99235871D01*
X86824623Y-99235873D01*
X86918872Y-99344643D01*
X87039947Y-99422453D01*
X87039950Y-99422454D01*
X87039949Y-99422454D01*
X87178036Y-99462999D01*
X87178038Y-99463000D01*
X87178039Y-99463000D01*
X87321962Y-99463000D01*
X87321962Y-99462999D01*
X87460053Y-99422453D01*
X87581128Y-99344643D01*
X87675377Y-99235873D01*
X87735165Y-99104957D01*
X87755647Y-98962500D01*
X87735165Y-98820043D01*
X87675377Y-98689127D01*
X87581128Y-98580357D01*
X87460053Y-98502547D01*
X87460051Y-98502546D01*
X87460049Y-98502545D01*
X87460050Y-98502545D01*
X87321963Y-98462000D01*
X87321961Y-98462000D01*
X87178039Y-98462000D01*
X87178036Y-98462000D01*
X87039949Y-98502545D01*
X86918873Y-98580356D01*
X86824623Y-98689126D01*
X86824622Y-98689128D01*
X86764834Y-98820043D01*
X86744353Y-98962500D01*
X84400500Y-98962500D01*
X84400500Y-98100000D01*
X94394353Y-98100000D01*
X94414834Y-98242456D01*
X94463720Y-98349500D01*
X94474623Y-98373373D01*
X94568872Y-98482143D01*
X94689947Y-98559953D01*
X94689950Y-98559954D01*
X94689949Y-98559954D01*
X94759434Y-98580356D01*
X94826336Y-98600000D01*
X94828036Y-98600499D01*
X94828038Y-98600500D01*
X94828039Y-98600500D01*
X94971962Y-98600500D01*
X94971962Y-98600499D01*
X95110053Y-98559953D01*
X95231128Y-98482143D01*
X95325377Y-98373373D01*
X95385165Y-98242457D01*
X95405647Y-98100000D01*
X95385165Y-97957543D01*
X95325377Y-97826627D01*
X95231128Y-97717857D01*
X95110053Y-97640047D01*
X95110051Y-97640046D01*
X95110049Y-97640045D01*
X95110050Y-97640045D01*
X94971963Y-97599500D01*
X94971961Y-97599500D01*
X94828039Y-97599500D01*
X94828036Y-97599500D01*
X94689949Y-97640045D01*
X94568873Y-97717856D01*
X94474623Y-97826626D01*
X94474622Y-97826628D01*
X94414834Y-97957543D01*
X94394353Y-98100000D01*
X84400500Y-98100000D01*
X84400500Y-93811306D01*
X84400499Y-93811304D01*
X84365896Y-93637341D01*
X84365893Y-93637332D01*
X84298016Y-93473459D01*
X84298009Y-93473446D01*
X84199464Y-93325965D01*
X84199461Y-93325961D01*
X84074038Y-93200538D01*
X84074034Y-93200535D01*
X83926553Y-93101990D01*
X83926540Y-93101983D01*
X83762667Y-93034106D01*
X83762658Y-93034103D01*
X83588694Y-92999500D01*
X83588691Y-92999500D01*
X83411309Y-92999500D01*
X83411306Y-92999500D01*
X83237341Y-93034103D01*
X83237332Y-93034106D01*
X83073459Y-93101983D01*
X83073446Y-93101990D01*
X82925965Y-93200535D01*
X82925961Y-93200538D01*
X82800538Y-93325961D01*
X82800535Y-93325965D01*
X82701990Y-93473446D01*
X82701983Y-93473459D01*
X82634106Y-93637332D01*
X82634103Y-93637341D01*
X82599500Y-93811304D01*
X82599500Y-99188695D01*
X82634103Y-99362658D01*
X82634106Y-99362667D01*
X82701983Y-99526540D01*
X82701990Y-99526553D01*
X82800535Y-99674034D01*
X82800538Y-99674038D01*
X82814319Y-99687819D01*
X82847804Y-99749142D01*
X82842820Y-99818834D01*
X82800948Y-99874767D01*
X82735484Y-99899184D01*
X82726638Y-99899500D01*
X81823362Y-99899500D01*
X81756323Y-99879815D01*
X81710568Y-99827011D01*
X81700624Y-99757853D01*
X81729649Y-99694297D01*
X81735681Y-99687819D01*
X81749461Y-99674038D01*
X81749464Y-99674035D01*
X81848013Y-99526547D01*
X81915894Y-99362666D01*
X81924252Y-99320651D01*
X81950499Y-99188695D01*
X81950500Y-99188693D01*
X81950500Y-93811306D01*
X81950499Y-93811304D01*
X81915896Y-93637341D01*
X81915893Y-93637332D01*
X81848016Y-93473459D01*
X81848009Y-93473446D01*
X81749464Y-93325965D01*
X81749461Y-93325961D01*
X81624038Y-93200538D01*
X81624034Y-93200535D01*
X81476553Y-93101990D01*
X81476540Y-93101983D01*
X81312667Y-93034106D01*
X81312658Y-93034103D01*
X81138694Y-92999500D01*
X81138691Y-92999500D01*
X80961309Y-92999500D01*
X80961306Y-92999500D01*
X80787341Y-93034103D01*
X80787332Y-93034106D01*
X80623459Y-93101983D01*
X80623446Y-93101990D01*
X80475965Y-93200535D01*
X80475961Y-93200538D01*
X80350538Y-93325961D01*
X80350535Y-93325965D01*
X80251990Y-93473446D01*
X80251983Y-93473459D01*
X80184106Y-93637332D01*
X80184103Y-93637341D01*
X80149500Y-93811304D01*
X80149500Y-99188695D01*
X80184103Y-99362658D01*
X80184106Y-99362667D01*
X80251983Y-99526540D01*
X80251990Y-99526553D01*
X80350535Y-99674034D01*
X80350538Y-99674038D01*
X80364319Y-99687819D01*
X80397804Y-99749142D01*
X80392820Y-99818834D01*
X80350948Y-99874767D01*
X80285484Y-99899184D01*
X80276638Y-99899500D01*
X78591515Y-99899500D01*
X78524476Y-99879815D01*
X78490774Y-99847800D01*
X75338243Y-95454929D01*
X73903261Y-93455363D01*
X73880167Y-93389420D01*
X73896390Y-93321460D01*
X73946779Y-93273059D01*
X74004004Y-93259065D01*
X74883365Y-93259065D01*
X74950404Y-93278750D01*
X74964875Y-93291286D01*
X74965560Y-93290496D01*
X74972256Y-93296297D01*
X74972260Y-93296302D01*
X75093335Y-93374112D01*
X75093338Y-93374113D01*
X75093337Y-93374113D01*
X75231424Y-93414658D01*
X75231426Y-93414659D01*
X75231427Y-93414659D01*
X75375350Y-93414659D01*
X75375350Y-93414658D01*
X75486090Y-93382143D01*
X75513438Y-93374113D01*
X75513438Y-93374112D01*
X75513441Y-93374112D01*
X75634516Y-93296302D01*
X75728765Y-93187532D01*
X75788553Y-93056616D01*
X75809035Y-92914159D01*
X75788553Y-92771702D01*
X75728765Y-92640786D01*
X75634516Y-92532016D01*
X75513441Y-92454206D01*
X75513439Y-92454205D01*
X75513437Y-92454204D01*
X75513438Y-92454204D01*
X75375351Y-92413659D01*
X75375349Y-92413659D01*
X75231427Y-92413659D01*
X75231424Y-92413659D01*
X75093337Y-92454204D01*
X74964798Y-92536811D01*
X74963113Y-92534189D01*
X74913590Y-92556803D01*
X74895947Y-92558065D01*
X73322956Y-92558065D01*
X73255917Y-92538380D01*
X73222213Y-92506363D01*
X73184781Y-92454204D01*
X72715299Y-91800007D01*
X95269346Y-91800007D01*
X95289827Y-91942463D01*
X95342383Y-92057543D01*
X95349616Y-92073380D01*
X95443134Y-92181306D01*
X95472158Y-92244860D01*
X95462214Y-92314018D01*
X95443133Y-92343709D01*
X95349625Y-92451622D01*
X95349622Y-92451628D01*
X95289834Y-92582543D01*
X95269353Y-92725000D01*
X95289834Y-92867456D01*
X95311163Y-92914159D01*
X95349623Y-92998373D01*
X95443872Y-93107143D01*
X95564947Y-93184953D01*
X95564950Y-93184954D01*
X95564949Y-93184954D01*
X95703036Y-93225499D01*
X95703038Y-93225500D01*
X95703039Y-93225500D01*
X95846962Y-93225500D01*
X95846962Y-93225499D01*
X95976270Y-93187532D01*
X95985050Y-93184954D01*
X95985050Y-93184953D01*
X95985053Y-93184953D01*
X96106128Y-93107143D01*
X96198967Y-93000000D01*
X110994353Y-93000000D01*
X111014834Y-93142456D01*
X111060504Y-93242457D01*
X111074623Y-93273373D01*
X111168872Y-93382143D01*
X111289947Y-93459953D01*
X111289950Y-93459954D01*
X111289949Y-93459954D01*
X111365520Y-93482143D01*
X111424633Y-93499500D01*
X111428036Y-93500499D01*
X111428038Y-93500500D01*
X111428039Y-93500500D01*
X111571962Y-93500500D01*
X111571962Y-93500499D01*
X111710053Y-93459953D01*
X111831128Y-93382143D01*
X111925377Y-93273373D01*
X111985165Y-93142457D01*
X112005647Y-93000000D01*
X111985165Y-92857543D01*
X111925377Y-92726627D01*
X111831128Y-92617857D01*
X111710053Y-92540047D01*
X111710051Y-92540046D01*
X111710049Y-92540045D01*
X111710050Y-92540045D01*
X111571963Y-92499500D01*
X111571961Y-92499500D01*
X111428039Y-92499500D01*
X111428036Y-92499500D01*
X111289949Y-92540045D01*
X111168873Y-92617856D01*
X111074623Y-92726626D01*
X111074622Y-92726628D01*
X111014834Y-92857543D01*
X110994353Y-93000000D01*
X96198967Y-93000000D01*
X96200377Y-92998373D01*
X96260165Y-92867457D01*
X96280647Y-92725000D01*
X96260165Y-92582543D01*
X96200377Y-92451627D01*
X96106857Y-92343699D01*
X96077834Y-92280146D01*
X96087778Y-92210988D01*
X96106853Y-92181304D01*
X96200370Y-92073380D01*
X96260158Y-91942464D01*
X96280640Y-91800007D01*
X96260158Y-91657550D01*
X96200370Y-91526634D01*
X96106121Y-91417864D01*
X95985046Y-91340054D01*
X95985044Y-91340053D01*
X95985042Y-91340052D01*
X95985043Y-91340052D01*
X95846956Y-91299507D01*
X95846954Y-91299507D01*
X95703032Y-91299507D01*
X95703029Y-91299507D01*
X95564942Y-91340052D01*
X95443866Y-91417863D01*
X95349616Y-91526633D01*
X95349615Y-91526635D01*
X95289827Y-91657550D01*
X95269346Y-91800007D01*
X72715299Y-91800007D01*
X72141176Y-91000000D01*
X73004746Y-91000000D01*
X73025227Y-91142456D01*
X73063082Y-91225345D01*
X73085016Y-91273373D01*
X73179265Y-91382143D01*
X73300340Y-91459953D01*
X73300343Y-91459954D01*
X73300342Y-91459954D01*
X73438429Y-91500499D01*
X73438431Y-91500500D01*
X73438432Y-91500500D01*
X73582355Y-91500500D01*
X73582355Y-91500499D01*
X73720446Y-91459953D01*
X73841521Y-91382143D01*
X73935770Y-91273373D01*
X73995558Y-91142457D01*
X74016040Y-91000000D01*
X74001662Y-90900000D01*
X102994353Y-90900000D01*
X103014834Y-91042456D01*
X103060504Y-91142457D01*
X103074623Y-91173373D01*
X103168872Y-91282143D01*
X103289947Y-91359953D01*
X103289950Y-91359954D01*
X103289949Y-91359954D01*
X103428036Y-91400499D01*
X103428038Y-91400500D01*
X103428039Y-91400500D01*
X103571962Y-91400500D01*
X103571962Y-91400499D01*
X103710053Y-91359953D01*
X103831128Y-91282143D01*
X103925377Y-91173373D01*
X103985165Y-91042457D01*
X104005647Y-90900000D01*
X115994353Y-90900000D01*
X116014834Y-91042456D01*
X116060504Y-91142457D01*
X116074623Y-91173373D01*
X116168872Y-91282143D01*
X116289947Y-91359953D01*
X116289950Y-91359954D01*
X116289949Y-91359954D01*
X116428036Y-91400499D01*
X116428038Y-91400500D01*
X116428039Y-91400500D01*
X116571962Y-91400500D01*
X116571962Y-91400499D01*
X116710053Y-91359953D01*
X116831128Y-91282143D01*
X116925377Y-91173373D01*
X116985165Y-91042457D01*
X117005647Y-90900000D01*
X116985165Y-90757543D01*
X116925377Y-90626627D01*
X116831128Y-90517857D01*
X116710053Y-90440047D01*
X116710051Y-90440046D01*
X116710049Y-90440045D01*
X116710050Y-90440045D01*
X116571963Y-90399500D01*
X116571961Y-90399500D01*
X116428039Y-90399500D01*
X116428036Y-90399500D01*
X116289949Y-90440045D01*
X116168873Y-90517856D01*
X116074623Y-90626626D01*
X116074622Y-90626628D01*
X116014834Y-90757543D01*
X115994353Y-90900000D01*
X104005647Y-90900000D01*
X103985165Y-90757543D01*
X103925377Y-90626627D01*
X103831128Y-90517857D01*
X103710053Y-90440047D01*
X103710051Y-90440046D01*
X103710049Y-90440045D01*
X103710050Y-90440045D01*
X103571963Y-90399500D01*
X103571961Y-90399500D01*
X103428039Y-90399500D01*
X103428036Y-90399500D01*
X103289949Y-90440045D01*
X103168873Y-90517856D01*
X103074623Y-90626626D01*
X103074622Y-90626628D01*
X103014834Y-90757543D01*
X102994353Y-90900000D01*
X74001662Y-90900000D01*
X73995558Y-90857543D01*
X73935770Y-90726627D01*
X73841521Y-90617857D01*
X73720446Y-90540047D01*
X73720444Y-90540046D01*
X73720442Y-90540045D01*
X73720443Y-90540045D01*
X73582356Y-90499500D01*
X73582354Y-90499500D01*
X73438432Y-90499500D01*
X73438429Y-90499500D01*
X73300342Y-90540045D01*
X73179266Y-90617856D01*
X73085016Y-90726626D01*
X73085015Y-90726628D01*
X73025227Y-90857543D01*
X73004746Y-91000000D01*
X72141176Y-91000000D01*
X71567059Y-90200000D01*
X114819353Y-90200000D01*
X114839834Y-90342456D01*
X114872850Y-90414750D01*
X114899623Y-90473373D01*
X114993872Y-90582143D01*
X115114947Y-90659953D01*
X115114950Y-90659954D01*
X115114949Y-90659954D01*
X115253036Y-90700499D01*
X115253038Y-90700500D01*
X115253039Y-90700500D01*
X115396962Y-90700500D01*
X115396962Y-90700499D01*
X115535053Y-90659953D01*
X115656128Y-90582143D01*
X115750377Y-90473373D01*
X115810165Y-90342457D01*
X115830647Y-90200000D01*
X115810165Y-90057543D01*
X115750377Y-89926627D01*
X115704922Y-89874169D01*
X125520184Y-89874169D01*
X125540665Y-90016625D01*
X125559352Y-90057543D01*
X125600454Y-90147542D01*
X125694703Y-90256312D01*
X125815778Y-90334122D01*
X125815781Y-90334123D01*
X125815780Y-90334123D01*
X125903751Y-90359953D01*
X125946939Y-90372634D01*
X125953867Y-90374668D01*
X125953869Y-90374669D01*
X125953870Y-90374669D01*
X126097793Y-90374669D01*
X126097793Y-90374668D01*
X126235884Y-90334122D01*
X126356959Y-90256312D01*
X126451208Y-90147542D01*
X126510996Y-90016626D01*
X126531478Y-89874169D01*
X126510996Y-89731712D01*
X126451208Y-89600796D01*
X126356959Y-89492026D01*
X126235884Y-89414216D01*
X126235882Y-89414215D01*
X126235880Y-89414214D01*
X126235881Y-89414214D01*
X126097794Y-89373669D01*
X126097792Y-89373669D01*
X125953870Y-89373669D01*
X125953867Y-89373669D01*
X125815780Y-89414214D01*
X125694704Y-89492025D01*
X125600454Y-89600795D01*
X125600453Y-89600797D01*
X125540665Y-89731712D01*
X125520184Y-89874169D01*
X115704922Y-89874169D01*
X115656128Y-89817857D01*
X115535053Y-89740047D01*
X115535051Y-89740046D01*
X115535049Y-89740045D01*
X115535050Y-89740045D01*
X115396963Y-89699500D01*
X115396961Y-89699500D01*
X115253039Y-89699500D01*
X115253036Y-89699500D01*
X115114949Y-89740045D01*
X114993873Y-89817856D01*
X114899623Y-89926626D01*
X114899622Y-89926628D01*
X114839834Y-90057543D01*
X114819353Y-90200000D01*
X71567059Y-90200000D01*
X70670000Y-88950000D01*
X70669999Y-88949999D01*
X64224882Y-88969830D01*
X64157782Y-88950352D01*
X64113880Y-88900000D01*
X118294353Y-88900000D01*
X118314834Y-89042456D01*
X118368534Y-89160040D01*
X118374623Y-89173373D01*
X118468872Y-89282143D01*
X118589947Y-89359953D01*
X118589950Y-89359954D01*
X118589949Y-89359954D01*
X118697107Y-89391417D01*
X118724633Y-89399500D01*
X118728036Y-89400499D01*
X118728038Y-89400500D01*
X118728039Y-89400500D01*
X118871962Y-89400500D01*
X118871962Y-89400499D01*
X119010053Y-89359953D01*
X119131128Y-89282143D01*
X119225377Y-89173373D01*
X119285165Y-89042457D01*
X119305647Y-88900000D01*
X119285165Y-88757543D01*
X119225377Y-88626627D01*
X119131128Y-88517857D01*
X119010053Y-88440047D01*
X119010051Y-88440046D01*
X119010049Y-88440045D01*
X119010050Y-88440045D01*
X118871963Y-88399500D01*
X118871961Y-88399500D01*
X118728039Y-88399500D01*
X118728036Y-88399500D01*
X118589949Y-88440045D01*
X118468873Y-88517856D01*
X118374623Y-88626626D01*
X118374622Y-88626628D01*
X118314834Y-88757543D01*
X118294353Y-88900000D01*
X64113880Y-88900000D01*
X64111865Y-88897689D01*
X64100500Y-88845831D01*
X64100500Y-88322716D01*
X64120185Y-88255677D01*
X64130787Y-88241513D01*
X64131124Y-88241122D01*
X64131128Y-88241121D01*
X64225377Y-88132351D01*
X64285165Y-88001435D01*
X64299749Y-87900001D01*
X77579591Y-87900001D01*
X77600072Y-88042457D01*
X77652631Y-88157543D01*
X77659861Y-88173374D01*
X77754110Y-88282144D01*
X77875185Y-88359954D01*
X77875188Y-88359955D01*
X77875187Y-88359955D01*
X78013274Y-88400500D01*
X78013276Y-88400501D01*
X78013277Y-88400501D01*
X78157200Y-88400501D01*
X78157200Y-88400500D01*
X78295291Y-88359954D01*
X78388581Y-88300000D01*
X128194353Y-88300000D01*
X128214834Y-88442456D01*
X128241114Y-88500000D01*
X128274623Y-88573373D01*
X128368872Y-88682143D01*
X128489947Y-88759953D01*
X128489950Y-88759954D01*
X128489949Y-88759954D01*
X128628036Y-88800499D01*
X128628038Y-88800500D01*
X128628039Y-88800500D01*
X128771962Y-88800500D01*
X128771962Y-88800499D01*
X128910053Y-88759953D01*
X129031128Y-88682143D01*
X129125377Y-88573373D01*
X129185165Y-88442457D01*
X129205647Y-88300000D01*
X129185165Y-88157543D01*
X129125377Y-88026627D01*
X129031128Y-87917857D01*
X128910053Y-87840047D01*
X128910051Y-87840046D01*
X128910049Y-87840045D01*
X128910050Y-87840045D01*
X128771963Y-87799500D01*
X128771961Y-87799500D01*
X128628039Y-87799500D01*
X128628036Y-87799500D01*
X128489949Y-87840045D01*
X128368873Y-87917856D01*
X128368872Y-87917856D01*
X128368872Y-87917857D01*
X128365961Y-87921217D01*
X128274623Y-88026626D01*
X128274622Y-88026628D01*
X128214834Y-88157543D01*
X128194353Y-88300000D01*
X78388581Y-88300000D01*
X78416366Y-88282144D01*
X78510615Y-88173374D01*
X78570403Y-88042458D01*
X78590885Y-87900001D01*
X78570403Y-87757544D01*
X78510615Y-87626628D01*
X78416366Y-87517858D01*
X78295291Y-87440048D01*
X78295289Y-87440047D01*
X78295287Y-87440046D01*
X78295288Y-87440046D01*
X78158900Y-87400000D01*
X91894353Y-87400000D01*
X91914834Y-87542456D01*
X91953275Y-87626628D01*
X91974623Y-87673373D01*
X92068872Y-87782143D01*
X92189947Y-87859953D01*
X92189950Y-87859954D01*
X92189949Y-87859954D01*
X92328036Y-87900499D01*
X92328038Y-87900500D01*
X92328039Y-87900500D01*
X92471962Y-87900500D01*
X92471962Y-87900499D01*
X92600476Y-87862765D01*
X92610050Y-87859954D01*
X92610050Y-87859953D01*
X92610053Y-87859953D01*
X92731128Y-87782143D01*
X92825377Y-87673373D01*
X92885165Y-87542457D01*
X92905647Y-87400000D01*
X92885165Y-87257543D01*
X92825377Y-87126627D01*
X92731128Y-87017857D01*
X92610053Y-86940047D01*
X92610051Y-86940046D01*
X92610049Y-86940045D01*
X92610050Y-86940045D01*
X92471963Y-86899500D01*
X92471961Y-86899500D01*
X92328039Y-86899500D01*
X92328036Y-86899500D01*
X92189949Y-86940045D01*
X92068873Y-87017856D01*
X92068872Y-87017856D01*
X92068872Y-87017857D01*
X92056290Y-87032377D01*
X91974623Y-87126626D01*
X91974622Y-87126628D01*
X91914834Y-87257543D01*
X91894353Y-87400000D01*
X78158900Y-87400000D01*
X78157201Y-87399501D01*
X78157199Y-87399501D01*
X78013277Y-87399501D01*
X78013274Y-87399501D01*
X77875187Y-87440046D01*
X77754111Y-87517857D01*
X77659861Y-87626627D01*
X77659860Y-87626629D01*
X77600072Y-87757544D01*
X77579591Y-87900001D01*
X64299749Y-87900001D01*
X64305647Y-87858978D01*
X64285165Y-87716521D01*
X64225377Y-87585605D01*
X64131128Y-87476835D01*
X64010053Y-87399025D01*
X64010051Y-87399024D01*
X64010049Y-87399023D01*
X64010050Y-87399023D01*
X63871963Y-87358478D01*
X63871961Y-87358478D01*
X63728039Y-87358478D01*
X63728036Y-87358478D01*
X63589949Y-87399023D01*
X63490079Y-87463206D01*
X63423040Y-87482890D01*
X63356000Y-87463205D01*
X63329327Y-87440093D01*
X63329286Y-87440046D01*
X63281753Y-87385189D01*
X63160678Y-87307379D01*
X63160676Y-87307378D01*
X63160674Y-87307377D01*
X63160675Y-87307377D01*
X63022588Y-87266832D01*
X63022586Y-87266832D01*
X62878664Y-87266832D01*
X62878661Y-87266832D01*
X62740574Y-87307377D01*
X62651880Y-87364377D01*
X62584840Y-87384061D01*
X62517801Y-87364376D01*
X62472047Y-87311573D01*
X62471308Y-87309954D01*
X62423889Y-87206122D01*
X62329640Y-87097352D01*
X62208565Y-87019542D01*
X62208563Y-87019541D01*
X62208561Y-87019540D01*
X62208562Y-87019540D01*
X62070475Y-86978995D01*
X62070473Y-86978995D01*
X61937340Y-86978995D01*
X61870301Y-86959310D01*
X61824546Y-86906506D01*
X61814602Y-86872643D01*
X61807346Y-86822178D01*
X61747558Y-86691262D01*
X61653309Y-86582492D01*
X61532234Y-86504682D01*
X61532232Y-86504681D01*
X61532230Y-86504680D01*
X61532231Y-86504680D01*
X61394144Y-86464135D01*
X61394142Y-86464135D01*
X61250220Y-86464135D01*
X61250217Y-86464135D01*
X61112130Y-86504680D01*
X60991054Y-86582491D01*
X60896804Y-86691261D01*
X60896803Y-86691263D01*
X60837015Y-86822178D01*
X60823889Y-86913477D01*
X60794864Y-86977033D01*
X60736086Y-87014807D01*
X60701151Y-87019830D01*
X60626548Y-87019830D01*
X60488461Y-87060375D01*
X60367385Y-87138186D01*
X60367384Y-87138186D01*
X60367384Y-87138187D01*
X60352217Y-87155691D01*
X60335724Y-87174725D01*
X60276945Y-87212499D01*
X60207076Y-87212499D01*
X60174972Y-87197838D01*
X60085050Y-87140049D01*
X59946963Y-87099504D01*
X59946961Y-87099504D01*
X59803039Y-87099504D01*
X59803036Y-87099504D01*
X59664949Y-87140049D01*
X59604646Y-87178804D01*
X59537607Y-87198488D01*
X59470567Y-87178803D01*
X59443894Y-87155691D01*
X59411126Y-87117874D01*
X59290051Y-87040064D01*
X59290049Y-87040063D01*
X59290047Y-87040062D01*
X59290048Y-87040062D01*
X59151961Y-86999517D01*
X59151959Y-86999517D01*
X59008037Y-86999517D01*
X59008034Y-86999517D01*
X58869947Y-87040062D01*
X58748871Y-87117873D01*
X58654621Y-87226643D01*
X58654620Y-87226645D01*
X58594832Y-87357560D01*
X58574351Y-87500017D01*
X58594832Y-87642473D01*
X58651854Y-87767332D01*
X58654621Y-87773390D01*
X58748870Y-87882160D01*
X58869945Y-87959970D01*
X58869948Y-87959971D01*
X58869947Y-87959971D01*
X58945477Y-87982148D01*
X59004573Y-87999500D01*
X59008034Y-88000516D01*
X59008036Y-88000517D01*
X59008037Y-88000517D01*
X59151960Y-88000517D01*
X59151960Y-88000516D01*
X59290048Y-87959971D01*
X59290049Y-87959971D01*
X59298573Y-87954493D01*
X59350352Y-87921216D01*
X59417390Y-87901532D01*
X59484430Y-87921216D01*
X59511099Y-87944325D01*
X59542007Y-87979995D01*
X59543873Y-87982148D01*
X59553561Y-87988374D01*
X59664947Y-88059957D01*
X59664950Y-88059958D01*
X59664949Y-88059958D01*
X59803036Y-88100503D01*
X59803038Y-88100504D01*
X59803039Y-88100504D01*
X59946962Y-88100504D01*
X59946962Y-88100503D01*
X60085053Y-88059957D01*
X60206128Y-87982147D01*
X60237790Y-87945606D01*
X60296563Y-87907835D01*
X60366432Y-87907833D01*
X60398538Y-87922494D01*
X60488459Y-87980283D01*
X60488462Y-87980284D01*
X60488461Y-87980284D01*
X60626548Y-88020829D01*
X60626550Y-88020830D01*
X60626551Y-88020830D01*
X60770474Y-88020830D01*
X60770474Y-88020829D01*
X60881009Y-87988374D01*
X60908562Y-87980284D01*
X60908562Y-87980283D01*
X60908565Y-87980283D01*
X60974580Y-87937858D01*
X61041620Y-87918174D01*
X61108659Y-87937859D01*
X61129300Y-87954493D01*
X61163181Y-87988374D01*
X61196666Y-88049697D01*
X61199500Y-88076055D01*
X61199500Y-88855521D01*
X61179815Y-88922560D01*
X61127011Y-88968315D01*
X61075882Y-88979520D01*
X49387490Y-89015484D01*
X49320390Y-88996006D01*
X49274473Y-88943343D01*
X49264316Y-88874216D01*
X49293146Y-88810571D01*
X49293395Y-88810282D01*
X49325377Y-88773373D01*
X49385165Y-88642457D01*
X49405647Y-88500000D01*
X49385165Y-88357543D01*
X49325377Y-88226627D01*
X49251869Y-88141794D01*
X53275364Y-88141794D01*
X53295845Y-88284250D01*
X53330419Y-88359954D01*
X53355634Y-88415167D01*
X53449883Y-88523937D01*
X53570958Y-88601747D01*
X53570961Y-88601748D01*
X53570960Y-88601748D01*
X53709047Y-88642293D01*
X53709049Y-88642294D01*
X53709050Y-88642294D01*
X53852973Y-88642294D01*
X53852973Y-88642293D01*
X53991064Y-88601747D01*
X54112139Y-88523937D01*
X54206388Y-88415167D01*
X54266176Y-88284251D01*
X54286658Y-88141794D01*
X54266176Y-87999337D01*
X54206388Y-87868421D01*
X54112139Y-87759651D01*
X53991064Y-87681841D01*
X53991062Y-87681840D01*
X53991060Y-87681839D01*
X53991061Y-87681839D01*
X53852974Y-87641294D01*
X53852972Y-87641294D01*
X53709050Y-87641294D01*
X53709047Y-87641294D01*
X53570960Y-87681839D01*
X53449884Y-87759650D01*
X53355634Y-87868420D01*
X53355633Y-87868422D01*
X53295845Y-87999337D01*
X53275364Y-88141794D01*
X49251869Y-88141794D01*
X49231128Y-88117857D01*
X49110053Y-88040047D01*
X49110051Y-88040046D01*
X49110049Y-88040045D01*
X49110050Y-88040045D01*
X48971963Y-87999500D01*
X48971961Y-87999500D01*
X48828039Y-87999500D01*
X48828036Y-87999500D01*
X48689949Y-88040045D01*
X48568873Y-88117856D01*
X48474623Y-88226626D01*
X48474622Y-88226628D01*
X48414834Y-88357543D01*
X48394353Y-88500000D01*
X48414390Y-88639366D01*
X48404446Y-88708524D01*
X48379333Y-88744693D01*
X48140755Y-88983271D01*
X48079432Y-89016756D01*
X48053456Y-89019589D01*
X38170003Y-89049999D01*
X38169999Y-89050000D01*
X33761469Y-91507458D01*
X32552631Y-92181304D01*
X32278149Y-92334309D01*
X32217774Y-92350000D01*
X20010490Y-92350000D01*
X19943451Y-92330315D01*
X19897696Y-92277511D01*
X19887752Y-92208353D01*
X19897696Y-92174488D01*
X19899218Y-92171156D01*
X19935161Y-92092453D01*
X19955643Y-91949996D01*
X19935161Y-91807539D01*
X19875373Y-91676623D01*
X19781124Y-91567853D01*
X19660049Y-91490043D01*
X19660047Y-91490042D01*
X19660045Y-91490041D01*
X19660046Y-91490041D01*
X19521959Y-91449496D01*
X19521957Y-91449496D01*
X19378035Y-91449496D01*
X19378032Y-91449496D01*
X19239945Y-91490041D01*
X19118869Y-91567852D01*
X19024619Y-91676622D01*
X19024618Y-91676624D01*
X18964830Y-91807539D01*
X18944349Y-91949996D01*
X18964830Y-92092452D01*
X19002296Y-92174488D01*
X19012240Y-92243646D01*
X18983216Y-92307202D01*
X18924438Y-92344977D01*
X18889502Y-92350000D01*
X12953064Y-92350000D01*
X12886025Y-92330315D01*
X12840270Y-92277511D01*
X12830326Y-92208353D01*
X12841852Y-92171156D01*
X12876237Y-92101429D01*
X12876241Y-92101419D01*
X12975276Y-91809671D01*
X12975276Y-91809670D01*
X12975280Y-91809659D01*
X13035391Y-91507460D01*
X13055543Y-91200000D01*
X13035391Y-90892540D01*
X12975280Y-90590341D01*
X12876238Y-90298573D01*
X12876230Y-90298556D01*
X12739965Y-90022238D01*
X12739956Y-90022223D01*
X12736216Y-90016625D01*
X12568778Y-89766036D01*
X12446519Y-89626627D01*
X12365620Y-89534379D01*
X12212959Y-89400499D01*
X12133964Y-89331222D01*
X12133958Y-89331218D01*
X12133951Y-89331212D01*
X11877774Y-89160041D01*
X11877767Y-89160037D01*
X11616998Y-89031440D01*
X11565579Y-88984135D01*
X11550380Y-88945185D01*
X11545731Y-88922560D01*
X11531956Y-88855521D01*
X11500001Y-88700000D01*
X11500000Y-88700000D01*
X8124500Y-88700000D01*
X8057461Y-88680315D01*
X8011706Y-88627511D01*
X8000500Y-88576000D01*
X8000500Y-86800000D01*
X24494353Y-86800000D01*
X24514834Y-86942456D01*
X24561484Y-87044604D01*
X24574623Y-87073373D01*
X24668872Y-87182143D01*
X24789947Y-87259953D01*
X24789950Y-87259954D01*
X24789949Y-87259954D01*
X24928036Y-87300499D01*
X24928038Y-87300500D01*
X24928039Y-87300500D01*
X25071962Y-87300500D01*
X25071962Y-87300499D01*
X25210053Y-87259953D01*
X25331128Y-87182143D01*
X25398875Y-87103958D01*
X35508360Y-87103958D01*
X35528841Y-87246414D01*
X35582714Y-87364377D01*
X35588630Y-87377331D01*
X35682879Y-87486101D01*
X35803954Y-87563911D01*
X35803957Y-87563912D01*
X35803956Y-87563912D01*
X35942043Y-87604457D01*
X35942045Y-87604458D01*
X35942046Y-87604458D01*
X36085969Y-87604458D01*
X36085969Y-87604457D01*
X36224060Y-87563911D01*
X36345135Y-87486101D01*
X36439384Y-87377331D01*
X36499172Y-87246415D01*
X36519654Y-87103958D01*
X36499172Y-86961501D01*
X36439384Y-86830585D01*
X36345135Y-86721815D01*
X36224060Y-86644005D01*
X36224058Y-86644004D01*
X36224056Y-86644003D01*
X36224057Y-86644003D01*
X36085970Y-86603458D01*
X36085968Y-86603458D01*
X35942046Y-86603458D01*
X35942043Y-86603458D01*
X35803956Y-86644003D01*
X35682880Y-86721814D01*
X35588630Y-86830584D01*
X35588629Y-86830586D01*
X35528841Y-86961501D01*
X35508360Y-87103958D01*
X25398875Y-87103958D01*
X25425377Y-87073373D01*
X25485165Y-86942457D01*
X25505647Y-86800000D01*
X25485165Y-86657543D01*
X25425377Y-86526627D01*
X25331128Y-86417857D01*
X25210053Y-86340047D01*
X25210051Y-86340046D01*
X25210049Y-86340045D01*
X25210050Y-86340045D01*
X25071963Y-86299500D01*
X25071961Y-86299500D01*
X24928039Y-86299500D01*
X24928036Y-86299500D01*
X24789949Y-86340045D01*
X24668873Y-86417856D01*
X24574623Y-86526626D01*
X24574622Y-86526628D01*
X24514834Y-86657543D01*
X24494353Y-86800000D01*
X8000500Y-86800000D01*
X8000500Y-85750000D01*
X17494353Y-85750000D01*
X17514834Y-85892456D01*
X17572327Y-86018346D01*
X17574623Y-86023373D01*
X17668872Y-86132143D01*
X17789947Y-86209953D01*
X17789950Y-86209954D01*
X17789949Y-86209954D01*
X17928036Y-86250499D01*
X17928038Y-86250500D01*
X17928039Y-86250500D01*
X18071962Y-86250500D01*
X18071962Y-86250499D01*
X18210053Y-86209953D01*
X18331128Y-86132143D01*
X18425377Y-86023373D01*
X18485165Y-85892457D01*
X18505647Y-85750000D01*
X18485165Y-85607543D01*
X18425377Y-85476627D01*
X18331128Y-85367857D01*
X18210053Y-85290047D01*
X18210051Y-85290046D01*
X18210049Y-85290045D01*
X18210050Y-85290045D01*
X18071963Y-85249500D01*
X18071961Y-85249500D01*
X17928039Y-85249500D01*
X17928036Y-85249500D01*
X17789949Y-85290045D01*
X17668873Y-85367856D01*
X17574623Y-85476626D01*
X17574622Y-85476628D01*
X17514834Y-85607543D01*
X17494353Y-85750000D01*
X8000500Y-85750000D01*
X8000500Y-85054634D01*
X21831233Y-85054634D01*
X21851714Y-85197091D01*
X21911108Y-85327143D01*
X21911503Y-85328008D01*
X22005752Y-85436778D01*
X22126827Y-85514588D01*
X22126830Y-85514589D01*
X22126829Y-85514589D01*
X22264916Y-85555134D01*
X22264918Y-85555135D01*
X22264919Y-85555135D01*
X22408842Y-85555135D01*
X22408842Y-85555134D01*
X22546933Y-85514588D01*
X22668008Y-85436778D01*
X22738847Y-85355025D01*
X26049378Y-85355025D01*
X26069859Y-85497481D01*
X26104314Y-85572925D01*
X26129648Y-85628398D01*
X26223897Y-85737168D01*
X26344972Y-85814978D01*
X26344975Y-85814979D01*
X26344974Y-85814979D01*
X26483061Y-85855524D01*
X26483063Y-85855525D01*
X26483064Y-85855525D01*
X26626987Y-85855525D01*
X26626987Y-85855524D01*
X26765078Y-85814978D01*
X26874005Y-85744975D01*
X28039328Y-85744975D01*
X28059809Y-85887431D01*
X28119597Y-86018346D01*
X28119598Y-86018348D01*
X28213847Y-86127118D01*
X28334922Y-86204928D01*
X28334925Y-86204929D01*
X28334924Y-86204929D01*
X28473011Y-86245474D01*
X28473013Y-86245475D01*
X28473014Y-86245475D01*
X28616937Y-86245475D01*
X28616937Y-86245474D01*
X28755028Y-86204928D01*
X28876103Y-86127118D01*
X28970352Y-86018348D01*
X29001566Y-85950000D01*
X106577018Y-85950000D01*
X106597499Y-86092456D01*
X106654659Y-86217616D01*
X106657288Y-86223373D01*
X106751537Y-86332143D01*
X106872612Y-86409953D01*
X106872615Y-86409954D01*
X106872614Y-86409954D01*
X107010701Y-86450499D01*
X107010703Y-86450500D01*
X107010704Y-86450500D01*
X107154627Y-86450500D01*
X107154627Y-86450499D01*
X107292718Y-86409953D01*
X107413793Y-86332143D01*
X107508042Y-86223373D01*
X107567830Y-86092457D01*
X107587583Y-85955068D01*
X111747373Y-85955068D01*
X111767854Y-86097524D01*
X111825328Y-86223373D01*
X111827643Y-86228441D01*
X111921892Y-86337211D01*
X111998930Y-86386720D01*
X112044684Y-86439523D01*
X112054628Y-86508681D01*
X112044685Y-86542546D01*
X112005305Y-86628776D01*
X111984824Y-86771231D01*
X112005305Y-86913687D01*
X112061869Y-87037543D01*
X112065094Y-87044604D01*
X112159343Y-87153374D01*
X112280418Y-87231184D01*
X112280421Y-87231185D01*
X112280420Y-87231185D01*
X112378397Y-87259953D01*
X112401825Y-87266832D01*
X112418507Y-87271730D01*
X112418509Y-87271731D01*
X112418510Y-87271731D01*
X112562433Y-87271731D01*
X112562433Y-87271730D01*
X112700524Y-87231184D01*
X112821599Y-87153374D01*
X112915848Y-87044604D01*
X112975636Y-86913688D01*
X112996118Y-86771231D01*
X112988069Y-86715249D01*
X115385298Y-86715249D01*
X115405779Y-86857705D01*
X115453182Y-86961501D01*
X115465568Y-86988622D01*
X115559817Y-87097392D01*
X115680892Y-87175202D01*
X115680895Y-87175203D01*
X115680894Y-87175203D01*
X115765347Y-87200000D01*
X115807915Y-87212499D01*
X115818981Y-87215748D01*
X115818983Y-87215749D01*
X115818984Y-87215749D01*
X115962907Y-87215749D01*
X115962907Y-87215748D01*
X116077359Y-87182143D01*
X116100995Y-87175203D01*
X116100995Y-87175202D01*
X116100998Y-87175202D01*
X116222073Y-87097392D01*
X116316322Y-86988622D01*
X116376110Y-86857706D01*
X116377218Y-86850000D01*
X117361162Y-86850000D01*
X117381643Y-86992456D01*
X117428787Y-87095684D01*
X117441432Y-87123373D01*
X117535681Y-87232143D01*
X117656756Y-87309953D01*
X117656759Y-87309954D01*
X117656758Y-87309954D01*
X117794845Y-87350499D01*
X117794847Y-87350500D01*
X117794848Y-87350500D01*
X117938771Y-87350500D01*
X117938771Y-87350499D01*
X118076862Y-87309953D01*
X118197937Y-87232143D01*
X118243119Y-87180000D01*
X123514353Y-87180000D01*
X123534834Y-87322456D01*
X123588558Y-87440093D01*
X123594623Y-87453373D01*
X123688872Y-87562143D01*
X123809947Y-87639953D01*
X123809950Y-87639954D01*
X123809949Y-87639954D01*
X123948036Y-87680499D01*
X123948038Y-87680500D01*
X123948039Y-87680500D01*
X124091962Y-87680500D01*
X124091962Y-87680499D01*
X124230053Y-87639953D01*
X124351128Y-87562143D01*
X124445377Y-87453373D01*
X124505165Y-87322457D01*
X124525647Y-87180000D01*
X124505165Y-87037543D01*
X124445377Y-86906627D01*
X124351128Y-86797857D01*
X124230053Y-86720047D01*
X124230051Y-86720046D01*
X124230049Y-86720045D01*
X124230050Y-86720045D01*
X124161781Y-86700000D01*
X125494353Y-86700000D01*
X125514834Y-86842456D01*
X125569201Y-86961501D01*
X125574623Y-86973373D01*
X125668872Y-87082143D01*
X125676324Y-87086932D01*
X125689943Y-87095685D01*
X125735698Y-87148489D01*
X125745641Y-87217648D01*
X125716615Y-87281203D01*
X125689943Y-87304315D01*
X125668874Y-87317855D01*
X125574623Y-87426626D01*
X125574622Y-87426628D01*
X125514834Y-87557543D01*
X125494353Y-87700000D01*
X125514834Y-87842456D01*
X125558404Y-87937859D01*
X125574623Y-87973373D01*
X125668872Y-88082143D01*
X125789947Y-88159953D01*
X125789950Y-88159954D01*
X125789949Y-88159954D01*
X125928036Y-88200499D01*
X125928038Y-88200500D01*
X125928039Y-88200500D01*
X126071962Y-88200500D01*
X126071962Y-88200499D01*
X126210053Y-88159953D01*
X126331128Y-88082143D01*
X126425377Y-87973373D01*
X126485165Y-87842457D01*
X126505647Y-87700000D01*
X126485165Y-87557543D01*
X126425377Y-87426627D01*
X126331128Y-87317857D01*
X126331125Y-87317855D01*
X126331125Y-87317854D01*
X126310058Y-87304316D01*
X126264302Y-87251513D01*
X126254358Y-87182354D01*
X126283382Y-87118798D01*
X126310058Y-87095684D01*
X126331125Y-87082145D01*
X126331125Y-87082144D01*
X126331128Y-87082143D01*
X126425377Y-86973373D01*
X126485165Y-86842457D01*
X126505647Y-86700000D01*
X126485165Y-86557543D01*
X126425377Y-86426627D01*
X126331128Y-86317857D01*
X126210053Y-86240047D01*
X126210051Y-86240046D01*
X126210049Y-86240045D01*
X126210050Y-86240045D01*
X126071963Y-86199500D01*
X126071961Y-86199500D01*
X125928039Y-86199500D01*
X125928036Y-86199500D01*
X125789949Y-86240045D01*
X125668873Y-86317856D01*
X125574623Y-86426626D01*
X125574622Y-86426628D01*
X125514834Y-86557543D01*
X125494353Y-86700000D01*
X124161781Y-86700000D01*
X124091963Y-86679500D01*
X124091961Y-86679500D01*
X123948039Y-86679500D01*
X123948036Y-86679500D01*
X123809949Y-86720045D01*
X123688873Y-86797856D01*
X123594623Y-86906626D01*
X123594622Y-86906628D01*
X123534834Y-87037543D01*
X123514353Y-87180000D01*
X118243119Y-87180000D01*
X118292186Y-87123373D01*
X118351974Y-86992457D01*
X118372456Y-86850000D01*
X118351974Y-86707543D01*
X118292186Y-86576627D01*
X118197937Y-86467857D01*
X118076862Y-86390047D01*
X118076860Y-86390046D01*
X118076858Y-86390045D01*
X118076859Y-86390045D01*
X117938772Y-86349500D01*
X117938770Y-86349500D01*
X117794848Y-86349500D01*
X117794845Y-86349500D01*
X117656758Y-86390045D01*
X117535682Y-86467856D01*
X117441432Y-86576626D01*
X117441431Y-86576628D01*
X117381643Y-86707543D01*
X117361162Y-86850000D01*
X116377218Y-86850000D01*
X116396592Y-86715249D01*
X116376110Y-86572792D01*
X116316322Y-86441876D01*
X116222073Y-86333106D01*
X116100998Y-86255296D01*
X116100996Y-86255295D01*
X116100994Y-86255294D01*
X116100995Y-86255294D01*
X115962908Y-86214749D01*
X115962906Y-86214749D01*
X115818984Y-86214749D01*
X115818981Y-86214749D01*
X115680894Y-86255294D01*
X115559818Y-86333105D01*
X115465568Y-86441875D01*
X115465567Y-86441877D01*
X115405779Y-86572792D01*
X115385298Y-86715249D01*
X112988069Y-86715249D01*
X112975636Y-86628774D01*
X112915848Y-86497858D01*
X112821599Y-86389088D01*
X112744560Y-86339578D01*
X112698806Y-86286775D01*
X112688862Y-86217616D01*
X112698806Y-86183751D01*
X112738185Y-86097524D01*
X112758667Y-85955068D01*
X112738185Y-85812611D01*
X112678397Y-85681695D01*
X112584148Y-85572925D01*
X112463073Y-85495115D01*
X112463071Y-85495114D01*
X112463069Y-85495113D01*
X112463070Y-85495113D01*
X112324983Y-85454568D01*
X112324981Y-85454568D01*
X112181059Y-85454568D01*
X112181056Y-85454568D01*
X112042969Y-85495113D01*
X111921893Y-85572924D01*
X111827643Y-85681694D01*
X111827642Y-85681696D01*
X111767854Y-85812611D01*
X111747373Y-85955068D01*
X107587583Y-85955068D01*
X107588312Y-85950000D01*
X107567830Y-85807543D01*
X107508042Y-85676627D01*
X107413793Y-85567857D01*
X107292718Y-85490047D01*
X107292716Y-85490046D01*
X107292714Y-85490045D01*
X107292715Y-85490045D01*
X107154628Y-85449500D01*
X107154626Y-85449500D01*
X107010704Y-85449500D01*
X107010701Y-85449500D01*
X106872614Y-85490045D01*
X106751538Y-85567856D01*
X106751537Y-85567856D01*
X106751537Y-85567857D01*
X106747146Y-85572925D01*
X106657288Y-85676626D01*
X106657287Y-85676628D01*
X106597499Y-85807543D01*
X106577018Y-85950000D01*
X29001566Y-85950000D01*
X29030140Y-85887432D01*
X29050622Y-85744975D01*
X29030140Y-85602518D01*
X28970352Y-85471602D01*
X28876103Y-85362832D01*
X28755028Y-85285022D01*
X28755026Y-85285021D01*
X28755024Y-85285020D01*
X28755025Y-85285020D01*
X28616938Y-85244475D01*
X28616936Y-85244475D01*
X28473014Y-85244475D01*
X28473011Y-85244475D01*
X28334924Y-85285020D01*
X28213848Y-85362831D01*
X28119598Y-85471601D01*
X28119597Y-85471603D01*
X28059809Y-85602518D01*
X28039328Y-85744975D01*
X26874005Y-85744975D01*
X26886153Y-85737168D01*
X26980402Y-85628398D01*
X27040190Y-85497482D01*
X27060672Y-85355025D01*
X27040190Y-85212568D01*
X27034450Y-85200000D01*
X29294353Y-85200000D01*
X29314834Y-85342456D01*
X29357910Y-85436778D01*
X29374623Y-85473373D01*
X29468872Y-85582143D01*
X29589947Y-85659953D01*
X29589950Y-85659954D01*
X29589949Y-85659954D01*
X29728036Y-85700499D01*
X29728038Y-85700500D01*
X29728039Y-85700500D01*
X29871962Y-85700500D01*
X29871962Y-85700499D01*
X30010053Y-85659953D01*
X30131128Y-85582143D01*
X30225377Y-85473373D01*
X30285165Y-85342457D01*
X30305647Y-85200000D01*
X30285165Y-85057543D01*
X30225377Y-84926627D01*
X30131128Y-84817857D01*
X30010053Y-84740047D01*
X30010051Y-84740046D01*
X30010049Y-84740045D01*
X30010050Y-84740045D01*
X29871963Y-84699500D01*
X29871961Y-84699500D01*
X29728039Y-84699500D01*
X29728036Y-84699500D01*
X29589949Y-84740045D01*
X29468873Y-84817856D01*
X29374623Y-84926626D01*
X29374622Y-84926628D01*
X29314834Y-85057543D01*
X29294353Y-85200000D01*
X27034450Y-85200000D01*
X26980402Y-85081652D01*
X26886153Y-84972882D01*
X26765078Y-84895072D01*
X26765076Y-84895071D01*
X26765074Y-84895070D01*
X26765075Y-84895070D01*
X26626988Y-84854525D01*
X26626986Y-84854525D01*
X26483064Y-84854525D01*
X26483061Y-84854525D01*
X26344974Y-84895070D01*
X26223898Y-84972881D01*
X26129648Y-85081651D01*
X26129647Y-85081653D01*
X26069859Y-85212568D01*
X26049378Y-85355025D01*
X22738847Y-85355025D01*
X22762257Y-85328008D01*
X22822045Y-85197092D01*
X22842527Y-85054635D01*
X22833960Y-84995053D01*
X22822045Y-84912178D01*
X22800106Y-84864139D01*
X22762257Y-84781262D01*
X22668008Y-84672492D01*
X22546933Y-84594682D01*
X22546931Y-84594681D01*
X22546929Y-84594680D01*
X22546930Y-84594680D01*
X22408843Y-84554135D01*
X22408841Y-84554135D01*
X22264919Y-84554135D01*
X22264916Y-84554135D01*
X22126829Y-84594680D01*
X22005753Y-84672491D01*
X21911503Y-84781261D01*
X21911502Y-84781263D01*
X21851714Y-84912178D01*
X21831233Y-85054634D01*
X8000500Y-85054634D01*
X8000500Y-82256961D01*
X8001280Y-82243077D01*
X8005472Y-82205873D01*
X8011459Y-82152731D01*
X8017635Y-82125670D01*
X8045353Y-82046456D01*
X8057396Y-82021450D01*
X8102046Y-81950389D01*
X8119351Y-81928690D01*
X8178690Y-81869351D01*
X8200389Y-81852046D01*
X8271450Y-81807396D01*
X8296456Y-81795353D01*
X8375670Y-81767635D01*
X8402733Y-81761459D01*
X8465419Y-81754396D01*
X8493079Y-81751280D01*
X8506962Y-81750500D01*
X12607317Y-81750500D01*
X12607318Y-81750500D01*
X12789612Y-81724290D01*
X12819764Y-81719955D01*
X12819765Y-81719954D01*
X12819769Y-81719954D01*
X13025710Y-81659484D01*
X13025713Y-81659482D01*
X13025715Y-81659482D01*
X13220938Y-81570327D01*
X13220944Y-81570323D01*
X13220950Y-81570321D01*
X13401513Y-81454281D01*
X13563724Y-81313724D01*
X13704281Y-81151513D01*
X13820321Y-80970950D01*
X13820322Y-80970946D01*
X13820328Y-80970937D01*
X13909482Y-80775715D01*
X13909482Y-80775713D01*
X13909484Y-80775710D01*
X13969954Y-80569769D01*
X13973926Y-80542147D01*
X13983869Y-80472988D01*
X14000500Y-80357318D01*
X14000500Y-80323973D01*
X14000581Y-80322728D01*
X14000500Y-80249460D01*
X14000500Y-80176723D01*
X14000417Y-80175492D01*
X14000077Y-79867856D01*
X13999918Y-79724137D01*
X14019529Y-79657076D01*
X14072282Y-79611263D01*
X14123918Y-79600000D01*
X14710129Y-79600000D01*
X14749139Y-79578697D01*
X14818831Y-79583680D01*
X14874766Y-79625551D01*
X14899184Y-79691014D01*
X14899500Y-79699863D01*
X14899500Y-83288695D01*
X14934103Y-83462658D01*
X14934106Y-83462667D01*
X15001983Y-83626540D01*
X15001990Y-83626553D01*
X15100535Y-83774034D01*
X15100538Y-83774038D01*
X15225961Y-83899461D01*
X15225965Y-83899464D01*
X15373446Y-83998009D01*
X15373459Y-83998016D01*
X15496363Y-84048923D01*
X15537334Y-84065894D01*
X15537336Y-84065894D01*
X15537341Y-84065896D01*
X15711304Y-84100499D01*
X15711307Y-84100500D01*
X15711309Y-84100500D01*
X15888693Y-84100500D01*
X15888694Y-84100499D01*
X15991525Y-84080045D01*
X16062658Y-84065896D01*
X16062661Y-84065894D01*
X16062666Y-84065894D01*
X16226547Y-83998013D01*
X16374035Y-83899464D01*
X16499464Y-83774035D01*
X16598013Y-83626547D01*
X16609009Y-83600000D01*
X31694353Y-83600000D01*
X31714834Y-83742456D01*
X31764553Y-83851323D01*
X31774623Y-83873373D01*
X31868872Y-83982143D01*
X31989947Y-84059953D01*
X31989950Y-84059954D01*
X31989949Y-84059954D01*
X32128036Y-84100499D01*
X32128038Y-84100500D01*
X32128039Y-84100500D01*
X32271962Y-84100500D01*
X32271962Y-84100499D01*
X32410053Y-84059953D01*
X32531128Y-83982143D01*
X32625377Y-83873373D01*
X32685165Y-83742457D01*
X32705647Y-83600000D01*
X32685165Y-83457543D01*
X32625377Y-83326627D01*
X32531128Y-83217857D01*
X32410053Y-83140047D01*
X32410051Y-83140046D01*
X32410049Y-83140045D01*
X32410050Y-83140045D01*
X32271963Y-83099500D01*
X32271961Y-83099500D01*
X32128039Y-83099500D01*
X32128036Y-83099500D01*
X31989949Y-83140045D01*
X31868873Y-83217856D01*
X31774623Y-83326626D01*
X31774622Y-83326628D01*
X31714834Y-83457543D01*
X31694353Y-83600000D01*
X16609009Y-83600000D01*
X16665894Y-83462666D01*
X16666369Y-83460281D01*
X16698554Y-83298473D01*
X16700500Y-83288691D01*
X16700500Y-82400000D01*
X26094353Y-82400000D01*
X26114834Y-82542456D01*
X26174622Y-82673371D01*
X26174623Y-82673373D01*
X26268872Y-82782143D01*
X26389947Y-82859953D01*
X26389950Y-82859954D01*
X26389949Y-82859954D01*
X26528036Y-82900499D01*
X26528038Y-82900500D01*
X26528039Y-82900500D01*
X26671962Y-82900500D01*
X26671962Y-82900499D01*
X26810053Y-82859953D01*
X26931128Y-82782143D01*
X27025377Y-82673373D01*
X27085165Y-82542457D01*
X27105647Y-82400000D01*
X27085165Y-82257543D01*
X27025377Y-82126627D01*
X26931128Y-82017857D01*
X26810053Y-81940047D01*
X26810051Y-81940046D01*
X26810049Y-81940045D01*
X26810050Y-81940045D01*
X26671963Y-81899500D01*
X26671961Y-81899500D01*
X26528039Y-81899500D01*
X26528036Y-81899500D01*
X26389949Y-81940045D01*
X26268873Y-82017856D01*
X26174623Y-82126626D01*
X26174622Y-82126628D01*
X26114834Y-82257543D01*
X26094353Y-82400000D01*
X16700500Y-82400000D01*
X16700500Y-77911309D01*
X16700500Y-77911306D01*
X16700499Y-77911304D01*
X16665896Y-77737341D01*
X16664127Y-77731511D01*
X16666628Y-77730752D01*
X16660362Y-77672577D01*
X16691624Y-77610092D01*
X16751705Y-77574427D01*
X16781993Y-77570570D01*
X80157254Y-77367444D01*
X80224354Y-77386913D01*
X80270278Y-77439570D01*
X80280443Y-77508697D01*
X80260754Y-77560329D01*
X80251993Y-77573441D01*
X80251983Y-77573459D01*
X80184106Y-77737332D01*
X80184103Y-77737341D01*
X80149500Y-77911304D01*
X80149500Y-83288695D01*
X80184103Y-83462658D01*
X80184106Y-83462667D01*
X80251983Y-83626540D01*
X80251990Y-83626553D01*
X80350535Y-83774034D01*
X80350538Y-83774038D01*
X80475961Y-83899461D01*
X80475965Y-83899464D01*
X80623446Y-83998009D01*
X80623459Y-83998016D01*
X80746363Y-84048923D01*
X80787334Y-84065894D01*
X80787336Y-84065894D01*
X80787341Y-84065896D01*
X80961304Y-84100499D01*
X80961307Y-84100500D01*
X80961309Y-84100500D01*
X81138693Y-84100500D01*
X81138694Y-84100499D01*
X81241525Y-84080045D01*
X81312658Y-84065896D01*
X81312661Y-84065894D01*
X81312666Y-84065894D01*
X81476547Y-83998013D01*
X81624035Y-83899464D01*
X81749464Y-83774035D01*
X81848013Y-83626547D01*
X81915894Y-83462666D01*
X81916369Y-83460281D01*
X81948554Y-83298473D01*
X81950500Y-83288691D01*
X81950500Y-77911309D01*
X81950500Y-77911306D01*
X81950499Y-77911304D01*
X81915896Y-77737341D01*
X81915893Y-77737332D01*
X81848016Y-77573459D01*
X81848007Y-77573443D01*
X81835435Y-77554628D01*
X81814555Y-77487951D01*
X81833038Y-77420571D01*
X81885016Y-77373879D01*
X81938133Y-77361736D01*
X82612514Y-77359575D01*
X82679613Y-77379043D01*
X82725537Y-77431700D01*
X82735702Y-77500826D01*
X82716012Y-77552462D01*
X82701988Y-77573450D01*
X82701983Y-77573459D01*
X82634106Y-77737332D01*
X82634103Y-77737341D01*
X82599500Y-77911304D01*
X82599500Y-83288695D01*
X82634103Y-83462658D01*
X82634106Y-83462667D01*
X82701983Y-83626540D01*
X82701990Y-83626553D01*
X82800535Y-83774034D01*
X82800538Y-83774038D01*
X82925961Y-83899461D01*
X82925965Y-83899464D01*
X83073446Y-83998009D01*
X83073459Y-83998016D01*
X83196363Y-84048923D01*
X83237334Y-84065894D01*
X83237336Y-84065894D01*
X83237341Y-84065896D01*
X83411304Y-84100499D01*
X83411307Y-84100500D01*
X83411309Y-84100500D01*
X83588693Y-84100500D01*
X83588694Y-84100499D01*
X83691525Y-84080045D01*
X83762658Y-84065896D01*
X83762661Y-84065894D01*
X83762666Y-84065894D01*
X83926547Y-83998013D01*
X84074035Y-83899464D01*
X84146281Y-83827217D01*
X84207602Y-83793734D01*
X84277294Y-83798718D01*
X84333228Y-83840589D01*
X84357645Y-83906053D01*
X84346756Y-83966409D01*
X84339528Y-83982235D01*
X84339527Y-83982237D01*
X84319046Y-84124695D01*
X84339527Y-84267151D01*
X84392649Y-84383470D01*
X84399316Y-84398068D01*
X84493565Y-84506838D01*
X84614640Y-84584648D01*
X84614643Y-84584649D01*
X84614642Y-84584649D01*
X84752729Y-84625194D01*
X84752731Y-84625195D01*
X84752732Y-84625195D01*
X84896655Y-84625195D01*
X84896655Y-84625194D01*
X85034746Y-84584648D01*
X85104220Y-84540000D01*
X106654353Y-84540000D01*
X106674834Y-84682456D01*
X106729677Y-84802543D01*
X106734623Y-84813373D01*
X106828872Y-84922143D01*
X106949947Y-84999953D01*
X106949950Y-84999954D01*
X106949949Y-84999954D01*
X107088036Y-85040499D01*
X107088038Y-85040500D01*
X107088039Y-85040500D01*
X107231962Y-85040500D01*
X107231962Y-85040499D01*
X107370053Y-84999953D01*
X107455562Y-84945000D01*
X109049353Y-84945000D01*
X109069834Y-85087456D01*
X109119904Y-85197091D01*
X109129623Y-85218373D01*
X109223872Y-85327143D01*
X109344947Y-85404953D01*
X109344950Y-85404954D01*
X109344949Y-85404954D01*
X109483036Y-85445499D01*
X109483038Y-85445500D01*
X109483039Y-85445500D01*
X109626962Y-85445500D01*
X109626962Y-85445499D01*
X109765053Y-85404953D01*
X109886128Y-85327143D01*
X109980377Y-85218373D01*
X110040165Y-85087457D01*
X110060647Y-84945000D01*
X110040165Y-84802543D01*
X110003237Y-84721682D01*
X113115133Y-84721682D01*
X113135614Y-84864138D01*
X113164153Y-84926628D01*
X113195403Y-84995055D01*
X113289652Y-85103825D01*
X113410727Y-85181635D01*
X113410730Y-85181636D01*
X113410729Y-85181636D01*
X113548816Y-85222181D01*
X113548818Y-85222182D01*
X113548819Y-85222182D01*
X113692742Y-85222182D01*
X113692742Y-85222181D01*
X113830833Y-85181635D01*
X113951908Y-85103825D01*
X114046157Y-84995055D01*
X114105945Y-84864139D01*
X114126427Y-84721682D01*
X114105945Y-84579225D01*
X114046157Y-84448309D01*
X113951908Y-84339539D01*
X113830833Y-84261729D01*
X113830831Y-84261728D01*
X113830829Y-84261727D01*
X113830830Y-84261727D01*
X113692743Y-84221182D01*
X113692741Y-84221182D01*
X113548819Y-84221182D01*
X113548816Y-84221182D01*
X113410729Y-84261727D01*
X113289653Y-84339538D01*
X113195403Y-84448308D01*
X113195402Y-84448310D01*
X113135614Y-84579225D01*
X113115133Y-84721682D01*
X110003237Y-84721682D01*
X109980377Y-84671627D01*
X109980375Y-84671625D01*
X109980374Y-84671622D01*
X109921938Y-84604183D01*
X109892913Y-84540627D01*
X109902857Y-84471469D01*
X109926508Y-84439877D01*
X109925320Y-84438848D01*
X109931126Y-84432147D01*
X109931128Y-84432146D01*
X110025377Y-84323376D01*
X110085165Y-84192460D01*
X110105647Y-84050003D01*
X110085165Y-83907546D01*
X110025377Y-83776630D01*
X109931128Y-83667860D01*
X109931125Y-83667858D01*
X109912763Y-83656057D01*
X109867008Y-83603253D01*
X109857065Y-83534094D01*
X109886091Y-83470539D01*
X109904603Y-83454500D01*
X109904421Y-83454290D01*
X109911118Y-83448484D01*
X109911126Y-83448480D01*
X110005375Y-83339710D01*
X110065163Y-83208794D01*
X110085645Y-83066337D01*
X110072157Y-82972523D01*
X114397679Y-82972523D01*
X114418160Y-83114979D01*
X114457638Y-83201422D01*
X114477949Y-83245896D01*
X114572198Y-83354666D01*
X114576605Y-83357498D01*
X114622361Y-83410301D01*
X114632306Y-83479459D01*
X114603283Y-83543016D01*
X114603282Y-83543017D01*
X114574739Y-83575957D01*
X114574738Y-83575959D01*
X114514950Y-83706874D01*
X114494469Y-83849331D01*
X114514950Y-83991787D01*
X114574738Y-84122702D01*
X114574739Y-84122704D01*
X114668988Y-84231474D01*
X114790063Y-84309284D01*
X114790066Y-84309285D01*
X114790065Y-84309285D01*
X114928152Y-84349830D01*
X114928154Y-84349831D01*
X114928155Y-84349831D01*
X115072078Y-84349831D01*
X115072078Y-84349830D01*
X115210169Y-84309284D01*
X115331244Y-84231474D01*
X115425493Y-84122704D01*
X115485281Y-83991788D01*
X115505763Y-83849331D01*
X115485281Y-83706874D01*
X115425493Y-83575958D01*
X115331244Y-83467188D01*
X115326833Y-83464353D01*
X115281079Y-83411550D01*
X115271135Y-83342391D01*
X115300158Y-83278838D01*
X115320177Y-83255735D01*
X115378955Y-83217962D01*
X115448824Y-83217963D01*
X115480927Y-83232624D01*
X115516890Y-83255736D01*
X115523454Y-83259954D01*
X115661541Y-83300499D01*
X115661543Y-83300500D01*
X115661544Y-83300500D01*
X115805467Y-83300500D01*
X115805467Y-83300499D01*
X115943558Y-83259953D01*
X116064633Y-83182143D01*
X116158882Y-83073373D01*
X116218670Y-82942457D01*
X116239152Y-82800000D01*
X116223930Y-82694127D01*
X116233874Y-82624968D01*
X116279629Y-82572164D01*
X116346668Y-82552480D01*
X116381603Y-82557503D01*
X116528038Y-82600500D01*
X116528039Y-82600500D01*
X116671962Y-82600500D01*
X116671962Y-82600499D01*
X116810053Y-82559953D01*
X116931128Y-82482143D01*
X117025377Y-82373373D01*
X117085165Y-82242457D01*
X117105647Y-82100000D01*
X117085165Y-81957543D01*
X117025377Y-81826627D01*
X117025375Y-81826625D01*
X117025374Y-81826622D01*
X116986017Y-81781203D01*
X116956991Y-81717648D01*
X116966934Y-81648489D01*
X116986017Y-81618797D01*
X117025374Y-81573377D01*
X117025374Y-81573375D01*
X117025377Y-81573373D01*
X117058887Y-81499997D01*
X129107581Y-81499997D01*
X129128062Y-81642453D01*
X129177763Y-81751280D01*
X129187851Y-81773370D01*
X129282100Y-81882140D01*
X129403175Y-81959950D01*
X129403178Y-81959951D01*
X129403177Y-81959951D01*
X129492517Y-81986183D01*
X129539414Y-81999953D01*
X129541264Y-82000496D01*
X129541266Y-82000497D01*
X129541267Y-82000497D01*
X129685190Y-82000497D01*
X129685190Y-82000496D01*
X129823281Y-81959950D01*
X129944356Y-81882140D01*
X130038605Y-81773370D01*
X130098393Y-81642454D01*
X130118875Y-81499997D01*
X130098393Y-81357540D01*
X130038605Y-81226624D01*
X129944356Y-81117854D01*
X129823281Y-81040044D01*
X129823279Y-81040043D01*
X129823277Y-81040042D01*
X129823278Y-81040042D01*
X129685191Y-80999497D01*
X129685189Y-80999497D01*
X129541267Y-80999497D01*
X129541264Y-80999497D01*
X129403177Y-81040042D01*
X129282101Y-81117853D01*
X129187851Y-81226623D01*
X129187850Y-81226625D01*
X129128062Y-81357540D01*
X129107581Y-81499997D01*
X117058887Y-81499997D01*
X117085165Y-81442457D01*
X117105647Y-81300000D01*
X117085165Y-81157543D01*
X117025377Y-81026627D01*
X116931128Y-80917857D01*
X116810053Y-80840047D01*
X116810051Y-80840046D01*
X116810049Y-80840045D01*
X116810050Y-80840045D01*
X116671963Y-80799500D01*
X116671961Y-80799500D01*
X116528039Y-80799500D01*
X116528036Y-80799500D01*
X116389949Y-80840045D01*
X116268873Y-80917856D01*
X116268872Y-80917856D01*
X116268872Y-80917857D01*
X116210534Y-80985184D01*
X116194006Y-81004258D01*
X116135228Y-81042032D01*
X116065358Y-81042032D01*
X116033257Y-81027371D01*
X116030704Y-81025731D01*
X116030701Y-81025730D01*
X116030698Y-81025728D01*
X115892614Y-80985184D01*
X115892612Y-80985184D01*
X115748690Y-80985184D01*
X115748687Y-80985184D01*
X115610600Y-81025729D01*
X115489524Y-81103540D01*
X115395274Y-81212310D01*
X115395273Y-81212312D01*
X115335485Y-81343227D01*
X115315004Y-81485684D01*
X115335485Y-81628140D01*
X115379396Y-81724290D01*
X115395274Y-81759057D01*
X115489523Y-81867827D01*
X115610598Y-81945637D01*
X115610601Y-81945638D01*
X115610600Y-81945638D01*
X115748687Y-81986183D01*
X115748689Y-81986184D01*
X115748690Y-81986184D01*
X115892612Y-81986184D01*
X115935419Y-81973615D01*
X116005287Y-81973615D01*
X116064066Y-82011389D01*
X116093091Y-82074944D01*
X116094353Y-82092592D01*
X116094353Y-82100001D01*
X116109574Y-82205873D01*
X116099630Y-82275032D01*
X116053874Y-82327835D01*
X115986835Y-82347519D01*
X115951902Y-82342496D01*
X115805468Y-82299500D01*
X115805466Y-82299500D01*
X115661544Y-82299500D01*
X115661541Y-82299500D01*
X115523454Y-82340045D01*
X115402377Y-82417857D01*
X115402374Y-82417859D01*
X115316654Y-82516785D01*
X115257876Y-82554559D01*
X115188006Y-82554559D01*
X115155904Y-82539898D01*
X115113379Y-82512570D01*
X115113376Y-82512568D01*
X114975289Y-82472023D01*
X114975287Y-82472023D01*
X114831365Y-82472023D01*
X114831362Y-82472023D01*
X114693275Y-82512568D01*
X114572199Y-82590379D01*
X114477949Y-82699149D01*
X114477948Y-82699151D01*
X114418160Y-82830066D01*
X114397679Y-82972523D01*
X110072157Y-82972523D01*
X110065163Y-82923880D01*
X110005375Y-82792964D01*
X109911126Y-82684194D01*
X109790051Y-82606384D01*
X109790049Y-82606383D01*
X109790047Y-82606382D01*
X109790048Y-82606382D01*
X109651961Y-82565837D01*
X109651959Y-82565837D01*
X109508037Y-82565837D01*
X109508034Y-82565837D01*
X109369947Y-82606382D01*
X109248871Y-82684193D01*
X109154621Y-82792963D01*
X109154620Y-82792965D01*
X109094832Y-82923880D01*
X109074351Y-83066337D01*
X109094832Y-83208793D01*
X109154620Y-83339708D01*
X109154621Y-83339710D01*
X109248870Y-83448480D01*
X109267233Y-83460281D01*
X109312988Y-83513085D01*
X109322932Y-83582244D01*
X109293907Y-83645800D01*
X109275395Y-83661840D01*
X109275577Y-83662050D01*
X109268874Y-83667858D01*
X109174623Y-83776629D01*
X109174622Y-83776631D01*
X109114834Y-83907546D01*
X109094353Y-84050003D01*
X109114834Y-84192459D01*
X109148946Y-84267152D01*
X109174623Y-84323376D01*
X109233062Y-84390819D01*
X109262087Y-84454374D01*
X109252143Y-84523532D01*
X109228493Y-84555126D01*
X109229680Y-84556155D01*
X109223873Y-84562856D01*
X109223872Y-84562857D01*
X109196296Y-84594682D01*
X109129623Y-84671626D01*
X109129622Y-84671628D01*
X109069834Y-84802543D01*
X109049353Y-84945000D01*
X107455562Y-84945000D01*
X107491128Y-84922143D01*
X107585377Y-84813373D01*
X107645165Y-84682457D01*
X107665647Y-84540000D01*
X107645165Y-84397543D01*
X107585377Y-84266627D01*
X107491128Y-84157857D01*
X107370053Y-84080047D01*
X107370051Y-84080046D01*
X107370049Y-84080045D01*
X107370050Y-84080045D01*
X107231963Y-84039500D01*
X107231961Y-84039500D01*
X107088039Y-84039500D01*
X107088036Y-84039500D01*
X106949949Y-84080045D01*
X106828873Y-84157856D01*
X106734623Y-84266626D01*
X106734622Y-84266628D01*
X106674834Y-84397543D01*
X106654353Y-84540000D01*
X85104220Y-84540000D01*
X85155821Y-84506838D01*
X85250070Y-84398068D01*
X85309858Y-84267152D01*
X85330340Y-84124695D01*
X85309858Y-83982238D01*
X85250070Y-83851322D01*
X85155821Y-83742552D01*
X85034746Y-83664742D01*
X85034744Y-83664741D01*
X85034742Y-83664740D01*
X85034743Y-83664740D01*
X84896656Y-83624195D01*
X84896654Y-83624195D01*
X84752732Y-83624195D01*
X84752729Y-83624195D01*
X84614642Y-83664740D01*
X84494739Y-83741797D01*
X84427699Y-83761481D01*
X84360660Y-83741796D01*
X84314905Y-83688992D01*
X84304962Y-83619833D01*
X84313139Y-83590029D01*
X84345010Y-83513085D01*
X84365894Y-83462666D01*
X84366369Y-83460281D01*
X84398554Y-83298473D01*
X84400500Y-83288691D01*
X84400500Y-81180000D01*
X94024351Y-81180000D01*
X94044832Y-81322456D01*
X94060855Y-81357540D01*
X94104621Y-81453373D01*
X94198870Y-81562143D01*
X94319945Y-81639953D01*
X94319948Y-81639954D01*
X94319947Y-81639954D01*
X94458034Y-81680499D01*
X94458036Y-81680500D01*
X94458037Y-81680500D01*
X94601960Y-81680500D01*
X94601960Y-81680499D01*
X94710980Y-81648489D01*
X94740048Y-81639954D01*
X94740048Y-81639953D01*
X94740051Y-81639953D01*
X94861126Y-81562143D01*
X94880313Y-81540000D01*
X101664353Y-81540000D01*
X101684834Y-81682456D01*
X101738500Y-81799966D01*
X101744623Y-81813373D01*
X101838872Y-81922143D01*
X101959947Y-81999953D01*
X101959950Y-81999954D01*
X101959949Y-81999954D01*
X102098036Y-82040499D01*
X102098038Y-82040500D01*
X102098039Y-82040500D01*
X102241962Y-82040500D01*
X102241962Y-82040499D01*
X102349121Y-82009035D01*
X102380050Y-81999954D01*
X102380050Y-81999953D01*
X102380053Y-81999953D01*
X102501128Y-81922143D01*
X102595377Y-81813373D01*
X102647153Y-81700000D01*
X111501436Y-81700000D01*
X111521917Y-81842456D01*
X111575576Y-81959950D01*
X111581706Y-81973373D01*
X111675955Y-82082143D01*
X111797030Y-82159953D01*
X111797033Y-82159954D01*
X111797032Y-82159954D01*
X111935119Y-82200499D01*
X111935121Y-82200500D01*
X111935122Y-82200500D01*
X112079045Y-82200500D01*
X112079045Y-82200499D01*
X112217136Y-82159953D01*
X112338211Y-82082143D01*
X112432460Y-81973373D01*
X112492248Y-81842457D01*
X112512730Y-81700000D01*
X112492248Y-81557543D01*
X112432460Y-81426627D01*
X112338211Y-81317857D01*
X112217136Y-81240047D01*
X112217134Y-81240046D01*
X112217132Y-81240045D01*
X112217133Y-81240045D01*
X112079046Y-81199500D01*
X112079044Y-81199500D01*
X111935122Y-81199500D01*
X111935119Y-81199500D01*
X111797032Y-81240045D01*
X111675956Y-81317856D01*
X111581706Y-81426626D01*
X111581705Y-81426628D01*
X111521917Y-81557543D01*
X111501436Y-81700000D01*
X102647153Y-81700000D01*
X102655165Y-81682457D01*
X102675647Y-81540000D01*
X102655165Y-81397543D01*
X102595377Y-81266627D01*
X102501128Y-81157857D01*
X102380053Y-81080047D01*
X102380051Y-81080046D01*
X102380049Y-81080045D01*
X102380050Y-81080045D01*
X102241963Y-81039500D01*
X102241961Y-81039500D01*
X102098039Y-81039500D01*
X102098036Y-81039500D01*
X101959949Y-81080045D01*
X101838873Y-81157856D01*
X101744623Y-81266626D01*
X101744622Y-81266628D01*
X101684834Y-81397543D01*
X101664353Y-81540000D01*
X94880313Y-81540000D01*
X94955375Y-81453373D01*
X95015163Y-81322457D01*
X95035645Y-81180000D01*
X95015163Y-81037543D01*
X94955375Y-80906627D01*
X94861126Y-80797857D01*
X94740051Y-80720047D01*
X94740049Y-80720046D01*
X94740047Y-80720045D01*
X94740048Y-80720045D01*
X94601961Y-80679500D01*
X94601959Y-80679500D01*
X94458037Y-80679500D01*
X94458034Y-80679500D01*
X94319947Y-80720045D01*
X94198871Y-80797856D01*
X94104621Y-80906626D01*
X94104620Y-80906628D01*
X94044832Y-81037543D01*
X94024351Y-81180000D01*
X84400500Y-81180000D01*
X84400500Y-80650004D01*
X97619345Y-80650004D01*
X97639826Y-80792460D01*
X97659460Y-80835451D01*
X97699615Y-80923377D01*
X97793864Y-81032147D01*
X97914939Y-81109957D01*
X97914942Y-81109958D01*
X97914941Y-81109958D01*
X98053028Y-81150503D01*
X98053030Y-81150504D01*
X98053031Y-81150504D01*
X98196954Y-81150504D01*
X98196954Y-81150503D01*
X98335045Y-81109957D01*
X98456120Y-81032147D01*
X98550369Y-80923377D01*
X98610157Y-80792461D01*
X98630639Y-80650004D01*
X98610157Y-80507547D01*
X98565410Y-80409567D01*
X98555467Y-80340411D01*
X98584492Y-80276855D01*
X98611160Y-80253746D01*
X98616989Y-80250000D01*
X106694353Y-80250000D01*
X106714834Y-80392456D01*
X106767395Y-80507547D01*
X106774623Y-80523373D01*
X106868872Y-80632143D01*
X106989947Y-80709953D01*
X106989950Y-80709954D01*
X106989949Y-80709954D01*
X107081980Y-80736976D01*
X107124633Y-80749500D01*
X107128036Y-80750499D01*
X107128038Y-80750500D01*
X107128039Y-80750500D01*
X107271962Y-80750500D01*
X107271962Y-80750499D01*
X107410053Y-80709953D01*
X107436442Y-80692994D01*
X108907060Y-80692994D01*
X108927541Y-80835450D01*
X108965176Y-80917857D01*
X108987330Y-80966367D01*
X109081579Y-81075137D01*
X109202654Y-81152947D01*
X109202657Y-81152948D01*
X109202656Y-81152948D01*
X109294789Y-81180000D01*
X109316163Y-81186276D01*
X109340743Y-81193493D01*
X109340745Y-81193494D01*
X109340746Y-81193494D01*
X109484669Y-81193494D01*
X109484669Y-81193493D01*
X109622760Y-81152947D01*
X109743835Y-81075137D01*
X109838084Y-80966367D01*
X109897872Y-80835451D01*
X109918354Y-80692994D01*
X109897872Y-80550537D01*
X109896666Y-80542147D01*
X109906610Y-80472988D01*
X109952365Y-80420184D01*
X110019404Y-80400500D01*
X110071962Y-80400500D01*
X110071962Y-80400499D01*
X110210053Y-80359953D01*
X110331128Y-80282143D01*
X110425377Y-80173373D01*
X110485165Y-80042457D01*
X110505647Y-79900000D01*
X110485165Y-79757543D01*
X110425377Y-79626627D01*
X110331128Y-79517857D01*
X110210053Y-79440047D01*
X110210051Y-79440046D01*
X110210049Y-79440045D01*
X110210050Y-79440045D01*
X110071963Y-79399500D01*
X110071961Y-79399500D01*
X109928039Y-79399500D01*
X109928036Y-79399500D01*
X109789949Y-79440045D01*
X109668873Y-79517856D01*
X109574623Y-79626626D01*
X109574622Y-79626628D01*
X109514834Y-79757543D01*
X109494353Y-79900000D01*
X109516041Y-80050847D01*
X109506097Y-80120006D01*
X109460342Y-80172810D01*
X109393303Y-80192494D01*
X109340743Y-80192494D01*
X109202656Y-80233039D01*
X109081580Y-80310850D01*
X109081579Y-80310850D01*
X109081579Y-80310851D01*
X109071288Y-80322728D01*
X108987330Y-80419620D01*
X108987329Y-80419622D01*
X108927541Y-80550537D01*
X108907060Y-80692994D01*
X107436442Y-80692994D01*
X107531128Y-80632143D01*
X107625377Y-80523373D01*
X107685165Y-80392457D01*
X107705647Y-80250000D01*
X107685165Y-80107543D01*
X107625377Y-79976627D01*
X107531128Y-79867857D01*
X107410053Y-79790047D01*
X107410051Y-79790046D01*
X107410049Y-79790045D01*
X107410050Y-79790045D01*
X107271963Y-79749500D01*
X107271961Y-79749500D01*
X107128039Y-79749500D01*
X107128036Y-79749500D01*
X106989949Y-79790045D01*
X106868873Y-79867856D01*
X106774623Y-79976626D01*
X106774622Y-79976628D01*
X106714834Y-80107543D01*
X106694353Y-80250000D01*
X98616989Y-80250000D01*
X98677106Y-80211366D01*
X98771355Y-80102596D01*
X98831143Y-79971680D01*
X98851625Y-79829223D01*
X98831143Y-79686766D01*
X98771355Y-79555850D01*
X98677106Y-79447080D01*
X98564947Y-79375000D01*
X118485929Y-79375000D01*
X118506410Y-79517456D01*
X118549251Y-79611263D01*
X118566199Y-79648373D01*
X118660448Y-79757143D01*
X118781523Y-79834953D01*
X118781526Y-79834954D01*
X118781525Y-79834954D01*
X118888683Y-79866417D01*
X118912364Y-79873371D01*
X118919612Y-79875499D01*
X118919614Y-79875500D01*
X118919615Y-79875500D01*
X119063538Y-79875500D01*
X119063538Y-79875499D01*
X119201629Y-79834953D01*
X119322704Y-79757143D01*
X119416953Y-79648373D01*
X119439044Y-79600000D01*
X127772882Y-79600000D01*
X127793363Y-79742456D01*
X127832989Y-79829223D01*
X127853152Y-79873373D01*
X127947401Y-79982143D01*
X128068476Y-80059953D01*
X128068479Y-80059954D01*
X128068478Y-80059954D01*
X128206565Y-80100499D01*
X128206567Y-80100500D01*
X128206568Y-80100500D01*
X128350491Y-80100500D01*
X128350491Y-80100499D01*
X128488582Y-80059953D01*
X128609657Y-79982143D01*
X128703906Y-79873373D01*
X128763694Y-79742457D01*
X128784176Y-79600000D01*
X128763694Y-79457543D01*
X128703906Y-79326627D01*
X128609657Y-79217857D01*
X128488582Y-79140047D01*
X128488580Y-79140046D01*
X128488578Y-79140045D01*
X128488579Y-79140045D01*
X128350492Y-79099500D01*
X128350490Y-79099500D01*
X128206568Y-79099500D01*
X128206565Y-79099500D01*
X128068478Y-79140045D01*
X127947402Y-79217856D01*
X127853152Y-79326626D01*
X127853151Y-79326628D01*
X127793363Y-79457543D01*
X127772882Y-79600000D01*
X119439044Y-79600000D01*
X119476741Y-79517457D01*
X119497223Y-79375000D01*
X119494713Y-79357543D01*
X119489504Y-79321310D01*
X119499448Y-79252152D01*
X119545203Y-79199348D01*
X119612242Y-79179664D01*
X119617332Y-79179664D01*
X119617332Y-79179663D01*
X119752256Y-79140047D01*
X119755420Y-79139118D01*
X119755420Y-79139117D01*
X119755423Y-79139117D01*
X119876498Y-79061307D01*
X119970747Y-78952537D01*
X120030535Y-78821621D01*
X120051017Y-78679164D01*
X120030535Y-78536707D01*
X119970747Y-78405791D01*
X119876498Y-78297021D01*
X119755423Y-78219211D01*
X119755421Y-78219210D01*
X119755419Y-78219209D01*
X119755420Y-78219209D01*
X119617333Y-78178664D01*
X119617331Y-78178664D01*
X119473409Y-78178664D01*
X119473406Y-78178664D01*
X119335319Y-78219209D01*
X119214243Y-78297020D01*
X119119993Y-78405790D01*
X119119992Y-78405792D01*
X119060204Y-78536707D01*
X119039723Y-78679164D01*
X119047442Y-78732854D01*
X119037498Y-78802012D01*
X118991743Y-78854816D01*
X118924704Y-78874500D01*
X118919612Y-78874500D01*
X118781525Y-78915045D01*
X118660449Y-78992856D01*
X118566199Y-79101626D01*
X118566198Y-79101628D01*
X118506410Y-79232543D01*
X118485929Y-79375000D01*
X98564947Y-79375000D01*
X98556031Y-79369270D01*
X98556029Y-79369269D01*
X98556027Y-79369268D01*
X98556028Y-79369268D01*
X98417941Y-79328723D01*
X98417939Y-79328723D01*
X98274017Y-79328723D01*
X98274014Y-79328723D01*
X98135927Y-79369268D01*
X98014851Y-79447079D01*
X97920601Y-79555849D01*
X97920600Y-79555851D01*
X97860812Y-79686766D01*
X97840331Y-79829223D01*
X97860812Y-79971680D01*
X97860813Y-79971681D01*
X97905557Y-80069657D01*
X97915501Y-80138815D01*
X97886476Y-80202371D01*
X97859804Y-80225483D01*
X97793865Y-80267860D01*
X97699615Y-80376630D01*
X97699614Y-80376632D01*
X97639826Y-80507547D01*
X97619345Y-80650004D01*
X84400500Y-80650004D01*
X84400500Y-79240000D01*
X94034353Y-79240000D01*
X94054834Y-79382456D01*
X94089126Y-79457543D01*
X94114623Y-79513373D01*
X94208872Y-79622143D01*
X94329947Y-79699953D01*
X94329950Y-79699954D01*
X94329949Y-79699954D01*
X94468036Y-79740499D01*
X94468038Y-79740500D01*
X94468039Y-79740500D01*
X94611962Y-79740500D01*
X94611962Y-79740499D01*
X94750053Y-79699953D01*
X94871128Y-79622143D01*
X94965377Y-79513373D01*
X95025165Y-79382457D01*
X95045647Y-79240000D01*
X95025165Y-79097543D01*
X94965377Y-78966627D01*
X94871128Y-78857857D01*
X94750053Y-78780047D01*
X94750051Y-78780046D01*
X94750049Y-78780045D01*
X94750050Y-78780045D01*
X94611963Y-78739500D01*
X94611961Y-78739500D01*
X94468039Y-78739500D01*
X94468036Y-78739500D01*
X94329949Y-78780045D01*
X94208873Y-78857856D01*
X94114623Y-78966626D01*
X94114622Y-78966628D01*
X94054834Y-79097543D01*
X94034353Y-79240000D01*
X84400500Y-79240000D01*
X84400500Y-78200000D01*
X91094353Y-78200000D01*
X91114834Y-78342456D01*
X91143759Y-78405791D01*
X91174623Y-78473373D01*
X91268872Y-78582143D01*
X91389947Y-78659953D01*
X91389950Y-78659954D01*
X91389949Y-78659954D01*
X91528036Y-78700499D01*
X91528038Y-78700500D01*
X91528039Y-78700500D01*
X91671962Y-78700500D01*
X91671962Y-78700499D01*
X91810053Y-78659953D01*
X91931128Y-78582143D01*
X92025377Y-78473373D01*
X92085165Y-78342457D01*
X92105647Y-78200000D01*
X92085165Y-78057543D01*
X92025377Y-77926627D01*
X91931128Y-77817857D01*
X91810053Y-77740047D01*
X91810051Y-77740046D01*
X91810049Y-77740045D01*
X91810050Y-77740045D01*
X91671963Y-77699500D01*
X91671961Y-77699500D01*
X91528039Y-77699500D01*
X91528036Y-77699500D01*
X91389949Y-77740045D01*
X91268873Y-77817856D01*
X91174623Y-77926626D01*
X91174622Y-77926628D01*
X91114834Y-78057543D01*
X91094353Y-78200000D01*
X84400500Y-78200000D01*
X84400500Y-77911309D01*
X84400500Y-77911306D01*
X84400499Y-77911304D01*
X84365896Y-77737341D01*
X84365893Y-77737332D01*
X84298016Y-77573459D01*
X84298009Y-77573446D01*
X84280198Y-77546790D01*
X84259320Y-77480112D01*
X84277805Y-77412732D01*
X84329783Y-77366042D01*
X84382898Y-77353901D01*
X123448841Y-77228689D01*
X123515941Y-77248158D01*
X123561865Y-77300815D01*
X123572030Y-77369942D01*
X123562030Y-77404199D01*
X123514835Y-77507541D01*
X123514834Y-77507542D01*
X123494353Y-77650000D01*
X123514834Y-77792456D01*
X123569111Y-77911304D01*
X123574623Y-77923373D01*
X123668872Y-78032143D01*
X123789947Y-78109953D01*
X123789950Y-78109954D01*
X123789949Y-78109954D01*
X123928036Y-78150499D01*
X123928038Y-78150500D01*
X123928039Y-78150500D01*
X124071962Y-78150500D01*
X124071962Y-78150499D01*
X124210053Y-78109953D01*
X124331128Y-78032143D01*
X124425377Y-77923373D01*
X124485165Y-77792457D01*
X124505647Y-77650000D01*
X124485165Y-77507543D01*
X124436358Y-77400673D01*
X124426415Y-77331517D01*
X124455440Y-77267961D01*
X124514217Y-77230186D01*
X124548754Y-77225164D01*
X131658100Y-77202377D01*
X132275453Y-77202408D01*
G37*
%TD.AperFunction*%
%TD*%
M02*
