%TF.GenerationSoftware,KiCad,Pcbnew,8.0.5*%
%TF.CreationDate,2025-07-01T10:48:08-04:00*%
%TF.ProjectId,pcb_battery_stub,7063625f-6261-4747-9465-72795f737475,rev?*%
%TF.SameCoordinates,Original*%
%TF.FileFunction,Copper,L1,Top*%
%TF.FilePolarity,Positive*%
%FSLAX46Y46*%
G04 Gerber Fmt 4.6, Leading zero omitted, Abs format (unit mm)*
G04 Created by KiCad (PCBNEW 8.0.5) date 2025-07-01 10:48:08*
%MOMM*%
%LPD*%
G01*
G04 APERTURE LIST*
%TA.AperFunction,SMDPad,CuDef*%
%ADD10R,2.600000X2.800000*%
%TD*%
%TA.AperFunction,ComponentPad*%
%ADD11O,1.400000X6.600000*%
%TD*%
%TA.AperFunction,ViaPad*%
%ADD12C,0.600000*%
%TD*%
%TA.AperFunction,Conductor*%
%ADD13C,0.300000*%
%TD*%
G04 APERTURE END LIST*
D10*
%TO.P,REF\u002A\u002A,1*%
%TO.N,Net-(BT3---Pad4)*%
X483450000Y-90300000D03*
%TO.P,REF\u002A\u002A,2*%
X494150000Y-90300000D03*
%TD*%
%TO.P,REF\u002A\u002A,1*%
%TO.N,Net-(BT4---Pad4)*%
X483400000Y-83300000D03*
%TO.P,REF\u002A\u002A,2*%
X494100000Y-83300000D03*
%TD*%
%TO.P,REF\u002A\u002A,1*%
%TO.N,Net-(BT4-+-Pad3)*%
X483400000Y-86800000D03*
%TO.P,REF\u002A\u002A,2*%
X494100000Y-86800000D03*
%TD*%
D11*
%TO.P,BT8,1,+*%
%TO.N,Net-(BT3---Pad4)*%
X490000000Y-96500000D03*
%TO.P,BT8,2,-*%
%TO.N,Net-(BT4---Pad2)*%
X555250000Y-96500000D03*
%TO.P,BT8,3,+*%
%TO.N,Net-(BT4-+-Pad3)*%
X490000000Y-80600000D03*
%TO.P,BT8,4,-*%
%TO.N,Net-(BT4---Pad4)*%
X555250000Y-80600000D03*
%TD*%
D10*
%TO.P,REF\u002A\u002A,1*%
%TO.N,Net-(BT4---Pad2)*%
X483450000Y-93800000D03*
%TO.P,REF\u002A\u002A,2*%
X494150000Y-93800000D03*
%TD*%
D12*
%TO.N,Net-(BT3---Pad4)*%
X497200000Y-89800000D03*
X491000000Y-90700000D03*
X490300000Y-89500000D03*
X496500000Y-90300000D03*
X491700000Y-89500000D03*
X491700000Y-91100000D03*
X497200000Y-90600000D03*
X491700000Y-90300000D03*
X497900000Y-90200000D03*
X490300000Y-90400000D03*
X497900000Y-89400000D03*
X491000000Y-89900000D03*
X496500000Y-89400000D03*
X490300000Y-91200000D03*
X496500000Y-91100000D03*
X497900000Y-91000000D03*
%TO.N,Net-(BT4---Pad4)*%
X496600000Y-82300000D03*
X500100000Y-83700000D03*
X498700000Y-82800000D03*
X500700000Y-82300000D03*
X498000000Y-82300000D03*
X499400000Y-83300000D03*
X499400000Y-84200000D03*
X497300000Y-82800000D03*
X498000000Y-83300000D03*
X498000000Y-84200000D03*
X498700000Y-83700000D03*
X496600000Y-84200000D03*
X500700000Y-84300000D03*
X499400000Y-82300000D03*
X497300000Y-83700000D03*
X500700000Y-83300000D03*
X500100000Y-82800000D03*
X496600000Y-83300000D03*
%TD*%
D13*
%TO.N,Net-(BT4---Pad4)*%
X494150000Y-83300000D02*
X496600000Y-83300000D01*
%TO.N,Net-(U1-VC7)*%
X126910050Y-82700000D02*
X133289950Y-82700000D01*
%TD*%
%TA.AperFunction,Conductor*%
%TO.N,Net-(BT4---Pad2)*%
G36*
X555974169Y-88704812D02*
G01*
X555974172Y-88704811D01*
X555975762Y-88704815D01*
X556042760Y-88724642D01*
X556088403Y-88777542D01*
X556099500Y-88828815D01*
X556099500Y-99775500D01*
X556079815Y-99842539D01*
X556027011Y-99888294D01*
X555975500Y-99899500D01*
X491142337Y-99899500D01*
X491075298Y-99879815D01*
X491029543Y-99827011D01*
X491019599Y-99757853D01*
X491031852Y-99719205D01*
X491112545Y-99560836D01*
X491112545Y-99560835D01*
X491112547Y-99560832D01*
X491170940Y-99381118D01*
X491200500Y-99194486D01*
X491200500Y-93805513D01*
X491170940Y-93618881D01*
X491112545Y-93439163D01*
X491026759Y-93270800D01*
X490977053Y-93202386D01*
X490953573Y-93136580D01*
X490969398Y-93068526D01*
X491019504Y-93019831D01*
X491077371Y-93005500D01*
X491855030Y-93005500D01*
X491855043Y-93005500D01*
X491911749Y-93003900D01*
X492112672Y-92971935D01*
X492112677Y-92971933D01*
X492112681Y-92971933D01*
X492141155Y-92964384D01*
X492174094Y-92955654D01*
X492306600Y-92910447D01*
X492485163Y-92812943D01*
X492640443Y-92681491D01*
X492688929Y-92631184D01*
X492744232Y-92568826D01*
X492815450Y-92460764D01*
X492868777Y-92415620D01*
X492918987Y-92405000D01*
X495376836Y-92405000D01*
X495443875Y-92424685D01*
X495476355Y-92455028D01*
X495592853Y-92611774D01*
X495592855Y-92611777D01*
X495592858Y-92611780D01*
X495635711Y-92658666D01*
X495635718Y-92658672D01*
X495635722Y-92658677D01*
X495737125Y-92755179D01*
X495906221Y-92868308D01*
X496094628Y-92945083D01*
X496094634Y-92945085D01*
X496109644Y-92949492D01*
X496161667Y-92964768D01*
X496242551Y-92984917D01*
X496377488Y-92998639D01*
X496444956Y-93005500D01*
X496444957Y-93005500D01*
X498775990Y-93005500D01*
X498776000Y-93005500D01*
X498787588Y-93005433D01*
X498989743Y-92982519D01*
X499041254Y-92971313D01*
X499132938Y-92946784D01*
X499319527Y-92865692D01*
X499485974Y-92748700D01*
X499538778Y-92702945D01*
X499655179Y-92583832D01*
X499768308Y-92414736D01*
X499824351Y-92277206D01*
X499867879Y-92222552D01*
X499934045Y-92200106D01*
X499939183Y-92200000D01*
X509100000Y-92200000D01*
X509100000Y-88923736D01*
X509119685Y-88856697D01*
X509172489Y-88810942D01*
X509223732Y-88799736D01*
X554902868Y-88702547D01*
X555974169Y-88704812D01*
G37*
%TD.AperFunction*%
%TD*%
%TA.AperFunction,Conductor*%
%TO.N,Net-(BT4---Pad4)*%
G36*
X556042539Y-77220185D02*
G01*
X556088294Y-77272989D01*
X556099500Y-77324500D01*
X556099500Y-88075313D01*
X556079815Y-88142352D01*
X556027011Y-88188107D01*
X555975238Y-88199313D01*
X509123738Y-88100261D01*
X509056740Y-88080434D01*
X509011097Y-88027534D01*
X509000000Y-87976261D01*
X509000000Y-77324500D01*
X509019685Y-77257461D01*
X509072489Y-77211706D01*
X509124000Y-77200500D01*
X555975500Y-77200500D01*
X556042539Y-77220185D01*
G37*
%TD.AperFunction*%
%TD*%
%TA.AperFunction,Conductor*%
%TO.N,Net-(BT4---Pad4)*%
G36*
X501543039Y-81519685D02*
G01*
X501588794Y-81572489D01*
X501600000Y-81624000D01*
X501600000Y-84976000D01*
X501580315Y-85043039D01*
X501527511Y-85088794D01*
X501476000Y-85100000D01*
X496447083Y-85100000D01*
X496380044Y-85080315D01*
X496338068Y-85031872D01*
X496336820Y-85032525D01*
X496333909Y-85026953D01*
X496333909Y-85026951D01*
X496239698Y-84846593D01*
X496187684Y-84782803D01*
X496111109Y-84688890D01*
X495953409Y-84560304D01*
X495953410Y-84560304D01*
X495953407Y-84560302D01*
X495773049Y-84466091D01*
X495773048Y-84466090D01*
X495773045Y-84466089D01*
X495640196Y-84428077D01*
X495577418Y-84410114D01*
X495577415Y-84410113D01*
X495577413Y-84410113D01*
X495511102Y-84404217D01*
X495458037Y-84399500D01*
X495458032Y-84399500D01*
X492741971Y-84399500D01*
X492741965Y-84399500D01*
X492741964Y-84399501D01*
X492731352Y-84400444D01*
X492622583Y-84410113D01*
X492622582Y-84410114D01*
X492558110Y-84428561D01*
X492488242Y-84428077D01*
X492429727Y-84389897D01*
X492401143Y-84326142D01*
X492400000Y-84309345D01*
X492400000Y-81624000D01*
X492419685Y-81556961D01*
X492472489Y-81511206D01*
X492524000Y-81500000D01*
X501476000Y-81500000D01*
X501543039Y-81519685D01*
G37*
%TD.AperFunction*%
%TD*%
%TA.AperFunction,Conductor*%
%TO.N,Net-(BT3---Pad4)*%
G36*
X491872082Y-88619685D02*
G01*
X491914951Y-88666588D01*
X491944941Y-88724000D01*
X491960302Y-88753407D01*
X492018057Y-88824239D01*
X492088890Y-88911109D01*
X492182803Y-88987684D01*
X492246593Y-89039698D01*
X492426951Y-89133909D01*
X492622582Y-89189886D01*
X492741963Y-89200500D01*
X495458036Y-89200499D01*
X495577418Y-89189886D01*
X495773049Y-89133909D01*
X495953407Y-89039698D01*
X496111109Y-88911109D01*
X496239698Y-88753407D01*
X496281966Y-88672489D01*
X496285049Y-88666588D01*
X496333535Y-88616281D01*
X496394957Y-88600000D01*
X498776000Y-88600000D01*
X498843039Y-88619685D01*
X498888794Y-88672489D01*
X498900000Y-88724000D01*
X498900000Y-91876000D01*
X498880315Y-91943039D01*
X498827511Y-91988794D01*
X498776000Y-92000000D01*
X496444957Y-92000000D01*
X496377918Y-91980315D01*
X496335049Y-91933412D01*
X496289699Y-91846595D01*
X496289698Y-91846593D01*
X496218864Y-91759723D01*
X496161109Y-91688890D01*
X496003409Y-91560304D01*
X496003410Y-91560304D01*
X496003407Y-91560302D01*
X495823049Y-91466091D01*
X495823048Y-91466090D01*
X495823045Y-91466089D01*
X495705829Y-91432550D01*
X495627418Y-91410114D01*
X495627415Y-91410113D01*
X495627413Y-91410113D01*
X495561102Y-91404217D01*
X495508037Y-91399500D01*
X495508032Y-91399500D01*
X492791971Y-91399500D01*
X492791965Y-91399500D01*
X492791964Y-91399501D01*
X492780316Y-91400536D01*
X492672584Y-91410113D01*
X492476954Y-91466089D01*
X492386772Y-91513196D01*
X492296593Y-91560302D01*
X492296591Y-91560303D01*
X492296590Y-91560304D01*
X492138890Y-91688890D01*
X492010302Y-91846593D01*
X492010300Y-91846595D01*
X491964951Y-91933412D01*
X491916465Y-91983719D01*
X491855043Y-92000000D01*
X489824000Y-92000000D01*
X489756961Y-91980315D01*
X489711206Y-91927511D01*
X489700000Y-91876000D01*
X489700000Y-88724000D01*
X489719685Y-88656961D01*
X489772489Y-88611206D01*
X489824000Y-88600000D01*
X491805043Y-88600000D01*
X491872082Y-88619685D01*
G37*
%TD.AperFunction*%
%TD*%
%TA.AperFunction,Conductor*%
%TO.N,Net-(BT4-+-Pad3)*%
G36*
X508437539Y-77220185D02*
G01*
X508483294Y-77272989D01*
X508494500Y-77324500D01*
X508494500Y-87976267D01*
X508499296Y-88021091D01*
X508500000Y-88034282D01*
X508500000Y-91570500D01*
X508480315Y-91637539D01*
X508427511Y-91683294D01*
X508376000Y-91694500D01*
X500029500Y-91694500D01*
X499962461Y-91674815D01*
X499916706Y-91622011D01*
X499905500Y-91570500D01*
X499905500Y-88724010D01*
X499905433Y-88712420D01*
X499905433Y-88712412D01*
X499882519Y-88510257D01*
X499871313Y-88458746D01*
X499846784Y-88367062D01*
X499765692Y-88180473D01*
X499765691Y-88180471D01*
X499765689Y-88180468D01*
X499648705Y-88014033D01*
X499648704Y-88014032D01*
X499648700Y-88014026D01*
X499602945Y-87961222D01*
X499483832Y-87844821D01*
X499483830Y-87844819D01*
X499314738Y-87731693D01*
X499314731Y-87731690D01*
X499126328Y-87654916D01*
X499126322Y-87654914D01*
X499059293Y-87635233D01*
X499059295Y-87635233D01*
X499059290Y-87635232D01*
X498978406Y-87615083D01*
X498978402Y-87615082D01*
X498978403Y-87615082D01*
X498776001Y-87594500D01*
X498776000Y-87594500D01*
X496394957Y-87594500D01*
X496348883Y-87595800D01*
X496338248Y-87596100D01*
X496137318Y-87628066D01*
X496075918Y-87644342D01*
X496075907Y-87644345D01*
X495943402Y-87689551D01*
X495943399Y-87689553D01*
X495764839Y-87787055D01*
X495764832Y-87787060D01*
X495609555Y-87918510D01*
X495609548Y-87918517D01*
X495561083Y-87968803D01*
X495561076Y-87968809D01*
X495561071Y-87968816D01*
X495505819Y-88031111D01*
X495434541Y-88139244D01*
X495381210Y-88184383D01*
X495331010Y-88194999D01*
X492873164Y-88194999D01*
X492806125Y-88175314D01*
X492773642Y-88144967D01*
X492657150Y-87988230D01*
X492657143Y-87988221D01*
X492614288Y-87941333D01*
X492614281Y-87941326D01*
X492614278Y-87941323D01*
X492512875Y-87844821D01*
X492426531Y-87787055D01*
X492343781Y-87731693D01*
X492343774Y-87731690D01*
X492155371Y-87654916D01*
X492155365Y-87654914D01*
X492088336Y-87635233D01*
X492088338Y-87635233D01*
X492088333Y-87635232D01*
X492007449Y-87615083D01*
X492007445Y-87615082D01*
X492007446Y-87615082D01*
X491805044Y-87594500D01*
X491805043Y-87594500D01*
X489824000Y-87594500D01*
X489823347Y-87594503D01*
X489812420Y-87594566D01*
X489812406Y-87594567D01*
X489610254Y-87617481D01*
X489558753Y-87628685D01*
X489467058Y-87653217D01*
X489373925Y-87693693D01*
X489304595Y-87702361D01*
X489241584Y-87672170D01*
X489204899Y-87612706D01*
X489200500Y-87579969D01*
X489200500Y-81623998D01*
X491394500Y-81623998D01*
X491394500Y-84309358D01*
X491396818Y-84377589D01*
X491397963Y-84394408D01*
X491419614Y-84544390D01*
X491483637Y-84737497D01*
X491512220Y-84801252D01*
X491512223Y-84801256D01*
X491592716Y-84947073D01*
X491722002Y-85104147D01*
X491722007Y-85104153D01*
X491880273Y-85231996D01*
X491938788Y-85270176D01*
X492085326Y-85349320D01*
X492279018Y-85411569D01*
X492481277Y-85433553D01*
X492551145Y-85434037D01*
X492634450Y-85431159D01*
X492768946Y-85407054D01*
X492779884Y-85405595D01*
X492781192Y-85405478D01*
X492792078Y-85405000D01*
X495321845Y-85405000D01*
X495388884Y-85424685D01*
X495431755Y-85471591D01*
X495441253Y-85489775D01*
X495441282Y-85489832D01*
X495446465Y-85499754D01*
X495455601Y-85517244D01*
X495467379Y-85533014D01*
X495526770Y-85628217D01*
X495526774Y-85628222D01*
X495543008Y-85646165D01*
X495546934Y-85654297D01*
X495620118Y-85738756D01*
X495620126Y-85738765D01*
X495620137Y-85738777D01*
X495739251Y-85855179D01*
X495908347Y-85968308D01*
X496096754Y-86045083D01*
X496096760Y-86045085D01*
X496111770Y-86049492D01*
X496163793Y-86064768D01*
X496244677Y-86084917D01*
X496379614Y-86098639D01*
X496447082Y-86105500D01*
X496447083Y-86105500D01*
X501475990Y-86105500D01*
X501476000Y-86105500D01*
X501487588Y-86105433D01*
X501689743Y-86082519D01*
X501741254Y-86071313D01*
X501832938Y-86046784D01*
X502019527Y-85965692D01*
X502185974Y-85848700D01*
X502238778Y-85802945D01*
X502355179Y-85683832D01*
X502468308Y-85514736D01*
X502545083Y-85326329D01*
X502564768Y-85259290D01*
X502584917Y-85178406D01*
X502605500Y-84976000D01*
X502605500Y-81624000D01*
X502605433Y-81612412D01*
X502582519Y-81410257D01*
X502571313Y-81358746D01*
X502546784Y-81267062D01*
X502465692Y-81080473D01*
X502465691Y-81080471D01*
X502465689Y-81080468D01*
X502348705Y-80914033D01*
X502348704Y-80914032D01*
X502348700Y-80914026D01*
X502302945Y-80861222D01*
X502183832Y-80744821D01*
X502183830Y-80744819D01*
X502014738Y-80631693D01*
X502014731Y-80631690D01*
X501826328Y-80554916D01*
X501826322Y-80554914D01*
X501759293Y-80535233D01*
X501759295Y-80535233D01*
X501759290Y-80535232D01*
X501678406Y-80515083D01*
X501678402Y-80515082D01*
X501678403Y-80515082D01*
X501476001Y-80494500D01*
X501476000Y-80494500D01*
X492524000Y-80494500D01*
X492523347Y-80494503D01*
X492512420Y-80494566D01*
X492512406Y-80494567D01*
X492310254Y-80517481D01*
X492258753Y-80528685D01*
X492167058Y-80553217D01*
X491980475Y-80634306D01*
X491980468Y-80634310D01*
X491814033Y-80751294D01*
X491814020Y-80751305D01*
X491761225Y-80797052D01*
X491644819Y-80916169D01*
X491531693Y-81085261D01*
X491531690Y-81085268D01*
X491454916Y-81273671D01*
X491454914Y-81273677D01*
X491435233Y-81340706D01*
X491415082Y-81421597D01*
X491394500Y-81623998D01*
X489200500Y-81623998D01*
X489200500Y-77324500D01*
X489220185Y-77257461D01*
X489272989Y-77211706D01*
X489324500Y-77200500D01*
X508370500Y-77200500D01*
X508437539Y-77220185D01*
G37*
%TD.AperFunction*%
%TD*%
M02*
