M48
; DRILL file {KiCad 8.0.5} date 2025-07-01T10:48:08-0400
; FORMAT={-:-/ absolute / inch / decimal}
; #@! TF.CreationDate,2025-07-01T10:48:08-04:00
; #@! TF.GenerationSoftware,Kicad,Pcbnew,8.0.5
; #@! TF.FileFunction,Plated,1,4,PTH
FMAT,2
INCH
; #@! TA.AperFunction,Plated,PTH,ViaDrill
T1C0.0118
; #@! TA.AperFunction,Plated,PTH,ComponentDrill
T2C0.0315
%
G90
G05
T1
X19.3031Y-3.5236
X19.3031Y-3.5591
X19.3031Y-3.5906
X19.3307Y-3.5394
X19.3307Y-3.5709
X19.3583Y-3.5236
X19.3583Y-3.5551
X19.3583Y-3.5866
X19.5472Y-3.5197
X19.5472Y-3.5551
X19.5472Y-3.5866
X19.5512Y-3.2402
X19.5512Y-3.2795
X19.5512Y-3.315
X19.5748Y-3.5354
X19.5748Y-3.5669
X19.5787Y-3.2598
X19.5787Y-3.2953
X19.6024Y-3.5197
X19.6024Y-3.5512
X19.6024Y-3.5827
X19.6063Y-3.2402
X19.6063Y-3.2795
X19.6063Y-3.315
X19.6339Y-3.2598
X19.6339Y-3.2953
X19.6614Y-3.2402
X19.6614Y-3.2795
X19.6614Y-3.315
X19.689Y-3.2598
X19.689Y-3.2953
X19.7126Y-3.2402
X19.7126Y-3.2795
X19.7126Y-3.3189
T2
G00X19.2913Y-3.2756
M15
G01X19.2913Y-3.0709
M16
G05
G00X19.2913Y-3.9016
M15
G01X19.2913Y-3.6969
M16
G05
G00X21.8602Y-3.2756
M15
G01X21.8602Y-3.0709
M16
G05
G00X21.8602Y-3.9016
M15
G01X21.8602Y-3.6969
M16
G05
M30
