%TF.GenerationSoftware,KiCad,Pcbnew,8.0.4*%
%TF.CreationDate,2024-09-08T23:33:26-07:00*%
%TF.ProjectId,FakePack,46616b65-5061-4636-9b2e-6b696361645f,rev?*%
%TF.SameCoordinates,Original*%
%TF.FileFunction,Copper,L2,Bot*%
%TF.FilePolarity,Positive*%
%FSLAX46Y46*%
G04 Gerber Fmt 4.6, Leading zero omitted, Abs format (unit mm)*
G04 Created by KiCad (PCBNEW 8.0.4) date 2024-09-08 23:33:26*
%MOMM*%
%LPD*%
G01*
G04 APERTURE LIST*
%TA.AperFunction,NonConductor*%
%ADD10C,0.200000*%
%TD*%
%TA.AperFunction,ComponentPad*%
%ADD11R,2.400000X2.400000*%
%TD*%
%TA.AperFunction,ComponentPad*%
%ADD12C,2.400000*%
%TD*%
%TA.AperFunction,ComponentPad*%
%ADD13C,2.800000*%
%TD*%
%TA.AperFunction,ComponentPad*%
%ADD14O,2.400000X2.400000*%
%TD*%
%TA.AperFunction,ComponentPad*%
%ADD15R,2.000000X2.000000*%
%TD*%
%TA.AperFunction,ComponentPad*%
%ADD16C,2.000000*%
%TD*%
%TA.AperFunction,ViaPad*%
%ADD17C,1.000000*%
%TD*%
%TA.AperFunction,Conductor*%
%ADD18C,3.000000*%
%TD*%
%TA.AperFunction,Conductor*%
%ADD19C,1.000000*%
%TD*%
G04 APERTURE END LIST*
D10*
X22500000Y-27500000D02*
X28000000Y-27500000D01*
X28000000Y-32000000D01*
X22500000Y-32000000D01*
X22500000Y-27500000D01*
%TA.AperFunction,NonConductor*%
G36*
X22500000Y-27500000D02*
G01*
X28000000Y-27500000D01*
X28000000Y-32000000D01*
X22500000Y-32000000D01*
X22500000Y-27500000D01*
G37*
%TD.AperFunction*%
D11*
%TO.P,J3,1,Pin_1*%
%TO.N,GND*%
X23900000Y-28500000D03*
D12*
%TO.P,J3,2,Pin_2*%
%TO.N,Net-(J3-Pin_2)*%
X23900000Y-25000000D03*
%TD*%
D13*
%TO.P,TP3,1,1*%
%TO.N,Net-(R1-Pad2)*%
X64500000Y-35500000D03*
%TD*%
%TO.P,TP8,1,1*%
%TO.N,Net-(J4-Pin_4)*%
X119000000Y-26000000D03*
%TD*%
%TO.P,TP13,1,1*%
%TO.N,Net-(R20-Pad1)*%
X198570000Y-73500000D03*
%TD*%
D12*
%TO.P,R3,1*%
%TO.N,Net-(R2-Pad2)*%
X94140000Y-43500000D03*
D14*
%TO.P,R3,2*%
%TO.N,Net-(R23-Pad1)*%
X117000000Y-43500000D03*
%TD*%
D13*
%TO.P,TP26,1,1*%
%TO.N,Net-(J4-Pin_13)*%
X39070000Y-64000000D03*
%TD*%
D12*
%TO.P,R2,1*%
%TO.N,Net-(R1-Pad2)*%
X66640000Y-43500000D03*
D14*
%TO.P,R2,2*%
%TO.N,Net-(R2-Pad2)*%
X89500000Y-43500000D03*
%TD*%
D13*
%TO.P,TP4,1,1*%
%TO.N,Net-(J4-Pin_2)*%
X64500000Y-26500000D03*
%TD*%
%TO.P,TP2,1,1*%
%TO.N,Net-(J4-Pin_1)*%
X39500000Y-26500000D03*
%TD*%
D12*
%TO.P,R7,1*%
%TO.N,Net-(R20-Pad1)*%
X198000000Y-80500000D03*
D14*
%TO.P,R7,2*%
%TO.N,Net-(R19-Pad1)*%
X175140000Y-80500000D03*
%TD*%
D15*
%TO.P,J4,1,Pin_1*%
%TO.N,Net-(J4-Pin_1)*%
X227500000Y-26800000D03*
D16*
%TO.P,J4,2,Pin_2*%
%TO.N,Net-(J4-Pin_2)*%
X227500000Y-29340000D03*
%TO.P,J4,3,Pin_3*%
%TO.N,Net-(J4-Pin_3)*%
X227500000Y-31880000D03*
%TO.P,J4,4,Pin_4*%
%TO.N,Net-(J4-Pin_4)*%
X227500000Y-34420000D03*
%TO.P,J4,5,Pin_5*%
%TO.N,Net-(J4-Pin_5)*%
X227500000Y-36960000D03*
%TO.P,J4,6,Pin_6*%
%TO.N,Net-(J4-Pin_6)*%
X227500000Y-39500000D03*
%TO.P,J4,7,Pin_7*%
%TO.N,Net-(J4-Pin_7)*%
X227500000Y-42040000D03*
%TO.P,J4,8,Pin_8*%
%TO.N,Net-(J4-Pin_8)*%
X227500000Y-44580000D03*
%TO.P,J4,9,Pin_9*%
%TO.N,Net-(J4-Pin_9)*%
X227500000Y-47120000D03*
%TO.P,J4,10,Pin_10*%
%TO.N,Net-(J4-Pin_10)*%
X227500000Y-49660000D03*
%TO.P,J4,11,Pin_11*%
%TO.N,Net-(J4-Pin_11)*%
X227500000Y-52200000D03*
%TO.P,J4,12,Pin_12*%
%TO.N,Net-(J4-Pin_12)*%
X227500000Y-54740000D03*
%TO.P,J4,13,Pin_13*%
%TO.N,Net-(J4-Pin_13)*%
X227500000Y-57280000D03*
%TD*%
D13*
%TO.P,TP9,1,1*%
%TO.N,Net-(R22-Pad1)*%
X146500000Y-35500000D03*
%TD*%
%TO.P,TP23,1,1*%
%TO.N,Net-(R11-Pad2)*%
X64070000Y-73500000D03*
%TD*%
%TO.P,TP25,1,1*%
%TO.N,Net-(R12-Pad2)*%
X39070000Y-73000000D03*
%TD*%
%TO.P,TP15,1,1*%
%TO.N,Net-(R19-Pad1)*%
X173070000Y-73500000D03*
%TD*%
%TO.P,TP10,1,1*%
%TO.N,Net-(J4-Pin_5)*%
X146500000Y-26500000D03*
%TD*%
%TO.P,TP6,1,1*%
%TO.N,Net-(J4-Pin_3)*%
X92000000Y-26000000D03*
%TD*%
%TO.P,TP28,1,1*%
%TO.N,Net-(R12-Pad2)*%
X31000000Y-57000000D03*
%TD*%
D12*
%TO.P,R9,1*%
%TO.N,Net-(R18-Pad1)*%
X143500000Y-80500000D03*
D14*
%TO.P,R9,2*%
%TO.N,Net-(R10-Pad1)*%
X120640000Y-80500000D03*
%TD*%
D13*
%TO.P,TP16,1,1*%
%TO.N,Net-(J4-Pin_8)*%
X173070000Y-63500000D03*
%TD*%
%TO.P,TP19,1,1*%
%TO.N,Net-(R10-Pad1)*%
X118570000Y-73000000D03*
%TD*%
D11*
%TO.P,J3,1,Pin_1*%
%TO.N,GND*%
X23900000Y-46250000D03*
D12*
%TO.P,J3,2,Pin_2*%
%TO.N,Net-(J3-Pin_2)*%
X23900000Y-42750000D03*
%TD*%
D13*
%TO.P,TP5,1,1*%
%TO.N,Net-(R2-Pad2)*%
X92000000Y-36000000D03*
%TD*%
%TO.P,TP24,1,1*%
%TO.N,Net-(J4-Pin_12)*%
X64070000Y-64500000D03*
%TD*%
D12*
%TO.P,R8,1*%
%TO.N,Net-(R19-Pad1)*%
X171070000Y-80500000D03*
D14*
%TO.P,R8,2*%
%TO.N,Net-(R18-Pad1)*%
X148210000Y-80500000D03*
%TD*%
D13*
%TO.P,TP21,1,1*%
%TO.N,Net-(R10-Pad2)*%
X91570000Y-73500000D03*
%TD*%
D12*
%TO.P,R1,1*%
%TO.N,Net-(J3-Pin_2)*%
X39140000Y-43500000D03*
D14*
%TO.P,R1,2*%
%TO.N,Net-(R1-Pad2)*%
X62000000Y-43500000D03*
%TD*%
D13*
%TO.P,TP22,1,1*%
%TO.N,Net-(J4-Pin_11)*%
X91570000Y-64500000D03*
%TD*%
D12*
%TO.P,R12,1*%
%TO.N,Net-(R11-Pad2)*%
X62000000Y-80500000D03*
D14*
%TO.P,R12,2*%
%TO.N,Net-(R12-Pad2)*%
X39140000Y-80500000D03*
%TD*%
D12*
%TO.P,R4,1*%
%TO.N,Net-(R23-Pad1)*%
X121570000Y-43500000D03*
D14*
%TO.P,R4,2*%
%TO.N,Net-(R22-Pad1)*%
X144430000Y-43500000D03*
%TD*%
D13*
%TO.P,TP27,1,1*%
%TO.N,GND*%
X20000000Y-57000000D03*
%TD*%
%TO.P,TP1,1,1*%
%TO.N,Net-(J3-Pin_2)*%
X39500000Y-35500000D03*
%TD*%
%TO.P,TP7,1,1*%
%TO.N,Net-(R23-Pad1)*%
X119000000Y-35500000D03*
%TD*%
%TO.P,TP18,1,1*%
%TO.N,Net-(J4-Pin_9)*%
X145570000Y-64500000D03*
%TD*%
%TO.P,TP12,1,1*%
%TO.N,Net-(J4-Pin_6)*%
X173500000Y-26500000D03*
%TD*%
D12*
%TO.P,R6,1*%
%TO.N,Net-(R21-Pad1)*%
X175640000Y-43500000D03*
D14*
%TO.P,R6,2*%
%TO.N,Net-(R20-Pad1)*%
X198500000Y-43500000D03*
%TD*%
D12*
%TO.P,R5,1*%
%TO.N,Net-(R22-Pad1)*%
X148640000Y-43500000D03*
D14*
%TO.P,R5,2*%
%TO.N,Net-(R21-Pad1)*%
X171500000Y-43500000D03*
%TD*%
D13*
%TO.P,TP17,1,1*%
%TO.N,Net-(R18-Pad1)*%
X145570000Y-73000000D03*
%TD*%
%TO.P,TP11,1,1*%
%TO.N,Net-(R21-Pad1)*%
X173500000Y-36000000D03*
%TD*%
%TO.P,TP20,1,1*%
%TO.N,Net-(J4-Pin_10)*%
X118570000Y-64500000D03*
%TD*%
D12*
%TO.P,R11,1*%
%TO.N,Net-(R10-Pad2)*%
X89500000Y-80500000D03*
D14*
%TO.P,R11,2*%
%TO.N,Net-(R11-Pad2)*%
X66640000Y-80500000D03*
%TD*%
D13*
%TO.P,TP14,1,1*%
%TO.N,Net-(J4-Pin_7)*%
X198570000Y-63500000D03*
%TD*%
D12*
%TO.P,R10,1*%
%TO.N,Net-(R10-Pad1)*%
X116500000Y-80500000D03*
D14*
%TO.P,R10,2*%
%TO.N,Net-(R10-Pad2)*%
X93640000Y-80500000D03*
%TD*%
D17*
%TO.N,Net-(R20-Pad1)*%
X207000000Y-45500000D03*
X204000000Y-80500000D03*
X205000000Y-80500000D03*
X207000000Y-46500000D03*
X208000000Y-45500000D03*
X204000000Y-79500000D03*
X205000000Y-79500000D03*
X208000000Y-46500000D03*
%TD*%
D18*
%TO.N,Net-(R12-Pad2)*%
X31000000Y-34700000D02*
X26800000Y-30500000D01*
X31000000Y-57000000D02*
X31000000Y-34700000D01*
D19*
%TO.N,Net-(J4-Pin_8)*%
X173070000Y-63500000D02*
X180500000Y-63500000D01*
X187000000Y-70000000D02*
X187000000Y-90500000D01*
X213500000Y-54500000D02*
X223420000Y-44580000D01*
X201500000Y-90500000D02*
X213500000Y-78500000D01*
X223420000Y-44580000D02*
X227500000Y-44580000D01*
X180500000Y-63500000D02*
X187000000Y-70000000D01*
X213500000Y-78500000D02*
X213500000Y-54500000D01*
X187000000Y-90500000D02*
X201500000Y-90500000D01*
%TO.N,Net-(J4-Pin_10)*%
X123500000Y-64500000D02*
X118570000Y-64500000D01*
X218500000Y-55500000D02*
X218500000Y-80500000D01*
X138000000Y-95500000D02*
X132500000Y-90000000D01*
X132500000Y-73500000D02*
X123500000Y-64500000D01*
X218500000Y-80500000D02*
X204000000Y-95000000D01*
X227500000Y-49660000D02*
X224340000Y-49660000D01*
X204000000Y-95000000D02*
X204000000Y-95500000D01*
X132500000Y-90000000D02*
X132500000Y-73500000D01*
X224340000Y-49660000D02*
X218500000Y-55500000D01*
X204000000Y-95500000D02*
X138000000Y-95500000D01*
%TO.N,Net-(J4-Pin_9)*%
X223880000Y-47120000D02*
X227500000Y-47120000D01*
X159500000Y-71500000D02*
X159500000Y-92500000D01*
X145570000Y-64500000D02*
X152500000Y-64500000D01*
X160000000Y-93000000D02*
X202000000Y-93000000D01*
X216000000Y-79000000D02*
X216000000Y-55000000D01*
X216000000Y-55000000D02*
X223880000Y-47120000D01*
X202000000Y-93000000D02*
X216000000Y-79000000D01*
X159500000Y-92500000D02*
X160000000Y-93000000D01*
X152500000Y-64500000D02*
X159500000Y-71500000D01*
%TO.N,Net-(J4-Pin_12)*%
X207500000Y-99500000D02*
X207500000Y-100000000D01*
X224760000Y-54740000D02*
X224000000Y-55500000D01*
X78500000Y-94500000D02*
X78500000Y-76500000D01*
X207500000Y-100000000D02*
X82000000Y-100000000D01*
X225000000Y-57500000D02*
X225000000Y-82000000D01*
X78000000Y-95000000D02*
X78500000Y-94500000D01*
X224000000Y-56500000D02*
X225000000Y-57500000D01*
X227500000Y-54740000D02*
X224760000Y-54740000D01*
X225000000Y-82000000D02*
X207500000Y-99500000D01*
X66500000Y-64500000D02*
X64070000Y-64500000D01*
X224000000Y-55500000D02*
X224000000Y-56500000D01*
X78500000Y-76500000D02*
X66500000Y-64500000D01*
X82000000Y-100000000D02*
X78000000Y-96000000D01*
X78000000Y-96000000D02*
X78000000Y-95000000D01*
%TO.N,Net-(J4-Pin_13)*%
X51000000Y-95500000D02*
X57500000Y-102000000D01*
X51000000Y-75930000D02*
X51000000Y-95500000D01*
X51000000Y-75930000D02*
X39070000Y-64000000D01*
X208500000Y-102000000D02*
X227500000Y-83000000D01*
X57500000Y-102000000D02*
X208500000Y-102000000D01*
X227500000Y-83000000D02*
X227500000Y-57280000D01*
%TO.N,Net-(J4-Pin_11)*%
X97500000Y-64500000D02*
X105000000Y-72000000D01*
X205500000Y-98000000D02*
X222500000Y-81000000D01*
X222500000Y-81000000D02*
X222500000Y-58500000D01*
X91570000Y-64500000D02*
X97500000Y-64500000D01*
X105000000Y-72000000D02*
X105000000Y-98000000D01*
X221000000Y-57000000D02*
X221000000Y-55500000D01*
X221000000Y-55500000D02*
X224300000Y-52200000D01*
X105000000Y-98000000D02*
X205500000Y-98000000D01*
X224300000Y-52200000D02*
X227500000Y-52200000D01*
X222500000Y-58500000D02*
X221000000Y-57000000D01*
D18*
%TO.N,Net-(R20-Pad1)*%
X205000000Y-80000000D02*
X205000000Y-80000000D01*
X205000000Y-79500000D02*
X205000000Y-80000000D01*
X207000000Y-46500000D02*
X207500000Y-46000000D01*
X205000000Y-80500000D02*
X204500000Y-80500000D01*
X204500000Y-80500000D02*
X204500000Y-80500000D01*
X207500000Y-77500000D02*
X205500000Y-79500000D01*
X205000000Y-80000000D02*
X205000000Y-80500000D01*
X205500000Y-79500000D02*
X204000000Y-79500000D01*
X207500000Y-46000000D02*
X207500000Y-77500000D01*
%TD*%
M02*
