%TF.GenerationSoftware,KiCad,Pcbnew,8.0.4*%
%TF.CreationDate,2024-09-08T23:33:26-07:00*%
%TF.ProjectId,FakePack,46616b65-5061-4636-9b2e-6b696361645f,rev?*%
%TF.SameCoordinates,Original*%
%TF.FileFunction,Soldermask,Top*%
%TF.FilePolarity,Negative*%
%FSLAX46Y46*%
G04 Gerber Fmt 4.6, Leading zero omitted, Abs format (unit mm)*
G04 Created by KiCad (PCBNEW 8.0.4) date 2024-09-08 23:33:26*
%MOMM*%
%LPD*%
G01*
G04 APERTURE LIST*
G04 Aperture macros list*
%AMRoundRect*
0 Rectangle with rounded corners*
0 $1 Rounding radius*
0 $2 $3 $4 $5 $6 $7 $8 $9 X,Y pos of 4 corners*
0 Add a 4 corners polygon primitive as box body*
4,1,4,$2,$3,$4,$5,$6,$7,$8,$9,$2,$3,0*
0 Add four circle primitives for the rounded corners*
1,1,$1+$1,$2,$3*
1,1,$1+$1,$4,$5*
1,1,$1+$1,$6,$7*
1,1,$1+$1,$8,$9*
0 Add four rect primitives between the rounded corners*
20,1,$1+$1,$2,$3,$4,$5,0*
20,1,$1+$1,$4,$5,$6,$7,0*
20,1,$1+$1,$6,$7,$8,$9,0*
20,1,$1+$1,$8,$9,$2,$3,0*%
G04 Aperture macros list end*
%ADD10R,2.400000X2.400000*%
%ADD11C,2.400000*%
%ADD12C,2.800000*%
%ADD13RoundRect,0.250000X0.450000X-0.262500X0.450000X0.262500X-0.450000X0.262500X-0.450000X-0.262500X0*%
%ADD14RoundRect,0.250000X-0.312500X-0.625000X0.312500X-0.625000X0.312500X0.625000X-0.312500X0.625000X0*%
%ADD15O,2.400000X2.400000*%
%ADD16R,2.000000X2.000000*%
%ADD17C,2.000000*%
G04 APERTURE END LIST*
D10*
%TO.C,J3*%
X23900000Y-28500000D03*
D11*
X23900000Y-25000000D03*
%TD*%
D12*
%TO.C,TP3*%
X64500000Y-35500000D03*
%TD*%
D13*
%TO.C,R17*%
X118570000Y-69825000D03*
X118570000Y-68000000D03*
%TD*%
%TO.C,R15*%
X64070000Y-69412500D03*
X64070000Y-67587500D03*
%TD*%
D12*
%TO.C,TP8*%
X119000000Y-26000000D03*
%TD*%
D14*
%TO.C,R13*%
X24075000Y-57000000D03*
X27000000Y-57000000D03*
%TD*%
D12*
%TO.C,TP13*%
X198570000Y-73500000D03*
%TD*%
D11*
%TO.C,R3*%
X94140000Y-43500000D03*
D15*
X117000000Y-43500000D03*
%TD*%
D12*
%TO.C,TP26*%
X39070000Y-64000000D03*
%TD*%
D11*
%TO.C,R2*%
X66640000Y-43500000D03*
D15*
X89500000Y-43500000D03*
%TD*%
D12*
%TO.C,TP4*%
X64500000Y-26500000D03*
%TD*%
%TO.C,TP2*%
X39500000Y-26500000D03*
%TD*%
D11*
%TO.C,R7*%
X198000000Y-80500000D03*
D15*
X175140000Y-80500000D03*
%TD*%
D16*
%TO.C,J4*%
X227500000Y-26800000D03*
D17*
X227500000Y-29340000D03*
X227500000Y-31880000D03*
X227500000Y-34420000D03*
X227500000Y-36960000D03*
X227500000Y-39500000D03*
X227500000Y-42040000D03*
X227500000Y-44580000D03*
X227500000Y-47120000D03*
X227500000Y-49660000D03*
X227500000Y-52200000D03*
X227500000Y-54740000D03*
X227500000Y-57280000D03*
%TD*%
D12*
%TO.C,TP9*%
X146500000Y-35500000D03*
%TD*%
%TO.C,TP23*%
X64070000Y-73500000D03*
%TD*%
%TO.C,TP25*%
X39070000Y-73000000D03*
%TD*%
D13*
%TO.C,R21*%
X173500000Y-31825000D03*
X173500000Y-30000000D03*
%TD*%
%TO.C,R14*%
X39070000Y-69325000D03*
X39070000Y-67500000D03*
%TD*%
D12*
%TO.C,TP15*%
X173070000Y-73500000D03*
%TD*%
%TO.C,TP10*%
X146500000Y-26500000D03*
%TD*%
D13*
%TO.C,R19*%
X173070000Y-69825000D03*
X173070000Y-68000000D03*
%TD*%
%TO.C,R18*%
X145570000Y-69825000D03*
X145570000Y-68000000D03*
%TD*%
D12*
%TO.C,TP6*%
X92000000Y-26000000D03*
%TD*%
%TO.C,TP28*%
X31000000Y-57000000D03*
%TD*%
D13*
%TO.C,R25*%
X64500000Y-31912500D03*
X64500000Y-30087500D03*
%TD*%
%TO.C,R23*%
X119000000Y-31825000D03*
X119000000Y-30000000D03*
%TD*%
%TO.C,R20*%
X198570000Y-69825000D03*
X198570000Y-68000000D03*
%TD*%
D11*
%TO.C,R9*%
X143500000Y-80500000D03*
D15*
X120640000Y-80500000D03*
%TD*%
D12*
%TO.C,TP16*%
X173070000Y-63500000D03*
%TD*%
%TO.C,TP19*%
X118570000Y-73000000D03*
%TD*%
D10*
%TO.C,J3*%
X23900000Y-46250000D03*
D11*
X23900000Y-42750000D03*
%TD*%
D13*
%TO.C,R22*%
X146500000Y-31912500D03*
X146500000Y-30087500D03*
%TD*%
%TO.C,R24*%
X92000000Y-31825000D03*
X92000000Y-30000000D03*
%TD*%
D12*
%TO.C,TP5*%
X92000000Y-36000000D03*
%TD*%
%TO.C,TP24*%
X64070000Y-64500000D03*
%TD*%
D11*
%TO.C,R8*%
X171070000Y-80500000D03*
D15*
X148210000Y-80500000D03*
%TD*%
D12*
%TO.C,TP21*%
X91570000Y-73500000D03*
%TD*%
D11*
%TO.C,R1*%
X39140000Y-43500000D03*
D15*
X62000000Y-43500000D03*
%TD*%
D12*
%TO.C,TP22*%
X91570000Y-64500000D03*
%TD*%
D11*
%TO.C,R12*%
X62000000Y-80500000D03*
D15*
X39140000Y-80500000D03*
%TD*%
D13*
%TO.C,R16*%
X91570000Y-69825000D03*
X91570000Y-68000000D03*
%TD*%
D11*
%TO.C,R4*%
X121570000Y-43500000D03*
D15*
X144430000Y-43500000D03*
%TD*%
D12*
%TO.C,TP27*%
X20000000Y-57000000D03*
%TD*%
%TO.C,TP1*%
X39500000Y-35500000D03*
%TD*%
%TO.C,TP7*%
X119000000Y-35500000D03*
%TD*%
%TO.C,TP18*%
X145570000Y-64500000D03*
%TD*%
%TO.C,TP12*%
X173500000Y-26500000D03*
%TD*%
D11*
%TO.C,R6*%
X175640000Y-43500000D03*
D15*
X198500000Y-43500000D03*
%TD*%
D13*
%TO.C,R26*%
X39500000Y-31825000D03*
X39500000Y-30000000D03*
%TD*%
D11*
%TO.C,R5*%
X148640000Y-43500000D03*
D15*
X171500000Y-43500000D03*
%TD*%
D12*
%TO.C,TP17*%
X145570000Y-73000000D03*
%TD*%
%TO.C,TP11*%
X173500000Y-36000000D03*
%TD*%
%TO.C,TP20*%
X118570000Y-64500000D03*
%TD*%
D11*
%TO.C,R11*%
X89500000Y-80500000D03*
D15*
X66640000Y-80500000D03*
%TD*%
D12*
%TO.C,TP14*%
X198570000Y-63500000D03*
%TD*%
D11*
%TO.C,R10*%
X116500000Y-80500000D03*
D15*
X93640000Y-80500000D03*
%TD*%
M02*
