M48
; DRILL file {KiCad 8.0.4} date 2024-09-08T23:33:26-0700
; FORMAT={-:-/ absolute / inch / decimal}
; #@! TF.CreationDate,2024-09-08T23:33:26-07:00
; #@! TF.GenerationSoftware,Kicad,Pcbnew,8.0.4
; #@! TF.FileFunction,Plated,1,2,PTH
FMAT,2
INCH
; #@! TA.AperFunction,Plated,PTH,ViaDrill
T1C0.0157
; #@! TA.AperFunction,Plated,PTH,ComponentDrill
T2C0.0472
; #@! TA.AperFunction,Plated,PTH,ComponentDrill
T3C0.0630
%
G90
G05
T1
X8.0315Y-3.1299
X8.0315Y-3.1693
X8.0709Y-3.1299
X8.0709Y-3.1693
X8.1496Y-1.7913
X8.1496Y-1.8307
X8.189Y-1.7913
X8.189Y-1.8307
T2
X0.9409Y-0.9843
X0.9409Y-1.122
X0.9409Y-1.6831
X0.9409Y-1.8209
X1.5409Y-1.7126
X1.5409Y-3.1693
X2.4409Y-1.7126
X2.4409Y-3.1693
X2.6236Y-1.7126
X2.6236Y-3.1693
X3.5236Y-1.7126
X3.5236Y-3.1693
X3.6866Y-3.1693
X3.7063Y-1.7126
X4.5866Y-3.1693
X4.6063Y-1.7126
X4.7496Y-3.1693
X4.7862Y-1.7126
X5.6496Y-3.1693
X5.6862Y-1.7126
X5.835Y-3.1693
X5.852Y-1.7126
X6.735Y-3.1693
X6.752Y-1.7126
X6.8953Y-3.1693
X6.915Y-1.7126
X7.7953Y-3.1693
X7.815Y-1.7126
X8.9567Y-1.0551
X8.9567Y-1.1551
X8.9567Y-1.2551
X8.9567Y-1.3551
X8.9567Y-1.4551
X8.9567Y-1.5551
X8.9567Y-1.6551
X8.9567Y-1.7551
X8.9567Y-1.8551
X8.9567Y-1.9551
X8.9567Y-2.0551
X8.9567Y-2.1551
X8.9567Y-2.2551
T3
X0.7874Y-2.2441
X1.2205Y-2.2441
X1.5382Y-2.5197
X1.5382Y-2.874
X1.5551Y-1.0433
X1.5551Y-1.3976
X2.5224Y-2.5394
X2.5224Y-2.8937
X2.5394Y-1.0433
X2.5394Y-1.3976
X3.6051Y-2.5394
X3.6051Y-2.8937
X3.622Y-1.0236
X3.622Y-1.4173
X4.6681Y-2.5394
X4.6681Y-2.874
X4.685Y-1.0236
X4.685Y-1.3976
X5.7311Y-2.5394
X5.7311Y-2.874
X5.7677Y-1.0433
X5.7677Y-1.3976
X6.8138Y-2.5
X6.8138Y-2.8937
X6.8307Y-1.0433
X6.8307Y-1.4173
X7.8177Y-2.5
X7.8177Y-2.8937
M30
